<svg width="200" height="176" viewBox="0 0 200 176" fill="none" xmlns="http://www.w3.org/2000/svg">
<path d="M68.3195 89.7392C76.0331 99.4783 79.8898 111.304 79.8898 125.217C79.8898 139.13 76.0331 151.188 68.3195 161.391C60.6061 171.13 51.2397 176 40.2204 176C29.2011 176 19.6511 171.13 11.5702 161.391C3.85675 151.188 0 139.13 0 125.217C0 102.493 7.89715 78.6087 23.6915 53.5652C39.8531 28.5217 62.6263 10.6667 92.011 0L96.9697 14.6087C80.4408 21.5652 66.2993 30.3768 54.5454 41.0434C43.1589 51.2464 35.8127 59.8261 32.5069 66.7826L27.5482 77.913C30.854 76.058 35.078 75.1304 40.2204 75.1304C51.2397 75.1304 60.6061 80 68.3195 89.7392ZM171.35 89.7392C179.063 99.4783 182.92 111.304 182.92 125.217C182.92 139.13 179.063 151.188 171.35 161.391C163.636 171.13 154.27 176 143.251 176C132.231 176 122.681 171.13 114.601 161.391C106.887 151.188 103.03 139.13 103.03 125.217C103.03 102.493 110.927 78.6087 126.722 53.5652C142.883 28.5217 165.657 10.6667 195.041 0L200 14.6087C183.471 21.5652 169.33 30.3768 157.576 41.0434C146.189 51.2464 138.843 59.8261 135.537 66.7826L130.578 77.913C133.884 76.058 138.108 75.1304 143.251 75.1304C154.27 75.1304 163.636 80 171.35 89.7392Z" fill="#00A6EF" fill-opacity="0.05"/>
</svg>
