<svg width="18" height="18" viewBox="0 0 30 30" fill="none" xmlns="http://www.w3.org/2000/svg">
<path d="M29.8423 14.8941C29.2617 14.0956 28.5709 13.3849 27.791 12.7834C28.4801 12.0231 28.9691 11.1005 29.2133 10.1002C29.2335 9.96684 29.2145 9.83038 29.1586 9.70778C29.1026 9.58517 29.0123 9.4818 28.8987 9.41048C28.1416 8.90338 27.3237 8.49544 26.4645 8.19649C26.8097 7.20548 26.9014 6.14262 26.7312 5.10634C26.7001 4.97256 26.6302 4.8512 26.5303 4.7578C26.4304 4.6644 26.3051 4.60322 26.1705 4.58212C24.9233 4.33008 23.6376 4.34418 22.3961 4.6235C22.32 3.48497 21.9499 2.38634 21.3226 1.43678C21.2379 1.32832 21.1229 1.24798 20.9925 1.20617C20.862 1.16436 20.7222 1.163 20.591 1.20226C19.5352 1.46895 18.5303 1.90941 17.6166 2.50592C17.1074 1.51697 16.3477 0.681635 15.4148 0.0848437C15.2958 0.0190652 15.1601 -0.00950065 15.0249 0.00278268C14.8898 0.015066 14.7613 0.0676429 14.6558 0.15382C13.8216 0.798838 13.0926 1.57152 12.4951 2.44384C11.6659 1.65045 10.6413 1.09551 9.52758 0.836688C9.39393 0.817637 9.25769 0.838911 9.13601 0.897829C9.01434 0.956747 8.91266 1.05067 8.84381 1.16778C8.26857 2.06831 7.83925 3.05555 7.572 4.09238C6.62143 3.78895 5.61081 3.72968 4.63179 3.91994C4.49599 3.95095 4.37281 4.02305 4.27873 4.12659C4.18464 4.23013 4.12413 4.36018 4.10529 4.49934C3.96103 5.42337 3.93575 6.36233 4.03008 7.2929C2.92411 7.39792 1.86515 7.79525 0.959957 8.4448C0.856043 8.53274 0.780404 8.64987 0.742659 8.7813C0.704915 8.91272 0.70677 9.0525 0.747988 9.18285C1.06989 10.4151 1.64275 11.5662 2.43006 12.5627C1.44945 13.1345 0.633922 13.9549 0.0642198 14.9424C0.00688667 15.0663 -0.0126733 15.2045 0.00802273 15.3396C0.0287188 15.4747 0.0887376 15.6005 0.18046 15.7011C0.780769 16.4055 1.47047 17.0271 2.23177 17.5497C0.864229 19.7087 0.912093 21.0951 0.91893 21.2744C0.922593 21.4118 0.966858 21.545 1.04605 21.6568C1.12524 21.7687 1.23574 21.8541 1.36338 21.9021C2.05557 22.1757 2.77228 22.3812 3.50358 22.516C3.26699 23.6195 3.3236 24.7664 3.66768 25.8407C3.71942 25.9677 3.80758 26.0763 3.92087 26.1525C4.03417 26.2287 4.16743 26.269 4.30358 26.2683H4.44718C5.47025 26.2891 6.49017 26.1471 7.46943 25.8476C7.59351 26.9784 8.01097 28.0561 8.6797 28.9722C8.74454 29.0467 8.82452 29.1062 8.91419 29.1466C9.00387 29.1871 9.10113 29.2076 9.19937 29.2068C9.27357 29.2059 9.34726 29.1943 9.41817 29.1723C10.3879 28.8711 11.3091 28.4296 12.1532 27.8617C12.6868 28.7212 13.4248 29.4325 14.3003 29.931C14.3899 29.9748 14.4879 29.9984 14.5875 30C14.7593 30.0013 14.9253 29.9372 15.0524 29.8206C15.878 29.1227 16.5848 28.2932 17.1448 27.3651C18.0324 28.1859 19.1283 28.7422 20.3106 28.9722H20.379C20.5031 28.9738 20.6254 28.9413 20.7326 28.8781C20.8398 28.8149 20.9279 28.7234 20.9875 28.6136C21.4766 27.7492 21.8448 26.8207 22.0816 25.8545C22.6827 25.9949 23.2971 26.0689 23.9141 26.0752C24.3301 26.0895 24.7457 26.0359 25.1448 25.9166C25.2747 25.8759 25.3897 25.7971 25.4749 25.6902C25.5602 25.5833 25.6119 25.4532 25.6235 25.3165C25.7353 24.3337 25.71 23.34 25.5483 22.3643C26.5239 22.2746 27.4629 21.9454 28.2833 21.4055C28.3894 21.3247 28.4698 21.2145 28.5147 21.0883C28.5597 20.9621 28.5672 20.8255 28.5363 20.695C28.3051 19.7031 27.932 18.7505 27.4286 17.867C28.4261 17.3677 29.2788 16.6169 29.9039 15.6873C29.9761 15.5649 30.0089 15.4229 29.9979 15.2809C29.9869 15.1388 29.9325 15.0037 29.8423 14.8941ZM27.668 10.3003C27.3796 10.943 26.997 11.5383 26.5329 12.0661C25.9735 11.8138 25.3563 11.7208 24.7483 11.7971V11.7281C24.6662 11.466 24.5773 11.2108 24.4748 10.9556C24.3725 10.6918 24.2561 10.4339 24.126 10.183C24.0508 10.0244 23.9688 9.87262 23.8867 9.72087L23.9346 9.38289C24.1411 9.32029 24.3549 9.2855 24.5705 9.27942C24.8181 9.27589 25.0654 9.29668 25.309 9.3415C25.5402 9.38449 25.7686 9.44209 25.9927 9.51394C26.5763 9.71769 27.1376 9.98117 27.668 10.3003ZM17.6986 4.23723C17.8686 4.05996 18.054 3.89837 18.2525 3.7544C18.9167 3.28759 19.6508 2.93128 20.4268 2.69906C20.7677 3.49009 20.969 4.3351 21.0217 5.19601C20.7119 5.39324 20.4445 5.65126 20.2354 5.95475C19.7868 5.68818 19.3181 5.45755 18.8337 5.26498C18.5564 5.14719 18.2734 5.04359 17.9858 4.95459C17.767 4.88561 17.5413 4.83043 17.302 4.77525C17.4127 4.58075 17.5458 4.40016 17.6986 4.23723ZM13.2062 4.14067C13.2952 3.90141 13.4051 3.67059 13.5345 3.4509C13.9601 2.75383 14.4933 2.12979 15.114 1.60233C15.68 2.13716 16.1558 2.76155 16.5225 3.4509C16.2462 3.76666 16.0306 4.13156 15.8866 4.52693H15.5721C15.1964 4.50283 14.8196 4.50283 14.4439 4.52693C14.1567 4.52693 13.8763 4.52693 13.596 4.60281C13.4182 4.60281 13.2473 4.65109 13.0695 4.68558C13.0957 4.49954 13.1415 4.31687 13.2062 4.14067ZM8.89167 4.53383C9.06314 3.77359 9.35154 3.04512 9.74638 2.37487C10.5157 2.70896 11.2215 3.17579 11.8319 3.7544C11.6873 4.15889 11.6178 4.58678 11.6267 5.01667C11.3054 5.12703 10.9977 5.25119 10.69 5.38914C10.3823 5.52709 10.1772 5.63746 9.931 5.77541C9.69602 5.91114 9.46782 6.05847 9.24723 6.21686L8.89167 6.20996C8.88774 6.16637 8.88774 6.1225 8.89167 6.07891C8.82509 5.81784 8.79971 5.54782 8.81646 5.27878C8.81684 5.02855 8.84204 4.779 8.89167 4.53383ZM5.47283 5.23739C6.12566 5.23832 6.77499 5.33356 7.40106 5.5202C7.38973 6.14661 7.57129 6.76115 7.92072 7.2791L7.84551 7.34808C7.66089 7.52742 7.47627 7.72055 7.30533 7.92058C7.13439 8.12061 6.94293 8.33444 6.77199 8.56206L6.47797 8.96903L6.1566 9.06559C6.01561 8.91152 5.89808 8.73718 5.80788 8.54827C5.70247 8.32678 5.61778 8.09586 5.55488 7.8585C5.49355 7.63241 5.45011 7.40177 5.42496 7.16874C5.37028 6.52515 5.38633 5.87743 5.47283 5.23739ZM2.26595 9.28632C2.92506 8.97306 3.62876 8.76591 4.35145 8.67243C4.56587 9.39823 5.02243 10.0269 5.64377 10.452C5.42315 10.9264 5.24023 11.4176 5.09676 11.9212C5.02154 11.9971 4.94633 12.073 4.86427 12.1419L4.61128 12.1006C4.36738 12.0541 4.12067 12.0242 3.87281 12.0109C3.11246 11.2583 2.55879 10.3195 2.26595 9.28632ZM1.58902 15.1769C2.14308 14.5183 2.80726 13.9627 3.55144 13.5353L3.72922 13.4318C3.95891 13.4306 4.18809 13.4537 4.41299 13.5008L4.7959 13.5629C4.7959 13.687 4.7959 13.8112 4.75487 13.9353V14.1837C4.75487 14.4389 4.75487 14.6941 4.75487 14.9424C4.75487 15.1907 4.75487 15.439 4.75487 15.6873C4.75487 15.9357 4.80274 16.1978 4.84376 16.453C4.88479 16.7082 4.91898 16.8806 4.96684 17.0945C4.75703 17.0969 4.54781 17.0714 4.34461 17.0186C4.10974 16.9509 3.881 16.8632 3.66084 16.7565C3.45201 16.6476 3.24889 16.5278 3.05229 16.3978C2.52089 16.0472 2.03008 15.6377 1.58902 15.1769ZM3.76341 21.1365C3.27967 21.0535 2.80386 20.9288 2.34117 20.764C2.5454 19.8566 2.91147 18.9941 3.42152 18.2188C3.874 18.4025 4.35609 18.5007 4.84376 18.5085H5.08308H5.3224C5.39761 18.7016 5.47283 18.8948 5.56172 19.0879C5.65061 19.281 5.77369 19.5431 5.88993 19.7777L6.11557 20.1777C6.11557 20.4329 6.16343 20.695 6.18395 20.9641C5.86731 21.1304 5.52093 21.2312 5.16513 21.2607C4.92386 21.2785 4.68161 21.2785 4.44034 21.2607C4.24888 21.2055 4.0164 21.1779 3.76341 21.1365ZM7.9891 24.0611C7.7735 24.1994 7.54437 24.315 7.30533 24.406C6.50865 24.692 5.66888 24.8367 4.82325 24.8336C4.72448 24.0976 4.74063 23.3505 4.87111 22.6195C5.7812 22.6628 6.67427 22.3601 7.3737 21.7711L7.50362 21.9159L7.83183 22.247C7.90021 22.3712 7.96175 22.4884 8.02328 22.6195C8.18739 22.9299 8.34466 23.261 8.50192 23.6059C8.35317 23.7813 8.18051 23.9346 7.9891 24.0611ZM12.4473 25.5234C12.3179 25.7484 12.1592 25.9548 11.9755 26.1373C11.8044 26.3065 11.6216 26.4632 11.4285 26.6063C10.8294 27.0235 10.1789 27.3597 9.49339 27.6065C9.13293 26.8461 8.90179 26.03 8.80962 25.1923C9.31259 24.8827 9.71256 24.4288 9.95835 23.8887C9.95835 23.8887 9.95835 23.8404 9.95835 23.8197C10.1316 23.9162 10.3025 24.0059 10.4712 24.0887C10.7242 24.2128 10.984 24.3301 11.2438 24.4267C11.5146 24.5353 11.7907 24.6297 12.0712 24.7095L12.5635 25.2268C12.531 25.328 12.4922 25.4271 12.4473 25.5234ZM16.3516 25.6683C16.2821 25.9074 16.1881 26.1385 16.0712 26.358C15.6769 27.1054 15.1562 27.7777 14.5328 28.3445C14.0259 27.9332 13.5834 27.4472 13.2199 26.9029C13.6813 26.4143 13.9718 25.787 14.0473 25.1164H14.314C14.5328 25.1164 14.7516 25.1164 14.9977 25.1164C15.2439 25.1164 15.5653 25.1164 15.8456 25.082L16.4747 25.013C16.4656 25.2453 16.4242 25.4752 16.3516 25.6958V25.6683ZM20.8234 24.7164C20.8076 24.9483 20.7756 25.1788 20.7277 25.4061C20.584 26.0882 20.3542 26.7489 20.0439 27.372C19.2074 27.0528 18.434 26.5856 17.7601 25.9924C17.8746 25.5776 17.9094 25.1444 17.8627 24.7164C18.1294 24.6405 18.3824 24.5508 18.6422 24.4543C18.902 24.3577 19.1619 24.2335 19.4217 24.1094C19.6815 23.9852 19.9414 23.8473 20.1944 23.6955L20.4542 23.53H20.714C20.7665 23.6607 20.8032 23.7974 20.8234 23.9369C20.8568 24.2049 20.8568 24.476 20.8234 24.744V24.7164ZM21.4115 10.7348L14.5191 19.3707C14.3927 19.5291 14.235 19.6594 14.0561 19.7532C13.8772 19.847 13.681 19.9023 13.4798 19.9156H13.3909C13.0163 19.9161 12.6561 19.7702 12.3857 19.5086L7.7908 15.039C7.53267 14.766 7.38908 14.403 7.39005 14.0258C7.39101 13.6486 7.53645 13.2863 7.79597 13.0147C8.05549 12.7431 8.40902 12.5832 8.78268 12.5684C9.15634 12.5536 9.52122 12.685 9.80108 12.9352L13.261 16.3012L19.1482 8.96903C19.3964 8.69307 19.7396 8.5231 20.1078 8.4938C20.476 8.46451 20.8414 8.5781 21.1294 8.8114C21.4174 9.04469 21.6063 9.38008 21.6574 9.74909C21.7086 10.1181 21.6182 10.4929 21.4046 10.7969L21.4115 10.7348ZM21.5756 6.51346L21.767 6.36861C21.9792 6.22604 22.2091 6.1124 22.4508 6.03062C23.4015 5.75459 24.4012 5.69568 25.3773 5.85818C25.3648 6.5375 25.2543 7.21135 25.0491 7.8585C24.309 7.74862 23.5539 7.89707 22.9089 8.27926C22.7448 8.07233 22.5739 7.8792 22.3961 7.68606C22.2183 7.49293 21.9722 7.25151 21.7465 7.05148C21.6781 6.89973 21.6234 6.72039 21.5756 6.54105V6.51346ZM24.2696 24.6129C23.5791 24.6467 22.8874 24.5746 22.2183 24.3991C22.2348 23.7407 22.0563 23.0922 21.7055 22.5367L21.9243 22.3298C22.1363 22.1298 22.3346 21.9228 22.5329 21.7021C22.7311 21.4814 22.9158 21.2607 23.0867 21.0123L23.2098 20.8468L23.3465 20.7985C23.4164 20.8689 23.4805 20.9451 23.538 21.0261C23.6916 21.2392 23.8179 21.471 23.9141 21.7159C23.9983 21.9407 24.0669 22.1712 24.1192 22.4057C24.2729 23.1398 24.3235 23.8921 24.2696 24.6405V24.6129ZM25.138 20.9572C24.9088 20.3916 24.5304 19.9002 24.044 19.5362C24.126 19.3845 24.2013 19.2327 24.2696 19.081C24.3859 18.8189 24.4953 18.5568 24.591 18.2878C24.6867 18.0188 24.7756 17.7359 24.8508 17.4531C24.8508 17.3704 24.8508 17.2945 24.9055 17.2117C24.9863 17.2519 25.064 17.298 25.138 17.3497C25.3554 17.4958 25.553 17.6697 25.7261 17.867C25.8815 18.0533 26.0254 18.2491 26.1568 18.4533C26.5342 19.0874 26.8262 19.7694 27.0252 20.4812C26.4225 20.7371 25.7873 20.9066 25.138 20.9847V20.9572ZM26.5603 16.6806C26.1693 16.2682 25.6829 15.9601 25.1448 15.7839C25.1448 15.6598 25.1448 15.5425 25.1448 15.4183C25.1448 15.2942 25.1448 15.2459 25.1448 15.1631C25.1448 14.8734 25.1448 14.5906 25.1448 14.3009C25.1448 14.0112 25.1038 13.7353 25.0696 13.4525V13.3077L25.1517 13.149H25.4047C25.6687 13.1961 25.9244 13.2821 26.1637 13.4042C26.3835 13.5073 26.594 13.6297 26.7927 13.7698C27.3851 14.198 27.9185 14.7037 28.3791 15.2735C27.8539 15.848 27.2396 16.3326 26.5603 16.7082V16.6806Z" fill="#2D2471"/>
</svg>
