<?xml version="1.0" encoding="utf-8"?>
<!-- Generator: Adobe Illustrator 21.0.2, SVG Export Plug-In . SVG Version: 6.00 Build 0)  -->
<svg version="1.1" id="Layer_1" xmlns="http://www.w3.org/2000/svg" xmlns:xlink="http://www.w3.org/1999/xlink" x="0px" y="0px"
	 viewBox="0 0 24 24" style="enable-background:new 0 0 24 24;" xml:space="preserve">
<g>
	<path d="M4.2,16.8C4.2,16.8,4.2,16.8,4.2,16.8L4.2,16.8L4.2,16.8z"/>
	<path d="M20.9,11.2c-0.5,0-0.9,0.1-1.2,0.3c0-1-0.2-2.2-1.4-2.2c-0.5,0-0.9,0.1-1.1,0.4c0-0.9,0.2-2.4-1.2-2.4
		c-1.2,0-1.5,0.9-1.6,1.7C14.1,9,14,9,13.8,8.9c0-0.1,0-0.2-0.1-0.3c-0.3-1.2-0.4-2.7-1.8-2.7c-1.4,0-1.5,1.5-1.8,2.7
		c0,0.1,0,0.2-0.1,0.2C9.9,8.9,9.8,9,9.7,9C9.5,8.2,9.2,7.3,8.1,7.3c-1.3,0-1.2,1.4-1.2,2.4C6.6,9.5,6.2,9.3,5.7,9.3
		c-1.2,0-1.4,1.1-1.4,2.1c-0.3-0.2-0.7-0.2-1.1-0.2c-2.4,0-2.2,2.3-2,4.5c0.2,1.7,1.2,2.5,2,2.9c0.7,0.3,1.2,0.5,1.7,0.7
		c0,0,0,0,0,0c1.6,0.8,4.5,1.3,7,1.3c2.3,0,5.5-0.4,7.2-1.2c0.5-0.2,1.2-0.5,1.9-0.8c0.8-0.4,1.8-1.2,2-2.9
		C23.1,13.5,23.3,11.2,20.9,11.2z M11.7,6.4c0-0.1,0.1-0.2,0.2-0.2c0.1,0,0.2,0.1,0.2,0.2c0,0.1-0.1,0.2-0.2,0.2l0.2,1.8L12,8.7
		l-0.1,0.1l-0.1-0.1l-0.2-0.3l0.2-1.8C11.8,6.6,11.7,6.5,11.7,6.4z M19.7,17C19.7,17,19.7,17,19.7,17c-0.2,0.4-0.8,0.8-1.8,1.1
		c-1.5,0.5-3.7,0.8-6,0.8c-2.2,0-4.2-0.4-5.6-0.8c-1.2-0.4-1.9-0.8-2.1-1.2c0,0,0,0,0-0.1c0,0,0,0,0-0.1v0h0c0,0,0-0.1,0.1-0.1
		l1.5-2.1l0.9-1.2l0,0l1.1-1.5L8.4,11l0.7-1c0.1-0.1,0.3-0.3,0.6-0.4c0,0,0.1,0,0.1,0c0,0.2-0.1,0.3-0.1,0.4c0,0,0,0,0,0
		c0,0.1,0,0.1,0,0.1s0,0.1,0,0.2c0,0.1,0.1,0.3,0.4,0.3c0.5,0,0.6-0.4,0.6-0.4l0.2-0.8c0.3,0,0.6-0.1,1.1-0.1c0.4,0,0.8,0,1.1,0.1
		l0.2,0.8c0,0,0.1,0.4,0.6,0.4c0.5,0,0.3-0.5,0.3-0.5S14,9.8,13.9,9.5c0.1,0,0.2,0.1,0.3,0.1c0.2,0.1,0.3,0.2,0.4,0.3l0.4,0.6
		l1.2,1.6l0.6,0.8l1.5,2.1l0.5,0.6l0.3,0.4l0.4,0.6l0,0C19.7,16.8,19.7,16.9,19.7,17z"/>
	<ellipse cx="11.9" cy="4.6" rx="1.1" ry="1.1"/>
	<ellipse cx="8.2" cy="5.9" rx="1.1" ry="1.1"/>
	<path d="M6.9,7.6C6.9,8.3,6.3,9,5.6,9C4.9,9,4.3,8.3,4.3,7.6c0-0.8,0.6-1.4,1.3-1.4C6.3,6.2,6.9,6.8,6.9,7.6z"/>
	<ellipse cx="2.5" cy="9" rx="1.6" ry="1.7"/>
	<ellipse cx="15.8" cy="5.9" rx="1.1" ry="1.1"/>
	<ellipse cx="18.4" cy="7.6" rx="1.3" ry="1.4"/>
	<ellipse cx="21.5" cy="9" rx="1.6" ry="1.7"/>
</g>
</svg>
