<?xml version="1.0" encoding="UTF-8" standalone="no"?>
<svg width="20px" height="18px" viewBox="0 0 20 18" version="1.1" xmlns="http://www.w3.org/2000/svg" xmlns:xlink="http://www.w3.org/1999/xlink">
    <!-- Generator: Sketch 3.7 (28169) - http://www.bohemiancoding.com/sketch -->
    <title>work</title>
    <desc>Created with Sketch.</desc>
    <defs></defs>
    <g id="Page-1" stroke="none" stroke-width="1" fill="none" fill-rule="evenodd">
        <g id="work">
            <g id="Group">
                <path d="M12.3,14.8 L12.7,14.8 C12.7,14.5 12.7,14.3 12.8,14 L12.3,14 L12.3,14.8 L12.3,14.8 Z" id="Shape"></path>
                <path d="M8.9,12.7 C8.7,12.7 8.6,12.8 8.4,12.9 L5.5,15.7 L5.5,13.4 C5.5,13 5.2,12.7 4.8,12.7 L3.1,12.7 C2.2,12.7 1.6,12 1.6,11.2 L1.6,3 C1.6,2.1 2.3,1.5 3.1,1.5 L16.5,1.5 C17.3,1.4 18,2.1 18,3 L18,4.4 L19,4.4 L19.4,4.4 L19.4,3 C19.4,1.4 18.1,0.1 16.5,0.1 L3.1,0.1 C1.5,0.1 0.2,1.4 0.2,3 L0.2,11.2 C0.2,12.8 1.5,14.1 3.1,14.1 L4.1,14.1 L4.1,17.3 C4.1,17.6 4.3,17.8 4.5,17.9 C4.6,17.9 4.7,18 4.8,18 C5,18 5.1,17.9 5.3,17.8 L9.2,14.1 L11.7,14.1 C11.8,13.6 11.9,13.2 12,12.8 L8.9,12.8 L8.9,12.7 Z" id="Shape" fill="#000000"></path>
                <g transform="translate(11.000000, 5.000000)" id="Shape" fill="#000000">
                    <path d="M6.7,3 L2.6,3 C2.9,3.9 3.5,4.6 4.2,4.9 C4.4,5 4.6,5.1 4.6,5.3 L4.7,5.3 C4.8,5.1 4.9,4.9 5.1,4.8 C5.9,4.6 6.4,3.9 6.7,3 L6.7,3 Z"></path>
                    <path d="M8.2,9.9 L8.2,9.9 C8.1,9.3 8,8.8 7.9,8.3 C7.8,7.8 7.5,7.3 7.3,6.9 C7,6.4 6.6,6 6.2,5.7 C6.6,5.4 7,5 7.3,4.5 C7.8,3.7 8.1,2.6 8.1,1.5 L8.2,1.5 C8.3,1.5 8.4,1.5 8.5,1.4 L8.5,1.4 C8.6,1.3 8.7,1.1 8.7,0.9 C8.7,0.7 8.6,0.5 8.5,0.4 C8.4,0.3 8.3,0.3 8.1,0.3 L7.2,0.3 L1.1,0.3 C0.8,0.3 0.5,0.6 0.5,0.9 C0.5,1.1 0.6,1.3 0.8,1.4 C0.9,1.5 1,1.5 1.1,1.5 L1.2,1.5 C1.2,3.3 2,5 3.2,5.8 C2.5,6.3 1.9,7.1 1.6,8.1 C1.5,8.5 1.4,8.9 1.3,9.4 L1.3,10.1 L1.2,10.1 C1.1,10.1 1,10.1 0.9,10.2 C0.7,10.3 0.6,10.5 0.6,10.7 C0.6,11 0.9,11.3 1.2,11.3 L8.2,11.3 C8.5,11.3 8.8,11 8.8,10.7 C8.8,10.5 8.7,10.3 8.5,10.2 C8.4,9.9 8.3,9.9 8.2,9.9 L8.2,9.9 Z M7,9.9 C7,9.6 7,9.3 6.9,9 L6.9,9 L2.4,9 L2.4,9.2 C2.4,9.4 2.3,9.7 2.3,9.9 L1.9,9.9 C1.9,9.7 1.9,9.4 2,9.2 C2.1,8.8 2.2,8.3 2.3,7.9 C2.7,7 3.3,6.2 4.1,5.9 C4.2,5.8 4.3,5.7 4.3,5.6 C4.3,5.5 4.2,5.3 4.1,5.3 C2.9,4.8 2,3.2 2,1.3 L7.4,1.3 L7.5,1.3 C7.5,1.7 7.4,2.1 7.4,2.5 C7.1,3.8 6.4,4.9 5.4,5.2 C5.3,5.3 5.2,5.4 5.2,5.5 C5.2,5.6 5.3,5.8 5.4,5.8 C6,6.1 6.6,6.6 7,7.4 C7.2,7.8 7.3,8.2 7.4,8.6 C7.5,9 7.5,9.3 7.5,9.7 L7,9.7 L7,9.9 Z"></path>
                </g>
            </g>
        </g>
        <text id="2" fill="#000000" font-family="Helvetica" font-size="9" font-weight="normal">
            <tspan x="5.7732" y="10.2237">2</tspan>
        </text>
    </g>
</svg>