<svg width="44" height="35" viewBox="0 0 44 35" fill="none" xmlns="http://www.w3.org/2000/svg">
<path d="M34.0421 9.62671L23.4668 18.0473L33.4255 19.7136L44.0007 11.2931L34.0421 9.62671Z" fill="#EFAC42"/>
<path d="M23.4668 18.0288L34.0421 9.60826V0L23.4668 8.43818V18.0288Z" fill="#F5C667"/>
<path d="M0 18.2972C0 20.6195 1.86842 20.8678 3.0642 20.8146C3.0642 20.8146 7.6792 20.655 8.70683 20.5309V18.5632H3.66211C3.13895 18.5632 2.54105 18.5809 2.54105 17.6768V15.7091L7.88472 15.5495V13.5818L2.54105 13.4045V11.4367C2.54105 10.9758 2.54105 10.4795 3.47526 10.4795H8.70683V8.494C7.54841 8.33445 2.87735 8.22804 2.87735 8.22804C1.62551 8.21031 0 8.65356 0 10.834V18.2972Z" fill="#1D5287"/>
<path d="M0 32.4764C0 34.7987 1.86842 35.0469 3.06421 34.9938C3.06421 34.9938 7.67921 34.8342 8.70684 34.7101V32.7423H3.66212C3.13896 32.7423 2.54105 32.7601 2.54105 31.856V29.8882L7.88473 29.7287V27.7609L2.54105 27.5837V25.6159C2.54105 25.155 2.54105 24.6586 3.47526 24.6586H8.70684V22.6732C7.54842 22.5136 2.87735 22.4072 2.87735 22.4072C1.62551 22.3895 0 22.8327 0 25.0132V32.4764ZM20.7395 34.9405H23.4673L24.4203 32.1573H28.755L29.6892 34.9405H32.3797L28.0823 22.3718H25.205L20.7395 34.9405ZM25.0742 30.0301L26.6624 25.545L28.1571 30.0301H25.0742Z" fill="#EFAC42"/>
<path d="M10.0918 34.9405H12.6329V29.9414L14.8563 30.1896L17.0423 34.9405H19.901L17.3973 29.9946C18.126 29.7819 19.5087 29.4096 19.5087 26.2895C19.5087 23.2936 17.9765 22.3718 15.9026 22.3718H10.1105V34.9405H10.0918ZM12.6329 28.0623V24.5168H15.641C16.4444 24.5168 16.9489 24.8713 16.9489 26.2895C16.9489 27.8141 16.5379 28.0445 15.641 28.0445H12.6329V28.0623Z" fill="#EFAC42"/>
<path d="M10.0918 20.7586H15.7158C18.9481 20.7586 20.3121 18.2235 20.3121 14.5362C20.3121 11.4162 19.5273 8.20752 15.7158 8.20752H10.0918V20.7586ZM12.6328 18.6136V10.3171H15.5289C16.9489 10.3171 17.7897 11.1504 17.7897 14.5186C17.7897 17.0359 17.1731 18.6313 15.5289 18.6313H12.6328V18.6136Z" fill="#1D5287"/>
</svg>
