<svg width="67" height="106" viewBox="0 0 67 106" fill="none" xmlns="http://www.w3.org/2000/svg">
<path d="M3.5 12.5V1H15" stroke="#EBC409"/>
<path d="M64.5 93.5V105H53" stroke="#EBC409"/>
<path d="M1 93.5V105H12.5" stroke="#EBC409"/>
<path d="M66.5 13V1.5H55" stroke="#EBC409"/>
<mask id="mask0" mask-type="alpha" maskUnits="userSpaceOnUse" x="3" y="2" width="62" height="102">
<rect x="4.74512" y="2.5" width="60" height="100" transform="rotate(1 4.74512 2.5)" fill="#C4C4C4"/>
</mask>
<g mask="url(#mask0)">
<line x1="1.37641" y1="93.0018" x2="64.7557" y2="123.914" stroke="#C4C4C4"/>
<line x1="1.64204" y1="89.5057" x2="65.0214" y2="120.418" stroke="#C4C4C4"/>
<line x1="1.49848" y1="86.0028" x2="64.8778" y2="116.915" stroke="#C4C4C4"/>
<line x1="-0.306693" y1="103.474" x2="63.0726" y2="134.387" stroke="#C4C4C4"/>
<line x1="-0.0410683" y1="99.9783" x2="63.3383" y2="130.891" stroke="#C4C4C4"/>
<line x1="0.0199668" y1="96.4783" x2="63.3993" y2="127.39" stroke="#C4C4C4"/>
<line x1="1.55952" y1="82.5037" x2="64.9388" y2="113.416" stroke="#C4C4C4"/>
<line x1="1.62055" y1="79.0037" x2="64.9999" y2="109.916" stroke="#C4C4C4"/>
<line x1="1.68208" y1="75.5047" x2="65.0614" y2="106.417" stroke="#C4C4C4"/>
<line x1="1.74311" y1="72.0047" x2="65.1224" y2="102.917" stroke="#C4C4C4"/>
<line x1="1.80415" y1="68.5057" x2="65.1835" y2="99.4178" stroke="#C4C4C4"/>
<line x1="1.86518" y1="65.0057" x2="65.2445" y2="95.9178" stroke="#C4C4C4"/>
<line x1="1.92622" y1="61.5067" x2="65.3055" y2="92.4188" stroke="#C4C4C4"/>
<line x1="1.98725" y1="58.0076" x2="65.3666" y2="88.9198" stroke="#C4C4C4"/>
<line x1="2.04829" y1="54.5076" x2="65.4276" y2="85.4198" stroke="#C4C4C4"/>
<line x1="2.10932" y1="51.0086" x2="65.4886" y2="81.9208" stroke="#C4C4C4"/>
<line x1="2.17036" y1="47.5086" x2="65.5497" y2="78.4208" stroke="#C4C4C4"/>
<line x1="2.23139" y1="44.0096" x2="65.6107" y2="74.9217" stroke="#C4C4C4"/>
<line x1="2.29292" y1="40.5096" x2="65.6722" y2="71.4217" stroke="#C4C4C4"/>
<line x1="2.35395" y1="37.0106" x2="65.7333" y2="67.9227" stroke="#C4C4C4"/>
<line x1="2.41499" y1="33.5106" x2="65.7943" y2="64.4227" stroke="#C4C4C4"/>
<line x1="2.47602" y1="30.0115" x2="65.8553" y2="60.9237" stroke="#C4C4C4"/>
<line x1="2.53706" y1="26.5115" x2="65.9164" y2="57.4237" stroke="#C4C4C4"/>
<line x1="2.59809" y1="23.0125" x2="65.9774" y2="53.9247" stroke="#C4C4C4"/>
<line x1="2.65913" y1="19.5135" x2="66.0385" y2="50.4257" stroke="#C4C4C4"/>
<line x1="2.72016" y1="16.0135" x2="66.0995" y2="46.9257" stroke="#C4C4C4"/>
<line x1="2.7812" y1="12.5145" x2="66.1605" y2="43.4266" stroke="#C4C4C4"/>
<line x1="2.84223" y1="9.01447" x2="66.2216" y2="39.9266" stroke="#C4C4C4"/>
<line x1="2.90376" y1="5.51545" x2="66.2831" y2="36.4276" stroke="#C4C4C4"/>
<line x1="2.96479" y1="2.01545" x2="66.3441" y2="32.9276" stroke="#C4C4C4"/>
<line x1="3.02583" y1="-1.48358" x2="66.4052" y2="29.4286" stroke="#C4C4C4"/>
<line x1="3.08686" y1="-4.98358" x2="66.4662" y2="25.9286" stroke="#C4C4C4"/>
<line x1="3.1479" y1="-8.4826" x2="66.5272" y2="22.4296" stroke="#C4C4C4"/>
<line x1="3.20893" y1="-11.9826" x2="66.5883" y2="18.9296" stroke="#C4C4C4"/>
<line x1="3.26997" y1="-15.4816" x2="66.6493" y2="15.4305" stroke="#C4C4C4"/>
<line x1="3.331" y1="-18.9806" x2="66.7103" y2="11.9315" stroke="#C4C4C4"/>
<line x1="3.39204" y1="-22.4806" x2="66.7714" y2="8.43151" stroke="#C4C4C4"/>
<line x1="3.45307" y1="-25.9797" x2="66.8324" y2="4.93249" stroke="#C4C4C4"/>
</g>
</svg>
