<svg width="123" height="40" viewBox="0 0 123 40" fill="none" xmlns="http://www.w3.org/2000/svg">
<path d="M46.9103 34.8931C42.3648 31.965 36.1959 31.4512 26.2473 34.2113C15.6413 36.7037 12.1051 38.3014 7.46105 35.0941C5.67692 33.5185 5.03726 30.9818 5.5149 27.3277C6.62273 21.3709 9.61654 15.6384 14.9344 9.27976C17.9026 5.972 20.656 3.13334 24.2917 1.99344C27.0781 1.27835 26.8176 3.4682 26.4804 3.78139C26.1247 3.78139 25.527 3.83743 25.0651 4.13886C24.6902 4.42959 23.6612 5.36839 23.6059 6.6312C23.5262 8.56437 25.5267 8.16201 26.3896 7.1006C27.3197 5.90451 28.6943 3.61403 27.613 1.4793C27.1598 0.719474 26.3768 0.194343 25.4045 0.0155326C22.0754 -0.17473 18.975 1.41227 16.1134 3.16678C9.85552 7.51396 4.84959 13.5376 2.01703 20.1311C0.384072 24.1094 -1.09283 29.8081 1.12084 34.4463C2.83351 37.6646 6.3888 39.3741 10.6306 39.0166C13.6056 38.704 17.2031 37.7425 19.6226 37.1619C22.0422 36.5803 34.4273 32.3231 38.4968 39.7328C38.4968 39.7328 39.85 37.1059 43.2318 37.0499C46.0121 36.7933 50.0232 37.8547 52.944 40C51.9709 38.5365 49.2119 36.3797 46.9103 34.8931V34.8931Z" fill="#E61A27"/>
<path d="M27.5102 10.0284C25.1938 8.50858 20.538 11.4141 16.809 16.3981C13.3989 20.8686 11.9264 26.0645 13.529 28.4672C15.9126 31.2944 20.338 27.1821 22.2198 24.9809L22.4626 24.7237C23.7424 23.3491 24.731 21.695 25.6881 20.1079C25.6881 20.1079 26.5676 18.6551 26.6096 18.5879C27.1532 18.4877 27.808 18.3312 28.5458 18.1188C28.5353 18.1521 25.7229 22.8794 26.0098 25.2257C26.0991 25.9416 26.031 28.5565 28.584 29.3498C31.9868 29.9201 34.7039 27.2824 37.1009 24.9356C37.1009 24.9356 37.5094 24.5448 37.7404 24.3218C37.682 24.5557 37.6058 24.868 37.6058 24.868C36.6096 28.3324 37.9524 29.0594 38.7924 29.3275C41.331 30.0657 44.3638 26.3775 44.3737 26.3775C44.2949 27.5393 44.0651 28.5002 45.2897 29.2715C46.4455 29.6853 47.6153 29.0543 48.5046 28.462C51.7075 26.2048 54.2878 22.6717 56.3718 19.6179H55.0424C55.0267 19.6179 51.7622 24.3497 49.6422 25.3781C49.6389 25.3781 49.253 25.5762 49.0308 25.4195C48.7555 25.1848 48.8641 24.6966 49.034 24.3509C49.0447 24.3285 57.2193 10.1505 57.2193 10.1505H53.3597C53.3597 10.1505 52.9381 10.8327 52.9037 10.8774C52.8778 10.8551 52.8159 10.7378 52.7732 10.6816C50.3819 7.37387 44.9668 12.4618 40.8899 18.3621C39.3203 20.6309 37.3219 23.1854 35.2498 25.0292C35.2498 25.0292 32.1799 27.8431 30.8684 25.8214C30.3889 24.9719 30.5364 23.73 30.8068 22.9145C32.334 18.5671 34.9654 14.6219 37.96 12.2414C38.8052 11.5826 39.7241 11.392 40.18 11.6714C40.6145 11.9289 40.6846 12.5653 40.4098 13.0013C39.7124 12.979 39.1535 13.1909 38.6994 13.6603C37.8046 14.5991 37.4937 15.5045 37.7782 16.3539C39.1602 18.3207 41.9166 14.4316 41.7833 12.0625C41.7357 11.213 41.2826 10.4086 40.6061 10.0171C39.5982 9.41393 38.0605 9.57014 37.0654 10.051C35.7331 10.5537 33.6244 12.308 32.3935 13.6716C30.844 15.3817 28.1862 17.2813 27.3552 17.0686C27.6269 16.342 29.8717 11.7491 27.5102 10.0284V10.0284ZM46.1183 16.8229C46.8691 15.7838 49.0544 13.001 49.5871 12.5317C51.3789 10.9554 52.095 11.649 52.157 12.1404C50.4848 15.1352 48.5112 18.5662 46.6556 21.6507C46.6594 21.6397 46.0749 22.5335 46.0749 22.5335C45.2554 23.7847 44.4302 24.8577 43.0841 25.6063C42.8922 25.6626 42.5758 25.685 42.3652 25.5279C42.1117 25.3603 42.0117 25.0808 42.0403 24.7902C42.1211 23.8294 43.0993 20.8909 46.1183 16.8229V16.8229ZM25.1214 18.622C25.1214 18.622 25.0877 18.7229 25.0712 18.7559C25.0669 18.7559 23.3883 21.4935 23.3883 21.4935C22.3753 22.8459 21.1105 24.545 19.5294 25.3604C19.0608 25.5168 18.4129 25.6177 18.0828 25.2045C17.383 24.3662 17.7436 23.2038 18.0367 22.2654L18.1405 21.93C18.9806 19.6505 20.3135 17.6386 21.6112 15.7723C21.6274 15.7613 21.6637 15.7502 21.6768 15.7502C21.68 15.7613 21.6852 15.7613 21.6874 15.7838C22.5016 17.348 24.0282 18.0741 25.17 18.4099C25.1768 18.4099 25.1843 18.421 25.1843 18.4435C25.1845 18.4767 25.1659 18.5218 25.1214 18.622V18.622ZM26.7116 15.3927C26.7041 15.415 25.964 17.1136 25.964 17.1136C25.857 17.2029 25.6878 17.1583 25.4939 17.1136L25.1616 17.0574C24.1182 16.7335 23.3312 16.0406 23.0885 15.2137C22.754 13.6044 24.1287 12.3416 24.7343 11.8837C25.3155 11.481 26.219 11.2688 26.7437 11.6824C27.0673 12.0625 27.1899 12.554 27.1899 13.0908C27.19 13.8168 26.9659 14.6326 26.7116 15.3927ZM75.505 20.5776C75.1327 19.7732 74.2493 19.259 73.3078 19.3148C70.2503 19.5944 67.2597 22.1087 65.6894 25.718C64.8654 27.5733 64.4157 29.1041 64.1208 31.5403C65.0717 30.4454 67.011 28.6463 69.2117 27.6628C69.2117 27.6628 69.5111 25.3273 71.0381 23.2486C71.6159 22.3878 72.7721 21.0022 74.0705 21.3708C75.2051 21.7509 74.8062 24.8913 73.2985 27.9303C72.1829 30.1657 70.4757 32.4013 68.7484 33.9431C67.2212 35.2394 64.9617 36.804 62.9849 35.5972C61.7398 34.8599 61.1047 33.3172 61.2388 31.3282C61.8337 25.6849 64.4027 20.8795 68.0789 15.4037C71.8695 10.319 76.048 5.10019 81.6769 2.3171C82.825 1.73608 83.8883 1.60201 84.8074 1.95963C84.8074 1.95963 79.5234 4.86518 77.0046 10.2406C76.3639 11.6042 75.4728 13.4476 76.3702 15.0794C76.8391 15.9285 77.6716 15.9957 78.3421 15.951C81.4295 15.2356 83.4242 12.3525 85.054 9.71535C85.9989 7.715 86.8387 5.72579 86.8387 3.51304C86.8387 3.2449 86.8248 2.88743 86.8022 2.61899C88.2772 1.83702 91.302 3.22245 91.302 3.22245C93.6656 4.00503 98.6984 7.86067 100.396 8.5979C101.224 7.63697 102.585 6.18435 103.351 5.45781L102.242 4.77601C100.466 3.692 98.5891 2.66373 96.7416 1.64691C92.5455 -0.643728 89.13 0.160689 87.3918 0.786601C86.7086 1.03229 86.0844 1.2447 86.0844 1.2447C84.7944 -0.163338 82.6786 -0.0295738 81.1197 0.350646C75.5135 1.95979 70.3085 5.88216 64.7281 12.6881C60.6254 18.0188 58.0805 22.6231 56.7241 27.1713C55.6786 30.2332 55.3608 34.7367 57.9127 37.4077C60.0824 39.6758 62.9594 39.1844 64.9909 38.369C69.3928 36.2009 73.349 31.5294 75.3204 26.154C75.7962 24.5561 76.3241 22.2988 75.505 20.5776V20.5776ZM85.6269 3.73674C85.0442 10.4196 79.8496 14.3424 78.5642 14.6549C77.7852 14.8111 76.4561 14.4649 77.6428 11.6603C79.3899 7.88266 82.3732 4.67568 85.5738 3.0328C85.6518 3.31224 85.6497 3.49059 85.6269 3.73674V3.73674ZM116.441 4.58575C113.647 6.1729 110.75 7.20071 107.244 6.84324C106.272 7.9387 105.326 9.0673 104.454 10.2293C109.375 11.481 114.593 8.69838 117.502 6.05013C120.581 3.37912 122.159 0.015625 122.159 0.015625C122.159 0.015625 119.852 2.65273 116.441 4.58575ZM63.634 10.1509H59.9686L57.9011 13.5102H61.5657L63.634 10.1509Z" fill="#E61A27"/>
<path d="M107.23 35.2043C106.835 35.4724 106.282 35.2663 106.489 34.6518C107.004 33.0872 109.055 29.8989 109.055 29.8989L114.765 19.771H110.854C110.668 20.0764 110.27 20.7776 110.27 20.7776C110.089 20.4762 109.548 19.806 109.325 19.6611C108.37 19.0571 106.968 19.3427 106 19.8901C101.795 22.349 98.7271 27.2071 96.3073 30.9957C96.3073 30.9957 93.7602 35.2072 92.3463 35.5203C91.2425 35.6098 91.3564 34.1228 91.4042 33.7764C91.831 31.2727 92.8221 28.8926 93.8206 26.7357C95.8518 25.3277 98.1696 23.4839 100.276 21.4612C104.848 17.0913 108.702 12.1406 109.265 11.0343C109.265 11.0343 108.655 11.1574 107.935 11.1796C104.418 16.0855 97.2212 23.2156 95.0393 24.277C96.0059 21.952 102.251 10.8554 107.565 5.54726L108.402 4.74238C109.695 3.47957 111.035 2.18331 112.079 1.9709C112.189 1.95975 112.331 1.9709 112.454 2.22835C112.5 3.21158 112.134 3.93812 111.714 4.76498L111.126 5.97207C111.126 5.97207 111.959 5.81555 112.507 5.63628C113.142 4.44111 113.846 3.09965 113.586 1.50196C113.5 0.987827 113.127 0.596766 112.641 0.507284C111.056 0.205552 109.328 1.37858 107.938 2.32883L107.882 2.36212C100.735 7.96097 94.7006 16.0296 89.4246 27.0485C89.0422 27.3386 87.5649 27.6854 87.3138 27.5176C87.8348 26.445 88.4908 25.0031 88.819 23.4385C88.8758 22.9913 88.9286 22.5335 88.9286 22.0865C88.9286 21.1247 88.6977 20.2198 87.8362 19.5943C86.826 19.0913 85.5773 19.3262 84.7354 19.7058C80.9642 21.2703 78.1455 25.1373 76.1114 28.3218C75.0175 30.3451 73.9267 32.512 73.6247 34.9934C73.412 36.9375 73.845 38.1894 74.9506 38.8153C76.0873 39.396 77.5181 38.7924 78.0801 38.5021C81.9008 36.4904 84.5704 32.4564 86.6746 28.7685C86.7583 28.7575 87.9072 28.7242 88.7764 28.5003C88.7878 28.5003 88.7927 28.5003 88.812 28.5119C88.7622 28.679 88.3131 30.0204 88.3131 30.0204C86.9794 33.9314 86.3627 36.5914 87.6224 38.1669C89.4226 40.3908 92.403 38.089 94.8274 35.0488C94.307 38.6917 96.1949 39.2621 97.6343 38.9829C99.2876 38.5361 101.13 36.77 101.985 35.8651C101.71 36.9265 101.785 38.8267 103.289 39.0164C104.32 39.2069 105.091 38.6462 105.984 38.1655C109.186 36.422 113.019 30.6123 114.014 28.9326H112.709C111.294 31.0709 109.494 33.8738 107.23 35.2043V35.2043ZM78.4889 34.8152C78.2858 34.5133 78.2185 34.1835 78.2118 33.8268C78.1728 31.6354 80.5305 27.7113 82.1944 25.5735H82.198C82.8952 27.1005 84.4744 28.0821 85.4277 28.4957C84.2438 31.1333 80.1831 36.7819 78.4889 34.8152V34.8152ZM86.0961 27.3166C85.9834 27.3954 83.992 26.7244 83.6071 24.8806C83.2806 23.2931 84.3738 22.0528 85.4314 21.4276C85.8853 21.0697 86.5691 20.9472 87.0707 21.1253C87.5363 21.4388 87.6624 21.998 87.6624 22.6004C87.6624 22.9699 87.6134 23.3495 87.5702 23.6958L87.5607 23.7743C87.2272 25.0133 86.7349 26.2039 86.0961 27.3166V27.3166ZM102.068 34.1112C102.066 34.1112 101.69 34.4464 101.69 34.4464C101.153 34.9268 100.6 35.4408 99.9327 35.1836C99.7484 35.1168 99.6188 34.8711 99.5876 34.6805C99.5572 33.3059 100.176 32.0322 100.777 30.7919L100.93 30.4677C102.657 27.5846 104.664 24.1873 107.612 21.8297C108.109 21.4713 108.648 21.1702 109.217 21.405C109.347 21.5278 109.5 21.7402 109.5 21.9523C109.5 22.0196 109.44 22.1983 109.406 22.254C108.582 23.5845 107.798 24.9811 107.036 26.3221C105.546 28.9706 104 31.7081 102.068 34.1112V34.1112Z" fill="#E61A27"/>
</svg>
