<?xml version="1.0" encoding="UTF-8"?>
<svg width="71px" height="51px" viewBox="0 0 71 51" version="1.1" xmlns="http://www.w3.org/2000/svg" xmlns:xlink="http://www.w3.org/1999/xlink">
    <g id="Page-1" stroke="none" stroke-width="1" fill="none" fill-rule="evenodd">
        <g id="SHWA" transform="translate(-337.000000, -836.000000)">
            <g id="BLOCK_1" transform="translate(284.000000, 819.000000)">
                <g id="Group-37" transform="translate(0.000000, 18.000000)">
                    <g id="Group-27" transform="translate(54.000000, 0.000000)">
                        <path d="M28.703136,32.4876005 C22.4951634,26.0292844 18.508893,18.5729532 14.5358842,11 C16.6234106,18.7613425 20.9107965,34.331125 14.5,40 L34.5,36.2060476 C32.6340198,35.7118994 30.6806693,34.5449319 28.703136,32.4876005" id="Fill-1" fill="#FACB0F"></path>
                        <path d="M28.703136,32.4876005 C22.4951634,26.0292844 18.508893,18.5729532 14.5358842,11 C16.6234106,18.7613425 20.9107965,34.331125 14.5,40 L34.5,36.2060476 C32.6340198,35.7118994 30.6806693,34.5449319 28.703136,32.4876005 Z" id="Stroke-3" stroke="#020303" stroke-width="2" stroke-linecap="round" stroke-linejoin="round"></path>
                        <path d="M48.5523052,10 C49.7394561,15.3001248 49.1900055,21.2447874 47.6398797,26.0502846 C46.4980048,29.5902962 44.3086439,33.035948 41.5,35 L66.5,30.0932944 C58.0878814,31.7978571 51.8758671,15.7384409 48.5523052,10" id="Fill-5" fill="#FACB0F"></path>
                        <path d="M48.5523052,10 C49.7394561,15.3001248 49.1900055,21.2447874 47.6398797,26.0502846 C46.4980048,29.5902962 44.3086439,33.035948 41.5,35 L66.5,30.0932944 C58.0878814,31.7978571 51.8758671,15.7384409 48.5523052,10 Z" id="Stroke-7" stroke="#020303" stroke-width="2" stroke-linecap="round" stroke-linejoin="round"></path>
                        <path d="M41.5,35 L34.5,36.6555964 C37.0542512,37.4999139 39.44339,36.7326863 41.5,35 Z" id="Stroke-9" stroke="#020303" stroke-width="2" stroke-linecap="round" stroke-linejoin="round"></path>
                        <path d="M12.2117697,48.4763552 L0.5,14.9387994 C0.5,14.9387994 15.7786819,40.8318649 25.7727661,35.122784 C35.7668504,29.4144562 37.4287072,8.13549681 37.4287072,8.13549681 C37.4287072,8.13549681 42.0418321,33.9562669 50.5400157,28.4113569 C59.0381994,22.8664468 57.4252882,0 57.4252882,0 L68.5,33.0021176 C68.5,33.0021176 53.8996738,52.3983831 12.2117697,48.4763552" id="Fill-11" fill="#FACB0F"></path>
                        <path d="M12.2117697,48.4763552 L0.5,14.9387994 C0.5,14.9387994 15.7786819,40.8318649 25.7727661,35.122784 C35.7668504,29.4144562 37.4287072,8.13549681 37.4287072,8.13549681 C37.4287072,8.13549681 42.0418321,33.9562669 50.5400157,28.4113569 C59.0381994,22.8664468 57.4252882,0 57.4252882,0 L68.5,33.0021176 C68.5,33.0021176 53.8996738,52.3983831 12.2117697,48.4763552 Z" id="Stroke-13" stroke="#020303" stroke-width="2" stroke-linecap="round" stroke-linejoin="round"></path>
                        <polygon id="Fill-15" fill="#8C7DB7" points="41.2686836 44 32.5 40.8506923 34.3977904 34.3194184 46.1919041 33 49.5 37.0814722"></polygon>
                        <polygon id="Stroke-17" stroke="#020303" stroke-width="2" stroke-linecap="round" stroke-linejoin="round" points="41.2686836 44 32.5 40.8506923 34.3977904 34.3194184 46.1919041 33 49.5 37.0814722"></polygon>
                        <polygon id="Fill-19" fill="#E77976" points="61.5 32.3481552 57.282322 36 54.5 33.0774204 57.3292547 26.5219174 60.4017767 26"></polygon>
                        <polygon id="Stroke-21" stroke="#020303" stroke-width="2" stroke-linecap="round" stroke-linejoin="round" points="61.5 32.3481552 57.282322 36 54.5 33.0774204 57.3292547 26.5219174 60.4017767 26"></polygon>
                        <polygon id="Fill-23" fill="#76CACA" points="15.7347099 45.2774561 13.5 40.6456365 17.0967067 39 22.5 43.1908971 22.0938317 46"></polygon>
                        <polygon id="Stroke-25" stroke="#020303" stroke-width="2" stroke-linecap="round" stroke-linejoin="round" points="15.7347099 45.2774561 13.5 40.6456365 17.0967067 39 22.5 43.1908971 22.0938317 46"></polygon>
                    </g>
                </g>
            </g>
        </g>
    </g>
</svg>