<?xml version="1.0" encoding="UTF-8"?>
<svg width="68px" height="56px" viewBox="0 0 68 56" version="1.1" xmlns="http://www.w3.org/2000/svg" xmlns:xlink="http://www.w3.org/1999/xlink">
    <g id="Page-1" stroke="none" stroke-width="1" fill="none" fill-rule="evenodd">
        <g id="SHWA" transform="translate(-618.000000, -4289.000000)">
            <g id="ICONS_BG" transform="translate(116.000000, 1404.000000)"></g>
            <g id="BLOCK_7" transform="translate(420.000000, 4156.000000)">
                <g id="Group-154" transform="translate(22.000000, 132.000000)">
                    <polygon id="Fill-143" fill="#EDB03D" points="228.488721 17.0747664 212 30.4329029 227.511279 33.0747664 244 19.7153578"></polygon>
                    <polygon id="Fill-144" fill="#F5C975" points="213 30.0747664 229 16.5128535 229 1.07476636 213 14.6353879"></polygon>
                    <g id="Group-153" transform="translate(176.000000, 13.074766)">
                        <path d="M0.10461,17.1304714 C0.10461,20.8423286 2.98801,21.2499 4.80281,21.1689 C4.80281,21.1689 11.90341,20.9143286 13.47771,20.7021857 L13.47771,17.5470429 L5.72061,17.5470429 C4.91461,17.5470429 4.00981,17.5753286 3.99681,16.1173286 L3.99681,12.9776143 L12.21281,12.7179 L12.21281,9.55247143 L3.99681,9.26318571 L3.99681,6.12347143 C3.99681,5.38032857 3.99681,4.58318571 5.44241,4.58318571 L13.47771,4.58318571 L13.47771,1.40104286 C11.68891,1.15932857 4.52461,0.961328571 4.52461,0.961328571 C2.60581,0.924042857 0.10461,1.6479 0.10461,5.1399 L0.10461,17.1304714 Z" id="Fill-145" fill="#1F4F87"></path>
                        <path d="M0.10513,39.8584286 C0.10513,43.5702857 2.98853,43.9778571 4.80333,43.8981429 C4.80333,43.8981429 11.90263,43.6422857 13.47823,43.4301429 L13.47823,40.275 L5.71983,40.275 C4.91383,40.275 4.00903,40.3032857 3.99603,38.8452857 L3.99603,35.7055714 L12.21333,35.4458571 L12.21333,32.2804286 L3.99603,31.9911429 L3.99603,28.8514286 C3.99603,28.1082857 3.99603,27.3111429 5.44163,27.3111429 L13.47823,27.3111429 L13.47823,24.129 C11.68943,23.8872857 4.52513,23.6892857 4.52513,23.6892857 C2.60633,23.652 0.10513,24.3758571 0.10513,27.8678571 L0.10513,39.8584286 Z M31.97593,43.8158571 L36.15673,43.8158571 L37.62443,39.3557143 L44.28953,39.3557143 L45.73513,43.8158571 L49.87823,43.8158571 L43.26903,23.6892857 L38.84253,23.6892857 L31.97593,43.8158571 Z M38.63453,35.9447143 L41.08113,28.7627143 L43.36783,35.9447143 L38.63453,35.9447143 Z" id="Fill-147" fill="#EDB03D"></path>
                        <path d="M15.62895,43.8153429 L19.51985,43.8153429 L19.51985,35.8143429 L22.94015,36.1987714 L26.30325,43.8153429 L30.68425,43.8153429 L26.83105,35.8902 C27.96075,35.5379143 30.07065,34.9464857 30.07065,29.9643429 C30.07065,25.1583429 27.70855,23.6887714 24.53135,23.6887714 L15.62895,23.6887714 L15.62895,43.8153429 Z M19.53545,32.7903429 L19.53545,27.1113429 L24.14915,27.1113429 C25.37245,27.1113429 26.15115,27.6783429 26.15115,29.9643429 C26.15115,32.3969143 25.50505,32.7903429 24.14915,32.7903429 L19.53545,32.7903429 Z" id="Fill-149" fill="#EDB03D"></path>
                        <path d="M15.62843,21.0875143 L24.27603,21.0875143 C29.24333,21.0875143 31.33633,17.0310857 31.33633,11.1065143 C31.33633,6.12051429 30.13253,0.960942857 24.27603,0.960942857 L15.62843,0.960942857 L15.62843,21.0875143 Z M19.52063,17.6546571 L19.52063,4.35651429 L23.97053,4.35651429 C26.14023,4.35651429 27.44413,5.69365714 27.44413,11.0795143 C27.44413,15.1166571 26.49253,17.6546571 23.97053,17.6546571 L19.52063,17.6546571 Z" id="Fill-151" fill="#1F4F87"></path>
                    </g>
                </g>
            </g>
        </g>
    </g>
</svg>