<?xml version="1.0" encoding="UTF-8"?>
<svg width="65px" height="76px" viewBox="0 0 65 76" version="1.1" xmlns="http://www.w3.org/2000/svg" xmlns:xlink="http://www.w3.org/1999/xlink">
    <g id="Page-1" stroke="none" stroke-width="1" fill="none" fill-rule="evenodd">
        <g id="SHWA" transform="translate(-841.000000, -826.000000)">
            <g id="BLOCK_1" transform="translate(284.000000, 819.000000)">
                <g id="Group-34" transform="translate(545.000000, 0.000000)">
                    <g id="Group-15" transform="translate(40.000000, 43.500000) rotate(41.000000) translate(-40.000000, -43.500000) translate(27.000000, -2.000000)">
                        <path d="M23,51.4928345 C20.1318776,53.6484729 17.8631663,56.7119302 15.2179019,59.1506148 C13.4521154,55.2656332 15.7643736,47.0469381 16.584935,42.7667273 C17.7248407,36.8279348 19.3087547,31.1972139 21.0540486,25.3887262 C23.9904799,15.6201806 20.2095791,0 20.2095791,0 C20.2095791,0 7.43751161,0.213147595 5.95862266,5.91721885 C2.08208928,20.8686165 -1.14209354,37.1981385 0.388880984,52.708725 C0.865335967,57.5377693 1.81568435,67.781798 4.5676815,71.8661201 C6.56144922,74.825161 11.0134856,76.1868894 13.1344787,79.2658797 L16.9905194,84 C16.392816,82.4156316 21.2103053,71.2663729 21.7063991,68.0639813 C22.0709982,65.7176318 21.2538523,63.0735661 21.3213074,60.69011 C21.4126706,57.4618301 22.6849249,54.5839061 23,51.4928345" id="Fill-1" fill="#FEFEFE"></path>
                        <path d="M23,51.4928345 C20.1318776,53.6484729 17.8631663,56.7119302 15.2179019,59.1506148 C13.4521154,55.2656332 15.7643736,47.0469381 16.584935,42.7667273 C17.7248407,36.8279348 19.3087547,31.1972139 21.0540486,25.3887262 C23.9904799,15.6201806 20.2095791,0 20.2095791,0 C20.2095791,0 7.43751161,0.213147595 5.95862266,5.91721885 C2.08208928,20.8686165 -1.14209354,37.1981385 0.388880984,52.708725 C0.865335967,57.5377693 1.81568435,67.781798 4.5676815,71.8661201 C6.56144922,74.825161 11.0134856,76.1868894 13.1344787,79.2658797 L16.9905194,84 C16.392816,82.4156316 21.2103053,71.2663729 21.7063991,68.0639813 C22.0709982,65.7176318 21.2538523,63.0735661 21.3213074,60.69011 C21.4126706,57.4618301 22.6849249,54.5839061 23,51.4928345 Z" id="Stroke-3" stroke="#020303" stroke-width="2" stroke-linecap="round" stroke-linejoin="round"></path>
                        <path d="M17.6128442,7 C17.3049783,23.6123225 8.15784231,31.3199471 9.06296808,45.5285741 C9.77018005,56.6251576 11.7255684,66.8623483 14.8974669,77.4658661 C16.1430044,81.6265424 18.6305609,86.6839386 19,91" id="Stroke-5" stroke="#020303" stroke-width="2" stroke-linecap="round" stroke-linejoin="round"></path>
                        <path d="M17,80.1444057 L17.0262628,80.6087804 C18.2071845,84.5846143 22.8674784,83.0272915 24.1760918,80.107632 C25.633226,76.8570094 24.8706983,73.2762787 26,70 C24.3653653,73.849264 20.6097806,77.7849035 17,80.1444057" id="Fill-7" fill="#FEFEFE"></path>
                        <path d="M17,80.1444057 L17.0262628,80.6087804 C18.2071845,84.5846143 22.8674784,83.0272915 24.1760918,80.107632 C25.633226,76.8570094 24.8706983,73.2762787 26,70 C24.3653653,73.849264 20.6097806,77.7849035 17,80.1444057 Z" id="Stroke-9" stroke="#020303" stroke-width="2" stroke-linecap="round" stroke-linejoin="round"></path>
                        <path d="M10.8089969,76.4171747 C9.15420377,76.0989762 6.08977213,74.6610718 4.53627554,75.0738481 C4.60522525,75.3543758 4.39497119,75.4505567 4.35496333,75.5739888 L4,75.7639461 C5.03169199,77.51524 7.25170246,79.9502197 9.20953379,80.7164609 C11.4550812,81.5957146 14.881286,80.2042976 17,79.5999609 C15.5060896,77.8638957 13.1320063,76.8652174 10.8089969,76.4171747" id="Fill-11" fill="#FEFEFE"></path>
                        <path d="M10.8089969,76.4171747 C9.15420377,76.0989762 6.08977213,74.6610718 4.53627554,75.0738481 C4.60522525,75.3543758 4.39497119,75.4505567 4.35496333,75.5739888 L4,75.7639461 C5.03169199,77.51524 7.25170246,79.9502197 9.20953379,80.7164609 C11.4550812,81.5957146 14.881286,80.2042976 17,79.5999609 C15.5060896,77.8638957 13.1320063,76.8652174 10.8089969,76.4171747 Z" id="Stroke-13" stroke="#020303" stroke-width="2" stroke-linecap="round" stroke-linejoin="round"></path>
                    </g>
                </g>
            </g>
        </g>
    </g>
</svg>