<?xml version="1.0" encoding="UTF-8"?>
<svg width="153px" height="47px" viewBox="0 0 153 47" version="1.1" xmlns="http://www.w3.org/2000/svg" xmlns:xlink="http://www.w3.org/1999/xlink">
    <g id="Page-1" stroke="none" stroke-width="1" fill="none" fill-rule="evenodd">
        <g id="SHWA" transform="translate(-845.000000, -4301.000000)">
            <g id="ICONS_BG" transform="translate(116.000000, 1404.000000)"></g>
            <g id="BLOCK_7" transform="translate(420.000000, 4156.000000)" fill="#2B3678">
                <g id="Group-154" transform="translate(22.000000, 132.000000)">
                    <g id="Group-68" transform="translate(403.000000, 13.074766)">
                        <path d="M65.55898,37.2728 L62.11918,37.2728 L61.68108,41.9101333 C61.59008,42.8301333 61.31318,43.4328 60.95698,43.7994667 L65.55898,43.7994667 L65.55898,37.2728 Z M59.06938,43.7754667 C59.78308,43.7861333 60.34598,43.4208 60.51888,41.8274667 L61.10648,36.2928 L66.69778,36.2928 L66.69778,43.7754667 L67.85998,43.7754667 L67.81448,46.4541333 L66.69778,46.4541333 L66.69778,44.8141333 L59.87538,44.8141333 L59.87538,46.4541333 L58.75868,46.4541333 L58.71318,43.7754667 L59.06938,43.7754667 Z" id="Fill-60"></path>
                        <path d="M70.42124,40.5892 L72.22824,40.5772 C73.48144,40.5638667 74.80484,40.1865333 74.80484,38.9252 C74.80484,37.6625333 73.46974,37.3078667 72.34264,37.2958667 L70.42124,37.2852 L70.42124,40.5892 Z M69.28244,36.2932 L72.31924,36.2932 C74.26404,36.2932 76.01384,37.0958667 76.01384,38.9252 C76.01384,40.7545333 74.19514,41.6038667 72.23864,41.6038667 L70.43294,41.6038667 L70.43294,44.8132 L69.28244,44.8132 L69.28244,36.2932 Z" id="Fill-62"></path>
                        <path d="M78.33135,40.554 C78.33135,42.5486667 79.74705,44.034 81.86345,44.034 C83.98115,44.034 85.38515,42.5486667 85.38515,40.554 C85.38515,38.3233333 83.75105,37.0366667 81.86345,37.0366667 C79.97715,37.0366667 78.33135,38.3233333 78.33135,40.554 M86.58115,40.5646667 C86.58115,43.338 84.34905,45.038 81.86345,45.038 C79.34405,45.038 77.14575,43.35 77.14575,40.5646667 C77.14575,38.146 79.06715,36.0566667 81.86345,36.0566667 C84.67145,36.0566667 86.58115,38.146 86.58115,40.5646667" id="Fill-64"></path>
                        <path d="M94.05511,37.2728 L90.61531,37.2728 L90.17721,41.9101333 C90.08621,42.8301333 89.80931,43.4328 89.45311,43.7994667 L94.05511,43.7994667 L94.05511,37.2728 Z M87.56551,43.7754667 C88.27791,43.7861333 88.84211,43.4208 89.01631,41.8274667 L89.60131,36.2928 L95.19391,36.2928 L95.19391,43.7754667 L96.35611,43.7754667 L96.31061,46.4541333 L95.19391,46.4541333 L95.19391,44.8141333 L88.37021,44.8141333 L88.37021,46.4541333 L87.25351,46.4541333 L87.20801,43.7754667 L87.56551,43.7754667 Z" id="Fill-66"></path>
                        <path d="M23.835419,25.9662041 C18.7522795,25.9662041 14.6166237,30.1222857 14.6166237,35.2305306 C14.6166237,40.3387755 18.7522795,44.493551 23.835419,44.493551 C28.9185585,44.493551 33.0542142,40.3387755 33.0542142,35.2305306 C33.0542142,30.1222857 28.9185585,25.9662041 23.835419,25.9662041 M23.835419,45.4600816 C18.2233003,45.4600816 13.656143,40.8716735 13.656143,35.2305306 C13.656143,29.5893878 18.2233003,25.0009796 23.835419,25.0009796 C29.4475377,25.0009796 34.014695,29.5893878 34.014695,35.2305306 C34.014695,40.8716735 29.4475377,45.4600816 23.835419,45.4600816" id="Fill-76"></path>
                        <path d="M23.835419,3.43428571 C18.7522795,3.43428571 14.615324,7.59167347 14.615324,12.6986122 C14.615324,17.8081633 18.7522795,21.9629388 23.835419,21.9629388 C28.9185585,21.9629388 33.0555139,17.8081633 33.0555139,12.6986122 C33.0555139,7.59167347 28.9185585,3.43428571 23.835419,3.43428571 M23.835419,22.9294694 C18.2220006,22.9294694 13.6548433,18.3410612 13.6548433,12.6986122 C13.6548433,7.05877551 18.2220006,2.46906122 23.835419,2.46906122 C29.4488374,2.46906122 34.014695,7.05877551 34.014695,12.6986122 C34.014695,18.3410612 29.4488374,22.9294694 23.835419,22.9294694" id="Fill-78"></path>
                        <path d="M23.835419,6.54847347 C20.4600896,6.54847347 17.7138166,9.30700408 17.7138166,12.6990041 C17.7138166,16.0910041 20.4600896,18.8495347 23.835419,18.8495347 C27.2107484,18.8495347 29.9570214,16.0910041 29.9570214,12.6990041 C29.9570214,9.30700408 27.2107484,6.54847347 23.835419,6.54847347 M23.835419,19.8160653 C19.9298107,19.8160653 16.7546356,16.6225959 16.7546356,12.6990041 C16.7546356,8.77541224 19.9298107,5.58194286 23.835419,5.58194286 C27.7397276,5.58194286 30.9162024,8.77541224 30.9162024,12.6990041 C30.9162024,16.6225959 27.7397276,19.8160653 23.835419,19.8160653" id="Fill-80"></path>
                        <path d="M23.835419,9.78569796 C22.236784,9.78569796 20.935781,11.0918204 20.935781,12.698351 C20.935781,14.3061878 22.236784,15.6123102 23.835419,15.6123102 C25.434054,15.6123102 26.735057,14.3061878 26.735057,12.698351 C26.735057,11.0918204 25.434054,9.78569796 23.835419,9.78569796 M23.835419,16.5788408 C21.7078047,16.5788408 19.9753003,14.8390857 19.9753003,12.698351 C19.9753003,10.5602286 21.7078047,8.81916735 23.835419,8.81916735 C25.9643329,8.81916735 27.6955377,10.5602286 27.6955377,12.698351 C27.6955377,14.8390857 25.9643329,16.5788408 23.835419,16.5788408" id="Fill-82"></path>
                        <path d="M23.835419,12.519151 C23.7366415,12.519151 23.6573596,12.6001306 23.6573596,12.6993959 C23.6573596,12.8979265 24.014778,12.8979265 24.014778,12.6993959 C24.014778,12.6001306 23.9341964,12.519151 23.835419,12.519151 M23.835419,13.4856816 C23.4052172,13.4856816 23.0542973,13.1330286 23.0542973,12.6993959 C23.0542973,12.2657633 23.4052172,11.9144163 23.835419,11.9144163 C24.2669205,11.9144163 24.6165407,12.2657633 24.6165407,12.6993959 C24.6165407,13.1330286 24.2669205,13.4856816 23.835419,13.4856816" id="Fill-84"></path>
                        <path d="M24.1919276,12.6990041 C24.1919276,12.8818612 24.0450611,13.0294531 23.8631027,13.0294531 C23.6824439,13.0294531 23.5355774,12.8818612 23.5355774,12.6990041 C23.5355774,12.5161469 23.6824439,12.3698612 23.8631027,12.3698612 C24.0450611,12.3698612 24.1919276,12.5161469 24.1919276,12.6990041" id="Fill-86"></path>
                        <polygon id="Fill-59" points="56.0575 45 56.9425 45 56.9425 37 56.0575 37"></polygon>
                        <path d="M86.699325,20.99723 L83.22645,20.99723 L82.7841375,25.51993 C82.6922625,26.41693 82.4127,27.00323 82.0517625,27.36073 L86.699325,27.36073 L86.699325,20.99723 Z M80.147325,27.33603 C80.8678875,27.34773 81.4362,26.99153 81.6107625,25.43803 L82.2040125,20.04173 L87.8503875,20.04173 L87.8503875,27.33603 L89.02245,27.33603 L88.9765125,29.94903 L87.8503875,29.94903 L87.8503875,28.35003 L80.961075,28.35003 L80.961075,29.94903 L79.8336375,29.94903 L79.7877,27.33603 L80.147325,27.33603 Z" id="Fill-54"></path>
                        <path d="M49.5354938,44.23603 L51.4294313,44.22433 C52.7996813,44.21393 53.8339313,43.78883 53.8339313,42.83203 C53.8339313,41.84273 52.5909938,41.48653 51.4871813,41.47483 L49.5354938,41.46313 L49.5354938,44.23603 Z M49.5354938,40.52063 L51.2312438,40.50893 C52.1604938,40.49723 53.5898063,40.22163 53.5898063,39.16213 C53.5898063,38.13903 52.3586813,37.82833 51.2194313,37.81663 L49.5354938,37.80493 L49.5354938,40.52063 Z M48.4080563,36.86113 L51.2089313,36.86113 C53.1251813,36.86113 54.7749938,37.60863 54.7749938,39.08153 C54.7749938,40.19823 53.6593688,40.76243 53.1947438,40.88853 L53.1947438,40.95743 C53.6829938,41.04973 55.0309313,41.53203 55.0309313,42.86713 C55.0309313,44.35043 53.3456813,45.16813 51.3821813,45.16813 L48.4080563,45.16813 L48.4080563,36.86113 Z" id="Fill-56"></path>
                        <polygon id="Fill-53" points="71.1510324 20 71.1510324 23.4786418 76.8489676 23.4786418 76.8489676 20 78 20 78 28 76.8489676 28 76.8489676 24.4324832 71.1510324 24.4324832 71.1510324 28 70 28 70 20"></polygon>
                        <path d="M149.19354,0.571956522 L149.88643,0.571956522 C149.921662,1.58804348 149.13743,2.26891304 148.062211,2.26891304 C147.00004,2.26891304 146.201455,1.58804348 146.236687,0.571956522 L146.941321,0.571956522 C146.95437,0.791086957 147.161845,1.46152174 148.062211,1.46152174 C148.950833,1.46152174 149.181796,0.791086957 149.19354,0.571956522 L149.19354,0.571956522 Z M152.34743,11.0667391 L151.238284,11.0667391 L151.238284,4.19804348 L151.169126,4.19804348 L145.014016,11.0667391 L143.799174,11.0667391 L143.799174,2.73065217 L144.92137,2.73065217 L144.92137,9.58891304 L144.989223,9.58891304 L151.145638,2.73065217 L152.34743,2.73065217 L152.34743,11.0667391 Z" id="Fill-46"></path>
                        <path d="M52.8159,21.1543043 L52.8159,26.3834348 C54.6518634,26.223 56.0728756,25.3112609 56.0728756,23.7982174 C56.0728756,22.2277826 54.560522,21.3173478 52.8159,21.1543043 L52.8159,21.1543043 Z M51.6728268,26.3834348 L51.6728268,21.1425652 C49.755961,21.3043043 48.4158512,22.2734348 48.4158512,23.7982174 C48.4158512,25.3686522 49.916461,26.2347391 51.6728268,26.3834348 L51.6728268,26.3834348 Z M51.6728268,28.7508261 L51.6728268,27.389087 C49.466278,27.2273478 47.2492902,26.0143043 47.2492902,23.7982174 C47.2492902,21.6160435 49.466278,20.3456087 51.6728268,20.1616957 L51.6728268,18.9499565 L52.8159,18.9499565 L52.8159,20.1499565 C55.2755951,20.3456087 57.2394366,21.7895217 57.2394366,23.7982174 C57.2394366,25.7951739 55.2755951,27.1921304 52.8159,27.389087 L52.8159,28.7508261 L51.6728268,28.7508261 Z" id="Fill-48"></path>
                        <path d="M59.6468061,23.7756522 C59.6468061,25.7256522 61.0678183,27.18 63.1921598,27.18 C65.3178061,27.18 66.7270744,25.7256522 66.7270744,23.7756522 C66.7270744,21.5934783 65.0868427,20.3347826 63.1921598,20.3347826 C61.2987817,20.3347826 59.6468061,21.5934783 59.6468061,23.7756522 M67.9275622,23.7873913 C67.9275622,26.4991304 65.6870866,28.1608696 63.1921598,28.1608696 C60.6633061,28.1608696 58.4567573,26.5108696 58.4567573,23.7873913 C58.4567573,21.42 60.386672,19.376087 63.1921598,19.376087 C66.0106963,19.376087 67.9275622,21.42 67.9275622,23.7873913" id="Fill-50"></path>
                        <polygon id="Fill-44" points="124.150845 3 124.150845 6.47864184 129.847854 6.47864184 129.847854 3 131 3 131 11 129.847854 11 129.847854 7.43123142 124.150845 7.43123142 124.150845 11 123 11 123 3"></polygon>
                        <polygon id="Fill-45" points="142 11 140.832061 11 140.832061 4.40823032 140.759237 4.40823032 134.276489 11 133 11 133 3 134.178931 3 134.178931 9.58175559 134.25313 9.58175559 140.734504 3 142 3"></polygon>
                        <polygon id="Fill-69" points="102.42039 37 103.57961 37 103.567577 40.9780942 103.63844 40.9780942 107.247131 37 108.691142 37 104.869861 41.0331716 109 45 107.507855 45 103.63844 41.2534815 103.567577 41.2534815 103.57961 45 102.42039 45 102.431086 41.2534815 102.36156 41.2534815 98.4908078 45 97 45 101.130139 41.0331716 97.3075209 37 98.751532 37 102.36156 40.9780942 102.431086 40.9780942"></polygon>
                        <polygon id="Fill-70" points="110 37 116.845845 37 116.845845 37.9413237 111.174263 37.9413237 111.174263 40.4348302 116.631367 40.4348302 116.631367 41.3648881 111.174263 41.3648881 111.174263 44.0248787 117 44.0248787 117 45 110 45"></polygon>
                        <polygon id="Fill-71" points="120.152146 37 120.152146 40.4798936 125.849155 40.4798936 125.849155 37 127 37 127 45 125.849155 45 125.849155 41.4312314 120.152146 41.4312314 120.152146 45 119 45 119 37"></polygon>
                        <polygon id="Fill-72" points="130.151032 37 130.151032 40.4798936 135.848968 40.4798936 135.848968 37 137 37 137 45 135.848968 45 135.848968 41.4312314 130.151032 41.4312314 130.151032 45 129 45 129 37"></polygon>
                        <path d="M143.946751,37.9314554 L142.069539,37.941471 C141.03836,37.9527387 139.899282,38.3070423 139.899282,39.2710485 C139.899282,40.1699531 140.90839,40.5906103 142.047469,40.600626 L143.946751,40.6118936 L143.946751,37.9314554 Z M145,45 L143.92468,45 L143.92468,41.5546166 L142.1897,41.5546166 C140.745314,43.4162754 139.378175,45 139.378175,45 L138,45 C138,45 139.660186,43.172144 141.03836,41.4319249 C139.823262,41.1890454 138.770012,40.4466354 138.770012,39.2485133 C138.770012,37.6760563 140.528289,37 142.058504,37 L145,37 L145,45 Z" id="Fill-73"></path>
                        <path d="M0.919154229,44.0375623 L10.0808458,44.0375623 L10.0808458,3.96113709 L0.919154229,3.96113709 L0.919154229,44.0375623 Z M0,45 L11,45 L11,3 L0,3 L0,45 Z" id="Fill-75"></path>
                        <path d="M95.5522909,6.75386667 L97.3845636,6.74186667 C98.6552909,6.7312 99.9972,6.35386667 99.9972,5.08986667 C99.9972,3.82853333 98.6434273,3.47386667 97.5005636,3.46053333 L95.5522909,3.44986667 L95.5522909,6.75386667 Z M94.3975636,2.45786667 L97.4768364,2.45786667 C99.4501545,2.45786667 101.223109,3.26186667 101.223109,5.08986667 C101.223109,6.9192 99.3789727,7.76853333 97.3951091,7.76853333 L95.5641545,7.76853333 L95.5641545,10.9792 L94.3975636,10.9792 L94.3975636,2.45786667 Z" id="Fill-37"></path>
                        <path d="M103.573427,6.71946667 C103.573427,8.7128 105.007609,10.1994667 107.156245,10.1994667 C109.302245,10.1994667 110.725882,8.7128 110.725882,6.71946667 C110.725882,4.4888 109.067609,3.20213333 107.156245,3.20213333 C105.240927,3.20213333 103.573427,4.4888 103.573427,6.71946667 M111.938609,6.73146667 C111.938609,9.50346667 109.673973,11.2034667 107.156245,11.2034667 C104.600291,11.2034667 102.371245,9.51546667 102.371245,6.73146667 C102.371245,4.31146667 104.319518,2.22213333 107.156245,2.22213333 C110.000882,2.22213333 111.938609,4.31146667 111.938609,6.73146667" id="Fill-39"></path>
                        <path d="M119.516177,3.43813333 L116.028268,3.43813333 L115.584041,8.07546667 C115.49045,8.9968 115.210995,9.59813333 114.848495,9.9648 L119.516177,9.9648 L119.516177,3.43813333 Z M112.935814,9.93946667 C113.658177,9.95146667 114.230268,9.58613333 114.405586,7.9928 L115.000086,2.45813333 L120.669586,2.45813333 L120.669586,9.93946667 L121.849359,9.93946667 L121.803223,12.6194667 L120.669586,12.6194667 L120.669586,10.9794667 L113.751768,10.9794667 L113.751768,12.6194667 L112.61945,12.6194667 L112.573314,9.93946667 L112.935814,9.93946667 Z" id="Fill-41"></path>
                        <polygon id="Fill-32" points="49.1390952 3 50.6326806 3 53 9.90870229 53.0715733 9.90870229 55.3781229 3 56.8609048 3 59 11.7815267 57.7927076 11.7815267 56.0479406 4.64198473 55.9642134 4.64198473 53.4537475 12 52.5813639 12 50.0236327 4.64198473 49.9399055 4.64198473 48.2180959 11.7815267 47 11.7815267"></polygon>
                        <polygon id="Fill-33" points="61.057 11 61.943 11 61.943 3 61.057 3"></polygon>
                        <polygon id="Fill-34" points="68.42039 3 69.57961 3 69.5689136 6.97809419 69.6397772 6.97809419 73.248468 3 74.6924791 3 70.8698607 7.03317165 75 11 73.5091922 11 69.6397772 7.25348146 69.5689136 7.25348146 69.57961 11 68.42039 11 68.4324234 7.25348146 68.3615599 7.25348146 64.4921448 11 63 11 67.1301393 7.03317165 63.3075209 3 64.751532 3 68.3615599 6.97809419 68.4324234 6.97809419"></polygon>
                        <polygon id="Fill-35" points="77.1510324 3 77.1510324 6.47864184 82.8489676 6.47864184 82.8489676 3 84 3 84 11 82.8489676 11 82.8489676 7.43123142 77.1510324 7.43123142 77.1510324 11 76 11 76 3"></polygon>
                        <path d="M87.295727,8.14053208 L90.6489394,8.14053208 L88.9827851,4.11799687 L88.9176145,4.11799687 L87.295727,8.14053208 Z M91.0288964,9.06071987 L86.9157701,9.06071987 L86.1312634,11 L85,11 L88.3409161,3 L89.5594836,3 L93,11 L91.8453735,11 L91.0288964,9.06071987 Z" id="Fill-36"></path>
                    </g>
                </g>
            </g>
        </g>
    </g>
</svg>