<?xml version="1.0" encoding="UTF-8"?>
<svg width="68px" height="79px" viewBox="0 0 68 79" version="1.1" xmlns="http://www.w3.org/2000/svg" xmlns:xlink="http://www.w3.org/1999/xlink">
    <g id="Page-1" stroke="none" stroke-width="1" fill="none" fill-rule="evenodd">
        <g id="SHWA" transform="translate(-610.000000, -825.000000)">
            <g id="BLOCK_1" transform="translate(284.000000, 819.000000)">
                <g id="Group-33" transform="translate(323.000000, 1.000000)">
                    <g id="Group-13" transform="translate(37.000000, 45.000000) rotate(-19.000000) translate(-37.000000, -45.000000) translate(12.000000, 7.000000)">
                        <path d="M2.71994705,4.6441528 C5.55344376,3.31594999 10.179777,2.50611062 13.3734709,2.0084486 C17.1042009,1.42715285 20.8259666,0.691010526 24.5192099,0.168506803 C27.1253424,-0.19997839 29.6801345,0.133728425 32.2316669,0.249656351 C34.8386143,0.368896503 36.6909404,0.0467824805 36.6493792,2.52681204 L36.7471703,3.37888229 C38.3533889,7.04800115 48.148796,56.1376814 48.6084141,60.2556069 C48.8341485,62.2802053 50.0386087,65.5336397 49.2163487,67.5474734 C47.9784765,70.5781606 40.0370254,71.4567287 36.4464627,72.2897537 C31.5797263,73.4200509 27.1791275,75.0720239 22.1828179,75.8462568 C17.8775654,76.5136704 16.4237379,74.9676887 15.379818,71.9941374 C13.9553279,67.9391442 12.9521543,63.5007608 12.12256,59.321559 C11.3190432,55.2731902 10.0697621,51.452537 8.87834068,47.502707 C6.86873387,40.8418196 5.63330648,34.0923301 4.05887,27.3776191 C3.07606959,23.1893087 2.17720652,18.9165366 1.45192264,14.7191176 C0.982525424,12.0064041 -1.00996795,6.39218031 2.71994705,4.6441528" id="Fill-1" fill="#589492"></path>
                        <path d="M2.71994705,4.6441528 C5.55344376,3.31594999 10.179777,2.50611062 13.3734709,2.0084486 C17.1042009,1.42715285 20.8259666,0.691010526 24.5192099,0.168506803 C27.1253424,-0.19997839 29.6801345,0.133728425 32.2316669,0.249656351 C34.8386143,0.368896503 36.6909404,0.0467824805 36.6493792,2.52681204 L36.7471703,3.37888229 C38.3533889,7.04800115 48.148796,56.1376814 48.6084141,60.2556069 C48.8341485,62.2802053 50.0386087,65.5336397 49.2163487,67.5474734 C47.9784765,70.5781606 40.0370254,71.4567287 36.4464627,72.2897537 C31.5797263,73.4200509 27.1791275,75.0720239 22.1828179,75.8462568 C17.8775654,76.5136704 16.4237379,74.9676887 15.379818,71.9941374 C13.9553279,67.9391442 12.9521543,63.5007608 12.12256,59.321559 C11.3190432,55.2731902 10.0697621,51.452537 8.87834068,47.502707 C6.86873387,40.8418196 5.63330648,34.0923301 4.05887,27.3776191 C3.07606959,23.1893087 2.17720652,18.9165366 1.45192264,14.7191176 C0.982525424,12.0064041 -1.00996795,6.39218031 2.71994705,4.6441528 Z" id="Stroke-3" stroke="#020303" stroke-width="2"></path>
                        <path d="M6.31170598,11.8395918 C7.04374858,11.4546445 7.87236885,11.2712577 8.68475759,11.0944793 C13.344022,10.0825472 18.0187065,9.0664848 22.7639981,8.57001852 C25.1703244,8.31724201 32.2545814,6.93853616 33.6780877,9.68025259 C34.6049088,11.4662095 34.769659,14.2062738 35.2314464,16.1731393 C36.220759,20.3786465 37.1743621,24.5924144 38.0946906,28.8144429 C39.9605065,37.3782797 41.685108,45.973507 43.2668718,54.5951684 C43.8292948,57.659051 43.5403733,59.310359 40.5261758,60.419767 C38.1206611,61.3053108 35.5333531,61.5556091 33.0466807,62.1115522 C29.1129662,62.9913136 25.5525772,64.2568483 21.516604,64.8714421 C18.0398075,65.4017771 16.8784406,64.2585004 16.0571245,62.047119 C14.937148,59.0303222 14.1596571,55.724402 13.5209459,52.6117815 C12.9017125,49.5958108 11.9213273,46.7533142 10.9888251,43.8141678 C9.41517703,38.8577657 8.46725491,33.8286697 7.24583129,28.82766 C6.48294876,25.709257 5.78905029,22.5264208 5.23311994,19.398105 C4.81759243,17.0578571 3.44846177,13.6040709 6.04307394,11.9932402 C6.13072427,11.9387198 6.22080934,11.8875037 6.31170598,11.8395918" id="Fill-5" fill="#76CACA"></path>
                        <path d="M6.31170598,11.8395918 C7.04374858,11.4546445 7.87236885,11.2712577 8.68475759,11.0944793 C13.344022,10.0825472 18.0187065,9.0664848 22.7639981,8.57001852 C25.1703244,8.31724201 32.2545814,6.93853616 33.6780877,9.68025259 C34.6049088,11.4662095 34.769659,14.2062738 35.2314464,16.1731393 C36.220759,20.3786465 37.1743621,24.5924144 38.0946906,28.8144429 C39.9605065,37.3782797 41.685108,45.973507 43.2668718,54.5951684 C43.8292948,57.659051 43.5403733,59.310359 40.5261758,60.419767 C38.1206611,61.3053108 35.5333531,61.5556091 33.0466807,62.1115522 C29.1129662,62.9913136 25.5525772,64.2568483 21.516604,64.8714421 C18.0398075,65.4017771 16.8784406,64.2585004 16.0571245,62.047119 C14.937148,59.0303222 14.1596571,55.724402 13.5209459,52.6117815 C12.9017125,49.5958108 11.9213273,46.7533142 10.9888251,43.8141678 C9.41517703,38.8577657 8.46725491,33.8286697 7.24583129,28.82766 C6.48294876,25.709257 5.78905029,22.5264208 5.23311994,19.398105 C4.81759243,17.0578571 3.44846177,13.6040709 6.04307394,11.9932402 C6.13072427,11.9387198 6.22080934,11.8875037 6.31170598,11.8395918 Z" id="Stroke-7" stroke="#020303" stroke-width="2"></path>
                        <path d="M32.004526,66.3281756 L32.1957822,66.152115 C31.8662999,63.8821376 39.1644614,65.240964 37.1467088,67.8472622 C35.6210062,69.8177862 29.7642208,69.2301653 32.004526,66.3281756 Z" id="Stroke-9" stroke="#020303" stroke-width="2"></path>
                        <path d="M23.5,5 C20.1165477,5.25415282 16.552499,5.27242525 13.5,6" id="Stroke-11" stroke="#020303" stroke-width="2"></path>
                    </g>
                </g>
            </g>
        </g>
    </g>
</svg>