<?xml version="1.0" encoding="UTF-8"?>
<svg width="24px" height="25px" viewBox="0 0 24 25" version="1.1" xmlns="http://www.w3.org/2000/svg" xmlns:xlink="http://www.w3.org/1999/xlink">
    <defs>
        <rect id="path-1" x="0" y="0" width="814" height="720" rx="40"></rect>
        <filter x="-10.4%" y="-9.0%" width="120.9%" height="123.6%" filterUnits="objectBoundingBox" id="filter-2">
            <feOffset dx="0" dy="20" in="SourceAlpha" result="shadowOffsetOuter1"></feOffset>
            <feGaussianBlur stdDeviation="25" in="shadowOffsetOuter1" result="shadowBlurOuter1"></feGaussianBlur>
            <feColorMatrix values="0 0 0 0 0.478431373   0 0 0 0 0.407843137   0 0 0 0 0.674509804  0 0 0 0.2 0" type="matrix" in="shadowBlurOuter1"></feColorMatrix>
        </filter>
    </defs>
    <g id="Page-1" stroke="none" stroke-width="1" fill="none" fill-rule="evenodd">
        <g id="SHWA" transform="translate(-451.000000, -2831.000000)">
            <g id="ICONS_BG" transform="translate(116.000000, 1404.000000)"></g>
            <g id="BLOCK_5" transform="translate(-107.000000, 2414.000000)">
                <g id="Group-14" fill="#7A68AC">
                    <path d="M106,849 C354,780.333333 591.666667,746 819,746 C1046.33333,746 1288.66667,780.333333 1546,849 L1546,434 L106,434" id="Path-4"></path>
                    <path d="M0,18.8823407 C200.333333,139.549007 443.333333,182.715674 729,148.382341 C1157.5,96.8823407 1426.5,-40.1176593 1670,11.3823407 C1832.33333,45.715674 1832.33333,227.215674 1670,555.882341 L0,562.882341 L0,18.8823407 Z" id="Path-2" transform="translate(895.875000, 281.441170) scale(-1, 1) translate(-895.875000, -281.441170) "></path>
                </g>
                <g id="Group-26" transform="translate(420.000000, 229.000000)">
                    <g id="Group-24">
                        <g id="Rectangle">
                            <use fill="black" fill-opacity="1" filter="url(#filter-2)" xlink:href="#path-1"></use>
                            <use fill="#FFFFFF" fill-rule="evenodd" xlink:href="#path-1"></use>
                        </g>
                        <g id="Group-6" transform="translate(138.000000, 186.000000)">
                            <g id="Group-28" transform="translate(0.000000, 2.000000)">
                                <path d="M1.00291088,11.931607 C10.1686628,14.0463689 12.1517039,13.8733206 13.5993358,23.9963421 C13.599932,24.000653 13.6052981,24.0012688 13.6064905,23.9975738 C14.5055963,21.0582149 14.054851,16.5829747 16.2811515,14.6640469 L23,10.808948 C19.4250408,11.143344 13.2958578,8.44415896 13.5355399,1.19644993 C13.5361361,1.19213911 12.654917,1 12.654917,1 C12.7819127,9.66781414 7.10407131,12.1687018 1.00291088,11.9242171 C0.998737311,11.9242171 0.999333535,11.9303754 1.00291088,11.931607" id="Fill-22" fill="#FCCC0E"></path>
                                <path d="M6.27885954,12.2407824 C10.2506837,13.3201607 12.266371,14.6461477 13.5379803,19.0838671 C13.841747,17.0824941 14.3319842,15.1746837 15.7407397,13.963946 C15.7846505,13.9267688 15.8315689,13.8933093 15.8808934,13.8648067 L20.1227993,11.4371351 C18.605169,11.0442959 16.9654306,10.253041 15.5638934,8.88863753 C14.4384529,7.79314915 13.628208,6.46902095 13.1493996,4.96520291 C12.68202,6.88912339 11.8206461,8.48836293 10.5730975,9.74433292 C9.4398373,10.884434 7.99138165,11.7215407 6.27885954,12.2407824 M13.6167792,25 C13.5897109,25 13.5626425,24.9987608 13.5355742,24.9962823 C13.1193237,24.9572462 12.7794659,24.6245102 12.7199157,24.1982116 C11.438682,15.2601913 10.0419569,14.9448046 2.29139586,13.1949974 C1.78852671,13.0809873 1.26159683,12.9620202 0.708200151,12.8349981 C0.678124244,12.8281823 0.649251374,12.8201272 0.619776986,12.8095937 C0.200518851,12.6658418 -0.0593369808,12.2240527 0.0116421583,11.7742085 C0.0826212975,11.3243642 0.462780754,10.9910086 0.904896579,10.9910086 C3.49683819,11.0938656 7.01150862,10.7289093 9.31171394,8.41400852 C10.9833328,6.7323595 11.8062096,4.21918028 11.7580882,0.943248682 C11.7544791,0.660701906 11.8753842,0.391167152 12.0865171,0.211477316 C12.298853,0.0324070998 12.582168,-0.0376099743 12.846836,0.0193950772 C13.9211474,0.252991864 14.523267,0.38373171 14.4492803,1.19171635 C14.3698799,3.80465442 15.1620793,5.93924574 16.8030207,7.53724604 C18.6899831,9.37503933 21.2831277,10.0374132 23.0154999,9.87259429 C23.4413748,9.8391348 23.8341661,10.1049518 23.9598834,10.5244347 C24.0856007,10.9445371 23.9081528,11.3974794 23.5352116,11.6106287 L16.8373072,15.4442184 C15.6751742,16.506867 15.3972728,18.6885494 15.1277927,20.7995952 C14.9732026,22.0121918 14.8131987,23.2650637 14.4811607,24.3481596 C14.3614586,24.7379007 14.007766,25 13.6167792,25" id="Fill-24" fill="#221F20"></path>
                            </g>
                        </g>
                    </g>
                </g>
            </g>
        </g>
    </g>
</svg>