<?xml version="1.0" encoding="UTF-8"?>
<svg width="101px" height="64px" viewBox="0 0 101 64" version="1.1" xmlns="http://www.w3.org/2000/svg" xmlns:xlink="http://www.w3.org/1999/xlink">
    <defs>
        <polygon id="path-1" points="0.177198734 0.2922 100.965958 0.2922 100.965958 63.61364 0.177198734 63.61364"></polygon>
    </defs>
    <g id="Page-1" stroke="none" stroke-width="1" fill="none" fill-rule="evenodd">
        <g id="SHWA" transform="translate(-710.000000, -4288.000000)">
            <g id="ICONS_BG" transform="translate(116.000000, 1404.000000)"></g>
            <g id="BLOCK_7" transform="translate(420.000000, 4156.000000)">
                <g id="Group-154" transform="translate(22.000000, 132.000000)">
                    <g id="Group-28" transform="translate(268.000000, 0.074766)">
                        <g id="Group-3">
                            <mask id="mask-2" fill="white">
                                <use xlink:href="#path-1"></use>
                            </mask>
                            <g id="Clip-2"></g>
                            <path d="M76.0947177,14.01604 C74.1233759,14.01604 72.2080975,14.25134 70.369743,14.68294 C65.8546924,6.12894 56.8571861,0.29194 46.4880848,0.29194 C34.2897557,0.29194 23.9884519,8.36754 20.6546418,19.44744 C9.20078101,20.31714 0.177198734,29.85264 0.177198734,41.49414 C0.177198734,53.71024 10.1095278,63.61364 22.3613127,63.61364 L76.0947177,63.61364 C89.8315278,63.61364 100.965958,52.51034 100.965958,38.81484 C100.965958,25.11934 89.8315278,14.01604 76.0947177,14.01604" id="Fill-1" fill="#80BDC2" mask="url(#mask-2)"></path>
                        </g>
                        <path d="M36.2136692,45.3283704 L36.2136692,43.3424444 L38.7087462,42.635963 L38.7087462,45.3283704 L42.0028231,45.3283704 L42.0028231,47.6176296 L38.7087462,47.6176296 L38.7087462,50.2089259 C38.7087462,51.605037 39.0657462,52.4463333 40.2034385,52.4463333 L40.3381308,52.4463333 C40.9501308,52.4463333 41.6968231,52.2117037 42.2565154,51.8902222 L42.2565154,54.2805926 C41.5948231,54.5994815 40.6781308,54.803 40.0164385,54.803 L39.8804385,54.803 C37.6403615,54.803 36.2136692,53.3381852 36.2136692,50.7131852 L36.2136692,47.6176296 L36.2136692,45.3283704 Z" id="Fill-14" fill="#FFFFFF"></path>
                        <path d="M48.0960154,47.3645926 C47.2303231,47.3645926 46.5686308,47.6510741 46.2116308,48.2732963 L46.2116308,54.5331111 L43.7335538,54.5331111 L43.7335538,40.9297778 C45.1027077,40.9297778 46.2116308,42.0303333 46.2116308,43.3862593 L46.2116308,46.102 C46.9413231,45.4123704 47.8580154,45.0092222 48.8257077,45.0092222 L48.9277077,45.0092222 C50.9820923,45.0092222 52.3734769,46.4727407 52.3734769,49.0977407 L52.3734769,54.5331111 L49.8784,54.5331111 L49.8784,49.6032963 C49.8784,48.2058889 49.3357077,47.3645926 48.1980154,47.3645926 L48.0960154,47.3645926 Z" id="Fill-16" fill="#FFFFFF"></path>
                        <path d="M61.6784923,50.6286667 C60.4388,50.6286667 59.4541077,50.932 59.4541077,51.7564444 C59.4541077,52.2114444 59.8451077,52.5471852 60.3708,52.5471852 L60.4728,52.5471852 C61.2364923,52.5471852 62.0341846,52.0766296 62.3741846,51.269037 L62.3741846,50.6286667 L61.6784923,50.6286667 Z M64.8522615,51.3182963 C64.8522615,51.9755185 64.9882615,52.344963 65.4472615,52.344963 C65.7689538,52.344963 66.0069538,52.3112593 66.3299538,52.1945926 L66.3299538,54.5162593 C65.7859538,54.6679259 65.3622615,54.7171852 65.0732615,54.7171852 C63.9865692,54.7171852 62.9508769,54.432 62.5441846,53.4221852 C61.8144923,54.2803333 60.7958,54.8027407 59.7771077,54.8027407 L59.6751077,54.8027407 C58.2497231,54.8027407 56.9250308,53.7916296 56.9250308,52.2438519 C56.9250308,49.7031111 59.2344154,49.0471852 61.6784923,49.0471852 L62.3571846,49.0471852 C62.2721846,47.9025556 61.7974923,47.3645926 60.7108,47.3645926 L60.6088,47.3645926 C59.6751077,47.3645926 58.8604154,47.6679259 57.9267231,48.2564444 L57.9267231,45.6651481 C58.8264154,45.2607037 60.1511077,45.0092222 61.3214923,45.0092222 L61.4234923,45.0092222 C63.4778769,45.0092222 64.8522615,46.4727407 64.8522615,49.0977407 L64.8522615,51.3182963 Z" id="Fill-18" fill="#FFFFFF"></path>
                        <path d="M74.9517,45.3283704 L74.9517,43.3424444 L77.4467769,42.635963 L77.4467769,45.3283704 L80.7395462,45.3283704 L80.7395462,47.6176296 L77.4467769,47.6176296 L77.4467769,50.2089259 C77.4467769,51.605037 77.8037769,52.4463333 78.9414692,52.4463333 L79.0761615,52.4463333 C79.6881615,52.4463333 80.4348538,52.2117037 80.9945462,51.8902222 L80.9945462,54.2805926 C80.3328538,54.5994815 79.4161615,54.803 78.7544692,54.803 L78.6184692,54.803 C76.3770846,54.803 74.9517,53.3381852 74.9517,50.7131852 L74.9517,47.6176296 L74.9517,45.3283704 Z" id="Fill-20" fill="#FFFFFF"></path>
                        <path d="M85.5453154,26.6517222 C83.8701615,20.302463 76.6896231,21.0232037 74.9517,24.3819074 C73.2137769,21.0232037 66.0332385,20.302463 64.3580846,26.6517222 C62.5560846,33.4819074 74.9517,40.2135741 74.9517,40.2135741 C74.9517,40.2135741 87.3473154,33.4819074 85.5453154,26.6517222" id="Fill-22" fill="#CF695C"></path>
                        <path d="M50.3017,25.0863148 L50.3187,25.0863148 C51.6878538,25.0863148 52.7967769,26.1868704 52.7967769,27.5427963 L52.7967769,34.1227963 C52.7967769,35.2155741 53.0347769,35.7379815 53.9004692,35.7379815 C54.3241615,35.7379815 54.7831615,35.5863148 55.2408538,35.3672407 L55.2408538,37.774463 C54.5791615,38.0933519 53.8664692,38.2281667 53.2047769,38.2281667 C51.4223923,38.2281667 50.3017,36.9487222 50.3017,34.6102037 L50.3017,25.0863148 Z" id="Fill-24" fill="#FFFFFF"></path>
                        <path d="M56.1240692,25.0863148 L56.1410692,25.0863148 C57.5089154,25.0863148 58.6191462,26.1868704 58.6191462,27.5427963 L58.6191462,34.1227963 C58.6191462,35.2155741 58.8571462,35.7379815 59.7228385,35.7379815 C60.1465308,35.7379815 60.6055308,35.5863148 61.0632231,35.3672407 L61.0632231,37.774463 C60.4015308,38.0933519 59.6888385,38.2281667 59.0271462,38.2281667 C57.2447615,38.2281667 56.1240692,36.9487222 56.1240692,34.6102037 L56.1240692,25.0863148 Z" id="Fill-26" fill="#FFFFFF"></path>
                        <path d="M66.4450519,45.44705 L68.9157481,45.44705 L68.9157481,46.27385 C69.5937228,45.58225 70.4568367,45.17665 71.3538494,45.17665 L71.4555456,45.17665 C71.9966215,45.17665 72.4373051,45.31185 72.8936342,45.56535 L72.8936342,48.19785 C72.2678114,47.80915 71.4881405,47.53875 70.7958241,47.53875 L70.6771785,47.53875 C69.8805582,47.53875 69.2547354,47.89365 68.9157481,48.50075 L68.9157481,54.72905 L66.4450519,54.72905 L66.4450519,45.44705 Z" id="Fill-4" fill="#FFFFFF"></path>
                        <polygon id="Fill-13" fill="#FFFFFF" points="22.5 48.4038381 20.7459677 54 18.0061771 54 15 45 17.5390357 45 19.3767159 50.8911612 21.2131091 45 23.7868909 45 25.6232841 50.8911612 27.4609643 45 30 45 26.9938229 54 24.2540323 54"></polygon>
                        <polygon id="Fill-29" fill="#FFFFFF" points="32 54 34 54 34 45 32 45"></polygon>
                        <path d="M34,43 C34,41.8955696 33.1039578,41 32,41 L32,43 L34,43 Z" id="Fill-30" fill="#FFFFFF"></path>
                        <path d="M22.1937747,31.96527 C21.432357,31.47647 20.0099139,31.00327 19.1637494,31.00327 L19.0464076,31.00327 C18.5548759,31.00327 18.0985468,31.10467 18.0985468,31.49207 C18.0985468,31.91457 18.9616608,32.23567 19.977319,32.53857 C21.3984582,32.99487 22.8873949,33.83857 22.8873949,35.50907 C22.8873949,37.34857 21.2120152,38.46267 18.9447114,38.46267 L18.6396228,38.46267 C17.7426101,38.46267 16.5405089,38.14157 15.8468886,37.76977 L15.8468886,35.22177 C16.7439013,35.71057 18.1493949,36.01477 18.8938633,36.01477 L19.1468,36.01477 C19.7739266,36.01477 20.3319519,35.89647 20.3319519,35.49217 C20.3319519,35.03587 19.7061291,34.88507 18.8091165,34.63157 C17.3201797,34.22597 15.6095975,33.38227 15.6095975,31.59347 C15.6095975,29.70327 17.2184835,28.63987 19.1311544,28.63987 L19.4179899,28.63987 C20.2302557,28.63987 21.4662557,28.92847 22.1937747,29.28207 L22.1937747,31.96527 Z" id="Fill-6" fill="#FFFFFF"></path>
                        <path d="M28.4896823,31.00301 C27.7452139,31.00301 27.2367329,31.39171 26.9837962,32.06641 L26.9837962,38.19201 L24.5117962,38.19201 L24.5117962,28.91131 L26.9837962,28.91131 L26.9837962,29.72121 C27.5926696,29.06211 28.3540873,28.64091 29.2172013,28.64091 L29.3188975,28.64091 C30.3345557,28.64091 31.2485177,29.23111 31.806543,30.22691 C32.4832139,29.28181 33.4649734,28.64091 34.5992772,28.64091 L34.7009734,28.64091 C36.3424544,28.64091 37.7635937,30.24381 37.7635937,32.43821 L37.7635937,38.19201 L35.2759481,38.19201 L35.2759481,32.94391 C35.2759481,31.91431 34.8535177,31.00301 33.9734544,31.00301 L33.8717582,31.00301 C33.1442392,31.00301 32.6357582,31.35661 32.3815177,32.01571 L32.3815177,38.19201 L29.8938722,38.19201 L29.8938722,32.94391 C29.8938722,31.91431 29.4714418,31.00301 28.5913785,31.00301 L28.4896823,31.00301 Z" id="Fill-8" fill="#FFFFFF"></path>
                        <path d="M43.9076089,34.27641 C42.6716089,34.27641 41.6898494,34.58061 41.6898494,35.40741 C41.6898494,35.86371 42.0796848,36.20041 42.6038114,36.20041 L42.7055076,36.20041 C43.4682291,36.20041 44.2635456,35.72851 44.6012291,34.91861 L44.6012291,34.27641 L43.9076089,34.27641 Z M47.0719253,34.96931 C47.0719253,35.62711 47.2075203,35.99761 47.6651532,35.99761 C47.9858873,35.99761 48.2231785,35.96381 48.5452165,35.84681 L48.5452165,38.17511 C48.0028367,38.32721 47.5804063,38.37791 47.2922671,38.37791 C46.2088114,38.37791 45.1775076,38.09061 44.7707228,37.07791 C44.0432038,37.93851 43.0275456,38.46241 42.0118873,38.46241 L41.9101911,38.46241 C40.4890519,38.46241 39.1683051,37.44971 39.1683051,35.89751 C39.1683051,33.34951 41.4708114,32.69041 43.9076089,32.69041 L44.5842797,32.69041 C44.4995329,31.54251 44.0262544,31.00301 42.9427987,31.00301 L42.8411025,31.00301 C41.9101911,31.00301 41.0979253,31.30721 40.1670139,31.89741 L40.1670139,29.29871 C41.0640266,28.89311 42.3847734,28.64091 43.5516722,28.64091 L43.6533684,28.64091 C45.7016342,28.64091 47.0719253,30.10861 47.0719253,32.74111 L47.0719253,34.96931 Z" id="Fill-10" fill="#FFFFFF"></path>
                    </g>
                </g>
            </g>
        </g>
    </g>
</svg>