<?xml version="1.0" encoding="UTF-8"?>
<svg width="53px" height="48px" viewBox="0 0 53 48" version="1.1" xmlns="http://www.w3.org/2000/svg" xmlns:xlink="http://www.w3.org/1999/xlink">
    <g id="Page-1" stroke="none" stroke-width="1" fill="none" fill-rule="evenodd">
        <g id="SHWA" transform="translate(-1080.000000, -840.000000)">
            <g id="BLOCK_1" transform="translate(284.000000, 819.000000)">
                <g id="Group-35" transform="translate(772.000000, 22.000000)">
                    <g id="icon4" transform="translate(25.000000, 0.000000)">
                        <g id="Group-5">
                            <path d="M13.0058,27.1164 C10.8058,32.3404 9.8018,36.3674 6.9118,42.5424 C12.8568,41.4494 16.7588,39.1414 22.6228,36.9934 C24.8988,39.7414 27.1758,42.8324 29.4368,45.7604 C31.5198,40.8874 30.1928,36.3694 33.4688,32.5214 C36.8288,28.5744 45.9948,24.7194 50.5658,21.5174 C45.0638,21.6354 39.4718,21.6934 34.0068,21.4634 C33.6538,14.3204 33.7948,6.9374 34.6598,-0.0006 C29.5008,9.2464 21.6758,16.9224 21.6758,16.9224 C21.6758,16.9224 7.7818,18.0434 -0.0002,17.0214 C6.9578,22.4424 13.0058,27.1164 13.0058,27.1164" id="Fill-1" fill="#FACB0F"></path>
                            <path d="M13.0058,27.1164 C10.8058,32.3404 9.8018,36.3674 6.9118,42.5424 C12.8568,41.4494 16.7588,39.1414 22.6228,36.9934 C24.8988,39.7414 27.1758,42.8324 29.4368,45.7604 C31.5198,40.8874 30.1928,36.3694 33.4688,32.5214 C36.8288,28.5744 45.9948,24.7194 50.5658,21.5174 C45.0638,21.6354 39.4718,21.6934 34.0068,21.4634 C33.6538,14.3204 33.7948,6.9374 34.6598,-0.0006 C29.5008,9.2464 21.6758,16.9224 21.6758,16.9224 C21.6758,16.9224 7.7818,18.0434 -0.0002,17.0214 C6.9578,22.4424 13.0058,27.1164 13.0058,27.1164 Z" id="Stroke-3" stroke="#020303" stroke-width="2" stroke-linecap="round" stroke-linejoin="round"></path>
                        </g>
                    </g>
                </g>
            </g>
        </g>
    </g>
</svg>