<?xml version="1.0" encoding="UTF-8"?>
<svg width="144px" height="62px" viewBox="0 0 144 62" version="1.1" xmlns="http://www.w3.org/2000/svg" xmlns:xlink="http://www.w3.org/1999/xlink">
    <g id="Page-1" stroke="none" stroke-width="1" fill="none" fill-rule="evenodd">
        <g id="SHWA" transform="translate(-442.000000, -4293.000000)">
            <g id="ICONS_BG" transform="translate(116.000000, 1404.000000)"></g>
            <g id="BLOCK_7" transform="translate(420.000000, 4156.000000)">
                <g id="Group-154" transform="translate(22.000000, 132.000000)">
                    <g id="Group-142" transform="translate(0.000000, 4.074766)">
                        <path d="M81.3754611,23.9617306 C81.3754611,24.3587918 81.0622326,24.6735673 80.6476273,24.6735673 L72.4361021,24.6735673 C72.0318944,24.6735673 71.7082682,24.3587918 71.7082682,23.9617306 L71.7082682,18.3623837 C71.7082682,17.9666286 72.0318944,17.6518531 72.4361021,17.6518531 C72.8416095,17.6518531 73.1639359,17.9666286 73.1639359,18.3623837 L73.1639359,23.3726694 L75.8140309,23.3726694 L75.8140309,18.3623837 C75.8140309,17.9666286 76.137657,17.6518531 76.5418647,17.6518531 C76.9460724,17.6518531 77.2709982,17.9666286 77.2709982,18.3623837 L77.2709982,23.3726694 L79.9197935,23.3726694 L79.9197935,18.3623837 C79.9197935,17.9666286 80.2421199,17.6518531 80.6476273,17.6518531 C81.0622326,17.6518531 81.3754611,17.9666286 81.3754611,18.3623837 L81.3754611,23.9617306 Z" id="Fill-88" fill="#211F21"></path>
                        <path d="M86.4008938,21.1065469 L88.3920392,23.5346286 C88.5038136,23.6665469 88.5947929,23.8611592 88.5947929,24.0531592 C88.5947929,24.4606694 88.3023596,24.7754449 87.8877543,24.7754449 C87.6252142,24.7754449 87.4315585,24.6631184 87.2612973,24.4502204 L85.2090659,21.8379755 L84.7125792,21.8379755 L84.7125792,24.0636082 C84.7125792,24.4502204 84.3694576,24.7649959 83.9847454,24.7649959 C83.579238,24.7649959 83.2569116,24.4502204 83.2569116,24.0636082 L83.2569116,18.3636898 C83.2569116,17.9666286 83.579238,17.6518531 83.9847454,17.6518531 C84.3889531,17.6518531 84.7125792,17.9666286 84.7125792,18.3636898 L84.7125792,20.5475265 L85.1986682,20.5475265 L87.2197068,17.9561796 C87.3418789,17.7929143 87.5134398,17.6518531 87.805873,17.6518531 C88.2009828,17.6518531 88.493416,17.9770776 88.493416,18.3741388 C88.493416,18.5452408 88.423232,18.6980571 88.3023596,18.8495673 L86.4008938,21.1065469 Z" id="Fill-90" fill="#211F21"></path>
                        <path d="M92.9432101,24.7749224 C90.880581,24.7749224 89.2533525,23.3734531 89.2533525,21.2288 C89.2533525,19.0854531 90.880581,17.6617796 92.9432101,17.6617796 C95.0058392,17.6617796 96.6239697,19.0945959 96.6239697,21.2288 C96.6239697,23.3630041 95.0058392,24.7749224 92.9432101,24.7749224 M92.9432101,19.0332082 C91.7097917,19.0332082 90.7999994,19.9879837 90.7999994,21.2288 C90.7999994,22.4787592 91.7097917,23.4139429 92.9432101,23.4139429 C94.1779282,23.4139429 95.0773228,22.4683102 95.0773228,21.2288 C95.0773228,19.9879837 94.1779282,19.0332082 92.9432101,19.0332082" id="Fill-92" fill="#211F21"></path>
                        <path d="M98.4444641,22.600098 C98.6667134,21.9196082 98.7277994,21.0654041 98.7277994,19.8363429 L98.7277994,18.4649143 C98.7277994,18.0678531 99.0605234,17.7543837 99.4556332,17.7543837 L103.287158,17.7543837 C103.701764,17.7543837 104.014992,18.0678531 104.014992,18.4649143 L104.014992,24.0642612 C104.014992,24.4600163 103.701764,24.7747918 103.287158,24.7747918 C102.88425,24.7747918 102.559325,24.4600163 102.559325,24.0642612 L102.559325,19.0539755 L100.183467,19.0539755 L100.183467,19.8363429 C100.183467,20.9752816 100.053497,22.7529143 99.5063217,23.8709551 C99.2229864,24.4704653 98.9097579,24.7747918 98.4847549,24.7747918 C98.0805472,24.7747918 97.7569211,24.4704653 97.7569211,24.0538122 C97.7569211,23.5953633 98.2105175,23.3315265 98.4444641,22.600098" id="Fill-94" fill="#211F21"></path>
                        <path d="M109.567585,23.2717061 L107.069555,23.2717061 L106.716036,24.2878694 C106.614659,24.5921959 106.392409,24.7737469 105.998599,24.7737469 C105.563199,24.7737469 105.300659,24.4602776 105.300659,24.1037061 C105.300659,24.0122776 105.351347,23.8699102 105.38124,23.7784816 L107.322997,18.4129306 C107.475062,17.9975837 107.737602,17.6527673 108.343264,17.6527673 C108.939828,17.6527673 109.233561,17.9975837 109.375228,18.4129306 L111.287092,23.7784816 C111.316985,23.8607673 111.357276,24.0122776 111.357276,24.1037061 C111.357276,24.5203592 111.044047,24.7737469 110.619045,24.7737469 C110.265525,24.7737469 110.013383,24.6026449 109.921104,24.2878694 L109.567585,23.2717061 Z M107.434772,22.0922776 L109.214065,22.0922776 L108.332866,19.4904816 L107.434772,22.0922776 Z" id="Fill-96" fill="#211F21"></path>
                        <path d="M76.6025608,31.4923102 C76.1567626,31.4923102 75.9968991,31.1670857 75.0975045,31.1670857 C73.9238724,31.1670857 72.9529941,32.1323102 72.9529941,33.4031673 C72.9529941,34.7132082 73.8926795,35.6379429 75.0975045,35.6379429 C76.076181,35.6379429 76.2685371,35.2918204 76.7039377,35.2918204 C77.0782522,35.2918204 77.3810831,35.5778612 77.3810831,35.9723102 C77.3810831,36.3079837 77.0990475,36.5535347 76.7754214,36.6841469 C76.3192255,36.8565551 75.7629525,36.9675755 75.1053027,36.9675755 C73.0023828,36.9675755 71.4258427,35.5870041 71.4258427,33.4031673 C71.4258427,31.3799837 73.1453501,29.8557388 75.1260979,29.8557388 C75.7733501,29.8557388 76.2490415,29.9471673 76.6935401,30.1104327 C77.0483591,30.242351 77.2797062,30.4761469 77.2797062,30.8118204 C77.2797062,31.2180245 76.9768754,31.4923102 76.6025608,31.4923102" id="Fill-98" fill="#211F21"></path>
                        <path d="M80.3744297,35.0177959 L78.3416938,31.0236735 C78.2611122,30.8813061 78.2208214,30.7297959 78.2208214,30.5782857 C78.2208214,30.1603265 78.5548451,29.845551 78.9486552,29.845551 C79.3125721,29.845551 79.5140261,30.0179592 79.6868866,30.3849796 L81.1230588,33.3812245 L82.4266611,30.3849796 C82.589124,30.0088163 82.8009757,29.845551 83.1648926,29.845551 C83.5496047,29.845551 83.8732309,30.1511837 83.8732309,30.5560816 C83.8732309,30.7102041 83.8225424,30.8421224 83.7614564,30.9936327 L82.0627442,34.8349388 C81.3752012,36.3787755 80.3445365,36.9691429 79.1514089,36.9691429 C78.656222,36.9691429 78.4014801,36.6844082 78.4014801,36.3382857 C78.4014801,35.9830204 78.656222,35.6982857 79.1098184,35.6982857 C79.6465958,35.6982857 80.0404059,35.4749388 80.3744297,35.0177959" id="Fill-100" fill="#211F21"></path>
                        <path d="M91.0122409,36.258351 C91.0122409,36.6541061 90.6886148,36.9688816 90.2844071,36.9688816 C89.8788997,36.9688816 89.5565733,36.6541061 89.5565733,36.258351 L89.5565733,31.2480653 L86.5828522,31.2480653 L86.5828522,36.258351 C86.5828522,36.6541061 86.2592261,36.9688816 85.8563181,36.9688816 C85.4508107,36.9688816 85.1271846,36.6541061 85.1271846,36.258351 L85.1271846,30.657698 C85.1271846,30.2619429 85.4508107,29.9471673 85.8563181,29.9471673 L90.2844071,29.9471673 C90.6886148,29.9471673 91.0122409,30.2619429 91.0122409,30.657698 L91.0122409,36.258351 Z" id="Fill-102" fill="#211F21"></path>
                        <path d="M94.3492291,35.5663673 L97.6153834,35.5663673 C97.9689027,35.5663673 98.2418404,35.8706939 98.2418404,36.2168163 C98.2418404,36.5733878 97.9689027,36.8685714 97.6153834,36.8685714 L93.6213953,36.8685714 C93.2067899,36.8685714 92.8935614,36.5524898 92.8935614,36.1554286 L92.8935614,30.6592653 C92.8935614,30.2622041 93.2067899,29.9474286 93.6213953,29.9474286 L97.6153834,29.9474286 C97.9689027,29.9474286 98.2418404,30.2413061 98.2418404,30.5978776 C98.2418404,30.9531429 97.9689027,31.2483265 97.6153834,31.2483265 L94.3492291,31.2483265 L94.3492291,32.7412245 L97.0890036,32.7412245 C97.4334249,32.7412245 97.7050629,33.0364082 97.7050629,33.3916735 C97.7050629,33.7469388 97.4334249,34.0316735 97.0890036,34.0316735 L94.3492291,34.0316735 L94.3492291,35.5663673 Z" id="Fill-104" fill="#211F21"></path>
                        <path d="M102.752331,29.9476898 C103.328099,29.9476898 103.905167,30.0587102 104.400354,30.4662204 C104.915037,30.8933224 105.239963,31.5529143 105.239963,32.3653224 C105.239963,33.1986286 104.885144,33.8908735 104.328871,34.3179755 C103.844081,34.6928327 103.298206,34.7842612 102.752331,34.7842612 L101.195286,34.7842612 L101.195286,36.2588735 C101.195286,36.6533224 100.850865,36.968098 100.466153,36.968098 C100.061945,36.968098 99.7383187,36.6533224 99.7383187,36.2588735 L99.7383187,30.6582204 C99.7383187,30.2624653 100.061945,29.9476898 100.466153,29.9476898 L102.752331,29.9476898 Z M103.328099,31.4314449 C103.116247,31.2786286 102.852408,31.2263837 102.559974,31.2263837 L101.195286,31.2263837 L101.195286,33.5042612 L102.528782,33.5042612 C102.813417,33.5042612 103.095452,33.4533224 103.307304,33.3109551 C103.591939,33.1385469 103.7635,32.8237714 103.7635,32.3653224 C103.7635,31.9094857 103.591939,31.6038531 103.328099,31.4314449 L103.328099,31.4314449 Z" id="Fill-106" fill="#211F21"></path>
                        <path d="M106.786869,30.6587429 C106.786869,30.2616816 107.100098,29.9482122 107.514703,29.9482122 L110.791255,29.9482122 C111.144774,29.9482122 111.417712,30.2420898 111.417712,30.5973551 C111.417712,30.9434776 111.144774,31.2478041 110.791255,31.2478041 L108.242537,31.2478041 L108.242537,36.2593959 C108.242537,36.6538449 107.918911,36.9686204 107.514703,36.9686204 C107.100098,36.9686204 106.786869,36.6538449 106.786869,36.2593959 L106.786869,30.6587429 Z" id="Fill-108" fill="#211F21"></path>
                        <path d="M114.22897,35.5663673 L117.495125,35.5663673 C117.848644,35.5663673 118.121582,35.8706939 118.121582,36.2168163 C118.121582,36.5733878 117.848644,36.8685714 117.495125,36.8685714 L113.501136,36.8685714 C113.086531,36.8685714 112.773303,36.5524898 112.773303,36.1554286 L112.773303,30.6592653 C112.773303,30.2622041 113.086531,29.9474286 113.501136,29.9474286 L117.495125,29.9474286 C117.848644,29.9474286 118.121582,30.2413061 118.121582,30.5978776 C118.121582,30.9531429 117.848644,31.2483265 117.495125,31.2483265 L114.22897,31.2483265 L114.22897,32.7412245 L116.968745,32.7412245 C117.313166,32.7412245 117.584804,33.0364082 117.584804,33.3916735 C117.584804,33.7469388 117.313166,34.0316735 116.968745,34.0316735 L114.22897,34.0316735 L114.22897,35.5663673 Z" id="Fill-110" fill="#211F21"></path>
                        <path d="M122.632202,29.9476898 C123.20797,29.9476898 123.785039,30.0587102 124.280226,30.4662204 C124.794908,30.8933224 125.119834,31.5529143 125.119834,32.3653224 C125.119834,33.1986286 124.765015,33.8908735 124.208742,34.3179755 C123.723953,34.6928327 123.178077,34.7842612 122.632202,34.7842612 L121.075157,34.7842612 L121.075157,36.2588735 C121.075157,36.6533224 120.730736,36.968098 120.346024,36.968098 C119.941816,36.968098 119.61819,36.6533224 119.61819,36.2588735 L119.61819,30.6582204 C119.61819,30.2624653 119.941816,29.9476898 120.346024,29.9476898 L122.632202,29.9476898 Z M123.20797,31.4314449 C122.996119,31.2786286 122.732279,31.2263837 122.439846,31.2263837 L121.075157,31.2263837 L121.075157,33.5042612 L122.409953,33.5042612 C122.693288,33.5042612 122.976623,33.4533224 123.187175,33.3109551 C123.47181,33.1385469 123.643371,32.8237714 123.643371,32.3653224 C123.643371,31.9094857 123.47181,31.6038531 123.20797,31.4314449 L123.20797,31.4314449 Z" id="Fill-112" fill="#211F21"></path>
                        <path d="M130.073783,36.968751 C128.011154,36.968751 126.383925,35.5672816 126.383925,33.4226286 C126.383925,31.2792816 128.011154,29.8556082 130.073783,29.8556082 C132.136412,29.8556082 133.754542,31.2884245 133.754542,33.4226286 C133.754542,35.5568327 132.136412,36.968751 130.073783,36.968751 M130.073783,31.2270367 C128.840364,31.2270367 127.930572,32.1831184 127.930572,33.4226286 C127.930572,34.6725878 128.840364,35.6077714 130.073783,35.6077714 C131.308501,35.6077714 132.206596,34.6608327 132.206596,33.4226286 C132.206596,32.1831184 131.308501,31.2270367 130.073783,31.2270367" id="Fill-114" fill="#211F21"></path>
                        <path d="M134.148612,28.1185959 C134.148612,27.6914939 134.493034,27.3466776 134.916737,27.3466776 C135.352138,27.3466776 135.686161,27.6914939 135.686161,28.1185959 C135.686161,28.5443918 135.352138,28.9009633 134.916737,28.9009633 C134.493034,28.9009633 134.148612,28.5443918 134.148612,28.1185959 L134.148612,28.1185959 Z M135.352138,30.5675755 C135.352138,30.1705143 135.675764,29.8557388 136.079972,29.8557388 C136.485479,29.8557388 136.809105,30.1705143 136.809105,30.5675755 L136.809105,36.2570449 C136.809105,36.6541061 136.464684,36.9688816 136.079972,36.9688816 C135.675764,36.9688816 135.352138,36.6541061 135.352138,36.2570449 L135.352138,30.5675755 Z M136.495877,28.1185959 C136.495877,27.6914939 136.838998,27.3466776 137.262701,27.3466776 C137.687704,27.3466776 138.030826,27.6914939 138.030826,28.1185959 C138.030826,28.5443918 137.687704,28.9009633 137.262701,28.9009633 C136.838998,28.9009633 136.495877,28.5443918 136.495877,28.1185959 L136.495877,28.1185959 Z" id="Fill-116" fill="#211F21"></path>
                        <path d="M141.530927,36.868049 L139.407212,36.868049 C138.992607,36.868049 138.679378,36.5532735 138.679378,36.1562122 L138.679378,30.6587429 C138.679378,30.2616816 138.992607,29.9469061 139.407212,29.9469061 L141.16701,29.9469061 C142.187277,29.9469061 143.259532,30.5059265 143.259532,31.7049469 C143.259532,32.4063347 142.956701,32.9353143 142.400428,33.188702 L142.400428,33.2096 C143.392102,33.4420898 143.826203,34.084702 143.826203,34.9872327 C143.826203,36.2776816 142.673366,36.868049 141.530927,36.868049 M140.90447,31.1263347 L140.135046,31.1263347 L140.135046,32.7616 L140.892773,32.7616 C141.267087,32.7616 141.803865,32.6100898 141.803865,31.8995592 C141.803865,31.3901714 141.398357,31.1263347 140.90447,31.1263347 M141.156612,33.9305796 L140.135046,33.9305796 L140.135046,35.6781714 L141.207301,35.6781714 C141.793467,35.6781714 142.340642,35.5162122 142.340642,34.8056816 C142.340642,34.2962939 141.996221,33.9305796 141.156612,33.9305796" id="Fill-118" fill="#211F21"></path>
                        <path d="M27.9407608,43.9986939 C27.9407608,33.4700408 27.887473,23.2169796 27.4468736,11.5441633 C31.6930042,11.349551 37.9458766,13.4576327 42.1140249,14.091102 C47.1555739,14.8538776 46.4433365,15.7511837 46.6239953,20.5485714 C46.8111525,25.5183673 47.5571822,30.5221224 48.0120783,35.4710204 C48.2928142,38.5534694 49.5808202,42.804898 48.933568,45.7789388 C45.3411881,45.8272653 41.264019,43.8132245 37.4649864,43.6382041 C34.4548736,43.4997551 31.2939953,43.5572245 28.3904582,43.9986939 C29.1468855,44.171102 29.4042267,43.8432653 30.0176866,43.6512653" id="Fill-120" fill="#FFFFFF"></path>
                        <path d="M28.321054,43.9986939 C28.321054,39.9079184 28.3119561,35.8145306 28.2768641,31.7211429 C28.2404724,27.5115102 28.1741875,23.3031837 28.0663122,19.0948571 C28.001327,16.5766531 27.9233448,14.0610612 27.8271668,11.5441633 C27.7010955,11.6721633 27.5737246,11.8001633 27.4489531,11.9268571 C29.0488878,11.8589388 30.651422,12.0796735 32.2240629,12.3670204 C33.9890599,12.6883265 35.7345614,13.1075918 37.4800629,13.515102 C39.0449056,13.8808163 40.6084487,14.2360816 42.1953864,14.485551 C43.2286504,14.6475102 44.4360748,14.7885714 45.3276712,15.3906939 C45.8527513,15.7446531 46.0581045,16.352 46.1295881,17.0324898 C46.2491608,18.197551 46.2010718,19.3795918 46.243962,20.5485714 C46.4090243,24.9436735 47.0042884,29.3048163 47.4552855,33.6737959 C47.5566623,34.6429388 47.6294457,35.6133878 47.7646148,36.576 C47.8841875,37.4406531 48.0388522,38.3000816 48.1883181,39.1582041 C48.4963478,40.9240816 48.8186742,42.7265306 48.7172973,44.5263673 C48.6952024,44.9142857 48.6471134,45.2982857 48.5665318,45.6783673 C48.6887039,45.5830204 48.810876,45.4902857 48.9330481,45.397551 C46.3323418,45.4171429 43.8187157,44.5002449 41.3219858,43.8876735 C40.0547751,43.5755102 38.7680688,43.3208163 37.4644665,43.2555102 C36.0217958,43.1862857 34.5739264,43.1693061 33.1299561,43.211102 C31.5105258,43.2581224 29.893695,43.3900408 28.2911608,43.6303673 C27.9194457,43.6865306 27.9363418,44.2964898 28.2911608,44.3670204 C28.6251846,44.4336327 28.9566089,44.4545306 29.2880332,44.3526531 C29.5726682,44.266449 29.8339086,44.1136327 30.1185436,44.0195918 C30.5799383,43.8654694 30.3823834,43.1275102 29.9157899,43.2829388 C29.4271015,43.4462041 29.0280926,43.7387755 28.4926148,43.6303673 L28.4926148,44.3670204 C31.3181697,43.9425306 34.1970125,43.8902857 37.0485614,44.0013061 C39.6908582,44.107102 42.1823893,44.9417143 44.7337068,45.5634286 C46.1074932,45.899102 47.5137721,46.1720816 48.9330481,46.1603265 C49.0916119,46.1590204 49.2644724,46.0427755 49.2995644,45.8808163 C49.664781,44.1475918 49.4555288,42.346449 49.1942884,40.6158367 C48.9252499,38.8173061 48.5379383,37.0357551 48.3676772,35.2228571 C47.9504724,30.7441633 47.3097187,26.2850612 47.0627751,21.792 C46.9821935,20.3435102 47.0120866,18.891102 46.9237068,17.4439184 C46.8730184,16.6249796 46.752146,15.7720816 46.1867751,15.1373061 C45.5551193,14.4267755 44.5231549,14.1642449 43.6341579,13.973551 C42.9076237,13.8181224 42.1693923,13.7240816 41.4363596,13.5921633 C40.6279442,13.4445714 39.8234279,13.2708571 39.021511,13.088 C35.5889947,12.3108571 32.1213864,11.2946939 28.5848938,11.1601633 C28.2053804,11.147102 27.8258671,11.147102 27.4489531,11.1627755 C27.2474991,11.1706122 27.0590421,11.3312653 27.0681401,11.5441633 C27.2319027,15.9079184 27.348876,20.2716735 27.4255585,24.6380408 C27.4983418,28.7706122 27.5334338,32.9044898 27.55033,37.0396735 C27.5581282,39.3593469 27.5607276,41.6790204 27.5607276,43.9986939 C27.5607276,44.4897959 28.321054,44.491102 28.321054,43.9986939" id="Fill-122" fill="#211F21"></path>
                        <path d="M62.9040783,8.74488163 C62.9040783,8.74488163 47.383022,14.3455347 45.9325531,15.2833306 L48.6996214,45.879249 C50.6608736,45.1713306 65.6893424,40.5594122 65.6893424,40.5594122 L62.9040783,8.74488163 Z" id="Fill-124" fill="#FFFFFF"></path>
                        <path d="M62.8029614,8.37694694 C61.0145697,9.02217143 59.2300772,9.67653878 57.4468843,10.3348245 C54.44327,11.4437224 51.4383561,12.5526204 48.4685341,13.7477224 C47.8719703,13.9867429 47.2780059,14.2296816 46.6892404,14.4882939 C46.3695134,14.628049 46.0367893,14.7651918 45.7391573,14.9532735 C45.6338813,15.0211918 45.5403027,15.1491918 45.552,15.2824163 C45.6442789,16.3038041 45.7378576,17.3251918 45.8301365,18.3439673 C46.0484866,20.7733551 46.2681365,23.2014367 46.4877864,25.6295184 C46.7542255,28.5748245 47.0206647,31.5214367 47.2884036,34.468049 C47.518451,37.0149878 47.7484985,39.5632327 47.978546,42.1101714 C48.0916202,43.3496816 48.1877982,44.5891918 48.3164688,45.8273959 C48.3164688,45.8456816 48.3177685,45.8613551 48.320368,45.8796408 C48.3411632,46.1069061 48.5491157,46.3380898 48.7999585,46.2479673 C50.9795608,45.4629878 53.2163501,44.8216816 55.424546,44.132049 C58.2514006,43.2517224 61.0808546,42.3766204 63.9103086,41.5041306 C64.5367656,41.3121306 65.1632226,41.1201306 65.7896795,40.9268245 C65.9391454,40.8811102 66.0847122,40.7269878 66.0691157,40.558498 C65.9768368,39.503151 65.8858576,38.4491102 65.7922789,37.3950694 C65.5713294,34.862498 65.3490801,32.3286204 65.1268309,29.796049 C64.859092,26.7318857 64.5900534,23.6690286 64.3223145,20.6048653 C64.0909674,17.9547429 63.8583205,15.3085388 63.6256736,12.6571102 C63.5138991,11.3731918 63.4177211,10.0827429 63.2890504,8.79882449 C63.286451,8.7818449 63.2851513,8.76355918 63.2838516,8.74527347 C63.2409614,8.25939592 62.480635,8.25417143 62.5235252,8.74527347 C62.6171039,9.79931429 62.7093828,10.8533551 62.8016617,11.9100082 L63.4658101,19.5064163 C63.733549,22.5718857 64.0025875,25.636049 64.2716261,28.7002122 C64.5029733,31.3490286 64.7343205,33.9965388 64.9669674,36.6453551 C65.0436499,37.519151 65.1203323,38.3903347 65.1970148,39.2641306 C65.2321068,39.662498 65.213911,40.1131102 65.3061899,40.5062531 C65.310089,40.5219265 65.3087893,40.5402122 65.310089,40.558498 C65.402368,40.4370286 65.4959466,40.3142531 65.5882255,40.1901714 C63.8466231,40.7243755 62.1063205,41.262498 60.3660178,41.8006204 C57.4039941,42.7162122 54.44327,43.6318041 51.4877448,44.5696 C50.523365,44.8752327 49.5511869,45.1678041 48.5985045,45.5113143 C48.7596677,45.6340898 48.9195312,45.7568653 49.0793947,45.8796408 C48.9871157,44.8595592 48.8961365,43.8381714 48.8025579,42.8193959 C48.5842077,40.3900082 48.3645579,37.9606204 48.1436083,35.5338449 C47.8771691,32.5872327 47.61073,29.6406204 47.3442908,26.6953143 C47.1129436,24.1483755 46.8841958,21.6001306 46.6528487,19.0531918 L46.4241009,16.527151 C46.3903086,16.1457633 46.4085045,15.7082122 46.3162255,15.3346612 C46.3123264,15.3189878 46.3123264,15.300702 46.3123264,15.2824163 C46.2499407,15.3921306 46.1862552,15.503151 46.1238694,15.6128653 C46.8127122,15.172702 47.5678398,14.9323755 48.3008724,14.6319673 C49.6694599,14.0768653 51.0471454,13.5465796 52.4274303,13.0241306 C55.2971751,11.9322122 58.1812166,10.8690286 61.0665579,9.81629388 C61.7138101,9.58119184 62.3571632,9.3460898 63.0044154,9.1136 C63.461911,8.94772245 63.2643561,8.20976327 62.8029614,8.37694694" id="Fill-126" fill="#211F21"></path>
                        <path d="M39.8839941,38.480849 C39.573365,37.9205224 37.7472819,35.8529306 37.5731217,37.4738286 C37.4912404,38.2261551 37.6108131,38.9824 37.690095,39.7334204 C37.7680772,40.4857469 37.8005697,41.2641959 37.5588249,41.979951 C36.9856558,43.664849 34.838546,44.0893388 33.4686588,43.1045224 C32.0051929,42.0517878 31.5022077,39.9567673 31.2526647,38.1908898 C30.8471573,35.3344 31.1135964,32.4530939 31.7153591,29.7585633 C32.3093234,27.0875429 34.1367062,23.1757061 37.0129496,26.1027265 C37.9916261,27.0979918 38.2983561,28.3884408 39.0131929,26.161502 C39.4225994,24.8945633 38.9313116,23.2122776 38.2983561,22.1804408 C36.1759407,18.7218286 31.6750682,20.2421551 30.3597685,23.4343184 C29.0639644,26.576849 28.2022611,29.8682776 27.453632,33.1662367 C27.0663205,34.8707265 26.3540831,36.4628898 24.5955846,35.3069714 C23.8469555,34.8145633 23.6494006,34.0099918 23.5623205,33.1636245 C23.1256202,28.8390531 22.7876973,24.561502 22.7876973,20.2081959 C22.7876973,17.2785633 22.5966409,14.4730122 22.3782908,11.5825633 C22.1768368,8.91284898 22.679822,5.09766531 21.2787418,2.72574694 C19.8906588,3.09799184 19.9257507,6.18174694 19.84127,7.41733878 C19.5904273,11.0953796 19.473454,14.7329306 19.473454,18.4227265 C19.473454,20.2042776 20.1207062,38.7668898 15.6471276,35.6452571 C13.0724154,33.8506449 13.4831217,22.5984 13.3960415,19.8973388 C13.2478754,15.3664 13.3830445,8.48052245 12.653911,4.00574694 C12.417365,2.55986939 11.8506944,0.0429714286 10.7303501,2.01129796 C10.051905,3.20117551 10.4496142,7.38599184 10.4496142,8.71693061 C10.4496142,12.4001959 9.50213056,15.9149714 9.62040356,19.5629714 C9.73477745,23.099951 10.5535905,36.0566857 6.94561424,35.5355429 C4.63474184,35.2011755 4.3384095,24.3081143 4.19674184,22.6846041 C3.93550148,19.6779102 3.60407715,16.7143184 3.17517507,13.7468082 C2.86194659,11.5851755 3.43121662,6.43774694 1.42057567,5.11856327 C-0.226148368,6.28623673 0.597863501,10.6421551 0.510783383,12.4419918 C0.25084273,17.777502 0.713537092,23.259298 1.43097329,28.5726041 C1.84557864,31.6485224 3.16477745,38.9014204 3.39222552,42.0099918 C3.55208902,44.1690122 3.27135312,46.4233796 2.93213056,48.5523592 C2.67998813,50.1379918 0.515982196,54.7433796 1.26591098,56.0103184 C1.53235015,56.4609306 2.02363798,56.7195429 2.49543027,56.945502 C6.58689614,58.9125224 11.4607834,61.9871347 16.0513353,62.3110531 C15.2286231,62.2522776 19.7814837,55.3272163 20.3481543,54.7264 C28.719543,45.8264816 40.4441662,51.313502 40.5093407,41.2942367 C40.5156499,40.3316245 40.3557864,39.3311347 39.8839941,38.480849" id="Fill-128" fill="#54A3A3"></path>
                        <path d="M40.2116493,38.2876735 C39.9777027,37.8801633 39.6371804,37.5079184 39.2953585,37.1866122 C38.9457383,36.8574694 38.4765454,36.4577959 37.9644623,36.4878367 C37.2405276,36.5322449 37.172943,37.3955918 37.1664445,37.9506939 C37.1547472,38.9838367 37.4250855,40.0052245 37.3562012,41.0409796 C37.3042131,41.8050612 37.0104801,42.5195102 36.3346344,42.923102 C35.7770617,43.2548571 35.088219,43.3266939 34.4656611,43.1595102 C32.9294119,42.7454694 32.2405691,41.0148571 31.9013466,39.6133878 C31.4334534,37.6816327 31.3567709,35.6506122 31.5036374,33.6718367 C31.6375068,31.8654694 31.9143436,29.9911837 32.5421003,28.2853878 C32.9177145,27.2666122 33.5636671,25.7841633 34.7269015,25.4850612 C36.0032101,25.1572245 36.8766107,26.5939592 37.5953466,27.3893878 C37.904676,27.7315918 38.3634712,27.9327347 38.7468837,27.5657143 C38.9704326,27.3502041 39.0926047,27.0445714 39.2043792,26.762449 C39.3642427,26.3588571 39.4838154,25.9487347 39.5254059,25.5137959 C39.68267,23.9124898 38.973032,22.0643265 37.8084979,20.9645714 C35.7458688,19.0158367 32.5395009,19.8112653 30.8667828,21.867102 C30.3780944,22.4666122 30.0713644,23.1235918 29.7893288,23.8393469 C29.394219,24.8346122 29.0419994,25.845551 28.719673,26.8656327 C28.0724208,28.9201633 27.5642368,31.0112653 27.0768481,33.1102041 C26.9247828,33.7593469 26.7467234,34.5430204 26.2697323,35.0393469 C25.7823436,35.5474286 25.0532101,35.2470204 24.5996136,34.8303673 C23.9354653,34.2177959 23.9432635,33.1859592 23.8626819,32.3526531 C23.7548065,31.2555102 23.6534297,30.1557551 23.5650499,29.056 C23.3856908,26.8617143 23.2518214,24.6635102 23.1959341,22.4626939 C23.1400469,20.2462041 23.1595424,18.0336327 23.0412694,15.8197551 C22.9359935,13.8566531 22.7202427,11.8961633 22.7020469,9.93044898 C22.6864504,8.19461224 22.7397383,6.43657143 22.399216,4.72555102 C22.245851,3.95885714 21.9989074,3.21044898 21.6076967,2.53257143 C21.523216,2.39020408 21.3386582,2.31053061 21.177495,2.35885714 C20.0220588,2.6997551 19.7569193,4.15869388 19.6217501,5.19053061 C19.4371923,6.62595918 19.4098985,8.10057143 19.3319163,9.54514286 C19.1590558,12.6994286 19.0511804,15.8693878 19.1005691,19.0275918 C19.1239638,20.4917551 19.1343614,21.9546122 19.1135662,23.4174694 C19.083673,25.4354286 19.0056908,27.456 18.8016374,29.4648163 C18.7067591,30.3973878 18.5832872,31.3273469 18.39613,32.2468571 C18.2518629,32.96 18.0439104,33.7867755 17.7761715,34.3915102 C17.6591982,34.6579592 17.5227294,34.9165714 17.3498688,35.1529796 C17.3758629,35.1190204 17.3173763,35.1934694 17.2796849,35.2378776 C17.2380944,35.2835918 17.1965039,35.328 17.1523139,35.3684898 C17.1094237,35.4102857 17.0236433,35.4742857 17.0769312,35.4377143 C17.0327412,35.4690612 16.9859519,35.4977959 16.9391626,35.5265306 C16.9183674,35.5395918 16.8962724,35.5500408 16.8741774,35.5604898 C16.810492,35.5931429 16.9404623,35.5369796 16.8754772,35.5604898 C16.8260884,35.5774694 16.7766997,35.5918367 16.7260113,35.6062041 C16.622035,35.6336327 16.7702012,35.6166531 16.6480291,35.6166531 C16.5934415,35.6166531 16.538854,35.6166531 16.4868659,35.6127347 C16.5505513,35.6166531 16.4699697,35.6114286 16.4062843,35.594449 C16.3425988,35.5774694 16.2815128,35.5591837 16.219127,35.5356735 C16.2646166,35.5526531 16.1671389,35.5121633 16.1151507,35.4847347 C16.0514653,35.4520816 15.9877798,35.4155102 15.9266938,35.3763265 C15.7135424,35.2391837 15.5081893,35.008 15.3509252,34.7559184 C15.141673,34.4137143 14.988308,34.0440816 14.8596374,33.6653061 C14.5217145,32.6569796 14.335857,31.595102 14.2006878,30.5423673 C13.8874593,28.1103673 13.8250736,25.6457143 13.8016789,23.1980408 C13.7821834,21.0533878 13.7418926,18.9126531 13.7081003,16.7693061 C13.6574119,13.3250612 13.6470142,9.87036735 13.3324861,6.43787755 C13.2051151,5.04163265 13.0803436,3.57746939 12.6436433,2.23738776 C12.4928777,1.77763265 12.2732279,1.16244898 11.7858392,0.966530612 C11.1944742,0.730122449 10.7278807,1.27477551 10.4536433,1.73061224 C10.1859045,2.176 10.1014237,2.69583673 10.0403377,3.20391837 C9.96235549,3.84653061 9.95065816,4.49959184 9.95325757,5.14742857 C9.95975608,6.32555102 10.0611329,7.4997551 10.0689312,8.67657143 C10.0819282,10.7115102 9.77909733,12.7346939 9.53605282,14.7513469 C9.3281003,16.4845714 9.18773234,18.2151837 9.25531691,19.9627755 C9.3294,21.9441633 9.4099816,23.9242449 9.39958398,25.9082449 C9.38788665,28.1195102 9.33979763,30.3934694 8.84721009,32.5577143 C8.68084807,33.2930612 8.4546997,34.1002449 8.01929911,34.6684082 C7.96211217,34.741551 7.83084214,34.8839184 7.72816558,34.9675102 C7.75285994,34.9466122 7.67227834,35.008 7.62288961,35.0367347 C7.59429614,35.0524082 7.56830208,35.0680816 7.53970861,35.0811429 C7.46432582,35.1242449 7.56310326,35.0772245 7.50331691,35.1007347 C7.44093116,35.1242449 7.3772457,35.1412245 7.31096083,35.1555918 C7.23687774,35.1738776 7.30966113,35.1595102 7.28886588,35.1608163 C7.25247418,35.1647347 7.21478279,35.1673469 7.1783911,35.1686531 C7.11210623,35.1699592 7.04582136,35.1673469 6.9808362,35.156898 C7.06921602,35.1712653 6.9002546,35.1307755 6.86646231,35.1190204 C6.95614184,35.1529796 6.81707359,35.0837551 6.78458101,35.0654694 C6.75858694,35.0471837 6.71829614,35.0132245 6.76768487,35.0537143 C6.73909139,35.0315102 6.71309733,35.008 6.68710326,34.9818776 C6.55583323,34.8512653 6.5428362,34.8316735 6.44405875,34.677551 C6.24390445,34.3653878 6.10873531,34.0401633 5.99046231,33.6966531 C5.65513887,32.7379592 5.46278279,31.7283265 5.30291929,30.7278367 C4.96109733,28.6132245 4.80513294,26.4685714 4.67776202,24.3291429 C4.50880059,21.4726531 4.20337033,18.6266122 3.8342546,15.787102 C3.72507953,14.9459592 3.57041484,14.1061224 3.50153056,13.2623673 C3.45474125,12.6902857 3.44304392,12.116898 3.42744748,11.5422041 C3.39105579,10.2138776 3.35986291,8.8724898 3.10772047,7.56506122 C2.90496677,6.52277551 2.52675312,5.40865306 1.61306172,4.78955102 C1.51038516,4.72032653 1.33102611,4.71510204 1.22964926,4.78955102 C0.566800593,5.27804082 0.271767953,6.05387755 0.13529911,6.84408163 C-0.0271637982,7.80016327 -0.0154664688,8.77583673 0.0287234421,9.74106122 C0.0651151335,10.5795918 0.150895549,11.4220408 0.136598813,12.2618776 C0.111904451,13.675102 0.0443198813,15.083102 0.0651151335,16.4976327 C0.136598813,21.696 0.74875905,26.869551 1.57147122,31.9986939 C1.91459288,34.1276735 2.26551276,36.2579592 2.57744154,38.3934694 C2.8802724,40.4871837 3.14411217,42.5613061 3.01414184,44.682449 C2.93226053,46.016 2.81268783,47.4044082 2.51375608,48.7092245 C2.33959585,49.4759184 2.05496083,50.2204082 1.80151869,50.9635918 C1.49868783,51.8491429 1.19325757,52.7373061 0.969708605,53.6489796 C0.800747181,54.3412245 0.607091395,55.1510204 0.796848071,55.8602449 C1.08278279,56.9273469 2.43187478,57.3296327 3.30267596,57.7684898 C4.4724089,58.357551 5.6278451,58.9701224 6.79627834,59.5591837 C9.16303798,60.7529796 11.6194772,61.9062857 14.2292813,62.4378776 C14.8310439,62.5606531 15.439305,62.6468571 16.0514653,62.6925714 C16.5453525,62.7278367 16.5271567,61.9833469 16.0514653,61.9271837 C16.2165276,61.9480816 16.2867116,62.0564898 16.324403,62.1244082 C16.2997086,62.0786939 16.3555958,62.2328163 16.3322012,62.1570612 C16.3140053,62.0982857 16.3361003,62.1257143 16.3283021,62.1622857 C16.3516967,62.0303673 16.3971864,61.9062857 16.4439757,61.7822041 C16.5596493,61.4752653 16.8000944,61.0155102 16.9924504,60.6602449 C17.5604208,59.6127347 18.1894772,58.5965714 18.8328303,57.5947755 C19.3501122,56.7862857 19.8738926,55.979102 20.445762,55.2084898 C20.4639579,55.1823673 20.4847531,55.1549388 20.5042487,55.1288163 C20.515946,55.114449 20.4613585,55.1823673 20.5133466,55.1170612 C20.5419401,55.083102 20.5692338,55.0478367 20.5978273,55.0164898 C20.8733644,54.7017143 21.1826938,54.4130612 21.488124,54.1296327 C22.1288777,53.5379592 22.8138214,52.9946122 23.5390558,52.5087347 C26.0812754,50.8094694 28.9796136,49.9291429 31.9182427,49.216 C34.1537323,48.6739592 36.6712576,48.2612245 38.5467294,46.8231837 C39.42013,46.1518367 40.059584,45.2675918 40.4338985,44.2279184 C40.9394831,42.8290612 41.0434593,41.1402449 40.7315306,39.6917551 C40.6249549,39.2006531 40.4481953,38.7291429 40.2116493,38.2876735 C39.9790024,37.8553469 39.3226522,38.2406531 39.5552991,38.6729796 C40.3364208,40.1188571 40.2766344,42.058449 39.8334356,43.6140408 C39.5449015,44.6275918 38.9769312,45.5196735 38.1477205,46.1753469 C37.3029134,46.8414694 36.2748481,47.2437551 35.2571804,47.562449 C34.023762,47.9503673 32.7591507,48.2259592 31.5062368,48.5315918 C28.5078214,49.2630204 25.5431982,50.2060408 22.9736849,51.9745306 C21.8273466,52.7608163 20.6355187,53.6881633 19.7972101,54.8101224 C19.2227412,55.5833469 18.6976611,56.3983673 18.1777798,57.2081633 C17.5240291,58.2269388 16.8845751,59.2587755 16.3114059,60.3245714 C16.0930558,60.7268571 15.8838036,61.1356735 15.7174415,61.5627755 C15.6186641,61.8161633 15.5042902,62.1309388 15.6186641,62.3960816 C15.6992457,62.5854694 15.8552101,62.6690612 16.0514653,62.6925714 L16.0514653,61.9271837 C13.485851,61.7364898 11.0294119,60.7477551 8.72373828,59.6558367 C7.54750682,59.1007347 6.39207062,58.4999184 5.23663442,57.9030204 C4.67516261,57.6130612 4.1136908,57.323102 3.54961958,57.0396735 C3.03493709,56.7836735 2.46436736,56.5694694 1.99517448,56.2337959 C1.67804688,56.0052245 1.51948309,55.7701224 1.49478872,55.4475102 C1.46879466,55.1170612 1.51038516,54.7826939 1.57017151,54.4600816 C1.73263442,53.5771429 2.01337033,52.7164082 2.29670564,51.8661224 C2.56444451,51.0628571 2.85947715,50.2661224 3.10122196,49.4563265 C3.3975543,48.4636735 3.49763145,47.413551 3.61720415,46.389551 C3.78876499,44.938449 3.87974421,43.4690612 3.77316855,42.0101224 C3.7159816,41.2107755 3.61460475,40.4153469 3.50802908,39.6212245 C3.2376908,37.5745306 2.90756617,35.5330612 2.57874125,33.4955102 C1.81451573,28.756898 1.14516855,24.0156735 0.911221958,19.2156735 C0.838438576,17.7371429 0.805945994,16.2546939 0.821542433,14.7722449 C0.834539466,13.6633469 0.929417804,12.5531429 0.878729377,11.4442449 C0.837138872,10.5443265 0.765655193,9.64440816 0.761756083,8.74187755 C0.757856973,7.89812245 0.778652226,6.99559184 1.09058101,6.19755102 C1.20105579,5.91673469 1.3661181,5.63069388 1.61306172,5.44783673 L1.22964926,5.44783673 C2.10694896,6.04342857 2.33179763,7.35346939 2.46696677,8.32653061 C2.65022493,9.63004082 2.64372641,10.9531429 2.68791632,12.2657959 C2.74380356,13.8631837 3.0375365,15.4409796 3.23119228,17.0253061 C3.46383917,18.9479184 3.68218932,20.8770612 3.82645638,22.8101224 C3.95642671,24.5511837 4.02921009,26.2948571 4.20077092,28.0346122 C4.31644451,29.1879184 4.45681246,30.3412245 4.66346528,31.4827755 C4.83372641,32.4388571 5.04037923,33.408 5.41209436,34.3105306 C5.66293709,34.9165714 6.0242546,35.6401633 6.68970267,35.8648163 C7.30316261,36.0711837 7.9764089,35.819102 8.4131092,35.371102 C8.94598754,34.826449 9.23062255,34.0558367 9.43467596,33.3348571 C9.71801128,32.3382857 9.85837923,31.3038367 9.96105579,30.2746122 C10.192403,27.9627755 10.1872042,25.6261224 10.1313169,23.3051429 C10.0728303,20.9436735 9.90516855,18.6070204 10.1326166,16.2481633 C10.3301715,14.1831837 10.6758926,12.1338776 10.7902665,10.0597551 C10.8630499,8.74318367 10.7733703,7.43967347 10.7330795,6.12440816 C10.7122843,5.4282449 10.7018866,4.72946939 10.7343792,4.03330612 C10.7590736,3.4964898 10.7941656,2.94269388 10.9618273,2.42808163 C11.0320113,2.21257143 11.1697798,1.97877551 11.3374415,1.79853061 C11.3920291,1.74106122 11.4791092,1.6757551 11.5012042,1.66661224 C11.4999045,1.66791837 11.4960053,1.64832653 11.541495,1.70318367 C11.8833169,2.112 12.0028896,2.69844898 12.1159638,3.20783673 C12.4408896,4.65893878 12.5669608,6.15967347 12.6696374,7.64081633 C12.7918095,9.38057143 12.8489964,11.1229388 12.8866878,12.8679184 C12.9451745,15.5924898 13.0179579,18.3235918 13.0309549,21.0494694 C13.0426522,23.2933878 13.047851,25.5373061 13.1869193,27.776 C13.2649015,29.0220408 13.3792754,30.2667755 13.57813,31.4997551 C13.7392932,32.5028571 13.9524445,33.5124898 14.3501537,34.4515918 C14.6386878,35.1346939 15.045495,35.7825306 15.7161418,36.1377959 C16.2113288,36.3990204 16.7702012,36.4721633 17.2796849,36.2083265 C17.7670736,35.9562449 18.102397,35.4586122 18.3402427,34.9766531 C18.6742665,34.2961633 18.8848184,33.556898 19.0498807,32.8189388 C19.4800825,30.9054694 19.6438451,28.928 19.7530202,26.9740408 C19.8608955,25.0710204 19.8907887,23.1640816 19.8842902,21.2571429 C19.8790914,19.8517551 19.8465988,18.4476735 19.8582961,17.0422857 C19.8881893,13.3041633 19.9999638,9.54514286 20.314492,5.82008163 C20.3651804,5.23363265 20.4431626,4.64457143 20.6225217,4.08293878 C20.7485929,3.69240816 20.9526463,3.21959184 21.378949,3.0955102 C21.2372813,3.03673469 21.0930142,2.97795918 20.9500469,2.91918367 C21.7922546,4.37159184 21.8871329,6.14661224 21.9248243,7.78579592 C21.9430202,8.64130612 21.9326226,9.4955102 21.948219,10.3497143 C21.9638154,11.2757551 22.0456967,12.1991837 22.1119816,13.1226122 C22.2666463,15.3155918 22.3901181,17.5098776 22.4057145,19.7067755 C22.4226107,21.9154286 22.4719994,24.1188571 22.6084682,26.3235918 C22.7436374,28.5244082 22.9372932,30.7213061 23.1582427,32.9142857 C23.2440231,33.7580408 23.3609964,34.6279184 23.9640588,35.2731429 C24.4592457,35.8008163 25.2923555,36.2070204 26.0227887,36.0437551 C26.6583436,35.8987755 27.0820469,35.328 27.3393881,34.7611429 C27.7072042,33.9526531 27.8605691,33.0684082 28.0633228,32.2089796 C28.5559104,30.1283265 29.1030855,28.0581224 29.7919282,26.0336327 C30.3196077,24.4793469 30.7965988,22.8140408 32.0820053,21.7129796 C33.0086938,20.9188571 34.2992991,20.426449 35.5223199,20.6328163 C36.9467947,20.8731429 37.9436671,22.005551 38.4297561,23.3221224 C38.7286878,24.1332245 38.9171448,25.0697143 38.6870973,25.9252245 C38.5948184,26.2726531 38.4765454,26.6579592 38.2698926,26.9570612 C38.1984089,27.0589388 38.1750142,27.0093061 38.2867887,27.008 C38.2140053,27.008 38.3296789,27.0040816 38.333578,27.0262857 C38.3296789,27.0040816 38.2659935,26.9844898 38.2581953,26.9779592 C37.8409905,26.6292245 37.5654534,26.1041633 37.1716433,25.7227755 C36.6504623,25.2225306 36.0188065,24.7862857 35.2883733,24.6987755 C34.0016671,24.5459592 33.0450855,25.6130612 32.4667175,26.6357551 C31.7050914,27.9758367 31.3450736,29.4948571 31.0812338,30.9995102 C30.708219,33.1271837 30.5639519,35.3031837 30.7823021,37.4569796 C30.9499638,39.0961633 31.2397976,40.8842449 32.1742843,42.2791837 C33.0099935,43.5265306 34.4045751,44.2866939 35.9135306,43.9118367 C36.5750795,43.7472653 37.1664445,43.3580408 37.5641537,42.8003265 C38.0853347,42.068898 38.1659163,41.1154286 38.1126285,40.2442449 C38.0801359,39.7152653 37.9995543,39.1915102 37.9566641,38.6638367 C37.9189727,38.228898 37.8617858,37.7182041 37.9969549,37.2950204 C38.000854,37.2806531 38.0281478,37.227102 38.0268481,37.237551 C38.022949,37.2675918 38.0203496,37.2440816 38.0242487,37.2427755 C37.9566641,37.2754286 38.0151507,37.2323265 38.0593407,37.2506122 C38.0164504,37.2323265 38.1269252,37.2728163 38.1438214,37.2793469 C38.3387769,37.3668571 38.5259341,37.5157551 38.6896967,37.6633469 C39.0133228,37.9559184 39.3382487,38.2915918 39.5552991,38.6729796 C39.7996433,39.0987755 40.4559935,38.7147755 40.2116493,38.2876735" id="Fill-130" fill="#211F21"></path>
                        <path d="M43.8107875,30.8482612 C42.2706392,31.1042612 39.9532682,31.8343837 39.1149596,31.9963429 C38.4729062,30.8574041 38.1050902,29.2861388 37.5228231,28.3026286 C37.0536303,29.2430367 36.6715175,32.3803429 36.6715175,32.3803429 C36.6715175,32.3803429 34.9923009,32.2249143 33.7588825,31.9898122 C34.2306748,32.6389551 36.0203662,34.1592816 36.0203662,34.1592816 C35.7526273,34.9586286 34.0292208,36.0688327 34.0643128,36.8995265 C35.4030071,36.2608327 38.0686985,34.813649 38.0686985,34.813649 C38.0686985,34.813649 41.1944849,36.3809959 42.1380694,36.9178122 C41.8196421,35.7632 40.4874463,34.728751 39.744016,33.7844245 C40.3678736,33.0595265 42.739832,31.9898122 43.8107875,30.8482612" id="Fill-132" fill="#F2CC4A"></path>
                        <path d="M43.7099306,30.4801959 C42.1177941,30.7518694 40.5945418,31.313502 39.0141027,31.6282776 L39.4430047,31.8046041 C38.7931531,30.6264816 38.5254142,29.2746449 37.8508682,28.1108898 C37.7156991,27.8770939 37.321889,27.8470531 37.1945181,28.1108898 C36.8254024,28.8736653 36.6967318,29.7657469 36.5550641,30.5925224 C36.4536872,31.1868082 36.3653074,31.7837061 36.292524,32.3806041 C36.4185953,32.2526041 36.5459662,32.1272163 36.6720374,31.9992163 C35.7310522,31.9117061 34.7900671,31.7967673 33.8607792,31.6230531 C33.5748445,31.5681959 33.2148267,31.889502 33.4318772,32.1820735 C34.067432,33.0375837 34.9447318,33.7428898 35.7518475,34.4286041 C35.7193549,34.3045224 35.6868623,34.1804408 35.6543697,34.0563592 C35.4620136,34.5788082 34.8875448,34.9993796 34.5197288,35.3938286 C34.1389157,35.8065633 33.6840196,36.3015837 33.6840196,36.8997878 C33.6840196,37.2080327 34.0024469,37.3504 34.2545893,37.2289306 C35.6114795,36.5797878 36.9384766,35.8614204 38.2602748,35.1430531 L37.8768623,35.1430531 C39.240251,35.8274612 40.6179365,36.4961959 41.9449335,37.2485224 C42.2282688,37.4078694 42.599984,37.1427265 42.5038059,36.8188082 C42.0995982,35.4578286 40.8635804,34.5788082 40.0135745,33.5143184 L40.0135745,34.0537469 C40.5100611,33.4986449 41.2560908,33.1433796 41.8799484,32.7541551 C42.6493727,32.273502 43.4473905,31.7810939 44.080346,31.1175837 C44.4195685,30.7636245 43.8827911,30.2228898 43.5422688,30.5781551 C42.9119128,31.2377469 42.1099958,31.7131755 41.3418712,32.1912163 C40.7141145,32.5804408 39.9758831,32.9539918 39.476797,33.5143184 C39.3273312,33.681502 39.3416279,33.8852571 39.476797,34.0537469 C40.2332243,34.9993796 41.4133549,35.8130939 41.772073,37.019951 C41.9566309,36.8762776 42.1437881,36.7326041 42.3296457,36.5889306 C41.1690107,35.9306449 39.9654855,35.3441959 38.7749573,34.7433796 C38.4747258,34.5905633 38.1562985,34.3437061 37.8235745,34.513502 C37.3127911,34.7721143 36.813705,35.0555429 36.3068208,35.323298 C35.5023045,35.7517061 34.6951887,36.1761959 33.8711769,36.5693388 C34.0635329,36.6803592 34.2519899,36.7900735 34.444346,36.8997878 C34.444346,36.4256653 35.0422095,35.9489306 35.3385418,35.6406857 C35.736251,35.227951 36.1846487,34.8086857 36.3874024,34.2601143 C36.4302926,34.1438694 36.384803,33.968849 36.2899246,33.8891755 C35.9753964,33.6227265 35.6660671,33.3484408 35.3619365,33.0715429 C34.9278356,32.6797061 34.4274499,32.2526041 34.0882273,31.7967673 C33.9452599,31.984849 33.8022926,32.1716245 33.6580255,32.3570939 C34.6548979,32.5451755 35.6634677,32.6692571 36.6720374,32.763298 C36.8929869,32.7828898 37.0294558,32.5699918 37.0515507,32.3806041 C37.1113371,31.8973388 37.1945181,31.3383184 37.2880967,30.7962776 C37.4154677,30.0452571 37.5207436,29.1779918 37.8508682,28.4948898 L37.1945181,28.4948898 C37.8690641,29.6586449 38.136803,31.0117878 38.7866546,32.1899102 C38.8737347,32.3453388 39.0517941,32.3975837 39.2155567,32.3649306 C40.7972955,32.048849 42.3192481,31.4885224 43.9113846,31.216849 C44.3935745,31.1332571 44.1895211,30.3992163 43.7099306,30.4801959" id="Fill-134" fill="#211F21"></path>
                        <path d="M43.4064499,27.4553469 C43.9146338,26.5005714 44.6684617,25.7025306 45.4612807,24.9802449 C46.4685507,24.0659592 47.5758979,23.2692245 48.7170374,22.5325714 C51.1318861,20.9743673 53.7182955,19.6538776 56.3761887,18.5619592 C57.5836131,18.0669388 58.8131323,17.6097959 60.0738445,17.2702041 C60.6626101,17.1108571 60.4130671,16.1900408 59.8217021,16.3493878 C57.3184736,17.0259592 54.8997258,18.0943673 52.5849543,19.2489796 C49.9556546,20.5629388 47.3588475,22.0754286 45.1259573,24.0071837 C44.1472807,24.8548571 43.2010967,25.8200816 42.5876368,26.9733878 C42.2965033,27.5141224 43.1153163,27.9973878 43.4064499,27.4553469" id="Fill-136" fill="#211F21"></path>
                        <path d="M49.1299531,25.2946286 C50.8507602,24.1674449 52.6885407,23.2139755 54.5627128,22.3728327 C56.405692,21.5473633 58.311057,20.8211592 60.2723092,20.3313633 C60.8649739,20.1837714 60.6128315,19.2629551 60.0201668,19.4118531 C58.0134249,19.9107918 56.0690688,20.6644245 54.1806,21.5068735 C52.2713359,22.3558531 50.4023626,23.3236898 48.6516623,24.4717714 C48.1408789,24.8048327 48.6165703,25.6316082 49.1299531,25.2946286" id="Fill-138" fill="#211F21"></path>
                        <path d="M50.799162,26.7060245 C50.8641472,26.6681469 50.930432,26.6381061 50.9980166,26.6041469 C51.0149128,26.5976163 51.0331086,26.5897796 51.048705,26.5819429 C51.1448831,26.5388408 50.9447288,26.6250449 51.048705,26.5819429 C51.1071917,26.5584327 51.166978,26.5349224 51.2254647,26.5114122 C51.5010018,26.4043102 51.7778386,26.3076571 52.0572748,26.2136163 C52.8253994,25.9523918 53.6000226,25.7159837 54.3759454,25.4848 C55.9706813,25.0119837 57.5732154,24.5613714 59.1874469,24.1695347 C59.4772807,24.0990041 59.7658148,24.0297796 60.0582481,23.9723102 C60.1453282,23.9553306 60.2324083,23.9409633 60.3220878,23.9265959 C60.1297318,23.9579429 60.2610018,23.927902 60.3025923,23.9318204 C60.3103905,23.9318204 60.316889,23.9305143 60.3233875,23.9305143 C60.2428059,23.9187592 60.0595478,23.8808816 59.9568712,23.7071673 C60.2675003,24.2361469 61.0876131,23.7568 60.776984,23.2252082 C60.5235418,22.7915755 59.852895,23.0371265 59.475981,23.1220245 C58.7637436,23.2813714 58.056705,23.4681469 57.3535656,23.6549224 C55.5833697,24.1277388 53.817073,24.6279837 52.07807,25.2013714 C51.4945033,25.3933714 50.8524499,25.5683918 50.3195715,25.8831673 C49.791892,26.1914122 50.2701828,27.0168816 50.799162,26.7060245" id="Fill-140" fill="#211F21"></path>
                    </g>
                </g>
            </g>
        </g>
    </g>
</svg>