<?xml version="1.0" standalone="no"?>
<!DOCTYPE svg PUBLIC "-//W3C//DTD SVG 1.1//EN" "http://www.w3.org/Graphics/SVG/1.1/DTD/svg11.dtd" >
<svg xmlns="http://www.w3.org/2000/svg" xmlns:xlink="http://www.w3.org/1999/xlink" version="1.1">
<metadata>
Created by FontForge 20170731 at Fri May  6 14:35:04 2005
 By Aleksey,,,
RittswoodFonts - (c) Copyright 2004 All Rights Reserved - www.pixelfonty.com
</metadata>
<defs>
<font id="r-redstar_8" horiz-adv-x="750" >
  <font-face 
    font-family="RittswoodRedStar_8"
    font-weight="400"
    font-stretch="normal"
    units-per-em="1000"
    panose-1="0 0 4 0 0 0 0 0 0 0"
    ascent="800"
    descent="-200"
    x-height="749"
    cap-height="999"
    bbox="-132 -251 1868 1374"
    underline-thickness="1"
    underline-position="0"
    unicode-range="U+0020-7530"
  />
<missing-glyph horiz-adv-x="125" 
d="M-7 125v-125h125v125v0v0h-125h125h-125zM22 95h28q11 0 16.5 -5t5.5 -12q0 -6 -4 -10t-12 -6l15 -22q3 -4 5 -6q1 -1 4 -1v-2h-14l-21 29h-6v-22q1 -3 2.5 -4t6.5 -1v-2h-27v2q4 0 5.5 1t1.5 2q1 2 1 7v39q0 5 -1 6q0 2 -1.5 3t-4.5 1v3zM39 64q9 0 13 1.5t6 4.5t2 7
q0 6 -4 10t-10 4q-3 0 -7 -1v-26z" />
    <glyph glyph-name=".notdef" horiz-adv-x="125" 
d="M-7 125v-125h125v125v0v0h-125h125h-125zM22 95h28q11 0 16.5 -5t5.5 -12q0 -6 -4 -10t-12 -6l15 -22q3 -4 5 -6q1 -1 4 -1v-2h-14l-21 29h-6v-22q1 -3 2.5 -4t6.5 -1v-2h-27v2q4 0 5.5 1t1.5 2q1 2 1 7v39q0 5 -1 6q0 2 -1.5 3t-4.5 1v3zM39 64q9 0 13 1.5t6 4.5t2 7
q0 6 -4 10t-10 4q-3 0 -7 -1v-26z" />
    <glyph glyph-name=".null" horiz-adv-x="0" 
 />
    <glyph glyph-name="nonmarkingreturn" horiz-adv-x="333" 
 />
    <glyph glyph-name="space" unicode=" " horiz-adv-x="375" 
 />
    <glyph glyph-name="exclam" unicode="!" horiz-adv-x="250" 
d="M-7 999v-125h125v125v0v0h-125h125h-125zM-7 874v-125h125v125v0v0h-125h125h-125zM-7 749v-125h125v125v0v0h-125h125h-125zM-7 624v-125h125v125v0v0h-125h125h-125zM-7 499v-125h125v125v0v0h-125h125h-125zM-7 374v-125h125v125v0v0h-125h125h-125zM-7 124v-125h125
v125v0v0h-125h125h-125z" />
    <glyph glyph-name="quotedbl" unicode="&#x22;" horiz-adv-x="500" 
d="M-7 1124v-125h125v125v0v0h-125h125h-125zM-7 999v-125h125v125v0v0h-125h125h-125zM-7 874v-125h125v125v0v0h-125h125h-125zM243 1124v-125h125v125v0v0h-125h125h-125zM243 999v-125h125v125v0v0h-125h125h-125zM243 874v-125h125v125v0v0h-125h125h-125z" />
    <glyph glyph-name="numbersign" unicode="#" horiz-adv-x="1125" 
d="M-7 374v-125h125v125v0v0h-125h125h-125zM118 749v-125h125v125v0v0h-125h125h-125zM118 374v-125h125v125v0v0h-125h125h-125zM118 249v-125h125v125v0v0h-125h125h-125zM118 124v-125h125v125v0v0h-125h125h-125zM243 749v-125h125v125v0v0h-125h125h-125zM243 624
v-125h125v125v0v0h-125h125h-125zM243 499v-125h125v125v0v0h-125h125h-125zM243 374v-125h125v125v0v0h-125h125h-125zM368 999v-125h125v125v0v0h-125h125h-125zM368 874v-125h125v125v0v0h-125h125h-125zM368 749v-125h125v125v0v0h-125h125h-125zM369 374v-125h124v125
v0v0h-124h124h-124zM369 249v-125h124v125v0v0h-124h124h-124zM369 124v-125h124v125v0v0h-124h124h-124zM493 749v-125h125v125v0v0h-125h125h-125zM493 624v-125h125v125v0v0h-125h125h-125zM493 499v-125h125v125v0v0h-125h125h-125zM493 374v-125h125v125v0v0h-125h125
h-125zM618 999v-125h125v125v0v0h-125h125h-125zM618 874v-125h125v125v0v0h-125h125h-125zM618 749v-125h125v125v0v0h-125h125h-125zM618 374v-125h125v125v0v0h-125h125h-125zM743 749v-125h125v125v0v0h-125h125h-125z" />
    <glyph glyph-name="dollar" unicode="$" 
d="M-7 749v-125h125v125v0v0h-125h125h-125zM-7 124v-125h125v125v0v0h-125h125h-125zM118 124v-125h125v125v0v0h-125h125h-125zM243 1124v-125h125v125v0v0h-125h125h-125zM243 999v-125h125v125v0v0h-125h125h-125zM243 874v-125h125v125v0v0h-125h125h-125zM243 749
v-125h125v125v0v0h-125h125h-125zM243 624v-125h125v125v0v0h-125h125h-125zM243 499v-125h125v125v0v0h-125h125h-125zM243 374v-125h125v125v0v0h-125h125h-125zM243 249v-125h125v125v0v0h-125h125h-125zM243 124v-125h125v125v0v0h-125h125h-125zM243 -1v-125h125v125v0
v0h-125h125h-125zM243 -126v-125h125v125v0v0h-125h125h-125zM369 124v-125h124v125v0v0h-124h124h-124zM493 374v-125h125v125v0v0h-125h125h-125zM493 249v-125h125v125v0v0h-125h125h-125zM493 999v-125h125v125v0v0h-125h125h-125zM368 999v-125h125v125v0v0h-125h125
h-125zM118 999v-125h125v125v0v0h-125h125h-125zM-7 874v-125h125v125v0v0h-125h125h-125zM119 624v-125h124v125v0v0h-124h124h-124zM368 624v-125h125v125v0v0h-125h125h-125zM493 499v-125h125v125v0v0h-125h125h-125zM-7 624v-125h125v125v0v0h-125h125h-125zM493 624
v-125h125v125v0v0h-125h125h-125zM-7 999v-125h125v125v0v0h-125h125h-125zM493 124v-125h125v125v0v0h-125h125h-125z" />
    <glyph glyph-name="percent" unicode="%" horiz-adv-x="1375" 
d="M-7 874v-125h125v125v0v0h-125h125h-125zM-7 749v-125h125v125v0v0h-125h125h-125zM118 999v-125h125v125v0v0h-125h125h-125zM118 624v-125h125v125v0v0h-125h125h-125zM243 999v-125h125v125v0v0h-125h125h-125zM244 624v-125h124v125v0v0h-124h124h-124zM368 874v-125
h125v125v0v0h-125h125h-125zM368 749v-125h125v125v0v0h-125h125h-125zM368 249v-125h125v125v0v0h-125h125h-125zM368 124v-125h125v125v0v0h-125h125h-125zM493 499v-125h125v125v0v0h-125h125h-125zM493 374v-125h125v125v0v0h-125h125h-125zM618 749v-125h125v125v0v0
h-125h125h-125zM618 624v-125h125v125v0v0h-125h125h-125zM743 999v-125h125v125v0v0h-125h125h-125zM743 874v-125h125v125v0v0h-125h125h-125zM743 374v-125h125v125v0v0h-125h125h-125zM743 249v-125h125v125v0v0h-125h125h-125zM868 499v-125h125v125v0v0h-125h125h-125
zM868 124v-125h125v125v0v0h-125h125h-125zM993 499v-125h125v125v0v0h-125h125h-125zM994 124v-125h124v125v0v0h-124h124h-124zM1118 374v-125h125v125v0v0h-125h125h-125zM1118 249v-125h125v125v0v0h-125h125h-125z" />
    <glyph glyph-name="ampersand" unicode="&#x26;" horiz-adv-x="1000" 
d="M-7 874v-125h125v125v0v0h-125h125h-125zM-7 749v-125h125v125v0v0h-125h125h-125zM-7 499v-125h125v125v0v0h-125h125h-125zM-7 374v-125h125v125v0v0h-125h125h-125zM-7 249v-125h125v125v0v0h-125h125h-125zM118 999v-125h125v125v0v0h-125h125h-125zM118 624v-125
h125v125v0v0h-125h125h-125zM118 124v-125h125v125v0v0h-125h125h-125zM243 999v-125h125v125v0v0h-125h125h-125zM244 624v-125h124v125v0v0h-124h124h-124zM244 124v-125h124v125v0v0h-124h124h-124zM368 874v-125h125v125v0v0h-125h125h-125zM368 749v-125h125v125v0v0
h-125h125h-125zM368 499v-125h125v125v0v0h-125h125h-125zM368 124v-125h125v125v0v0h-125h125h-125zM493 374v-125h125v125v0v0h-125h125h-125zM493 249v-125h125v125v0v0h-125h125h-125zM618 499v-125h125v125v0v0h-125h125h-125zM618 249v-125h125v125v0v0h-125h125h-125
zM743 124v-125h125v125v0v0h-125h125h-125zM743 624v-125h125v125v0v0h-125h125h-125z" />
    <glyph glyph-name="quotesingle" unicode="'" horiz-adv-x="250" 
d="M-7 1124v-125h125v125v0v0h-125h125h-125zM-7 999v-125h125v125v0v0h-125h125h-125zM-7 874v-125h125v125v0v0h-125h125h-125z" />
    <glyph glyph-name="parenleft" unicode="(" horiz-adv-x="500" 
d="M-7 749v-125h125v125v0v0h-125h125h-125zM-7 624v-125h125v125v0v0h-125h125h-125zM-7 499v-125h125v125v0v0h-125h125h-125zM118 999v-125h125v125v0v0h-125h125h-125zM118 874v-125h125v125v0v0h-125h125h-125zM243 1124v-125h125v125v0v0h-125h125h-125zM118 374v-125
h125v125v0v0h-125h125h-125zM118 249v-125h125v125v0v0h-125h125h-125zM243 124v-125h125v125v0v0h-125h125h-125z" />
    <glyph glyph-name="parenright" unicode=")" horiz-adv-x="500" 
d="M-7 1124v-125h125v125v0v0h-125h125h-125zM118 999v-125h125v125v0v0h-125h125h-125zM118 874v-125h125v125v0v0h-125h125h-125zM243 749v-125h125v125v0v0h-125h125h-125zM243 624v-125h125v125v0v0h-125h125h-125zM243 499v-125h125v125v0v0h-125h125h-125zM118 374
v-125h125v125v0v0h-125h125h-125zM118 249v-125h125v125v0v0h-125h125h-125zM-7 124v-125h125v125v0v0h-125h125h-125z" />
    <glyph glyph-name="asterisk" unicode="*" 
d="M-7 999v-125h125v125v0v0h-125h125h-125zM-7 749v-125h125v125v0v0h-125h125h-125zM118 874v-125h125v125v0v0h-125h125h-125zM243 1124v-125h125v125v0v0h-125h125h-125zM243 999v-125h125v125v0v0h-125h125h-125zM243 874v-125h125v125v0v0h-125h125h-125zM243 749
v-125h125v125v0v0h-125h125h-125zM243 624v-125h125v125v0v0h-125h125h-125zM368 874v-125h125v125v0v0h-125h125h-125zM493 999v-125h125v125v0v0h-125h125h-125zM493 749v-125h125v125v0v0h-125h125h-125z" />
    <glyph glyph-name="plus" unicode="+" horiz-adv-x="1000" 
d="M-7 499v-125h125v125v0v0h-125h125h-125zM118 499v-125h125v125v0v0h-125h125h-125zM243 499v-125h125v125v0v0h-125h125h-125zM368 874v-125h125v125v0v0h-125h125h-125zM368 749v-125h125v125v0v0h-125h125h-125zM368 624v-125h125v125v0v0h-125h125h-125zM368 499
v-125h125v125v0v0h-125h125h-125zM368 374v-125h125v125v0v0h-125h125h-125zM368 249v-125h125v125v0v0h-125h125h-125zM368 124v-125h125v125v0v0h-125h125h-125zM493 499v-125h125v125v0v0h-125h125h-125zM618 499v-125h125v125v0v0h-125h125h-125zM743 499v-125h125v125
v0v0h-125h125h-125z" />
    <glyph glyph-name="comma" unicode="," horiz-adv-x="375" 
d="M-7 -126v-125h125v125v0v0h-125h125h-125zM118 249v-125h125v125v0v0h-125h125h-125zM118 124v-125h125v125v0v0h-125h125h-125zM118 -1v-125h125v125v0v0h-125h125h-125z" />
    <glyph glyph-name="hyphen" unicode="-" horiz-adv-x="500" 
d="M-7 499v-125h125v125v0v0h-125h125h-125zM118 499v-125h125v125v0v0h-125h125h-125zM243 499v-125h125v125v0v0h-125h125h-125z" />
    <glyph glyph-name="period" unicode="." horiz-adv-x="250" 
d="M-7 124v-125h125v125v0v0h-125h125h-125zM22 95h28q11 0 16.5 -5t5.5 -12q0 -6 -4 -10t-12 -6l15 -22q3 -4 5 -6q1 -1 4 -1v-2h-14l-21 29h-6v-22q1 -3 2.5 -4t6.5 -1v-2h-27v2q4 0 5.5 1t1.5 2q1 2 1 7v39q0 5 -1 6q0 2 -1.5 3t-4.5 1v3zM39 64q9 0 13 1.5t6 4.5t2 7
q0 6 -4 10t-10 4q-3 0 -7 -1v-26z" />
    <glyph glyph-name="slash" unicode="/" 
d="M-7 124v-125h125v125v0v0h-125h125h-125zM-7 -1v-125h125v125v0v0h-125h125h-125zM118 374v-125h125v125v0v0h-125h125h-125zM118 249v-125h125v125v0v0h-125h125h-125zM243 624v-125h125v125v0v0h-125h125h-125zM243 499v-125h125v125v0v0h-125h125h-125zM368 874v-125
h125v125v0v0h-125h125h-125zM368 749v-125h125v125v0v0h-125h125h-125zM493 1124v-125h125v125v0v0h-125h125h-125zM493 999v-125h125v125v0v0h-125h125h-125z" />
    <glyph glyph-name="zero" unicode="0" 
d="M-7 874v-125h125v125v0v0h-125h125h-125zM-7 749v-125h125v125v0v0h-125h125h-125zM-7 624v-125h125v125v0v0h-125h125h-125zM-7 499v-125h125v125v0v0h-125h125h-125zM-7 374v-125h125v125v0v0h-125h125h-125zM-7 249v-125h125v125v0v0h-125h125h-125zM118 999v-125h125
v125v0v0h-125h125h-125zM118 124v-125h125v125v0v0h-125h125h-125zM243 999v-125h125v125v0v0h-125h125h-125zM243 124v-125h125v125v0v0h-125h125h-125zM368 999v-125h125v125v0v0h-125h125h-125zM369 124v-125h124v125v0v0h-124h124h-124zM493 874v-125h125v125v0v0h-125
h125h-125zM493 749v-125h125v125v0v0h-125h125h-125zM493 624v-125h125v125v0v0h-125h125h-125zM493 499v-125h125v125v0v0h-125h125h-125zM493 374v-125h125v125v0v0h-125h125h-125zM493 249v-125h125v125v0v0h-125h125h-125z" />
    <glyph glyph-name="one" unicode="1" horiz-adv-x="500" 
d="M-7 874v-125h125v125v0v0h-125h125h-125zM-7 124v-125h125v125v0v0h-125h125h-125zM118 999v-125h125v125v0v0h-125h125h-125zM118 874v-125h125v125v0v0h-125h125h-125zM118 749v-125h125v125v0v0h-125h125h-125zM118 624v-125h125v125v0v0h-125h125h-125zM118 499v-125
h125v125v0v0h-125h125h-125zM118 374v-125h125v125v0v0h-125h125h-125zM118 249v-125h125v125v0v0h-125h125h-125zM118 124v-125h125v125v0v0h-125h125h-125zM243 124v-125h125v125v0v0h-125h125h-125z" />
    <glyph glyph-name="two" unicode="2" 
d="M-7 874v-125h125v125v0v0h-125h125h-125zM-7 249v-125h125v125v0v0h-125h125h-125zM-7 124v-125h125v125v0v0h-125h125h-125zM118 999v-125h125v125v0v0h-125h125h-125zM118 374v-125h125v125v0v0h-125h125h-125zM118 124v-125h125v125v0v0h-125h125h-125zM243 999v-125
h125v125v0v0h-125h125h-125zM243 499v-125h125v125v0v0h-125h125h-125zM243 124v-125h125v125v0v0h-125h125h-125zM368 999v-125h125v125v0v0h-125h125h-125zM368 624v-125h125v125v0v0h-125h125h-125zM368 124v-125h125v125v0v0h-125h125h-125zM493 749v-125h125v125v0v0
h-125h125h-125zM493 874v-125h125v125v0v0h-125h125h-125zM493 124v-125h125v125v0v0h-125h125h-125z" />
    <glyph glyph-name="three" unicode="3" 
d="M-7 874v-125h125v125v0v0h-125h125h-125zM-7 249v-125h125v125v0v0h-125h125h-125zM118 999v-125h125v125v0v0h-125h125h-125zM118 124v-125h125v125v0v0h-125h125h-125zM243 999v-125h125v125v0v0h-125h125h-125zM243 624v-125h125v125v0v0h-125h125h-125zM243 124v-125
h125v125v0v0h-125h125h-125zM368 999v-125h125v125v0v0h-125h125h-125zM368 624v-125h125v125v0v0h-125h125h-125zM368 124v-125h125v125v0v0h-125h125h-125zM493 874v-125h125v125v0v0h-125h125h-125zM493 749v-125h125v125v0v0h-125h125h-125zM493 499v-125h125v125v0v0
h-125h125h-125zM493 374v-125h125v125v0v0h-125h125h-125zM493 249v-125h125v125v0v0h-125h125h-125z" />
    <glyph glyph-name="four" unicode="4" horiz-adv-x="875" 
d="M-7 499v-125h125v125v0v0h-125h125h-125zM-7 374v-125h125v125v0v0h-125h125h-125zM118 374v-125h125v125v0v0h-125h125h-125zM243 374v-125h125v125v0v0h-125h125h-125zM369 374v-125h124v125v0v0h-124h124h-124zM493 999v-125h125v125v0v0h-125h125h-125zM493 874v-125
h125v125v0v0h-125h125h-125zM493 749v-125h125v125v0v0h-125h125h-125zM493 624v-125h125v125v0v0h-125h125h-125zM493 499v-125h125v125v0v0h-125h125h-125zM493 374v-125h125v125v0v0h-125h125h-125zM493 249v-125h125v125v0v0h-125h125h-125zM493 124v-125h125v125v0v0
h-125h125h-125zM618 374v-125h125v125v0v0h-125h125h-125zM-7 624v-125h125v125v0v0h-125h125h-125zM118 749v-125h125v125v0v0h-125h125h-125zM243 874v-125h125v125v0v0h-125h125h-125zM368 999v-125h125v125v0v0h-125h125h-125z" />
    <glyph glyph-name="five" unicode="5" 
d="M-7 874v-125h125v125v0v0h-125h125h-125zM-7 749v-125h125v125v0v0h-125h125h-125zM-7 249v-125h125v125v0v0h-125h125h-125zM118 999v-125h125v125v0v0h-125h125h-125zM118 124v-125h125v125v0v0h-125h125h-125zM243 999v-125h125v125v0v0h-125h125h-125zM243 124v-125
h125v125v0v0h-125h125h-125zM368 999v-125h125v125v0v0h-125h125h-125zM368 124v-125h125v125v0v0h-125h125h-125zM493 999v-125h125v125v0v0h-125h125h-125zM493 499v-125h125v125v0v0h-125h125h-125zM493 374v-125h125v125v0v0h-125h125h-125zM493 249v-125h125v125v0v0
h-125h125h-125zM-7 999v-125h125v125v0v0h-125h125h-125zM118 749v-125h125v125v0v0h-125h125h-125zM243 749v-125h125v125v0v0h-125h125h-125zM368 749v-125h125v125v0v0h-125h125h-125zM493 624v-125h125v125v0v0h-125h125h-125z" />
    <glyph glyph-name="six" unicode="6" 
d="M-7 749v-125h125v125v0v0h-125h125h-125zM-7 624v-125h125v125v0v0h-125h125h-125zM-7 499v-125h125v125v0v0h-125h125h-125zM-7 374v-125h125v125v0v0h-125h125h-125zM-7 249v-125h125v125v0v0h-125h125h-125zM118 624v-125h125v125v0v0h-125h125h-125zM118 124v-125
h125v125v0v0h-125h125h-125zM243 999v-125h125v125v0v0h-125h125h-125zM243 624v-125h125v125v0v0h-125h125h-125zM243 124v-125h125v125v0v0h-125h125h-125zM368 999v-125h125v125v0v0h-125h125h-125zM368 624v-125h125v125v0v0h-125h125h-125zM369 124v-125h124v125v0v0
h-124h124h-124zM493 499v-125h125v125v0v0h-125h125h-125zM493 374v-125h125v125v0v0h-125h125h-125zM493 249v-125h125v125v0v0h-125h125h-125zM118 874v-125h125v125v0v0h-125h125h-125z" />
    <glyph glyph-name="seven" unicode="7" 
d="M-7 999v-125h125v125v0v0h-125h125h-125zM243 999v-125h125v125v0v0h-125h125h-125zM243 374v-125h125v125v0v0h-125h125h-125zM368 999v-125h125v125v0v0h-125h125h-125zM493 999v-125h125v125v0v0h-125h125h-125zM493 874v-125h125v125v0v0h-125h125h-125zM493 749
v-125h125v125v0v0h-125h125h-125zM368 624v-125h125v125v0v0h-125h125h-125zM243 499v-125h125v125v0v0h-125h125h-125zM243 249v-125h125v125v0v0h-125h125h-125zM243 124v-125h125v125v0v0h-125h125h-125zM118 999v-125h125v125v0v0h-125h125h-125z" />
    <glyph glyph-name="eight" unicode="8" 
d="M-7 874v-125h125v125v0v0h-125h125h-125zM-7 749v-125h125v125v0v0h-125h125h-125zM-7 499v-125h125v125v0v0h-125h125h-125zM-7 374v-125h125v125v0v0h-125h125h-125zM-7 249v-125h125v125v0v0h-125h125h-125zM118 999v-125h125v125v0v0h-125h125h-125zM118 624v-125
h125v125v0v0h-125h125h-125zM118 124v-125h125v125v0v0h-125h125h-125zM243 999v-125h125v125v0v0h-125h125h-125zM243 624v-125h125v125v0v0h-125h125h-125zM243 124v-125h125v125v0v0h-125h125h-125zM368 999v-125h125v125v0v0h-125h125h-125zM369 624v-125h124v125v0v0
h-124h124h-124zM369 124v-125h124v125v0v0h-124h124h-124zM493 874v-125h125v125v0v0h-125h125h-125zM493 749v-125h125v125v0v0h-125h125h-125zM493 499v-125h125v125v0v0h-125h125h-125zM493 374v-125h125v125v0v0h-125h125h-125zM493 249v-125h125v125v0v0h-125h125h-125
z" />
    <glyph glyph-name="nine" unicode="9" 
d="M-7 874v-125h125v125v0v0h-125h125h-125zM-7 749v-125h125v125v0v0h-125h125h-125zM-7 624v-125h125v125v0v0h-125h125h-125zM118 999v-125h125v125v0v0h-125h125h-125zM118 499v-125h125v125v0v0h-125h125h-125zM118 124v-125h125v125v0v0h-125h125h-125zM243 999v-125
h125v125v0v0h-125h125h-125zM243 499v-125h125v125v0v0h-125h125h-125zM243 124v-125h125v125v0v0h-125h125h-125zM368 999v-125h125v125v0v0h-125h125h-125zM369 499v-125h124v125v0v0h-124h124h-124zM368 249v-125h125v125v0v0h-125h125h-125zM493 874v-125h125v125v0v0
h-125h125h-125zM493 749v-125h125v125v0v0h-125h125h-125zM493 624v-125h125v125v0v0h-125h125h-125zM493 499v-125h125v125v0v0h-125h125h-125zM493 374v-125h125v125v0v0h-125h125h-125z" />
    <glyph glyph-name="colon" unicode=":" horiz-adv-x="250" 
d="M-7 749v-125h125v125v0v0h-125h125h-125zM-7 624v-125h125v125v0v0h-125h125h-125zM-7 249v-125h125v125v0v0h-125h125h-125zM-7 124v-125h125v125v0v0h-125h125h-125z" />
    <glyph glyph-name="semicolon" unicode=";" horiz-adv-x="375" 
d="M-132 -126v-125h125v125v0v0h-125h125h-125zM-7 749v-125h125v125v0v0h-125h125h-125zM-7 624v-125h125v125v0v0h-125h125h-125zM-7 249v-125h125v125v0v0h-125h125h-125zM-7 124v-125h125v125v0v0h-125h125h-125zM-7 -1v-125h125v125v0v0h-125h125h-125z" />
    <glyph glyph-name="less" unicode="&#x3c;" horiz-adv-x="875" 
d="M-7 499v-125h125v125v0v0h-125h125h-125zM118 499v-125h125v125v0v0h-125h125h-125zM243 624v-125h125v125v0v0h-125h125h-125zM243 374v-125h125v125v0v0h-125h125h-125zM368 624v-125h125v125v0v0h-125h125h-125zM368 374v-125h125v125v0v0h-125h125h-125zM493 749
v-125h125v125v0v0h-125h125h-125zM493 249v-125h125v125v0v0h-125h125h-125zM618 749v-125h125v125v0v0h-125h125h-125zM618 249v-125h125v125v0v0h-125h125h-125z" />
    <glyph glyph-name="equal" unicode="=" horiz-adv-x="1000" 
d="M-7 624v-125h125v125v0v0h-125h125h-125zM-7 374v-125h125v125v0v0h-125h125h-125zM118 624v-125h125v125v0v0h-125h125h-125zM118 374v-125h125v125v0v0h-125h125h-125zM243 624v-125h125v125v0v0h-125h125h-125zM243 374v-125h125v125v0v0h-125h125h-125zM368 624v-125
h125v125v0v0h-125h125h-125zM368 374v-125h125v125v0v0h-125h125h-125zM493 624v-125h125v125v0v0h-125h125h-125zM493 374v-125h125v125v0v0h-125h125h-125zM618 624v-125h125v125v0v0h-125h125h-125zM618 374v-125h125v125v0v0h-125h125h-125z" />
    <glyph glyph-name="greater" unicode="&#x3e;" horiz-adv-x="875" 
d="M-7 749v-125h125v125v0v0h-125h125h-125zM-7 249v-125h125v125v0v0h-125h125h-125zM118 749v-125h125v125v0v0h-125h125h-125zM118 249v-125h125v125v0v0h-125h125h-125zM243 624v-125h125v125v0v0h-125h125h-125zM243 374v-125h125v125v0v0h-125h125h-125zM368 624v-125
h125v125v0v0h-125h125h-125zM368 374v-125h125v125v0v0h-125h125h-125zM493 499v-125h125v125v0v0h-125h125h-125zM618 499v-125h125v125v0v0h-125h125h-125z" />
    <glyph glyph-name="question" unicode="?" 
d="M118 999v-125h125v125v0v0h-125h125h-125zM243 999v-125h125v125v0v0h-125h125h-125zM-7 999v-125h125v125v0v0h-125h125h-125zM493 874v-125h125v125v0v0h-125h125h-125zM493 749v-125h125v125v0v0h-125h125h-125zM368 624v-125h125v125v0v0h-125h125h-125zM243 499
v-125h125v125v0v0h-125h125h-125zM243 374v-125h125v125v0v0h-125h125h-125zM368 999v-125h125v125v0v0h-125h125h-125zM243 124v-125h125v125v0v0h-125h125h-125z" />
    <glyph glyph-name="at" unicode="@" horiz-adv-x="1125" 
d="M-7 624v-125h125v125v0v0h-125h125h-125zM-7 499v-125h125v125v0v0h-125h125h-125zM-7 374v-125h125v125v0v0h-125h125h-125zM118 249v-125h125v125v0v0h-125h125h-125zM243 624v-125h125v125v0v0h-125h125h-125zM243 499v-125h125v125v0v0h-125h125h-125zM243 124v-125
h125v125v0v0h-125h125h-125zM368 374v-125h125v125v0v0h-125h125h-125zM368 124v-125h125v125v0v0h-125h125h-125zM494 374v-125h124v125v0v0h-124h124h-124zM493 124v-125h125v125v0v0h-125h125h-125zM618 624v-125h125v125v0v0h-125h125h-125zM618 499v-125h125v125v0v0
h-125h125h-125zM618 124v-125h125v125v0v0h-125h125h-125zM743 374v-125h125v125v0v0h-125h125h-125zM868 749v-125h125v125v0v0h-125h125h-125zM868 624v-125h125v125v0v0h-125h125h-125zM868 499v-125h125v125v0v0h-125h125h-125zM368 749v-125h125v125v0v0h-125h125h-125
zM493 749v-125h125v125v0v0h-125h125h-125zM743 874v-125h125v125v0v0h-125h125h-125zM618 999v-125h125v125v0v0h-125h125h-125zM493 999v-125h125v125v0v0h-125h125h-125zM368 999v-125h125v125v0v0h-125h125h-125zM243 999v-125h125v125v0v0h-125h125h-125zM118 874v-125
h125v125v0v0h-125h125h-125zM-7 749v-125h125v125v0v0h-125h125h-125z" />
    <glyph glyph-name="A" unicode="A" horiz-adv-x="875" 
d="M-7 374v-125h125v125v0v0h-125h125h-125zM-7 249v-125h125v125v0v0h-125h125h-125zM-7 124v-125h125v125v0v0h-125h125h-125zM118 749v-125h125v125v0v0h-125h125h-125zM118 624v-125h125v125v0v0h-125h125h-125zM118 499v-125h125v125v0v0h-125h125h-125zM118 374v-125
h125v125v0v0h-125h125h-125zM243 999v-125h125v125v0v0h-125h125h-125zM243 874v-125h125v125v0v0h-125h125h-125zM243 374v-125h125v125v0v0h-125h125h-125zM368 999v-125h125v125v0v0h-125h125h-125zM368 874v-125h125v125v0v0h-125h125h-125zM369 374v-125h124v125v0v0
h-124h124h-124zM493 749v-125h125v125v0v0h-125h125h-125zM493 624v-125h125v125v0v0h-125h125h-125zM493 499v-125h125v125v0v0h-125h125h-125zM493 374v-125h125v125v0v0h-125h125h-125zM618 374v-125h125v125v0v0h-125h125h-125zM618 249v-125h125v125v0v0h-125h125h-125
zM618 124v-125h125v125v0v0h-125h125h-125z" />
    <glyph glyph-name="B" unicode="B" horiz-adv-x="875" 
d="M-7 999v-125h125v125v0v0h-125h125h-125zM-7 874v-125h125v125v0v0h-125h125h-125zM-7 749v-125h125v125v0v0h-125h125h-125zM-7 624v-125h125v125v0v0h-125h125h-125zM-7 499v-125h125v125v0v0h-125h125h-125zM-7 374v-125h125v125v0v0h-125h125h-125zM-7 249v-125h125
v125v0v0h-125h125h-125zM-7 124v-125h125v125v0v0h-125h125h-125zM118 999v-125h125v125v0v0h-125h125h-125zM118 624v-125h125v125v0v0h-125h125h-125zM118 124v-125h125v125v0v0h-125h125h-125zM243 999v-125h125v125v0v0h-125h125h-125zM243 624v-125h125v125v0v0h-125
h125h-125zM243 124v-125h125v125v0v0h-125h125h-125zM368 999v-125h125v125v0v0h-125h125h-125zM368 624v-125h125v125v0v0h-125h125h-125zM368 124v-125h125v125v0v0h-125h125h-125zM494 124v-125h124v125v0v0h-124h124h-124zM618 249v-125h125v125v0v0h-125h125h-125z
M618 374v-125h125v125v0v0h-125h125h-125zM618 499v-125h125v125v0v0h-125h125h-125zM494 624v-125h124v125v0v0h-124h124h-124zM618 749v-125h125v125v0v0h-125h125h-125zM618 874v-125h125v125v0v0h-125h125h-125zM493 999v-125h125v125v0v0h-125h125h-125z" />
    <glyph glyph-name="C" unicode="C" horiz-adv-x="875" 
d="M-7 749v-125h125v125v0v0h-125h125h-125zM-7 624v-125h125v125v0v0h-125h125h-125zM-7 499v-125h125v125v0v0h-125h125h-125zM-7 374v-125h125v125v0v0h-125h125h-125zM118 874v-125h125v125v0v0h-125h125h-125zM118 249v-125h125v125v0v0h-125h125h-125zM243 999v-125
h125v125v0v0h-125h125h-125zM243 124v-125h125v125v0v0h-125h125h-125zM368 999v-125h125v125v0v0h-125h125h-125zM368 124v-125h125v125v0v0h-125h125h-125zM493 999v-125h125v125v0v0h-125h125h-125zM493 124v-125h125v125v0v0h-125h125h-125zM618 249v-125h125v125v0v0
h-125h125h-125zM618 874v-125h125v125v0v0h-125h125h-125z" />
    <glyph glyph-name="D" unicode="D" horiz-adv-x="875" 
d="M-7 999v-125h125v125v0v0h-125h125h-125zM-7 874v-125h125v125v0v0h-125h125h-125zM-7 749v-125h125v125v0v0h-125h125h-125zM-7 624v-125h125v125v0v0h-125h125h-125zM-7 499v-125h125v125v0v0h-125h125h-125zM-7 374v-125h125v125v0v0h-125h125h-125zM-7 249v-125h125
v125v0v0h-125h125h-125zM-7 124v-125h125v125v0v0h-125h125h-125zM118 999v-125h125v125v0v0h-125h125h-125zM118 124v-125h125v125v0v0h-125h125h-125zM243 999v-125h125v125v0v0h-125h125h-125zM243 124v-125h125v125v0v0h-125h125h-125zM368 999v-125h125v125v0v0h-125
h125h-125zM369 124v-125h124v125v0v0h-124h124h-124zM493 874v-125h125v125v0v0h-125h125h-125zM618 749v-125h125v125v0v0h-125h125h-125zM493 249v-125h125v125v0v0h-125h125h-125zM618 374v-125h125v125v0v0h-125h125h-125zM618 624v-125h125v125v0v0h-125h125h-125z
M618 499v-125h125v125v0v0h-125h125h-125z" />
    <glyph glyph-name="E" unicode="E" 
d="M-7 999v-125h125v125v0v0h-125h125h-125zM-7 874v-125h125v125v0v0h-125h125h-125zM-7 749v-125h125v125v0v0h-125h125h-125zM-7 624v-125h125v125v0v0h-125h125h-125zM-7 499v-125h125v125v0v0h-125h125h-125zM-7 374v-125h125v125v0v0h-125h125h-125zM-7 249v-125h125
v125v0v0h-125h125h-125zM-7 124v-125h125v125v0v0h-125h125h-125zM118 999v-125h125v125v0v0h-125h125h-125zM118 624v-125h125v125v0v0h-125h125h-125zM118 124v-125h125v125v0v0h-125h125h-125zM243 999v-125h125v125v0v0h-125h125h-125zM243 624v-125h125v125v0v0h-125
h125h-125zM243 124v-125h125v125v0v0h-125h125h-125zM368 999v-125h125v125v0v0h-125h125h-125zM368 624v-125h125v125v0v0h-125h125h-125zM368 124v-125h125v125v0v0h-125h125h-125zM493 999v-125h125v125v0v0h-125h125h-125zM493 124v-125h125v125v0v0h-125h125h-125z" />
    <glyph glyph-name="F" unicode="F" 
d="M-7 999v-125h125v125v0v0h-125h125h-125zM-7 874v-125h125v125v0v0h-125h125h-125zM-7 749v-125h125v125v0v0h-125h125h-125zM-7 624v-125h125v125v0v0h-125h125h-125zM-7 499v-125h125v125v0v0h-125h125h-125zM-7 374v-125h125v125v0v0h-125h125h-125zM-7 249v-125h125
v125v0v0h-125h125h-125zM-7 124v-125h125v125v0v0h-125h125h-125zM118 999v-125h125v125v0v0h-125h125h-125zM118 624v-125h125v125v0v0h-125h125h-125zM243 999v-125h125v125v0v0h-125h125h-125zM243 624v-125h125v125v0v0h-125h125h-125zM368 999v-125h125v125v0v0h-125
h125h-125zM368 624v-125h125v125v0v0h-125h125h-125zM493 999v-125h125v125v0v0h-125h125h-125z" />
    <glyph glyph-name="G" unicode="G" horiz-adv-x="875" 
d="M-7 749v-125h125v125v0v0h-125h125h-125zM-7 624v-125h125v125v0v0h-125h125h-125zM-7 499v-125h125v125v0v0h-125h125h-125zM-7 374v-125h125v125v0v0h-125h125h-125zM118 874v-125h125v125v0v0h-125h125h-125zM118 249v-125h125v125v0v0h-125h125h-125zM243 999v-125
h125v125v0v0h-125h125h-125zM243 124v-125h125v125v0v0h-125h125h-125zM368 999v-125h125v125v0v0h-125h125h-125zM368 124v-125h125v125v0v0h-125h125h-125zM493 999v-125h125v125v0v0h-125h125h-125zM493 499v-125h125v125v0v0h-125h125h-125zM493 124v-125h125v125v0v0
h-125h125h-125zM618 499v-125h125v125v0v0h-125h125h-125zM368 499v-125h125v125v0v0h-125h125h-125zM618 374v-125h125v125v0v0h-125h125h-125zM618 249v-125h125v125v0v0h-125h125h-125zM618 874v-125h125v125v0v0h-125h125h-125z" />
    <glyph glyph-name="H" unicode="H" 
d="M-7 999v-125h125v125v0v0h-125h125h-125zM-7 874v-125h125v125v0v0h-125h125h-125zM-7 749v-125h125v125v0v0h-125h125h-125zM-7 624v-125h125v125v0v0h-125h125h-125zM-7 499v-125h125v125v0v0h-125h125h-125zM-7 374v-125h125v125v0v0h-125h125h-125zM-7 249v-125h125
v125v0v0h-125h125h-125zM-7 124v-125h125v125v0v0h-125h125h-125zM118 624v-125h125v125v0v0h-125h125h-125zM243 624v-125h125v125v0v0h-125h125h-125zM368 624v-125h125v125v0v0h-125h125h-125zM493 624v-125h125v125v0v0h-125h125h-125zM493 999v-125h125v125v0v0h-125
h125h-125zM493 874v-125h125v125v0v0h-125h125h-125zM493 749v-125h125v125v0v0h-125h125h-125zM493 499v-125h125v125v0v0h-125h125h-125zM493 374v-125h125v125v0v0h-125h125h-125zM493 249v-125h125v125v0v0h-125h125h-125zM493 124v-125h125v125v0v0h-125h125h-125z" />
    <glyph glyph-name="I" unicode="I" horiz-adv-x="500" 
d="M-7 999v-125h125v125v0v0h-125h125h-125zM-7 124v-125h125v125v0v0h-125h125h-125zM118 999v-125h125v125v0v0h-125h125h-125zM118 874v-125h125v125v0v0h-125h125h-125zM118 749v-125h125v125v0v0h-125h125h-125zM118 624v-125h125v125v0v0h-125h125h-125zM118 499v-125
h125v125v0v0h-125h125h-125zM118 374v-125h125v125v0v0h-125h125h-125zM118 249v-125h125v125v0v0h-125h125h-125zM118 124v-125h125v125v0v0h-125h125h-125zM243 999v-125h125v125v0v0h-125h125h-125zM243 124v-125h125v125v0v0h-125h125h-125z" />
    <glyph glyph-name="J" unicode="J" horiz-adv-x="625" 
d="M118 124v-125h125v125v0v0h-125h125h-125zM243 999v-125h125v125v0v0h-125h125h-125zM243 124v-125h125v125v0v0h-125h125h-125zM368 999v-125h125v125v0v0h-125h125h-125zM368 874v-125h125v125v0v0h-125h125h-125zM368 749v-125h125v125v0v0h-125h125h-125zM368 624
v-125h125v125v0v0h-125h125h-125zM368 499v-125h125v125v0v0h-125h125h-125zM368 374v-125h125v125v0v0h-125h125h-125zM368 249v-125h125v125v0v0h-125h125h-125zM-7 124v-125h125v125v0v0h-125h125h-125z" />
    <glyph glyph-name="K" unicode="K" horiz-adv-x="875" 
d="M-7 999v-125h125v125v0v0h-125h125h-125zM-7 874v-125h125v125v0v0h-125h125h-125zM-7 749v-125h125v125v0v0h-125h125h-125zM-7 624v-125h125v125v0v0h-125h125h-125zM-7 499v-125h125v125v0v0h-125h125h-125zM-7 374v-125h125v125v0v0h-125h125h-125zM-7 249v-125h125
v125v0v0h-125h125h-125zM-7 124v-125h125v125v0v0h-125h125h-125zM118 499v-125h125v125v0v0h-125h125h-125zM243 624v-125h125v125v0v0h-125h125h-125zM243 499v-125h125v125v0v0h-125h125h-125zM368 749v-125h125v125v0v0h-125h125h-125zM368 374v-125h125v125v0v0h-125
h125h-125zM493 874v-125h125v125v0v0h-125h125h-125zM493 249v-125h125v125v0v0h-125h125h-125zM618 999v-125h125v125v0v0h-125h125h-125zM618 124v-125h125v125v0v0h-125h125h-125z" />
    <glyph glyph-name="L" unicode="L" 
d="M-7 999v-125h125v125v0v0h-125h125h-125zM-7 874v-125h125v125v0v0h-125h125h-125zM-7 749v-125h125v125v0v0h-125h125h-125zM-7 624v-125h125v125v0v0h-125h125h-125zM-7 499v-125h125v125v0v0h-125h125h-125zM-7 374v-125h125v125v0v0h-125h125h-125zM-7 249v-125h125
v125v0v0h-125h125h-125zM-7 124v-125h125v125v0v0h-125h125h-125zM118 124v-125h125v125v0v0h-125h125h-125zM243 124v-125h125v125v0v0h-125h125h-125zM368 124v-125h125v125v0v0h-125h125h-125zM493 124v-125h125v125v0v0h-125h125h-125z" />
    <glyph glyph-name="M" unicode="M" horiz-adv-x="1000" 
d="M-7 999v-125h125v125v0v0h-125h125h-125zM-7 874v-125h125v125v0v0h-125h125h-125zM-7 749v-125h125v125v0v0h-125h125h-125zM-7 624v-125h125v125v0v0h-125h125h-125zM-7 499v-125h125v125v0v0h-125h125h-125zM-7 374v-125h125v125v0v0h-125h125h-125zM-7 249v-125h125
v125v0v0h-125h125h-125zM-7 124v-125h125v125v0v0h-125h125h-125zM118 999v-125h125v125v0v0h-125h125h-125zM118 874v-125h125v125v0v0h-125h125h-125zM243 749v-125h125v125v0v0h-125h125h-125zM243 624v-125h125v125v0v0h-125h125h-125zM368 499v-125h125v125v0v0h-125
h125h-125zM368 374v-125h125v125v0v0h-125h125h-125zM493 749v-125h125v125v0v0h-125h125h-125zM493 624v-125h125v125v0v0h-125h125h-125zM618 999v-125h125v125v0v0h-125h125h-125zM618 874v-125h125v125v0v0h-125h125h-125zM743 999v-125h125v125v0v0h-125h125h-125z
M743 874v-125h125v125v0v0h-125h125h-125zM743 749v-125h125v125v0v0h-125h125h-125zM743 624v-125h125v125v0v0h-125h125h-125zM743 499v-125h125v125v0v0h-125h125h-125zM743 374v-125h125v125v0v0h-125h125h-125zM743 249v-125h125v125v0v0h-125h125h-125zM743 124v-125
h125v125v0v0h-125h125h-125z" />
    <glyph glyph-name="N" unicode="N" horiz-adv-x="875" 
d="M-7 999v-125h125v125v0v0h-125h125h-125zM-7 874v-125h125v125v0v0h-125h125h-125zM-7 749v-125h125v125v0v0h-125h125h-125zM-7 624v-125h125v125v0v0h-125h125h-125zM-7 499v-125h125v125v0v0h-125h125h-125zM-7 374v-125h125v125v0v0h-125h125h-125zM-7 249v-125h125
v125v0v0h-125h125h-125zM-7 124v-125h125v125v0v0h-125h125h-125zM118 874v-125h125v125v0v0h-125h125h-125zM243 749v-125h125v125v0v0h-125h125h-125zM243 624v-125h125v125v0v0h-125h125h-125zM368 499v-125h125v125v0v0h-125h125h-125zM368 374v-125h125v125v0v0h-125
h125h-125zM493 249v-125h125v125v0v0h-125h125h-125zM618 999v-125h125v125v0v0h-125h125h-125zM618 874v-125h125v125v0v0h-125h125h-125zM618 749v-125h125v125v0v0h-125h125h-125zM618 624v-125h125v125v0v0h-125h125h-125zM618 499v-125h125v125v0v0h-125h125h-125z
M618 374v-125h125v125v0v0h-125h125h-125zM618 249v-125h125v125v0v0h-125h125h-125zM618 124v-125h125v125v0v0h-125h125h-125zM493 124v-125h125v125v0v0h-125h125h-125zM118 999v-125h125v125v0v0h-125h125h-125z" />
    <glyph glyph-name="O" unicode="O" horiz-adv-x="1000" 
d="M-7 749v-125h125v125v0v0h-125h125h-125zM-7 624v-125h125v125v0v0h-125h125h-125zM-7 499v-125h125v125v0v0h-125h125h-125zM-7 374v-125h125v125v0v0h-125h125h-125zM118 874v-125h125v125v0v0h-125h125h-125zM118 249v-125h125v125v0v0h-125h125h-125zM243 999v-125
h125v125v0v0h-125h125h-125zM243 124v-125h125v125v0v0h-125h125h-125zM368 999v-125h125v125v0v0h-125h125h-125zM368 124v-125h125v125v0v0h-125h125h-125zM493 999v-125h125v125v0v0h-125h125h-125zM618 874v-125h125v125v0v0h-125h125h-125zM743 749v-125h125v125v0v0
h-125h125h-125zM743 624v-125h125v125v0v0h-125h125h-125zM743 499v-125h125v125v0v0h-125h125h-125zM743 374v-125h125v125v0v0h-125h125h-125zM618 249v-125h125v125v0v0h-125h125h-125zM494 124v-125h124v125v0v0h-124h124h-124z" />
    <glyph glyph-name="P" unicode="P" 
d="M-7 999v-125h125v125v0v0h-125h125h-125zM-7 874v-125h125v125v0v0h-125h125h-125zM-7 749v-125h125v125v0v0h-125h125h-125zM-7 624v-125h125v125v0v0h-125h125h-125zM-7 499v-125h125v125v0v0h-125h125h-125zM-7 374v-125h125v125v0v0h-125h125h-125zM-7 249v-125h125
v125v0v0h-125h125h-125zM-7 124v-125h125v125v0v0h-125h125h-125zM118 999v-125h125v125v0v0h-125h125h-125zM243 999v-125h125v125v0v0h-125h125h-125zM368 999v-125h125v125v0v0h-125h125h-125zM493 874v-125h125v125v0v0h-125h125h-125zM493 749v-125h125v125v0v0h-125
h125h-125zM493 624v-125h125v125v0v0h-125h125h-125zM118 374v-125h125v125v0v0h-125h125h-125zM243 374v-125h125v125v0v0h-125h125h-125zM369 374v-125h124v125v0v0h-124h124h-124zM493 499v-125h125v125v0v0h-125h125h-125z" />
    <glyph glyph-name="Q" unicode="Q" horiz-adv-x="1000" 
d="M-7 749v-125h125v125v0v0h-125h125h-125zM-7 624v-125h125v125v0v0h-125h125h-125zM-7 499v-125h125v125v0v0h-125h125h-125zM-7 374v-125h125v125v0v0h-125h125h-125zM118 874v-125h125v125v0v0h-125h125h-125zM118 249v-125h125v125v0v0h-125h125h-125zM243 999v-125
h125v125v0v0h-125h125h-125zM243 124v-125h125v125v0v0h-125h125h-125zM368 999v-125h125v125v0v0h-125h125h-125zM368 124v-125h125v125v0v0h-125h125h-125zM493 999v-125h125v125v0v0h-125h125h-125zM494 124v-125h124v125v0v0h-124h124h-124zM618 874v-125h125v125v0v0
h-125h125h-125zM618 249v-125h125v125v0v0h-125h125h-125zM743 749v-125h125v125v0v0h-125h125h-125zM743 624v-125h125v125v0v0h-125h125h-125zM743 499v-125h125v125v0v0h-125h125h-125zM743 374v-125h125v125v0v0h-125h125h-125zM618 -1v-125h125v125v0v0h-125h125h-125z
M618 124v-125h125v125v0v0h-125h125h-125zM743 -1v-125h125v125v0v0h-125h125h-125z" />
    <glyph glyph-name="R" unicode="R" 
d="M-7 999v-125h125v125v0v0h-125h125h-125zM-7 874v-125h125v125v0v0h-125h125h-125zM-7 749v-125h125v125v0v0h-125h125h-125zM-7 624v-125h125v125v0v0h-125h125h-125zM-7 499v-125h125v125v0v0h-125h125h-125zM-7 374v-125h125v125v0v0h-125h125h-125zM-7 249v-125h125
v125v0v0h-125h125h-125zM-7 124v-125h125v125v0v0h-125h125h-125zM118 999v-125h125v125v0v0h-125h125h-125zM243 999v-125h125v125v0v0h-125h125h-125zM368 999v-125h125v125v0v0h-125h125h-125zM369 374v-125h124v125v0v0h-124h124h-124zM493 874v-125h125v125v0v0h-125
h125h-125zM493 749v-125h125v125v0v0h-125h125h-125zM493 624v-125h125v125v0v0h-125h125h-125zM493 249v-125h125v125v0v0h-125h125h-125zM118 374v-125h125v125v0v0h-125h125h-125zM243 374v-125h125v125v0v0h-125h125h-125zM493 499v-125h125v125v0v0h-125h125h-125z
M493 124v-125h125v125v0v0h-125h125h-125z" />
    <glyph glyph-name="S" unicode="S" 
d="M-7 874v-125h125v125v0v0h-125h125h-125zM-7 749v-125h125v125v0v0h-125h125h-125zM-7 249v-125h125v125v0v0h-125h125h-125zM118 999v-125h125v125v0v0h-125h125h-125zM118 624v-125h125v125v0v0h-125h125h-125zM118 124v-125h125v125v0v0h-125h125h-125zM243 999v-125
h125v125v0v0h-125h125h-125zM243 624v-125h125v125v0v0h-125h125h-125zM243 124v-125h125v125v0v0h-125h125h-125zM368 999v-125h125v125v0v0h-125h125h-125zM368 124v-125h125v125v0v0h-125h125h-125zM368 624v-125h125v125v0v0h-125h125h-125zM493 249v-125h125v125v0v0
h-125h125h-125zM493 374v-125h125v125v0v0h-125h125h-125zM493 499v-125h125v125v0v0h-125h125h-125zM493 874v-125h125v125v0v0h-125h125h-125z" />
    <glyph glyph-name="T" unicode="T" 
d="M-7 999v-125h125v125v0v0h-125h125h-125zM118 999v-125h125v125v0v0h-125h125h-125zM243 999v-125h125v125v0v0h-125h125h-125zM243 874v-125h125v125v0v0h-125h125h-125zM243 749v-125h125v125v0v0h-125h125h-125zM243 624v-125h125v125v0v0h-125h125h-125zM243 499
v-125h125v125v0v0h-125h125h-125zM243 374v-125h125v125v0v0h-125h125h-125zM243 249v-125h125v125v0v0h-125h125h-125zM243 124v-125h125v125v0v0h-125h125h-125zM368 999v-125h125v125v0v0h-125h125h-125zM493 999v-125h125v125v0v0h-125h125h-125z" />
    <glyph glyph-name="U" unicode="U" horiz-adv-x="875" 
d="M-7 999v-125h125v125v0v0h-125h125h-125zM-7 874v-125h125v125v0v0h-125h125h-125zM-7 749v-125h125v125v0v0h-125h125h-125zM-7 624v-125h125v125v0v0h-125h125h-125zM-7 499v-125h125v125v0v0h-125h125h-125zM-7 374v-125h125v125v0v0h-125h125h-125zM-7 249v-125h125
v125v0v0h-125h125h-125zM118 124v-125h125v125v0v0h-125h125h-125zM243 124v-125h125v125v0v0h-125h125h-125zM368 124v-125h125v125v0v0h-125h125h-125zM493 124v-125h125v125v0v0h-125h125h-125zM618 249v-125h125v125v0v0h-125h125h-125zM618 374v-125h125v125v0v0h-125
h125h-125zM618 499v-125h125v125v0v0h-125h125h-125zM618 624v-125h125v125v0v0h-125h125h-125zM618 749v-125h125v125v0v0h-125h125h-125zM618 874v-125h125v125v0v0h-125h125h-125zM618 999v-125h125v125v0v0h-125h125h-125z" />
    <glyph glyph-name="V" unicode="V" horiz-adv-x="875" 
d="M-7 999v-125h125v125v0v0h-125h125h-125zM-7 874v-125h125v125v0v0h-125h125h-125zM-7 749v-125h125v125v0v0h-125h125h-125zM118 624v-125h125v125v0v0h-125h125h-125zM118 499v-125h125v125v0v0h-125h125h-125zM118 374v-125h125v125v0v0h-125h125h-125zM243 249v-125
h125v125v0v0h-125h125h-125zM243 124v-125h125v125v0v0h-125h125h-125zM368 249v-125h125v125v0v0h-125h125h-125zM368 124v-125h125v125v0v0h-125h125h-125zM493 624v-125h125v125v0v0h-125h125h-125zM493 499v-125h125v125v0v0h-125h125h-125zM493 374v-125h125v125v0v0
h-125h125h-125zM618 999v-125h125v125v0v0h-125h125h-125zM618 874v-125h125v125v0v0h-125h125h-125zM618 749v-125h125v125v0v0h-125h125h-125z" />
    <glyph glyph-name="W" unicode="W" horiz-adv-x="1250" 
d="M-7 999v-125h125v125v0v0h-125h125h-125zM-7 874v-125h125v125v0v0h-125h125h-125zM118 749v-125h125v125v0v0h-125h125h-125zM118 624v-125h125v125v0v0h-125h125h-125zM118 499v-125h125v125v0v0h-125h125h-125zM118 374v-125h125v125v0v0h-125h125h-125zM243 249v-125
h125v125v0v0h-125h125h-125zM243 124v-125h125v125v0v0h-125h125h-125zM368 749v-125h125v125v0v0h-125h125h-125zM368 624v-125h125v125v0v0h-125h125h-125zM368 499v-125h125v125v0v0h-125h125h-125zM368 374v-125h125v125v0v0h-125h125h-125zM493 999v-125h125v125v0v0
h-125h125h-125zM493 874v-125h125v125v0v0h-125h125h-125zM618 749v-125h125v125v0v0h-125h125h-125zM618 624v-125h125v125v0v0h-125h125h-125zM618 499v-125h125v125v0v0h-125h125h-125zM618 374v-125h125v125v0v0h-125h125h-125zM743 249v-125h125v125v0v0h-125h125h-125
zM743 124v-125h125v125v0v0h-125h125h-125zM868 749v-125h125v125v0v0h-125h125h-125zM868 624v-125h125v125v0v0h-125h125h-125zM868 499v-125h125v125v0v0h-125h125h-125zM868 374v-125h125v125v0v0h-125h125h-125zM993 999v-125h125v125v0v0h-125h125h-125zM993 874v-125
h125v125v0v0h-125h125h-125z" />
    <glyph glyph-name="X" unicode="X" horiz-adv-x="875" 
d="M-7 999v-125h125v125v0v0h-125h125h-125zM-7 874v-125h125v125v0v0h-125h125h-125zM-7 249v-125h125v125v0v0h-125h125h-125zM-7 124v-125h125v125v0v0h-125h125h-125zM118 749v-125h125v125v0v0h-125h125h-125zM118 374v-125h125v125v0v0h-125h125h-125zM243 499v-125
h125v125v0v0h-125h125h-125zM368 624v-125h125v125v0v0h-125h125h-125zM368 499v-125h125v125v0v0h-125h125h-125zM493 749v-125h125v125v0v0h-125h125h-125zM618 874v-125h125v125v0v0h-125h125h-125zM618 249v-125h125v125v0v0h-125h125h-125zM618 124v-125h125v125v0v0
h-125h125h-125zM618 999v-125h125v125v0v0h-125h125h-125z" />
    <glyph glyph-name="Y" unicode="Y" horiz-adv-x="1000" 
d="M-7 999v-125h125v125v0v0h-125h125h-125zM118 874v-125h125v125v0v0h-125h125h-125zM243 749v-125h125v125v0v0h-125h125h-125zM368 499v-125h125v125v0v0h-125h125h-125zM368 374v-125h125v125v0v0h-125h125h-125zM368 249v-125h125v125v0v0h-125h125h-125zM368 124
v-125h125v125v0v0h-125h125h-125zM493 749v-125h125v125v0v0h-125h125h-125zM618 874v-125h125v125v0v0h-125h125h-125zM743 999v-125h125v125v0v0h-125h125h-125zM243 624v-125h125v125v0v0h-125h125h-125zM493 624v-125h125v125v0v0h-125h125h-125z" />
    <glyph glyph-name="Z" unicode="Z" horiz-adv-x="875" 
d="M-7 999v-125h125v125v0v0h-125h125h-125zM-7 249v-125h125v125v0v0h-125h125h-125zM-7 124v-125h125v125v0v0h-125h125h-125zM118 999v-125h125v125v0v0h-125h125h-125zM118 374v-125h125v125v0v0h-125h125h-125zM118 124v-125h125v125v0v0h-125h125h-125zM243 999v-125
h125v125v0v0h-125h125h-125zM243 499v-125h125v125v0v0h-125h125h-125zM243 124v-125h125v125v0v0h-125h125h-125zM368 999v-125h125v125v0v0h-125h125h-125zM368 624v-125h125v125v0v0h-125h125h-125zM368 124v-125h125v125v0v0h-125h125h-125zM493 999v-125h125v125v0v0
h-125h125h-125zM493 749v-125h125v125v0v0h-125h125h-125zM493 124v-125h125v125v0v0h-125h125h-125zM618 999v-125h125v125v0v0h-125h125h-125zM618 874v-125h125v125v0v0h-125h125h-125zM618 124v-125h125v125v0v0h-125h125h-125z" />
    <glyph glyph-name="bracketleft" unicode="[" horiz-adv-x="500" 
d="M-7 1124v-125h125v125v0v0h-125h125h-125zM-7 999v-125h125v125v0v0h-125h125h-125zM-7 874v-125h125v125v0v0h-125h125h-125zM-7 749v-125h125v125v0v0h-125h125h-125zM-7 624v-125h125v125v0v0h-125h125h-125zM-7 499v-125h125v125v0v0h-125h125h-125zM-7 374v-125h125
v125v0v0h-125h125h-125zM-7 249v-125h125v125v0v0h-125h125h-125zM-7 124v-125h125v125v0v0h-125h125h-125zM-7 -1v-125h125v125v0v0h-125h125h-125zM118 1124v-125h125v125v0v0h-125h125h-125zM243 1124v-125h125v125v0v0h-125h125h-125zM118 -1v-125h125v125v0v0h-125h125
h-125zM243 -1v-125h125v125v0v0h-125h125h-125z" />
    <glyph glyph-name="backslash" unicode="\" 
d="M-7 1124v-125h125v125v0v0h-125h125h-125zM-7 999v-125h125v125v0v0h-125h125h-125zM118 874v-125h125v125v0v0h-125h125h-125zM118 749v-125h125v125v0v0h-125h125h-125zM243 624v-125h125v125v0v0h-125h125h-125zM243 499v-125h125v125v0v0h-125h125h-125zM368 374
v-125h125v125v0v0h-125h125h-125zM368 249v-125h125v125v0v0h-125h125h-125zM493 124v-125h125v125v0v0h-125h125h-125zM493 -1v-125h125v125v0v0h-125h125h-125z" />
    <glyph glyph-name="bracketright" unicode="]" horiz-adv-x="500" 
d="M-7 1124v-125h125v125v0v0h-125h125h-125zM118 1124v-125h125v125v0v0h-125h125h-125zM243 1124v-125h125v125v0v0h-125h125h-125zM243 999v-125h125v125v0v0h-125h125h-125zM243 874v-125h125v125v0v0h-125h125h-125zM243 749v-125h125v125v0v0h-125h125h-125zM243 624
v-125h125v125v0v0h-125h125h-125zM243 374v-125h125v125v0v0h-125h125h-125zM243 249v-125h125v125v0v0h-125h125h-125zM243 124v-125h125v125v0v0h-125h125h-125zM243 -1v-125h125v125v0v0h-125h125h-125zM-7 -1v-125h125v125v0v0h-125h125h-125zM118 -1v-125h125v125v0v0
h-125h125h-125zM243 499v-125h125v125v0v0h-125h125h-125z" />
    <glyph glyph-name="asciicircum" unicode="^" horiz-adv-x="1000" 
d="M-7 749v-125h125v125v0v0h-125h125h-125zM118 874v-125h125v125v0v0h-125h125h-125zM243 999v-125h125v125v0v0h-125h125h-125zM368 1124v-125h125v125v0v0h-125h125h-125zM493 999v-125h125v125v0v0h-125h125h-125zM618 874v-125h125v125v0v0h-125h125h-125zM743 749
v-125h125v125v0v0h-125h125h-125z" />
    <glyph glyph-name="underscore" unicode="_" horiz-adv-x="1000" 
d="M-7 -1v-125h125v125v0v0h-125h125h-125zM118 -1v-125h125v125v0v0h-125h125h-125zM243 -1v-125h125v125v0v0h-125h125h-125zM368 -1v-125h125v125v0v0h-125h125h-125zM493 -1v-125h125v125v0v0h-125h125h-125zM618 -1v-125h125v125v0v0h-125h125h-125zM743 -1v-125h125
v125v0v0h-125h125h-125z" />
    <glyph glyph-name="grave" unicode="`" horiz-adv-x="375" 
d="M-7 1124v-125h125v125v0v0h-125h125h-125zM118 999v-125h125v125v0v0h-125h125h-125z" />
    <glyph glyph-name="a" unicode="a" 
d="M-7 374v-125h125v125v0v0h-125h125h-125zM-7 249v-125h125v125v0v0h-125h125h-125zM118 749v-125h125v125v0v0h-125h125h-125zM118 499v-125h125v125v0v0h-125h125h-125zM118 124v-125h125v125v0v0h-125h125h-125zM243 749v-125h125v125v0v0h-125h125h-125zM243 499v-125
h125v125v0v0h-125h125h-125zM243 124v-125h125v125v0v0h-125h125h-125zM368 749v-125h125v125v0v0h-125h125h-125zM368 499v-125h125v125v0v0h-125h125h-125zM369 124v-125h124v125v0v0h-124h124h-124zM493 624v-125h125v125v0v0h-125h125h-125zM493 499v-125h125v125v0v0
h-125h125h-125zM493 374v-125h125v125v0v0h-125h125h-125zM493 249v-125h125v125v0v0h-125h125h-125zM493 124v-125h125v125v0v0h-125h125h-125z" />
    <glyph glyph-name="b" unicode="b" 
d="M-7 999v-125h125v125v0v0h-125h125h-125zM-7 874v-125h125v125v0v0h-125h125h-125zM-7 749v-125h125v125v0v0h-125h125h-125zM-7 624v-125h125v125v0v0h-125h125h-125zM-7 499v-125h125v125v0v0h-125h125h-125zM-7 374v-125h125v125v0v0h-125h125h-125zM-7 249v-125h125
v125v0v0h-125h125h-125zM-7 124v-125h125v125v0v0h-125h125h-125zM118 124v-125h125v125v0v0h-125h125h-125zM243 124v-125h125v125v0v0h-125h125h-125zM369 124v-125h124v125v0v0h-124h124h-124zM493 499v-125h125v125v0v0h-125h125h-125zM493 374v-125h125v125v0v0h-125
h125h-125zM493 249v-125h125v125v0v0h-125h125h-125zM118 749v-125h125v125v0v0h-125h125h-125zM243 749v-125h125v125v0v0h-125h125h-125zM368 749v-125h125v125v0v0h-125h125h-125zM493 624v-125h125v125v0v0h-125h125h-125z" />
    <glyph glyph-name="c" unicode="c" 
d="M-7 624v-125h125v125v0v0h-125h125h-125zM-7 499v-125h125v125v0v0h-125h125h-125zM-7 374v-125h125v125v0v0h-125h125h-125zM-7 249v-125h125v125v0v0h-125h125h-125zM118 749v-125h125v125v0v0h-125h125h-125zM118 124v-125h125v125v0v0h-125h125h-125zM243 749v-125
h125v125v0v0h-125h125h-125zM243 124v-125h125v125v0v0h-125h125h-125zM368 749v-125h125v125v0v0h-125h125h-125zM368 124v-125h125v125v0v0h-125h125h-125zM493 624v-125h125v125v0v0h-125h125h-125zM493 249v-125h125v125v0v0h-125h125h-125z" />
    <glyph glyph-name="d" unicode="d" 
d="M-7 624v-125h125v125v0v0h-125h125h-125zM-7 499v-125h125v125v0v0h-125h125h-125zM-7 374v-125h125v125v0v0h-125h125h-125zM-7 249v-125h125v125v0v0h-125h125h-125zM118 749v-125h125v125v0v0h-125h125h-125zM118 124v-125h125v125v0v0h-125h125h-125zM243 749v-125
h125v125v0v0h-125h125h-125zM243 124v-125h125v125v0v0h-125h125h-125zM368 749v-125h125v125v0v0h-125h125h-125zM369 124v-125h124v125v0v0h-124h124h-124zM493 999v-125h125v125v0v0h-125h125h-125zM493 874v-125h125v125v0v0h-125h125h-125zM493 749v-125h125v125v0v0
h-125h125h-125zM493 624v-125h125v125v0v0h-125h125h-125zM493 499v-125h125v125v0v0h-125h125h-125zM493 374v-125h125v125v0v0h-125h125h-125zM493 249v-125h125v125v0v0h-125h125h-125zM493 124v-125h125v125v0v0h-125h125h-125z" />
    <glyph glyph-name="e" unicode="e" 
d="M-7 624v-125h125v125v0v0h-125h125h-125zM-7 499v-125h125v125v0v0h-125h125h-125zM-7 374v-125h125v125v0v0h-125h125h-125zM-7 249v-125h125v125v0v0h-125h125h-125zM118 749v-125h125v125v0v0h-125h125h-125zM118 499v-125h125v125v0v0h-125h125h-125zM118 124v-125
h125v125v0v0h-125h125h-125zM243 749v-125h125v125v0v0h-125h125h-125zM243 499v-125h125v125v0v0h-125h125h-125zM243 124v-125h125v125v0v0h-125h125h-125zM368 749v-125h125v125v0v0h-125h125h-125zM369 499v-125h124v125v0v0h-124h124h-124zM368 124v-125h125v125v0v0
h-125h125h-125zM493 624v-125h125v125v0v0h-125h125h-125zM493 499v-125h125v125v0v0h-125h125h-125zM493 249v-125h125v125v0v0h-125h125h-125z" />
    <glyph glyph-name="f" unicode="f" horiz-adv-x="625" 
d="M118 874v-125h125v125v0v0h-125h125h-125zM118 749v-125h125v125v0v0h-125h125h-125zM118 624v-125h125v125v0v0h-125h125h-125zM118 499v-125h125v125v0v0h-125h125h-125zM118 374v-125h125v125v0v0h-125h125h-125zM118 249v-125h125v125v0v0h-125h125h-125zM118 124
v-125h125v125v0v0h-125h125h-125zM243 999v-125h125v125v0v0h-125h125h-125zM368 999v-125h125v125v0v0h-125h125h-125zM-7 749v-125h125v125v0v0h-125h125h-125zM243 749v-125h125v125v0v0h-125h125h-125zM368 749v-125h125v125v0v0h-125h125h-125z" />
    <glyph glyph-name="g" unicode="g" 
d="M-7 624v-125h125v125v0v0h-125h125h-125zM-7 499v-125h125v125v0v0h-125h125h-125zM-7 374v-125h125v125v0v0h-125h125h-125zM-7 249v-125h125v125v0v0h-125h125h-125zM118 749v-125h125v125v0v0h-125h125h-125zM118 124v-125h125v125v0v0h-125h125h-125zM118 -126v-125
h125v125v0v0h-125h125h-125zM243 749v-125h125v125v0v0h-125h125h-125zM243 124v-125h125v125v0v0h-125h125h-125zM243 -126v-125h125v125v0v0h-125h125h-125zM368 749v-125h125v125v0v0h-125h125h-125zM369 124v-125h124v125v0v0h-124h124h-124zM368 -126v-125h125v125v0v0
h-125h125h-125zM493 749v-125h125v125v0v0h-125h125h-125zM493 624v-125h125v125v0v0h-125h125h-125zM493 499v-125h125v125v0v0h-125h125h-125zM493 374v-125h125v125v0v0h-125h125h-125zM493 249v-125h125v125v0v0h-125h125h-125zM493 124v-125h125v125v0v0h-125h125h-125
zM493 -1v-125h125v125v0v0h-125h125h-125z" />
    <glyph glyph-name="h" unicode="h" 
d="M-7 999v-125h125v125v0v0h-125h125h-125zM-7 874v-125h125v125v0v0h-125h125h-125zM-7 749v-125h125v125v0v0h-125h125h-125zM-7 624v-125h125v125v0v0h-125h125h-125zM-7 499v-125h125v125v0v0h-125h125h-125zM-7 374v-125h125v125v0v0h-125h125h-125zM-7 249v-125h125
v125v0v0h-125h125h-125zM-7 124v-125h125v125v0v0h-125h125h-125zM118 749v-125h125v125v0v0h-125h125h-125zM243 749v-125h125v125v0v0h-125h125h-125zM368 749v-125h125v125v0v0h-125h125h-125zM493 624v-125h125v125v0v0h-125h125h-125zM493 499v-125h125v125v0v0h-125
h125h-125zM493 374v-125h125v125v0v0h-125h125h-125zM493 249v-125h125v125v0v0h-125h125h-125zM493 124v-125h125v125v0v0h-125h125h-125z" />
    <glyph glyph-name="i" unicode="i" horiz-adv-x="250" 
d="M-7 749v-125h125v125v0v0h-125h125h-125zM-7 624v-125h125v125v0v0h-125h125h-125zM-7 499v-125h125v125v0v0h-125h125h-125zM-7 374v-125h125v125v0v0h-125h125h-125zM-7 249v-125h125v125v0v0h-125h125h-125zM-7 124v-125h125v125v0v0h-125h125h-125zM-7 999v-125h125
v125v0v0h-125h125h-125z" />
    <glyph glyph-name="j" unicode="j" horiz-adv-x="250" 
d="M-132 -126v-125h125v125v0v0h-125h125h-125zM-7 749v-125h125v125v0v0h-125h125h-125zM-7 624v-125h125v125v0v0h-125h125h-125zM-7 499v-125h125v125v0v0h-125h125h-125zM-7 374v-125h125v125v0v0h-125h125h-125zM-7 249v-125h125v125v0v0h-125h125h-125zM-7 124v-125
h125v125v0v0h-125h125h-125zM-7 -1v-125h125v125v0v0h-125h125h-125zM-7 999v-125h125v125v0v0h-125h125h-125z" />
    <glyph glyph-name="k" unicode="k" 
d="M-7 999v-125h125v125v0v0h-125h125h-125zM-7 874v-125h125v125v0v0h-125h125h-125zM-7 749v-125h125v125v0v0h-125h125h-125zM-7 624v-125h125v125v0v0h-125h125h-125zM-7 499v-125h125v125v0v0h-125h125h-125zM-7 374v-125h125v125v0v0h-125h125h-125zM-7 249v-125h125
v125v0v0h-125h125h-125zM-7 124v-125h125v125v0v0h-125h125h-125zM118 374v-125h125v125v0v0h-125h125h-125zM243 499v-125h125v125v0v0h-125h125h-125zM243 374v-125h125v125v0v0h-125h125h-125zM368 624v-125h125v125v0v0h-125h125h-125zM368 249v-125h125v125v0v0h-125
h125h-125zM493 124v-125h125v125v0v0h-125h125h-125zM493 749v-125h125v125v0v0h-125h125h-125z" />
    <glyph glyph-name="l" unicode="l" horiz-adv-x="250" 
d="M-7 999v-125h125v125v0v0h-125h125h-125zM-7 874v-125h125v125v0v0h-125h125h-125zM-7 749v-125h125v125v0v0h-125h125h-125zM-7 624v-125h125v125v0v0h-125h125h-125zM-7 499v-125h125v125v0v0h-125h125h-125zM-7 374v-125h125v125v0v0h-125h125h-125zM-7 249v-125h125
v125v0v0h-125h125h-125zM-7 124v-125h125v125v0v0h-125h125h-125z" />
    <glyph glyph-name="m" unicode="m" horiz-adv-x="1000" 
d="M-7 749v-125h125v125v0v0h-125h125h-125zM-7 624v-125h125v125v0v0h-125h125h-125zM-7 499v-125h125v125v0v0h-125h125h-125zM-7 374v-125h125v125v0v0h-125h125h-125zM-7 249v-125h125v125v0v0h-125h125h-125zM-7 124v-125h125v125v0v0h-125h125h-125zM118 749v-125h125
v125v0v0h-125h125h-125zM243 749v-125h125v125v0v0h-125h125h-125zM618 749v-125h125v125v0v0h-125h125h-125zM368 624v-125h125v125v0v0h-125h125h-125zM368 499v-125h125v125v0v0h-125h125h-125zM368 374v-125h125v125v0v0h-125h125h-125zM368 249v-125h125v125v0v0h-125
h125h-125zM368 124v-125h125v125v0v0h-125h125h-125zM493 749v-125h125v125v0v0h-125h125h-125zM743 624v-125h125v125v0v0h-125h125h-125zM743 499v-125h125v125v0v0h-125h125h-125zM743 374v-125h125v125v0v0h-125h125h-125zM743 249v-125h125v125v0v0h-125h125h-125z
M743 124v-125h125v125v0v0h-125h125h-125z" />
    <glyph glyph-name="n" unicode="n" 
d="M-7 749v-125h125v125v0v0h-125h125h-125zM-7 624v-125h125v125v0v0h-125h125h-125zM-7 499v-125h125v125v0v0h-125h125h-125zM-7 374v-125h125v125v0v0h-125h125h-125zM-7 249v-125h125v125v0v0h-125h125h-125zM-7 124v-125h125v125v0v0h-125h125h-125zM118 749v-125h125
v125v0v0h-125h125h-125zM243 749v-125h125v125v0v0h-125h125h-125zM368 749v-125h125v125v0v0h-125h125h-125zM493 624v-125h125v125v0v0h-125h125h-125zM493 499v-125h125v125v0v0h-125h125h-125zM493 374v-125h125v125v0v0h-125h125h-125zM493 249v-125h125v125v0v0h-125
h125h-125zM493 124v-125h125v125v0v0h-125h125h-125z" />
    <glyph glyph-name="o" unicode="o" 
d="M-7 624v-125h125v125v0v0h-125h125h-125zM-7 499v-125h125v125v0v0h-125h125h-125zM-7 374v-125h125v125v0v0h-125h125h-125zM-7 249v-125h125v125v0v0h-125h125h-125zM118 749v-125h125v125v0v0h-125h125h-125zM118 124v-125h125v125v0v0h-125h125h-125zM243 749v-125
h125v125v0v0h-125h125h-125zM243 124v-125h125v125v0v0h-125h125h-125zM368 749v-125h125v125v0v0h-125h125h-125zM369 124v-125h124v125v0v0h-124h124h-124zM493 624v-125h125v125v0v0h-125h125h-125zM493 499v-125h125v125v0v0h-125h125h-125zM493 374v-125h125v125v0v0
h-125h125h-125zM493 249v-125h125v125v0v0h-125h125h-125z" />
    <glyph glyph-name="p" unicode="p" 
d="M-7 749v-125h125v125v0v0h-125h125h-125zM-7 624v-125h125v125v0v0h-125h125h-125zM-7 499v-125h125v125v0v0h-125h125h-125zM-7 374v-125h125v125v0v0h-125h125h-125zM-7 249v-125h125v125v0v0h-125h125h-125zM-7 124v-125h125v125v0v0h-125h125h-125zM-7 -1v-125h125
v125v0v0h-125h125h-125zM-7 -126v-125h125v125v0v0h-125h125h-125zM118 749v-125h125v125v0v0h-125h125h-125zM118 124v-125h125v125v0v0h-125h125h-125zM243 749v-125h125v125v0v0h-125h125h-125zM243 124v-125h125v125v0v0h-125h125h-125zM368 749v-125h125v125v0v0h-125
h125h-125zM369 124v-125h124v125v0v0h-124h124h-124zM493 624v-125h125v125v0v0h-125h125h-125zM493 499v-125h125v125v0v0h-125h125h-125zM493 374v-125h125v125v0v0h-125h125h-125zM493 249v-125h125v125v0v0h-125h125h-125z" />
    <glyph glyph-name="q" unicode="q" 
d="M-7 624v-125h125v125v0v0h-125h125h-125zM-7 499v-125h125v125v0v0h-125h125h-125zM-7 374v-125h125v125v0v0h-125h125h-125zM-7 249v-125h125v125v0v0h-125h125h-125zM118 749v-125h125v125v0v0h-125h125h-125zM118 124v-125h125v125v0v0h-125h125h-125zM243 749v-125
h125v125v0v0h-125h125h-125zM243 124v-125h125v125v0v0h-125h125h-125zM368 749v-125h125v125v0v0h-125h125h-125zM369 124v-125h124v125v0v0h-124h124h-124zM493 749v-125h125v125v0v0h-125h125h-125zM493 624v-125h125v125v0v0h-125h125h-125zM493 499v-125h125v125v0v0
h-125h125h-125zM493 374v-125h125v125v0v0h-125h125h-125zM493 249v-125h125v125v0v0h-125h125h-125zM493 124v-125h125v125v0v0h-125h125h-125zM493 -1v-125h125v125v0v0h-125h125h-125zM493 -126v-125h125v125v0v0h-125h125h-125z" />
    <glyph glyph-name="r" unicode="r" horiz-adv-x="625" 
d="M-7 624v-125h125v125v0v0h-125h125h-125zM-7 499v-125h125v125v0v0h-125h125h-125zM-7 374v-125h125v125v0v0h-125h125h-125zM-7 249v-125h125v125v0v0h-125h125h-125zM-7 124v-125h125v125v0v0h-125h125h-125zM118 624v-125h125v125v0v0h-125h125h-125zM243 749v-125
h125v125v0v0h-125h125h-125zM368 749v-125h125v125v0v0h-125h125h-125zM-6 749v-125h125v125v0v0h-125h125h-125z" />
    <glyph glyph-name="s" unicode="s" horiz-adv-x="625" 
d="M-7 624v-125h125v125v0v0h-125h125h-125zM118 749v-125h125v125v0v0h-125h125h-125zM118 499v-125h125v125v0v0h-125h125h-125zM118 124v-125h125v125v0v0h-125h125h-125zM243 749v-125h125v125v0v0h-125h125h-125zM243 124v-125h125v125v0v0h-125h125h-125zM368 374
v-125h125v125v0v0h-125h125h-125zM368 249v-125h125v125v0v0h-125h125h-125zM243 499v-125h125v125v0v0h-125h125h-125zM368 749v-125h125v125v0v0h-125h125h-125zM-7 124v-125h125v125v0v0h-125h125h-125z" />
    <glyph glyph-name="t" unicode="t" horiz-adv-x="625" 
d="M-7 749v-125h125v125v0v0h-125h125h-125zM118 999v-125h125v125v0v0h-125h125h-125zM118 874v-125h125v125v0v0h-125h125h-125zM118 749v-125h125v125v0v0h-125h125h-125zM118 624v-125h125v125v0v0h-125h125h-125zM118 499v-125h125v125v0v0h-125h125h-125zM118 374
v-125h125v125v0v0h-125h125h-125zM118 249v-125h125v125v0v0h-125h125h-125zM243 749v-125h125v125v0v0h-125h125h-125zM243 124v-125h125v125v0v0h-125h125h-125zM368 124v-125h125v125v0v0h-125h125h-125zM368 749v-125h125v125v0v0h-125h125h-125z" />
    <glyph glyph-name="u" unicode="u" 
d="M-7 749v-125h125v125v0v0h-125h125h-125zM-7 624v-125h125v125v0v0h-125h125h-125zM-7 499v-125h125v125v0v0h-125h125h-125zM-7 374v-125h125v125v0v0h-125h125h-125zM-7 249v-125h125v125v0v0h-125h125h-125zM118 124v-125h125v125v0v0h-125h125h-125zM243 124v-125
h125v125v0v0h-125h125h-125zM368 124v-125h125v125v0v0h-125h125h-125zM493 749v-125h125v125v0v0h-125h125h-125zM493 624v-125h125v125v0v0h-125h125h-125zM493 499v-125h125v125v0v0h-125h125h-125zM493 374v-125h125v125v0v0h-125h125h-125zM493 249v-125h125v125v0v0
h-125h125h-125zM493 124v-125h125v125v0v0h-125h125h-125z" />
    <glyph glyph-name="v" unicode="v" 
d="M-7 749v-125h125v125v0v0h-125h125h-125zM-7 624v-125h125v125v0v0h-125h125h-125zM118 499v-125h125v125v0v0h-125h125h-125zM118 374v-125h125v125v0v0h-125h125h-125zM243 249v-125h125v125v0v0h-125h125h-125zM243 124v-125h125v125v0v0h-125h125h-125zM368 499v-125
h125v125v0v0h-125h125h-125zM368 374v-125h125v125v0v0h-125h125h-125zM493 749v-125h125v125v0v0h-125h125h-125zM493 624v-125h125v125v0v0h-125h125h-125z" />
    <glyph glyph-name="w" unicode="w" horiz-adv-x="1000" 
d="M-7 749v-125h125v125v0v0h-125h125h-125zM-7 624v-125h125v125v0v0h-125h125h-125zM-7 499v-125h125v125v0v0h-125h125h-125zM-7 374v-125h125v125v0v0h-125h125h-125zM118 249v-125h125v125v0v0h-125h125h-125zM118 124v-125h125v125v0v0h-125h125h-125zM243 499v-125
h125v125v0v0h-125h125h-125zM243 374v-125h125v125v0v0h-125h125h-125zM368 749v-125h125v125v0v0h-125h125h-125zM368 624v-125h125v125v0v0h-125h125h-125zM493 499v-125h125v125v0v0h-125h125h-125zM493 374v-125h125v125v0v0h-125h125h-125zM618 249v-125h125v125v0v0
h-125h125h-125zM618 124v-125h125v125v0v0h-125h125h-125zM743 749v-125h125v125v0v0h-125h125h-125zM743 624v-125h125v125v0v0h-125h125h-125zM743 499v-125h125v125v0v0h-125h125h-125zM743 374v-125h125v125v0v0h-125h125h-125z" />
    <glyph glyph-name="x" unicode="x" 
d="M-7 749v-125h125v125v0v0h-125h125h-125zM-7 124v-125h125v125v0v0h-125h125h-125zM118 624v-125h125v125v0v0h-125h125h-125zM118 249v-125h125v125v0v0h-125h125h-125zM243 499v-125h125v125v0v0h-125h125h-125zM243 374v-125h125v125v0v0h-125h125h-125zM368 624v-125
h125v125v0v0h-125h125h-125zM368 249v-125h125v125v0v0h-125h125h-125zM493 749v-125h125v125v0v0h-125h125h-125zM493 124v-125h125v125v0v0h-125h125h-125z" />
    <glyph glyph-name="y" unicode="y" 
d="M-7 749v-125h125v125v0v0h-125h125h-125zM118 499v-125h125v125v0v0h-125h125h-125zM118 374v-125h125v125v0v0h-125h125h-125zM118 -126v-125h125v125v0v0h-125h125h-125zM243 124v-125h125v125v0v0h-125h125h-125zM243 -1v-125h125v125v0v0h-125h125h-125zM368 499
v-125h125v125v0v0h-125h125h-125zM368 374v-125h125v125v0v0h-125h125h-125zM493 749v-125h125v125v0v0h-125h125h-125zM-7 624v-125h125v125v0v0h-125h125h-125zM493 624v-125h125v125v0v0h-125h125h-125zM118 249v-125h125v125v0v0h-125h125h-125zM368 249v-125h125v125v0
v0h-125h125h-125z" />
    <glyph glyph-name="z" unicode="z" horiz-adv-x="625" 
d="M-7 749v-125h125v125v0v0h-125h125h-125zM-7 249v-125h125v125v0v0h-125h125h-125zM-7 124v-125h125v125v0v0h-125h125h-125zM118 749v-125h125v125v0v0h-125h125h-125zM118 374v-125h125v125v0v0h-125h125h-125zM118 124v-125h125v125v0v0h-125h125h-125zM243 749v-125
h125v125v0v0h-125h125h-125zM243 499v-125h125v125v0v0h-125h125h-125zM243 124v-125h125v125v0v0h-125h125h-125zM368 749v-125h125v125v0v0h-125h125h-125zM368 624v-125h125v125v0v0h-125h125h-125zM368 124v-125h125v125v0v0h-125h125h-125z" />
    <glyph glyph-name="braceleft" unicode="{" horiz-adv-x="625" 
d="M118 999v-125h125v125v0v0h-125h125h-125zM118 874v-125h125v125v0v0h-125h125h-125zM118 749v-125h125v125v0v0h-125h125h-125zM118 374v-125h125v125v0v0h-125h125h-125zM118 249v-125h125v125v0v0h-125h125h-125zM118 124v-125h125v125v0v0h-125h125h-125zM243 1124
v-125h125v125v0v0h-125h125h-125zM368 1124v-125h125v125v0v0h-125h125h-125zM243 -1v-125h125v125v0v0h-125h125h-125zM368 -1v-125h125v125v0v0h-125h125h-125zM-7 624v-125h125v125v0v0h-125h125h-125zM118 499v-125h125v125v0v0h-125h125h-125z" />
    <glyph glyph-name="bar" unicode="|" horiz-adv-x="250" 
d="M-7 1124v-125h125v125v0v0h-125h125h-125zM-7 999v-125h125v125v0v0h-125h125h-125zM-7 874v-125h125v125v0v0h-125h125h-125zM-7 749v-125h125v125v0v0h-125h125h-125zM-7 624v-125h125v125v0v0h-125h125h-125zM-7 499v-125h125v125v0v0h-125h125h-125zM-7 374v-125h125
v125v0v0h-125h125h-125zM-7 249v-125h125v125v0v0h-125h125h-125zM-7 124v-125h125v125v0v0h-125h125h-125zM-7 -1v-125h125v125v0v0h-125h125h-125zM-7 -126v-125h125v125v0v0h-125h125h-125z" />
    <glyph glyph-name="braceright" unicode="}" horiz-adv-x="625" 
d="M-7 1124v-125h125v125v0v0h-125h125h-125zM118 1124v-125h125v125v0v0h-125h125h-125zM243 999v-125h125v125v0v0h-125h125h-125zM243 874v-125h125v125v0v0h-125h125h-125zM243 749v-125h125v125v0v0h-125h125h-125zM243 374v-125h125v125v0v0h-125h125h-125zM243 249
v-125h125v125v0v0h-125h125h-125zM243 124v-125h125v125v0v0h-125h125h-125zM118 -1v-125h125v125v0v0h-125h125h-125zM-7 -1v-125h125v125v0v0h-125h125h-125zM368 624v-125h125v125v0v0h-125h125h-125zM243 499v-125h125v125v0v0h-125h125h-125z" />
    <glyph glyph-name="asciitilde" unicode="~" horiz-adv-x="1000" 
d="M-7 999v-125h125v125v0v0h-125h125h-125zM118 1124v-125h125v125v0v0h-125h125h-125zM243 1124v-125h125v125v0v0h-125h125h-125zM368 999v-125h125v125v0v0h-125h125h-125zM493 874v-125h125v125v0v0h-125h125h-125zM618 874v-125h125v125v0v0h-125h125h-125zM743 999
v-125h125v125v0v0h-125h125h-125z" />
    <glyph glyph-name="udieresis" unicode="&#xa0;" horiz-adv-x="125" 
 />
    <glyph glyph-name="sterling" unicode="&#xa4;" 
d="M-7 749v-125h125v125v0v0h-125h125h-125zM-7 249v-125h125v125v0v0h-125h125h-125zM118 624v-125h125v125v0v0h-125h125h-125zM118 499v-125h125v125v0v0h-125h125h-125zM118 374v-125h125v125v0v0h-125h125h-125zM243 624v-125h125v125v0v0h-125h125h-125zM244 374v-125
h124v125v0v0h-124h124h-124zM368 624v-125h125v125v0v0h-125h125h-125zM368 499v-125h125v125v0v0h-125h125h-125zM368 374v-125h125v125v0v0h-125h125h-125zM493 749v-125h125v125v0v0h-125h125h-125zM493 249v-125h125v125v0v0h-125h125h-125z" />
    <glyph glyph-name="bullet" unicode="&#xa6;" horiz-adv-x="250" 
d="M-7 1124v-125h125v125v0v0h-125h125h-125zM-7 999v-125h125v125v0v0h-125h125h-125zM-7 874v-125h125v125v0v0h-125h125h-125zM-7 749v-125h125v125v0v0h-125h125h-125zM-7 374v-125h125v125v0v0h-125h125h-125zM-7 249v-125h125v125v0v0h-125h125h-125zM-7 124v-125h125
v125v0v0h-125h125h-125zM-7 -1v-125h125v125v0v0h-125h125h-125zM-7 -126v-125h125v125v0v0h-125h125h-125zM-7 624v-125h125v125v0v0h-125h125h-125z" />
    <glyph glyph-name="paragraph" unicode="&#xa7;" horiz-adv-x="625" 
d="M-7 874v-125h125v125v0v0h-125h125h-125zM-7 374v-125h125v125v0v0h-125h125h-125zM118 999v-125h125v125v0v0h-125h125h-125zM119 249v-125h124v125v0v0h-124h124h-124zM243 999v-125h125v125v0v0h-125h125h-125zM243 624v-125h125v125v0v0h-125h125h-125zM243 249v-125
h125v125v0v0h-125h125h-125zM243 -126v-125h125v125v0v0h-125h125h-125zM368 374v-125h125v125v0v0h-125h125h-125zM-7 499v-125h125v125v0v0h-125h125h-125zM118 624v-125h125v125v0v0h-125h125h-125zM118 749v-125h125v125v0v0h-125h125h-125zM243 124v-125h125v125v0v0
h-125h125h-125zM368 -1v-125h125v125v0v0h-125h125h-125zM118 -126v-125h125v125v0v0h-125h125h-125zM368 499v-125h125v125v0v0h-125h125h-125zM-7 -1v-125h125v125v0v0h-125h125h-125zM368 874v-125h125v125v0v0h-125h125h-125z" />
    <glyph glyph-name="registered" unicode="&#xa9;" horiz-adv-x="1125" 
d="M-7 749v-125h125v125v0v0h-125h125h-125zM-7 624v-125h125v125v0v0h-125h125h-125zM-7 499v-125h125v125v0v0h-125h125h-125zM-7 374v-125h125v125v0v0h-125h125h-125zM118 874v-125h125v125v0v0h-125h125h-125zM243 999v-125h125v125v0v0h-125h125h-125zM368 999v-125
h125v125v0v0h-125h125h-125zM493 999v-125h125v125v0v0h-125h125h-125zM618 999v-125h125v125v0v0h-125h125h-125zM743 874v-125h125v125v0v0h-125h125h-125zM868 749v-125h125v125v0v0h-125h125h-125zM868 624v-125h125v125v0v0h-125h125h-125zM868 499v-125h125v125v0v0
h-125h125h-125zM868 374v-125h125v125v0v0h-125h125h-125zM743 249v-125h125v125v0v0h-125h125h-125zM619 124v-125h124v125v0v0h-124h124h-124zM493 124v-125h125v125v0v0h-125h125h-125zM368 124v-125h125v125v0v0h-125h125h-125zM243 124v-125h125v125v0v0h-125h125h-125
zM118 249v-125h125v125v0v0h-125h125h-125zM493 749v-125h125v125v0v0h-125h125h-125zM368 749v-125h125v125v0v0h-125h125h-125zM243 624v-125h125v125v0v0h-125h125h-125zM243 499v-125h125v125v0v0h-125h125h-125zM368 374v-125h125v125v0v0h-125h125h-125zM493 374v-125
h125v125v0v0h-125h125h-125z" />
    <glyph glyph-name="trademark" unicode="&#xab;" 
d="M-7 499v-125h125v125v0v0h-125h125h-125zM118 624v-125h125v125v0v0h-125h125h-125zM119 374v-125h124v125v0v0h-124h124h-124zM244 749v-125h124v125v0v0h-124h124h-124zM243 499v-125h125v125v0v0h-125h125h-125zM244 249v-125h124v125v0v0h-124h124h-124zM368 624
v-125h125v125v0v0h-125h125h-125zM368 374v-125h125v125v0v0h-125h125h-125zM493 749v-125h125v125v0v0h-125h125h-125zM493 249v-125h125v125v0v0h-125h125h-125z" />
    <glyph glyph-name="acute" unicode="&#xac;" horiz-adv-x="1000" 
d="M-7 499v-125h125v125v0v0h-125h125h-125zM118 499v-125h125v125v0v0h-125h125h-125zM243 499v-125h125v125v0v0h-125h125h-125zM368 499v-125h125v125v0v0h-125h125h-125zM493 499v-125h125v125v0v0h-125h125h-125zM618 499v-125h125v125v0v0h-125h125h-125zM743 499
v-125h125v125v0v0h-125h125h-125zM743 374v-125h125v125v0v0h-125h125h-125zM743 249v-125h125v125v0v0h-125h125h-125zM743 124v-125h125v125v0v0h-125h125h-125z" />
    <glyph glyph-name="dieresis" unicode="&#xad;" horiz-adv-x="500" 
d="M-7 499v-125h125v125v0v0h-125h125h-125zM118 499v-125h125v125v0v0h-125h125h-125zM243 499v-125h125v125v0v0h-125h125h-125z" />
    <glyph glyph-name="notequal" unicode="&#xae;" horiz-adv-x="1125" 
d="M-7 999v-125h125v125v0v0h-125h125h-125zM-7 874v-125h125v125v0v0h-125h125h-125zM-7 749v-125h125v125v0v0h-125h125h-125zM-7 624v-125h125v125v0v0h-125h125h-125zM118 1124v-125h125v125v0v0h-125h125h-125zM243 1249v-125h125v125v0v0h-125h125h-125zM368 1249
v-125h125v125v0v0h-125h125h-125zM493 1249v-125h125v125v0v0h-125h125h-125zM618 1249v-125h125v125v0v0h-125h125h-125zM743 1124v-125h125v125v0v0h-125h125h-125zM868 999v-125h125v125v0v0h-125h125h-125zM868 874v-125h125v125v0v0h-125h125h-125zM868 749v-125h125
v125v0v0h-125h125h-125zM868 624v-125h125v125v0v0h-125h125h-125zM743 499v-125h125v125v0v0h-125h125h-125zM619 374v-125h124v125v0v0h-124h124h-124zM493 374v-125h125v125v0v0h-125h125h-125zM368 374v-125h125v125v0v0h-125h125h-125zM243 374v-125h125v125v0v0h-125
h125h-125zM118 499v-125h125v125v0v0h-125h125h-125zM368 624v-125h125v125v0v0h-125h125h-125zM368 749v-125h125v125v0v0h-125h125h-125zM368 874v-125h125v125v0v0h-125h125h-125zM493 999v-125h125v125v0v0h-125h125h-125z" />
    <glyph glyph-name="Oslash" unicode="&#xb0;" horiz-adv-x="625" 
d="M-7 874v-125h125v125v0v0h-125h125h-125zM-7 749v-125h125v125v0v0h-125h125h-125zM118 999v-125h125v125v0v0h-125h125h-125zM118 624v-125h125v125v0v0h-125h125h-125zM243 999v-125h125v125v0v0h-125h125h-125zM244 624v-125h124v125v0v0h-124h124h-124zM368 874v-125
h125v125v0v0h-125h125h-125zM368 749v-125h125v125v0v0h-125h125h-125z" />
    <glyph glyph-name="infinity" unicode="&#xb1;" 
d="M-7 749v-125h125v125v0v0h-125h125h-125zM118 749v-125h125v125v0v0h-125h125h-125zM243 999v-125h125v125v0v0h-125h125h-125zM243 874v-125h125v125v0v0h-125h125h-125zM243 749v-125h125v125v0v0h-125h125h-125zM243 624v-125h125v125v0v0h-125h125h-125zM243 499
v-125h125v125v0v0h-125h125h-125zM368 749v-125h125v125v0v0h-125h125h-125zM493 749v-125h125v125v0v0h-125h125h-125zM-7 249v-125h125v125v0v0h-125h125h-125zM118 249v-125h125v125v0v0h-125h125h-125zM243 249v-125h125v125v0v0h-125h125h-125zM368 249v-125h125v125v0
v0h-125h125h-125zM493 249v-125h125v125v0v0h-125h125h-125z" />
    <glyph glyph-name="yen" unicode="&#xb5;" 
d="M-7 749v-125h125v125v0v0h-125h125h-125zM-7 624v-125h125v125v0v0h-125h125h-125zM-7 499v-125h125v125v0v0h-125h125h-125zM-7 374v-125h125v125v0v0h-125h125h-125zM-7 249v-125h125v125v0v0h-125h125h-125zM-7 124v-125h125v125v0v0h-125h125h-125zM-7 -1v-125h125
v125v0v0h-125h125h-125zM-7 -126v-125h125v125v0v0h-125h125h-125zM118 124v-125h125v125v0v0h-125h125h-125zM243 124v-125h125v125v0v0h-125h125h-125zM368 124v-125h125v125v0v0h-125h125h-125zM493 749v-125h125v125v0v0h-125h125h-125zM493 624v-125h125v125v0v0h-125
h125h-125zM493 499v-125h125v125v0v0h-125h125h-125zM493 374v-125h125v125v0v0h-125h125h-125zM493 249v-125h125v125v0v0h-125h125h-125zM493 124v-125h125v125v0v0h-125h125h-125z" />
    <glyph glyph-name="mu" unicode="&#xb6;" horiz-adv-x="875" 
d="M-7 874v-125h125v125v0v0h-125h125h-125zM-7 749v-125h125v125v0v0h-125h125h-125zM-7 624v-125h125v125v0v0h-125h125h-125zM118 999v-125h125v125v0v0h-125h125h-125zM118 874v-125h125v125v0v0h-125h125h-125zM118 749v-125h125v125v0v0h-125h125h-125zM118 624v-125
h125v125v0v0h-125h125h-125zM118 499v-125h125v125v0v0h-125h125h-125zM243 999v-125h125v125v0v0h-125h125h-125zM243 874v-125h125v125v0v0h-125h125h-125zM243 749v-125h125v125v0v0h-125h125h-125zM243 624v-125h125v125v0v0h-125h125h-125zM243 499v-125h125v125v0v0
h-125h125h-125zM243 374v-125h125v125v0v0h-125h125h-125zM243 249v-125h125v125v0v0h-125h125h-125zM243 124v-125h125v125v0v0h-125h125h-125zM243 -1v-125h125v125v0v0h-125h125h-125zM243 -126v-125h125v125v0v0h-125h125h-125zM368 999v-125h125v125v0v0h-125h125h-125
zM493 999v-125h125v125v0v0h-125h125h-125zM618 999v-125h125v125v0v0h-125h125h-125zM618 874v-125h125v125v0v0h-125h125h-125zM618 749v-125h125v125v0v0h-125h125h-125zM618 624v-125h125v125v0v0h-125h125h-125zM618 499v-125h125v125v0v0h-125h125h-125zM618 374v-125
h125v125v0v0h-125h125h-125zM618 -1v-125h125v125v0v0h-125h125h-125zM618 124v-125h125v125v0v0h-125h125h-125zM618 249v-125h125v125v0v0h-125h125h-125zM618 -126v-125h125v125v0v0h-125h125h-125zM368 749v-125h125v125v0v0h-125h125h-125zM368 624v-125h125v125v0v0
h-125h125h-125z" />
    <glyph glyph-name="partialdiff" unicode="&#xb7;" horiz-adv-x="250" 
d="M-7 624v-125h125v125v0v0h-125h125h-125z" />
    <glyph glyph-name="integral" unicode="&#xbb;" 
d="M-7 749v-125h125v125v0v0h-125h125h-125zM-7 249v-125h125v125v0v0h-125h125h-125zM118 624v-125h125v125v0v0h-125h125h-125zM118 374v-125h125v125v0v0h-125h125h-125zM244 749v-125h124v125v0v0h-124h124h-124zM243 499v-125h125v125v0v0h-125h125h-125zM244 249v-125
h124v125v0v0h-124h124h-124zM368 624v-125h125v125v0v0h-125h125h-125zM369 374v-125h124v125v0v0h-124h124h-124zM493 499v-125h125v125v0v0h-125h125h-125z" />
    <glyph glyph-name="germandbls" unicode="&#x401;" 
d="M-7 999v-125h125v125v0v0h-125h125h-125zM-7 874v-125h125v125v0v0h-125h125h-125zM-7 749v-125h125v125v0v0h-125h125h-125zM-7 624v-125h125v125v0v0h-125h125h-125zM-7 499v-125h125v125v0v0h-125h125h-125zM-7 374v-125h125v125v0v0h-125h125h-125zM-7 249v-125h125
v125v0v0h-125h125h-125zM-7 124v-125h125v125v0v0h-125h125h-125zM118 1249v-125h125v125v0v0h-125h125h-125zM118 999v-125h125v125v0v0h-125h125h-125zM118 624v-125h125v125v0v0h-125h125h-125zM118 124v-125h125v125v0v0h-125h125h-125zM243 999v-125h125v125v0v0h-125
h125h-125zM243 624v-125h125v125v0v0h-125h125h-125zM243 124v-125h125v125v0v0h-125h125h-125zM368 999v-125h125v125v0v0h-125h125h-125zM368 624v-125h125v125v0v0h-125h125h-125zM368 124v-125h125v125v0v0h-125h125h-125zM493 999v-125h125v125v0v0h-125h125h-125z
M493 124v-125h125v125v0v0h-125h125h-125zM368 1249v-125h125v125v0v0h-125h125h-125z" />
    <glyph glyph-name="Adieresis" unicode="&#x402;" horiz-adv-x="875" 
d="M-7 999v-125h125v125v0v0h-125h125h-125zM118 999v-125h125v125v0v0h-125h125h-125zM118 874v-125h125v125v0v0h-125h125h-125zM118 749v-125h125v125v0v0h-125h125h-125zM118 624v-125h125v125v0v0h-125h125h-125zM118 499v-125h125v125v0v0h-125h125h-125zM118 374
v-125h125v125v0v0h-125h125h-125zM118 249v-125h125v125v0v0h-125h125h-125zM118 124v-125h125v125v0v0h-125h125h-125zM243 999v-125h125v125v0v0h-125h125h-125zM368 999v-125h125v125v0v0h-125h125h-125zM493 124v-125h125v125v0v0h-125h125h-125zM368 124v-125h125v125
v0v0h-125h125h-125zM618 499v-125h125v125v0v0h-125h125h-125zM618 374v-125h125v125v0v0h-125h125h-125zM618 249v-125h125v125v0v0h-125h125h-125zM243 749v-125h125v125v0v0h-125h125h-125zM368 749v-125h125v125v0v0h-125h125h-125zM493 749v-125h125v125v0v0h-125h125
h-125zM618 624v-125h125v125v0v0h-125h125h-125z" />
    <glyph glyph-name="Aring" unicode="&#x403;" 
d="M-7 999v-125h125v125v0v0h-125h125h-125zM-7 874v-125h125v125v0v0h-125h125h-125zM-7 749v-125h125v125v0v0h-125h125h-125zM-7 624v-125h125v125v0v0h-125h125h-125zM-7 499v-125h125v125v0v0h-125h125h-125zM-7 374v-125h125v125v0v0h-125h125h-125zM-7 249v-125h125
v125v0v0h-125h125h-125zM-7 124v-125h125v125v0v0h-125h125h-125zM118 999v-125h125v125v0v0h-125h125h-125zM243 1249v-125h125v125v0v0h-125h125h-125zM243 999v-125h125v125v0v0h-125h125h-125zM368 1374v-125h125v125v0v0h-125h125h-125zM368 999v-125h125v125v0v0h-125
h125h-125zM493 999v-125h125v125v0v0h-125h125h-125z" />
    <glyph glyph-name="copyright" unicode="&#x404;" horiz-adv-x="875" 
d="M-7 749v-125h125v125v0v0h-125h125h-125zM-7 624v-125h125v125v0v0h-125h125h-125zM-7 499v-125h125v125v0v0h-125h125h-125zM-7 374v-125h125v125v0v0h-125h125h-125zM118 874v-125h125v125v0v0h-125h125h-125zM118 624v-125h125v125v0v0h-125h125h-125zM118 249v-125
h125v125v0v0h-125h125h-125zM243 999v-125h125v125v0v0h-125h125h-125zM243 624v-125h125v125v0v0h-125h125h-125zM243 124v-125h125v125v0v0h-125h125h-125zM368 999v-125h125v125v0v0h-125h125h-125zM368 624v-125h125v125v0v0h-125h125h-125zM368 124v-125h125v125v0v0
h-125h125h-125zM493 999v-125h125v125v0v0h-125h125h-125zM493 624v-125h125v125v0v0h-125h125h-125zM493 124v-125h125v125v0v0h-125h125h-125zM618 874v-125h125v125v0v0h-125h125h-125zM618 249v-125h125v125v0v0h-125h125h-125z" />
    <glyph glyph-name="ordmasculine" unicode="&#x405;" 
d="M-7 874v-125h125v125v0v0h-125h125h-125zM-7 749v-125h125v125v0v0h-125h125h-125zM-7 249v-125h125v125v0v0h-125h125h-125zM118 999v-125h125v125v0v0h-125h125h-125zM118 624v-125h125v125v0v0h-125h125h-125zM118 124v-125h125v125v0v0h-125h125h-125zM243 999v-125
h125v125v0v0h-125h125h-125zM243 624v-125h125v125v0v0h-125h125h-125zM243 124v-125h125v125v0v0h-125h125h-125zM368 999v-125h125v125v0v0h-125h125h-125zM368 124v-125h125v125v0v0h-125h125h-125zM368 624v-125h125v125v0v0h-125h125h-125zM493 249v-125h125v125v0v0
h-125h125h-125zM493 374v-125h125v125v0v0h-125h125h-125zM493 499v-125h125v125v0v0h-125h125h-125zM493 874v-125h125v125v0v0h-125h125h-125z" />
    <glyph glyph-name="plusminus" unicode="&#x406;" horiz-adv-x="500" 
d="M-7 999v-125h125v125v0v0h-125h125h-125zM-7 124v-125h125v125v0v0h-125h125h-125zM118 999v-125h125v125v0v0h-125h125h-125zM118 874v-125h125v125v0v0h-125h125h-125zM118 749v-125h125v125v0v0h-125h125h-125zM118 624v-125h125v125v0v0h-125h125h-125zM118 499v-125
h125v125v0v0h-125h125h-125zM118 374v-125h125v125v0v0h-125h125h-125zM118 249v-125h125v125v0v0h-125h125h-125zM118 124v-125h125v125v0v0h-125h125h-125zM243 999v-125h125v125v0v0h-125h125h-125zM243 124v-125h125v125v0v0h-125h125h-125z" />
    <glyph glyph-name="AE" unicode="&#x407;" horiz-adv-x="500" 
d="M-7 1249v-125h125v125v0v0h-125h125h-125zM-7 999v-125h125v125v0v0h-125h125h-125zM-7 124v-125h125v125v0v0h-125h125h-125zM118 999v-125h125v125v0v0h-125h125h-125zM118 874v-125h125v125v0v0h-125h125h-125zM118 749v-125h125v125v0v0h-125h125h-125zM118 624v-125
h125v125v0v0h-125h125h-125zM118 499v-125h125v125v0v0h-125h125h-125zM118 374v-125h125v125v0v0h-125h125h-125zM118 249v-125h125v125v0v0h-125h125h-125zM118 124v-125h125v125v0v0h-125h125h-125zM243 1249v-125h125v125v0v0h-125h125h-125zM243 999v-125h125v125v0v0
h-125h125h-125zM243 124v-125h125v125v0v0h-125h125h-125z" />
    <glyph glyph-name="cent" unicode="&#x408;" horiz-adv-x="625" 
d="M-7 124v-125h125v125v0v0h-125h125h-125zM118 124v-125h125v125v0v0h-125h125h-125zM243 999v-125h125v125v0v0h-125h125h-125zM243 124v-125h125v125v0v0h-125h125h-125zM368 999v-125h125v125v0v0h-125h125h-125zM368 874v-125h125v125v0v0h-125h125h-125zM368 749
v-125h125v125v0v0h-125h125h-125zM368 624v-125h125v125v0v0h-125h125h-125zM368 499v-125h125v125v0v0h-125h125h-125zM368 374v-125h125v125v0v0h-125h125h-125zM368 249v-125h125v125v0v0h-125h125h-125z" />
    <glyph glyph-name="adieresis" unicode="&#x409;" horiz-adv-x="1375" 
d="M-7 124v-125h125v125v0v0h-125h125h-125zM118 999v-125h125v125v0v0h-125h125h-125zM118 874v-125h125v125v0v0h-125h125h-125zM118 749v-125h125v125v0v0h-125h125h-125zM118 624v-125h125v125v0v0h-125h125h-125zM118 499v-125h125v125v0v0h-125h125h-125zM118 374
v-125h125v125v0v0h-125h125h-125zM118 249v-125h125v125v0v0h-125h125h-125zM243 999v-125h125v125v0v0h-125h125h-125zM368 999v-125h125v125v0v0h-125h125h-125zM493 999v-125h125v125v0v0h-125h125h-125zM618 999v-125h125v125v0v0h-125h125h-125zM618 874v-125h125v125
v0v0h-125h125h-125zM618 749v-125h125v125v0v0h-125h125h-125zM618 624v-125h125v125v0v0h-125h125h-125zM618 499v-125h125v125v0v0h-125h125h-125zM618 374v-125h125v125v0v0h-125h125h-125zM618 249v-125h125v125v0v0h-125h125h-125zM618 124v-125h125v125v0v0h-125h125
h-125zM743 124v-125h125v125v0v0h-125h125h-125zM868 124v-125h125v125v0v0h-125h125h-125zM994 124v-125h124v125v0v0h-124h124h-124zM1118 499v-125h125v125v0v0h-125h125h-125zM1118 374v-125h125v125v0v0h-125h125h-125zM1118 249v-125h125v125v0v0h-125h125h-125z
M743 749v-125h125v125v0v0h-125h125h-125zM868 749v-125h125v125v0v0h-125h125h-125zM993 749v-125h125v125v0v0h-125h125h-125zM1118 624v-125h125v125v0v0h-125h125h-125z" />
    <glyph glyph-name="aring" unicode="&#x40a;" horiz-adv-x="1250" 
d="M-7 999v-125h125v125v0v0h-125h125h-125zM-7 874v-125h125v125v0v0h-125h125h-125zM-7 749v-125h125v125v0v0h-125h125h-125zM-7 624v-125h125v125v0v0h-125h125h-125zM-7 499v-125h125v125v0v0h-125h125h-125zM-7 374v-125h125v125v0v0h-125h125h-125zM-7 249v-125h125
v125v0v0h-125h125h-125zM-7 124v-125h125v125v0v0h-125h125h-125zM493 999v-125h125v125v0v0h-125h125h-125zM493 874v-125h125v125v0v0h-125h125h-125zM493 749v-125h125v125v0v0h-125h125h-125zM493 624v-125h125v125v0v0h-125h125h-125zM493 499v-125h125v125v0v0h-125
h125h-125zM493 374v-125h125v125v0v0h-125h125h-125zM493 249v-125h125v125v0v0h-125h125h-125zM493 124v-125h125v125v0v0h-125h125h-125zM618 124v-125h125v125v0v0h-125h125h-125zM743 124v-125h125v125v0v0h-125h125h-125zM869 124v-125h124v125v0v0h-124h124h-124z
M993 499v-125h125v125v0v0h-125h125h-125zM993 374v-125h125v125v0v0h-125h125h-125zM993 249v-125h125v125v0v0h-125h125h-125zM118 749v-125h125v125v0v0h-125h125h-125zM243 749v-125h125v125v0v0h-125h125h-125zM368 749v-125h125v125v0v0h-125h125h-125zM618 749v-125
h125v125v0v0h-125h125h-125zM743 749v-125h125v125v0v0h-125h125h-125zM868 749v-125h125v125v0v0h-125h125h-125zM993 624v-125h125v125v0v0h-125h125h-125z" />
    <glyph glyph-name="eacute" unicode="&#x40b;" horiz-adv-x="1000" 
d="M-7 999v-125h125v125v0v0h-125h125h-125zM118 999v-125h125v125v0v0h-125h125h-125zM243 999v-125h125v125v0v0h-125h125h-125zM243 874v-125h125v125v0v0h-125h125h-125zM243 749v-125h125v125v0v0h-125h125h-125zM243 624v-125h125v125v0v0h-125h125h-125zM243 499
v-125h125v125v0v0h-125h125h-125zM243 374v-125h125v125v0v0h-125h125h-125zM243 249v-125h125v125v0v0h-125h125h-125zM243 124v-125h125v125v0v0h-125h125h-125zM368 999v-125h125v125v0v0h-125h125h-125zM493 999v-125h125v125v0v0h-125h125h-125zM368 749v-125h125v125
v0v0h-125h125h-125zM743 499v-125h125v125v0v0h-125h125h-125zM743 374v-125h125v125v0v0h-125h125h-125zM743 249v-125h125v125v0v0h-125h125h-125zM743 124v-125h125v125v0v0h-125h125h-125zM493 749v-125h125v125v0v0h-125h125h-125zM618 749v-125h125v125v0v0h-125h125
h-125zM743 624v-125h125v125v0v0h-125h125h-125z" />
    <glyph glyph-name="ccedilla" unicode="&#x40c;" horiz-adv-x="875" 
d="M-7 999v-125h125v125v0v0h-125h125h-125zM-7 874v-125h125v125v0v0h-125h125h-125zM-7 749v-125h125v125v0v0h-125h125h-125zM-7 624v-125h125v125v0v0h-125h125h-125zM-7 499v-125h125v125v0v0h-125h125h-125zM-7 374v-125h125v125v0v0h-125h125h-125zM-7 249v-125h125
v125v0v0h-125h125h-125zM-7 124v-125h125v125v0v0h-125h125h-125zM118 624v-125h125v125v0v0h-125h125h-125zM243 1249v-125h125v125v0v0h-125h125h-125zM243 624v-125h125v125v0v0h-125h125h-125zM243 499v-125h125v125v0v0h-125h125h-125zM368 1374v-125h125v125v0v0h-125
h125h-125zM368 749v-125h125v125v0v0h-125h125h-125zM368 374v-125h125v125v0v0h-125h125h-125zM493 249v-125h125v125v0v0h-125h125h-125zM618 999v-125h125v125v0v0h-125h125h-125zM618 124v-125h125v125v0v0h-125h125h-125zM493 874v-125h125v125v0v0h-125h125h-125z" />
    <glyph glyph-name="dagger" unicode="&#x40e;" horiz-adv-x="1000" 
d="M-7 999v-125h125v125v0v0h-125h125h-125zM118 874v-125h125v125v0v0h-125h125h-125zM243 749v-125h125v125v0v0h-125h125h-125zM368 499v-125h125v125v0v0h-125h125h-125zM368 374v-125h125v125v0v0h-125h125h-125zM368 249v-125h125v125v0v0h-125h125h-125zM368 124
v-125h125v125v0v0h-125h125h-125zM493 749v-125h125v125v0v0h-125h125h-125zM618 874v-125h125v125v0v0h-125h125h-125zM743 999v-125h125v125v0v0h-125h125h-125zM243 624v-125h125v125v0v0h-125h125h-125zM493 624v-125h125v125v0v0h-125h125h-125zM118 1374v-125h125v125
v0v0h-125h125h-125zM243 1249v-125h125v125v0v0h-125h125h-125zM368 1249v-125h125v125v0v0h-125h125h-125zM493 1249v-125h125v125v0v0h-125h125h-125zM618 1374v-125h125v125v0v0h-125h125h-125z" />
    <glyph glyph-name="egrave" unicode="&#x40f;" 
d="M-7 999v-125h125v125v0v0h-125h125h-125zM-7 874v-125h125v125v0v0h-125h125h-125zM-7 749v-125h125v125v0v0h-125h125h-125zM-7 624v-125h125v125v0v0h-125h125h-125zM-7 499v-125h125v125v0v0h-125h125h-125zM-7 374v-125h125v125v0v0h-125h125h-125zM-7 249v-125h125
v125v0v0h-125h125h-125zM-7 124v-125h125v125v0v0h-125h125h-125zM118 124v-125h125v125v0v0h-125h125h-125zM243 124v-125h125v125v0v0h-125h125h-125zM368 124v-125h125v125v0v0h-125h125h-125zM493 124v-125h125v125v0v0h-125h125h-125zM493 249v-125h125v125v0v0h-125
h125h-125zM493 374v-125h125v125v0v0h-125h125h-125zM493 999v-125h125v125v0v0h-125h125h-125zM493 874v-125h125v125v0v0h-125h125h-125zM493 749v-125h125v125v0v0h-125h125h-125zM493 624v-125h125v125v0v0h-125h125h-125zM493 499v-125h125v125v0v0h-125h125h-125z
M243 -1v-125h125v125v0v0h-125h125h-125zM243 -126v-125h125v125v0v0h-125h125h-125z" />
    <glyph glyph-name="oslash" unicode="&#x410;" horiz-adv-x="875" 
d="M-7 374v-125h125v125v0v0h-125h125h-125zM-7 249v-125h125v125v0v0h-125h125h-125zM-7 124v-125h125v125v0v0h-125h125h-125zM118 749v-125h125v125v0v0h-125h125h-125zM118 624v-125h125v125v0v0h-125h125h-125zM118 499v-125h125v125v0v0h-125h125h-125zM118 374v-125
h125v125v0v0h-125h125h-125zM243 999v-125h125v125v0v0h-125h125h-125zM243 874v-125h125v125v0v0h-125h125h-125zM243 374v-125h125v125v0v0h-125h125h-125zM368 999v-125h125v125v0v0h-125h125h-125zM368 874v-125h125v125v0v0h-125h125h-125zM369 374v-125h124v125v0v0
h-124h124h-124zM493 749v-125h125v125v0v0h-125h125h-125zM493 624v-125h125v125v0v0h-125h125h-125zM493 499v-125h125v125v0v0h-125h125h-125zM493 374v-125h125v125v0v0h-125h125h-125zM618 374v-125h125v125v0v0h-125h125h-125zM618 249v-125h125v125v0v0h-125h125h-125
zM618 124v-125h125v125v0v0h-125h125h-125z" />
    <glyph glyph-name="questiondown" unicode="&#x411;" 
d="M-7 999v-125h125v125v0v0h-125h125h-125zM-7 874v-125h125v125v0v0h-125h125h-125zM-7 749v-125h125v125v0v0h-125h125h-125zM-7 624v-125h125v125v0v0h-125h125h-125zM-7 499v-125h125v125v0v0h-125h125h-125zM-7 374v-125h125v125v0v0h-125h125h-125zM-7 249v-125h125
v125v0v0h-125h125h-125zM-7 124v-125h125v125v0v0h-125h125h-125zM118 999v-125h125v125v0v0h-125h125h-125zM118 124v-125h125v125v0v0h-125h125h-125zM243 999v-125h125v125v0v0h-125h125h-125zM243 124v-125h125v125v0v0h-125h125h-125zM368 999v-125h125v125v0v0h-125
h125h-125zM369 124v-125h124v125v0v0h-124h124h-124zM118 749v-125h125v125v0v0h-125h125h-125zM243 749v-125h125v125v0v0h-125h125h-125zM368 749v-125h125v125v0v0h-125h125h-125zM493 249v-125h125v125v0v0h-125h125h-125zM493 374v-125h125v125v0v0h-125h125h-125z
M493 499v-125h125v125v0v0h-125h125h-125zM493 624v-125h125v125v0v0h-125h125h-125z" />
    <glyph glyph-name="exclamdown" unicode="&#x412;" horiz-adv-x="875" 
d="M-7 999v-125h125v125v0v0h-125h125h-125zM-7 874v-125h125v125v0v0h-125h125h-125zM-7 749v-125h125v125v0v0h-125h125h-125zM-7 624v-125h125v125v0v0h-125h125h-125zM-7 499v-125h125v125v0v0h-125h125h-125zM-7 374v-125h125v125v0v0h-125h125h-125zM-7 249v-125h125
v125v0v0h-125h125h-125zM-7 124v-125h125v125v0v0h-125h125h-125zM118 999v-125h125v125v0v0h-125h125h-125zM118 624v-125h125v125v0v0h-125h125h-125zM118 124v-125h125v125v0v0h-125h125h-125zM243 999v-125h125v125v0v0h-125h125h-125zM243 624v-125h125v125v0v0h-125
h125h-125zM243 124v-125h125v125v0v0h-125h125h-125zM368 999v-125h125v125v0v0h-125h125h-125zM368 624v-125h125v125v0v0h-125h125h-125zM368 124v-125h125v125v0v0h-125h125h-125zM494 624v-125h124v125v0v0h-124h124h-124zM494 124v-125h124v125v0v0h-124h124h-124z
M618 499v-125h125v125v0v0h-125h125h-125zM618 374v-125h125v125v0v0h-125h125h-125zM618 249v-125h125v125v0v0h-125h125h-125zM618 749v-125h125v125v0v0h-125h125h-125zM618 874v-125h125v125v0v0h-125h125h-125zM493 999v-125h125v125v0v0h-125h125h-125z" />
    <glyph glyph-name="logicalnot" unicode="&#x413;" 
d="M-7 999v-125h125v125v0v0h-125h125h-125zM-7 874v-125h125v125v0v0h-125h125h-125zM-7 749v-125h125v125v0v0h-125h125h-125zM-7 624v-125h125v125v0v0h-125h125h-125zM-7 499v-125h125v125v0v0h-125h125h-125zM-7 374v-125h125v125v0v0h-125h125h-125zM-7 249v-125h125
v125v0v0h-125h125h-125zM-7 124v-125h125v125v0v0h-125h125h-125zM118 999v-125h125v125v0v0h-125h125h-125zM243 999v-125h125v125v0v0h-125h125h-125zM368 999v-125h125v125v0v0h-125h125h-125zM493 999v-125h125v125v0v0h-125h125h-125z" />
    <glyph glyph-name="radical" unicode="&#x414;" horiz-adv-x="1000" 
d="M-7 124v-125h125v125v0v0h-125h125h-125zM-7 -1v-125h125v125v0v0h-125h125h-125zM-7 -126v-125h125v125v0v0h-125h125h-125zM118 249v-125h125v125v0v0h-125h125h-125zM118 124v-125h125v125v0v0h-125h125h-125zM243 999v-125h125v125v0v0h-125h125h-125zM243 874v-125
h125v125v0v0h-125h125h-125zM243 124v-125h125v125v0v0h-125h125h-125zM368 999v-125h125v125v0v0h-125h125h-125zM368 124v-125h125v125v0v0h-125h125h-125zM493 999v-125h125v125v0v0h-125h125h-125zM494 124v-125h124v125v0v0h-124h124h-124zM618 999v-125h125v125v0v0
h-125h125h-125zM618 874v-125h125v125v0v0h-125h125h-125zM618 749v-125h125v125v0v0h-125h125h-125zM618 624v-125h125v125v0v0h-125h125h-125zM618 499v-125h125v125v0v0h-125h125h-125zM618 374v-125h125v125v0v0h-125h125h-125zM618 249v-125h125v125v0v0h-125h125h-125
zM618 124v-125h125v125v0v0h-125h125h-125zM743 124v-125h125v125v0v0h-125h125h-125zM743 -1v-125h125v125v0v0h-125h125h-125zM743 -126v-125h125v125v0v0h-125h125h-125zM243 374v-125h125v125v0v0h-125h125h-125zM243 499v-125h125v125v0v0h-125h125h-125zM243 624v-125
h125v125v0v0h-125h125h-125zM243 749v-125h125v125v0v0h-125h125h-125z" />
    <glyph glyph-name="florin" unicode="&#x415;" 
d="M-7 999v-125h125v125v0v0h-125h125h-125zM-7 874v-125h125v125v0v0h-125h125h-125zM-7 749v-125h125v125v0v0h-125h125h-125zM-7 624v-125h125v125v0v0h-125h125h-125zM-7 499v-125h125v125v0v0h-125h125h-125zM-7 374v-125h125v125v0v0h-125h125h-125zM-7 249v-125h125
v125v0v0h-125h125h-125zM-7 124v-125h125v125v0v0h-125h125h-125zM118 999v-125h125v125v0v0h-125h125h-125zM118 624v-125h125v125v0v0h-125h125h-125zM118 124v-125h125v125v0v0h-125h125h-125zM243 999v-125h125v125v0v0h-125h125h-125zM243 624v-125h125v125v0v0h-125
h125h-125zM243 124v-125h125v125v0v0h-125h125h-125zM368 999v-125h125v125v0v0h-125h125h-125zM368 624v-125h125v125v0v0h-125h125h-125zM368 124v-125h125v125v0v0h-125h125h-125zM493 999v-125h125v125v0v0h-125h125h-125zM493 124v-125h125v125v0v0h-125h125h-125z" />
    <glyph glyph-name="approxequal" unicode="&#x416;" horiz-adv-x="1250" 
d="M-7 999v-125h125v125v0v0h-125h125h-125zM-7 124v-125h125v125v0v0h-125h125h-125zM118 999v-125h125v125v0v0h-125h125h-125zM118 249v-125h125v125v0v0h-125h125h-125zM243 874v-125h125v125v0v0h-125h125h-125zM243 749v-125h125v125v0v0h-125h125h-125zM243 374v-125
h125v125v0v0h-125h125h-125zM368 624v-125h125v125v0v0h-125h125h-125zM368 499v-125h125v125v0v0h-125h125h-125zM493 999v-125h125v125v0v0h-125h125h-125zM493 874v-125h125v125v0v0h-125h125h-125zM493 749v-125h125v125v0v0h-125h125h-125zM493 624v-125h125v125v0v0
h-125h125h-125zM493 499v-125h125v125v0v0h-125h125h-125zM493 374v-125h125v125v0v0h-125h125h-125zM493 249v-125h125v125v0v0h-125h125h-125zM493 124v-125h125v125v0v0h-125h125h-125zM618 624v-125h125v125v0v0h-125h125h-125zM618 499v-125h125v125v0v0h-125h125h-125
zM743 749v-125h125v125v0v0h-125h125h-125zM743 374v-125h125v125v0v0h-125h125h-125zM868 249v-125h125v125v0v0h-125h125h-125zM993 999v-125h125v125v0v0h-125h125h-125zM993 124v-125h125v125v0v0h-125h125h-125zM743 874v-125h125v125v0v0h-125h125h-125zM868 999v-125
h125v125v0v0h-125h125h-125z" />
    <glyph glyph-name="Delta" unicode="&#x417;" 
d="M-7 874v-125h125v125v0v0h-125h125h-125zM-7 249v-125h125v125v0v0h-125h125h-125zM118 999v-125h125v125v0v0h-125h125h-125zM118 124v-125h125v125v0v0h-125h125h-125zM243 999v-125h125v125v0v0h-125h125h-125zM243 624v-125h125v125v0v0h-125h125h-125zM243 124v-125
h125v125v0v0h-125h125h-125zM368 999v-125h125v125v0v0h-125h125h-125zM368 624v-125h125v125v0v0h-125h125h-125zM368 124v-125h125v125v0v0h-125h125h-125zM493 874v-125h125v125v0v0h-125h125h-125zM493 749v-125h125v125v0v0h-125h125h-125zM493 499v-125h125v125v0v0
h-125h125h-125zM493 374v-125h125v125v0v0h-125h125h-125zM493 249v-125h125v125v0v0h-125h125h-125z" />
    <glyph glyph-name="guillemotleft" unicode="&#x418;" 
d="M-7 999v-125h125v125v0v0h-125h125h-125zM-7 874v-125h125v125v0v0h-125h125h-125zM-7 749v-125h125v125v0v0h-125h125h-125zM-7 624v-125h125v125v0v0h-125h125h-125zM-7 499v-125h125v125v0v0h-125h125h-125zM-7 374v-125h125v125v0v0h-125h125h-125zM-7 249v-125h125
v125v0v0h-125h125h-125zM-7 124v-125h125v125v0v0h-125h125h-125zM118 249v-125h125v125v0v0h-125h125h-125zM243 499v-125h125v125v0v0h-125h125h-125zM368 749v-125h125v125v0v0h-125h125h-125zM493 124v-125h125v125v0v0h-125h125h-125zM493 249v-125h125v125v0v0h-125
h125h-125zM493 374v-125h125v125v0v0h-125h125h-125zM493 499v-125h125v125v0v0h-125h125h-125zM493 624v-125h125v125v0v0h-125h125h-125zM493 749v-125h125v125v0v0h-125h125h-125zM493 874v-125h125v125v0v0h-125h125h-125zM493 999v-125h125v125v0v0h-125h125h-125z
M368 874v-125h125v125v0v0h-125h125h-125zM243 624v-125h125v125v0v0h-125h125h-125zM118 374v-125h125v125v0v0h-125h125h-125z" />
    <glyph glyph-name="guillemotright" unicode="&#x419;" 
d="M-7 999v-125h125v125v0v0h-125h125h-125zM-7 874v-125h125v125v0v0h-125h125h-125zM-7 749v-125h125v125v0v0h-125h125h-125zM-7 624v-125h125v125v0v0h-125h125h-125zM-7 499v-125h125v125v0v0h-125h125h-125zM-7 374v-125h125v125v0v0h-125h125h-125zM-7 249v-125h125
v125v0v0h-125h125h-125zM-7 124v-125h125v125v0v0h-125h125h-125zM118 249v-125h125v125v0v0h-125h125h-125zM243 499v-125h125v125v0v0h-125h125h-125zM368 749v-125h125v125v0v0h-125h125h-125zM493 124v-125h125v125v0v0h-125h125h-125zM493 249v-125h125v125v0v0h-125
h125h-125zM493 374v-125h125v125v0v0h-125h125h-125zM493 499v-125h125v125v0v0h-125h125h-125zM493 624v-125h125v125v0v0h-125h125h-125zM493 749v-125h125v125v0v0h-125h125h-125zM493 874v-125h125v125v0v0h-125h125h-125zM493 999v-125h125v125v0v0h-125h125h-125z
M368 874v-125h125v125v0v0h-125h125h-125zM243 624v-125h125v125v0v0h-125h125h-125zM118 374v-125h125v125v0v0h-125h125h-125zM243 1249v-125h125v125v0v0h-125h125h-125zM368 1249v-125h125v125v0v0h-125h125h-125zM493 1374v-125h125v125v0v0h-125h125h-125zM118 1249
v-125h125v125v0v0h-125h125h-125zM-7 1374v-125h125v125v0v0h-125h125h-125z" />
    <glyph glyph-name="ellipsis" unicode="&#x41a;" horiz-adv-x="875" 
d="M-7 999v-125h125v125v0v0h-125h125h-125zM-7 874v-125h125v125v0v0h-125h125h-125zM-7 749v-125h125v125v0v0h-125h125h-125zM-7 624v-125h125v125v0v0h-125h125h-125zM-7 499v-125h125v125v0v0h-125h125h-125zM-7 374v-125h125v125v0v0h-125h125h-125zM-7 249v-125h125
v125v0v0h-125h125h-125zM-7 124v-125h125v125v0v0h-125h125h-125zM118 624v-125h125v125v0v0h-125h125h-125zM243 624v-125h125v125v0v0h-125h125h-125zM243 499v-125h125v125v0v0h-125h125h-125zM368 749v-125h125v125v0v0h-125h125h-125zM368 374v-125h125v125v0v0h-125
h125h-125zM493 249v-125h125v125v0v0h-125h125h-125zM618 999v-125h125v125v0v0h-125h125h-125zM618 124v-125h125v125v0v0h-125h125h-125zM493 874v-125h125v125v0v0h-125h125h-125z" />
    <glyph glyph-name="nonbreakingspace" unicode="&#x41b;" horiz-adv-x="875" 
d="M-7 124v-125h125v125v0v0h-125h125h-125zM118 999v-125h125v125v0v0h-125h125h-125zM118 874v-125h125v125v0v0h-125h125h-125zM118 749v-125h125v125v0v0h-125h125h-125zM118 624v-125h125v125v0v0h-125h125h-125zM118 499v-125h125v125v0v0h-125h125h-125zM118 374
v-125h125v125v0v0h-125h125h-125zM118 249v-125h125v125v0v0h-125h125h-125zM243 999v-125h125v125v0v0h-125h125h-125zM368 999v-125h125v125v0v0h-125h125h-125zM493 999v-125h125v125v0v0h-125h125h-125zM618 999v-125h125v125v0v0h-125h125h-125zM618 874v-125h125v125
v0v0h-125h125h-125zM618 749v-125h125v125v0v0h-125h125h-125zM618 624v-125h125v125v0v0h-125h125h-125zM618 499v-125h125v125v0v0h-125h125h-125zM618 374v-125h125v125v0v0h-125h125h-125zM618 249v-125h125v125v0v0h-125h125h-125zM618 124v-125h125v125v0v0h-125h125
h-125z" />
    <glyph glyph-name="Agrave" unicode="&#x41c;" horiz-adv-x="1000" 
d="M-7 999v-125h125v125v0v0h-125h125h-125zM-7 874v-125h125v125v0v0h-125h125h-125zM-7 749v-125h125v125v0v0h-125h125h-125zM-7 624v-125h125v125v0v0h-125h125h-125zM-7 499v-125h125v125v0v0h-125h125h-125zM-7 374v-125h125v125v0v0h-125h125h-125zM-7 249v-125h125
v125v0v0h-125h125h-125zM-7 124v-125h125v125v0v0h-125h125h-125zM118 999v-125h125v125v0v0h-125h125h-125zM118 874v-125h125v125v0v0h-125h125h-125zM243 749v-125h125v125v0v0h-125h125h-125zM243 624v-125h125v125v0v0h-125h125h-125zM368 499v-125h125v125v0v0h-125
h125h-125zM368 374v-125h125v125v0v0h-125h125h-125zM493 749v-125h125v125v0v0h-125h125h-125zM493 624v-125h125v125v0v0h-125h125h-125zM618 999v-125h125v125v0v0h-125h125h-125zM618 874v-125h125v125v0v0h-125h125h-125zM743 999v-125h125v125v0v0h-125h125h-125z
M743 874v-125h125v125v0v0h-125h125h-125zM743 749v-125h125v125v0v0h-125h125h-125zM743 624v-125h125v125v0v0h-125h125h-125zM743 499v-125h125v125v0v0h-125h125h-125zM743 374v-125h125v125v0v0h-125h125h-125zM743 249v-125h125v125v0v0h-125h125h-125zM743 124v-125
h125v125v0v0h-125h125h-125z" />
    <glyph glyph-name="Atilde" unicode="&#x41d;" 
d="M-7 999v-125h125v125v0v0h-125h125h-125zM-7 874v-125h125v125v0v0h-125h125h-125zM-7 749v-125h125v125v0v0h-125h125h-125zM-7 624v-125h125v125v0v0h-125h125h-125zM-7 499v-125h125v125v0v0h-125h125h-125zM-7 374v-125h125v125v0v0h-125h125h-125zM-7 249v-125h125
v125v0v0h-125h125h-125zM-7 124v-125h125v125v0v0h-125h125h-125zM118 624v-125h125v125v0v0h-125h125h-125zM243 624v-125h125v125v0v0h-125h125h-125zM368 624v-125h125v125v0v0h-125h125h-125zM493 624v-125h125v125v0v0h-125h125h-125zM493 999v-125h125v125v0v0h-125
h125h-125zM493 874v-125h125v125v0v0h-125h125h-125zM493 749v-125h125v125v0v0h-125h125h-125zM493 499v-125h125v125v0v0h-125h125h-125zM493 374v-125h125v125v0v0h-125h125h-125zM493 249v-125h125v125v0v0h-125h125h-125zM493 124v-125h125v125v0v0h-125h125h-125z" />
    <glyph glyph-name="Otilde" unicode="&#x41e;" horiz-adv-x="1000" 
d="M-7 749v-125h125v125v0v0h-125h125h-125zM-7 624v-125h125v125v0v0h-125h125h-125zM-7 499v-125h125v125v0v0h-125h125h-125zM-7 374v-125h125v125v0v0h-125h125h-125zM118 874v-125h125v125v0v0h-125h125h-125zM118 249v-125h125v125v0v0h-125h125h-125zM243 999v-125
h125v125v0v0h-125h125h-125zM243 124v-125h125v125v0v0h-125h125h-125zM368 999v-125h125v125v0v0h-125h125h-125zM368 124v-125h125v125v0v0h-125h125h-125zM493 999v-125h125v125v0v0h-125h125h-125zM494 124v-125h124v125v0v0h-124h124h-124zM618 874v-125h125v125v0v0
h-125h125h-125zM618 249v-125h125v125v0v0h-125h125h-125zM743 749v-125h125v125v0v0h-125h125h-125zM743 624v-125h125v125v0v0h-125h125h-125zM743 499v-125h125v125v0v0h-125h125h-125zM743 374v-125h125v125v0v0h-125h125h-125z" />
    <glyph glyph-name="OE" unicode="&#x41f;" 
d="M-7 999v-125h125v125v0v0h-125h125h-125zM-7 874v-125h125v125v0v0h-125h125h-125zM-7 749v-125h125v125v0v0h-125h125h-125zM-7 624v-125h125v125v0v0h-125h125h-125zM-7 499v-125h125v125v0v0h-125h125h-125zM-7 374v-125h125v125v0v0h-125h125h-125zM-7 249v-125h125
v125v0v0h-125h125h-125zM-7 124v-125h125v125v0v0h-125h125h-125zM118 999v-125h125v125v0v0h-125h125h-125zM243 999v-125h125v125v0v0h-125h125h-125zM368 999v-125h125v125v0v0h-125h125h-125zM493 999v-125h125v125v0v0h-125h125h-125zM493 874v-125h125v125v0v0h-125
h125h-125zM493 749v-125h125v125v0v0h-125h125h-125zM493 624v-125h125v125v0v0h-125h125h-125zM493 499v-125h125v125v0v0h-125h125h-125zM493 374v-125h125v125v0v0h-125h125h-125zM493 249v-125h125v125v0v0h-125h125h-125zM493 124v-125h125v125v0v0h-125h125h-125z" />
    <glyph glyph-name="oe" unicode="&#x420;" 
d="M-7 999v-125h125v125v0v0h-125h125h-125zM-7 874v-125h125v125v0v0h-125h125h-125zM-7 749v-125h125v125v0v0h-125h125h-125zM-7 624v-125h125v125v0v0h-125h125h-125zM-7 499v-125h125v125v0v0h-125h125h-125zM-7 374v-125h125v125v0v0h-125h125h-125zM-7 249v-125h125
v125v0v0h-125h125h-125zM-7 124v-125h125v125v0v0h-125h125h-125zM118 999v-125h125v125v0v0h-125h125h-125zM243 999v-125h125v125v0v0h-125h125h-125zM368 999v-125h125v125v0v0h-125h125h-125zM493 874v-125h125v125v0v0h-125h125h-125zM493 749v-125h125v125v0v0h-125
h125h-125zM493 624v-125h125v125v0v0h-125h125h-125zM118 374v-125h125v125v0v0h-125h125h-125zM243 374v-125h125v125v0v0h-125h125h-125zM369 374v-125h124v125v0v0h-124h124h-124zM493 499v-125h125v125v0v0h-125h125h-125z" />
    <glyph glyph-name="endash" unicode="&#x421;" horiz-adv-x="875" 
d="M-7 749v-125h125v125v0v0h-125h125h-125zM-7 624v-125h125v125v0v0h-125h125h-125zM-7 499v-125h125v125v0v0h-125h125h-125zM-7 374v-125h125v125v0v0h-125h125h-125zM118 874v-125h125v125v0v0h-125h125h-125zM118 249v-125h125v125v0v0h-125h125h-125zM243 999v-125
h125v125v0v0h-125h125h-125zM243 124v-125h125v125v0v0h-125h125h-125zM368 999v-125h125v125v0v0h-125h125h-125zM368 124v-125h125v125v0v0h-125h125h-125zM493 999v-125h125v125v0v0h-125h125h-125zM493 124v-125h125v125v0v0h-125h125h-125zM618 874v-125h125v125v0v0
h-125h125h-125zM618 249v-125h125v125v0v0h-125h125h-125z" />
    <glyph glyph-name="emdash" unicode="&#x422;" 
d="M-7 999v-125h125v125v0v0h-125h125h-125zM118 999v-125h125v125v0v0h-125h125h-125zM243 999v-125h125v125v0v0h-125h125h-125zM368 999v-125h125v125v0v0h-125h125h-125zM493 999v-125h125v125v0v0h-125h125h-125zM243 874v-125h125v125v0v0h-125h125h-125zM243 749
v-125h125v125v0v0h-125h125h-125zM243 624v-125h125v125v0v0h-125h125h-125zM243 499v-125h125v125v0v0h-125h125h-125zM243 374v-125h125v125v0v0h-125h125h-125zM243 249v-125h125v125v0v0h-125h125h-125zM243 124v-125h125v125v0v0h-125h125h-125z" />
    <glyph glyph-name="quotedblleft" unicode="&#x423;" horiz-adv-x="1000" 
d="M-7 999v-125h125v125v0v0h-125h125h-125zM118 874v-125h125v125v0v0h-125h125h-125zM243 749v-125h125v125v0v0h-125h125h-125zM368 499v-125h125v125v0v0h-125h125h-125zM368 374v-125h125v125v0v0h-125h125h-125zM368 249v-125h125v125v0v0h-125h125h-125zM368 124
v-125h125v125v0v0h-125h125h-125zM493 749v-125h125v125v0v0h-125h125h-125zM618 874v-125h125v125v0v0h-125h125h-125zM743 999v-125h125v125v0v0h-125h125h-125zM243 624v-125h125v125v0v0h-125h125h-125zM493 624v-125h125v125v0v0h-125h125h-125z" />
    <glyph glyph-name="quotedblright" unicode="&#x424;" horiz-adv-x="1000" 
d="M243 874v-125h125v125v0v0h-125h125h-125zM244 249v-125h124v125v0v0h-124h124h-124zM368 999v-125h125v125v0v0h-125h125h-125zM368 874v-125h125v125v0v0h-125h125h-125zM368 749v-125h125v125v0v0h-125h125h-125zM368 624v-125h125v125v0v0h-125h125h-125zM368 499
v-125h125v125v0v0h-125h125h-125zM368 374v-125h125v125v0v0h-125h125h-125zM368 249v-125h125v125v0v0h-125h125h-125zM368 124v-125h125v125v0v0h-125h125h-125zM493 874v-125h125v125v0v0h-125h125h-125zM493 249v-125h125v125v0v0h-125h125h-125zM619 249v-125h124v125
v0v0h-124h124h-124zM743 374v-125h125v125v0v0h-125h125h-125zM743 499v-125h125v125v0v0h-125h125h-125zM743 624v-125h125v125v0v0h-125h125h-125zM743 749v-125h125v125v0v0h-125h125h-125zM618 874v-125h125v125v0v0h-125h125h-125zM118 874v-125h125v125v0v0h-125h125
h-125zM-7 749v-125h125v125v0v0h-125h125h-125zM-7 624v-125h125v125v0v0h-125h125h-125zM-7 499v-125h125v125v0v0h-125h125h-125zM-7 374v-125h125v125v0v0h-125h125h-125zM118 249v-125h125v125v0v0h-125h125h-125z" />
    <glyph glyph-name="quoteleft" unicode="&#x425;" horiz-adv-x="875" 
d="M-7 999v-125h125v125v0v0h-125h125h-125zM-7 874v-125h125v125v0v0h-125h125h-125zM-7 249v-125h125v125v0v0h-125h125h-125zM-7 124v-125h125v125v0v0h-125h125h-125zM118 749v-125h125v125v0v0h-125h125h-125zM118 374v-125h125v125v0v0h-125h125h-125zM243 499v-125
h125v125v0v0h-125h125h-125zM368 624v-125h125v125v0v0h-125h125h-125zM368 499v-125h125v125v0v0h-125h125h-125zM493 749v-125h125v125v0v0h-125h125h-125zM618 999v-125h125v125v0v0h-125h125h-125zM618 874v-125h125v125v0v0h-125h125h-125zM618 249v-125h125v125v0v0
h-125h125h-125zM618 124v-125h125v125v0v0h-125h125h-125z" />
    <glyph glyph-name="quoteright" unicode="&#x426;" horiz-adv-x="875" 
d="M-7 124v-125h125v125v0v0h-125h125h-125zM118 124v-125h125v125v0v0h-125h125h-125zM243 124v-125h125v125v0v0h-125h125h-125zM368 124v-125h125v125v0v0h-125h125h-125zM493 999v-125h125v125v0v0h-125h125h-125zM493 874v-125h125v125v0v0h-125h125h-125zM493 749
v-125h125v125v0v0h-125h125h-125zM493 624v-125h125v125v0v0h-125h125h-125zM493 499v-125h125v125v0v0h-125h125h-125zM493 374v-125h125v125v0v0h-125h125h-125zM493 249v-125h125v125v0v0h-125h125h-125zM493 124v-125h125v125v0v0h-125h125h-125zM618 124v-125h125v125
v0v0h-125h125h-125zM618 -1v-125h125v125v0v0h-125h125h-125zM618 -126v-125h125v125v0v0h-125h125h-125zM-7 249v-125h125v125v0v0h-125h125h-125zM-7 374v-125h125v125v0v0h-125h125h-125zM-7 499v-125h125v125v0v0h-125h125h-125zM-7 624v-125h125v125v0v0h-125h125h-125
zM-7 749v-125h125v125v0v0h-125h125h-125zM-7 874v-125h125v125v0v0h-125h125h-125zM-7 999v-125h125v125v0v0h-125h125h-125z" />
    <glyph glyph-name="divide" unicode="&#x427;" 
d="M-7 999v-125h125v125v0v0h-125h125h-125zM-7 874v-125h125v125v0v0h-125h125h-125zM-7 749v-125h125v125v0v0h-125h125h-125zM-7 624v-125h125v125v0v0h-125h125h-125zM118 499v-125h125v125v0v0h-125h125h-125zM243 499v-125h125v125v0v0h-125h125h-125zM368 499v-125
h125v125v0v0h-125h125h-125zM493 499v-125h125v125v0v0h-125h125h-125zM493 999v-125h125v125v0v0h-125h125h-125zM493 874v-125h125v125v0v0h-125h125h-125zM493 749v-125h125v125v0v0h-125h125h-125zM493 624v-125h125v125v0v0h-125h125h-125zM493 374v-125h125v125v0v0
h-125h125h-125zM493 249v-125h125v125v0v0h-125h125h-125zM493 124v-125h125v125v0v0h-125h125h-125z" />
    <glyph glyph-name="lozenge" unicode="&#x428;" horiz-adv-x="1000" 
d="M-7 999v-125h125v125v0v0h-125h125h-125zM-7 874v-125h125v125v0v0h-125h125h-125zM-7 749v-125h125v125v0v0h-125h125h-125zM-7 624v-125h125v125v0v0h-125h125h-125zM-7 499v-125h125v125v0v0h-125h125h-125zM-7 374v-125h125v125v0v0h-125h125h-125zM-7 249v-125h125
v125v0v0h-125h125h-125zM-7 124v-125h125v125v0v0h-125h125h-125zM118 124v-125h125v125v0v0h-125h125h-125zM243 124v-125h125v125v0v0h-125h125h-125zM368 124v-125h125v125v0v0h-125h125h-125zM493 124v-125h125v125v0v0h-125h125h-125zM618 124v-125h125v125v0v0h-125
h125h-125zM743 124v-125h125v125v0v0h-125h125h-125zM368 999v-125h125v125v0v0h-125h125h-125zM368 874v-125h125v125v0v0h-125h125h-125zM368 749v-125h125v125v0v0h-125h125h-125zM368 624v-125h125v125v0v0h-125h125h-125zM368 499v-125h125v125v0v0h-125h125h-125z
M368 374v-125h125v125v0v0h-125h125h-125zM368 249v-125h125v125v0v0h-125h125h-125zM743 999v-125h125v125v0v0h-125h125h-125zM743 874v-125h125v125v0v0h-125h125h-125zM743 749v-125h125v125v0v0h-125h125h-125zM743 624v-125h125v125v0v0h-125h125h-125zM743 499v-125
h125v125v0v0h-125h125h-125zM743 374v-125h125v125v0v0h-125h125h-125zM743 249v-125h125v125v0v0h-125h125h-125z" />
    <glyph glyph-name="ydieresis" unicode="&#x429;" horiz-adv-x="1125" 
d="M-7 999v-125h125v125v0v0h-125h125h-125zM-7 874v-125h125v125v0v0h-125h125h-125zM-7 749v-125h125v125v0v0h-125h125h-125zM-7 624v-125h125v125v0v0h-125h125h-125zM-7 499v-125h125v125v0v0h-125h125h-125zM-7 374v-125h125v125v0v0h-125h125h-125zM-7 249v-125h125
v125v0v0h-125h125h-125zM-7 124v-125h125v125v0v0h-125h125h-125zM118 124v-125h125v125v0v0h-125h125h-125zM243 124v-125h125v125v0v0h-125h125h-125zM368 124v-125h125v125v0v0h-125h125h-125zM493 124v-125h125v125v0v0h-125h125h-125zM618 124v-125h125v125v0v0h-125
h125h-125zM743 124v-125h125v125v0v0h-125h125h-125zM868 124v-125h125v125v0v0h-125h125h-125zM368 999v-125h125v125v0v0h-125h125h-125zM368 874v-125h125v125v0v0h-125h125h-125zM368 749v-125h125v125v0v0h-125h125h-125zM368 624v-125h125v125v0v0h-125h125h-125z
M368 499v-125h125v125v0v0h-125h125h-125zM368 374v-125h125v125v0v0h-125h125h-125zM368 249v-125h125v125v0v0h-125h125h-125zM743 999v-125h125v125v0v0h-125h125h-125zM743 874v-125h125v125v0v0h-125h125h-125zM743 749v-125h125v125v0v0h-125h125h-125zM743 624v-125
h125v125v0v0h-125h125h-125zM743 499v-125h125v125v0v0h-125h125h-125zM743 374v-125h125v125v0v0h-125h125h-125zM743 249v-125h125v125v0v0h-125h125h-125zM868 -1v-125h125v125v0v0h-125h125h-125zM868 -126v-125h125v125v0v0h-125h125h-125z" />
    <glyph glyph-name="Ydieresis" unicode="&#x42a;" horiz-adv-x="875" 
d="M-7 999v-125h125v125v0v0h-125h125h-125zM118 999v-125h125v125v0v0h-125h125h-125zM118 874v-125h125v125v0v0h-125h125h-125zM118 749v-125h125v125v0v0h-125h125h-125zM118 624v-125h125v125v0v0h-125h125h-125zM118 499v-125h125v125v0v0h-125h125h-125zM118 374
v-125h125v125v0v0h-125h125h-125zM118 249v-125h125v125v0v0h-125h125h-125zM118 124v-125h125v125v0v0h-125h125h-125zM243 124v-125h125v125v0v0h-125h125h-125zM368 124v-125h125v125v0v0h-125h125h-125zM494 124v-125h124v125v0v0h-124h124h-124zM243 749v-125h125v125
v0v0h-125h125h-125zM368 749v-125h125v125v0v0h-125h125h-125zM493 749v-125h125v125v0v0h-125h125h-125zM618 624v-125h125v125v0v0h-125h125h-125zM618 499v-125h125v125v0v0h-125h125h-125zM618 374v-125h125v125v0v0h-125h125h-125zM618 249v-125h125v125v0v0h-125h125
h-125z" />
    <glyph glyph-name="fraction" unicode="&#x42b;" horiz-adv-x="1000" 
d="M-7 999v-125h125v125v0v0h-125h125h-125zM-7 874v-125h125v125v0v0h-125h125h-125zM-7 749v-125h125v125v0v0h-125h125h-125zM-7 624v-125h125v125v0v0h-125h125h-125zM-7 499v-125h125v125v0v0h-125h125h-125zM-7 374v-125h125v125v0v0h-125h125h-125zM-7 249v-125h125
v125v0v0h-125h125h-125zM-7 124v-125h125v125v0v0h-125h125h-125zM118 124v-125h125v125v0v0h-125h125h-125zM243 124v-125h125v125v0v0h-125h125h-125zM369 124v-125h124v125v0v0h-124h124h-124zM493 499v-125h125v125v0v0h-125h125h-125zM493 374v-125h125v125v0v0h-125
h125h-125zM493 249v-125h125v125v0v0h-125h125h-125zM743 999v-125h125v125v0v0h-125h125h-125zM743 874v-125h125v125v0v0h-125h125h-125zM743 749v-125h125v125v0v0h-125h125h-125zM743 624v-125h125v125v0v0h-125h125h-125zM743 499v-125h125v125v0v0h-125h125h-125z
M743 374v-125h125v125v0v0h-125h125h-125zM743 249v-125h125v125v0v0h-125h125h-125zM743 124v-125h125v125v0v0h-125h125h-125zM118 749v-125h125v125v0v0h-125h125h-125zM243 749v-125h125v125v0v0h-125h125h-125zM368 749v-125h125v125v0v0h-125h125h-125zM493 624v-125
h125v125v0v0h-125h125h-125z" />
    <glyph glyph-name="currency" unicode="&#x42c;" 
d="M-7 999v-125h125v125v0v0h-125h125h-125zM-7 874v-125h125v125v0v0h-125h125h-125zM-7 749v-125h125v125v0v0h-125h125h-125zM-7 624v-125h125v125v0v0h-125h125h-125zM-7 499v-125h125v125v0v0h-125h125h-125zM-7 374v-125h125v125v0v0h-125h125h-125zM-7 249v-125h125
v125v0v0h-125h125h-125zM-7 124v-125h125v125v0v0h-125h125h-125zM118 124v-125h125v125v0v0h-125h125h-125zM243 124v-125h125v125v0v0h-125h125h-125zM369 124v-125h124v125v0v0h-124h124h-124zM493 499v-125h125v125v0v0h-125h125h-125zM493 374v-125h125v125v0v0h-125
h125h-125zM493 249v-125h125v125v0v0h-125h125h-125zM118 749v-125h125v125v0v0h-125h125h-125zM243 749v-125h125v125v0v0h-125h125h-125zM368 749v-125h125v125v0v0h-125h125h-125zM493 624v-125h125v125v0v0h-125h125h-125z" />
    <glyph glyph-name="guilsinglleft" unicode="&#x42d;" horiz-adv-x="875" 
d="M118 999v-125h125v125v0v0h-125h125h-125zM118 624v-125h125v125v0v0h-125h125h-125zM118 124v-125h125v125v0v0h-125h125h-125zM243 999v-125h125v125v0v0h-125h125h-125zM243 624v-125h125v125v0v0h-125h125h-125zM243 124v-125h125v125v0v0h-125h125h-125zM368 999
v-125h125v125v0v0h-125h125h-125zM368 624v-125h125v125v0v0h-125h125h-125zM368 124v-125h125v125v0v0h-125h125h-125zM493 874v-125h125v125v0v0h-125h125h-125zM493 624v-125h125v125v0v0h-125h125h-125zM493 249v-125h125v125v0v0h-125h125h-125zM618 749v-125h125v125
v0v0h-125h125h-125zM618 624v-125h125v125v0v0h-125h125h-125zM618 499v-125h125v125v0v0h-125h125h-125zM618 374v-125h125v125v0v0h-125h125h-125zM-7 874v-125h125v125v0v0h-125h125h-125zM-7 249v-125h125v125v0v0h-125h125h-125z" />
    <glyph glyph-name="guilsinglright" unicode="&#x42e;" horiz-adv-x="1250" 
d="M-7 999v-125h125v125v0v0h-125h125h-125zM-7 874v-125h125v125v0v0h-125h125h-125zM-7 749v-125h125v125v0v0h-125h125h-125zM-7 624v-125h125v125v0v0h-125h125h-125zM-7 499v-125h125v125v0v0h-125h125h-125zM-7 374v-125h125v125v0v0h-125h125h-125zM-7 249v-125h125
v125v0v0h-125h125h-125zM-7 124v-125h125v125v0v0h-125h125h-125zM118 624v-125h125v125v0v0h-125h125h-125zM243 749v-125h125v125v0v0h-125h125h-125zM243 624v-125h125v125v0v0h-125h125h-125zM243 499v-125h125v125v0v0h-125h125h-125zM243 374v-125h125v125v0v0h-125
h125h-125zM368 874v-125h125v125v0v0h-125h125h-125zM368 249v-125h125v125v0v0h-125h125h-125zM493 999v-125h125v125v0v0h-125h125h-125zM493 124v-125h125v125v0v0h-125h125h-125zM618 999v-125h125v125v0v0h-125h125h-125zM618 124v-125h125v125v0v0h-125h125h-125z
M743 999v-125h125v125v0v0h-125h125h-125zM744 124v-125h124v125v0v0h-124h124h-124zM868 874v-125h125v125v0v0h-125h125h-125zM868 249v-125h125v125v0v0h-125h125h-125zM993 749v-125h125v125v0v0h-125h125h-125zM993 624v-125h125v125v0v0h-125h125h-125zM993 499v-125
h125v125v0v0h-125h125h-125zM993 374v-125h125v125v0v0h-125h125h-125z" />
    <glyph glyph-name="fi" unicode="&#x42f;" 
d="M118 999v-125h125v125v0v0h-125h125h-125zM243 999v-125h125v125v0v0h-125h125h-125zM368 999v-125h125v125v0v0h-125h125h-125zM493 999v-125h125v125v0v0h-125h125h-125zM493 874v-125h125v125v0v0h-125h125h-125zM493 749v-125h125v125v0v0h-125h125h-125zM493 624
v-125h125v125v0v0h-125h125h-125zM493 499v-125h125v125v0v0h-125h125h-125zM493 374v-125h125v125v0v0h-125h125h-125zM493 249v-125h125v125v0v0h-125h125h-125zM493 124v-125h125v125v0v0h-125h125h-125zM369 374v-125h124v125v0v0h-124h124h-124zM243 374v-125h125v125
v0v0h-125h125h-125zM118 374v-125h125v125v0v0h-125h125h-125zM-7 874v-125h125v125v0v0h-125h125h-125zM-7 749v-125h125v125v0v0h-125h125h-125zM-7 624v-125h125v125v0v0h-125h125h-125zM-7 499v-125h125v125v0v0h-125h125h-125zM118 249v-125h125v125v0v0h-125h125h-125
zM-7 124v-125h125v125v0v0h-125h125h-125z" />
    <glyph glyph-name="fl" unicode="&#x430;" 
d="M-7 374v-125h125v125v0v0h-125h125h-125zM-7 249v-125h125v125v0v0h-125h125h-125zM118 749v-125h125v125v0v0h-125h125h-125zM118 499v-125h125v125v0v0h-125h125h-125zM118 124v-125h125v125v0v0h-125h125h-125zM243 749v-125h125v125v0v0h-125h125h-125zM243 499v-125
h125v125v0v0h-125h125h-125zM243 124v-125h125v125v0v0h-125h125h-125zM368 749v-125h125v125v0v0h-125h125h-125zM368 499v-125h125v125v0v0h-125h125h-125zM369 124v-125h124v125v0v0h-124h124h-124zM493 624v-125h125v125v0v0h-125h125h-125zM493 499v-125h125v125v0v0
h-125h125h-125zM493 374v-125h125v125v0v0h-125h125h-125zM493 249v-125h125v125v0v0h-125h125h-125zM493 124v-125h125v125v0v0h-125h125h-125z" />
    <glyph glyph-name="daggerdbl" unicode="&#x431;" 
d="M-7 749v-125h502v125v0v0h-502h502h-502zM-7 624v-125h125v125v0v0h-125h125h-125zM-7 499v-125h125v125v0v0h-125h125h-125zM-7 374v-125h125v125v0v0h-125h125h-125zM-7 249v-125h125v125v0v0h-125h125h-125zM-7 124v-125h125v125v0v0h-125h125h-125zM118 499v-125h125
v125v0v0h-125h125h-125zM118 124v-125h125v125v0v0h-125h125h-125zM243 499v-125h125v125v0v0h-125h125h-125zM243 124v-125h125v125v0v0h-125h125h-125zM368 499v-125h125v125v0v0h-125h125h-125zM369 124v-125h124v125v0v0h-124h124h-124zM493 374v-125h125v125v0v0h-125
h125h-125zM493 249v-125h125v125v0v0h-125h125h-125z" />
    <glyph glyph-name="periodcentered" unicode="&#x432;" 
d="M-7 749v-125h125v125v0v0h-125h125h-125zM-7 624v-125h125v125v0v0h-125h125h-125zM-7 499v-125h125v125v0v0h-125h125h-125zM-7 374v-125h125v125v0v0h-125h125h-125zM-7 249v-125h125v125v0v0h-125h125h-125zM-7 124v-125h125v125v0v0h-125h125h-125zM118 749v-125h125
v125v0v0h-125h125h-125zM118 499v-125h125v125v0v0h-125h125h-125zM118 124v-125h125v125v0v0h-125h125h-125zM243 749v-125h125v125v0v0h-125h125h-125zM243 499v-125h125v125v0v0h-125h125h-125zM243 124v-125h125v125v0v0h-125h125h-125zM368 749v-125h125v125v0v0h-125
h125h-125zM369 499v-125h124v125v0v0h-124h124h-124zM369 124v-125h124v125v0v0h-124h124h-124zM493 624v-125h125v125v0v0h-125h125h-125zM493 374v-125h125v125v0v0h-125h125h-125zM493 249v-125h125v125v0v0h-125h125h-125z" />
    <glyph glyph-name="quotesinglbase" unicode="&#x433;" horiz-adv-x="625" 
d="M-7 749v-125h125v125v0v0h-125h125h-125zM-7 624v-125h125v125v0v0h-125h125h-125zM-7 499v-125h125v125v0v0h-125h125h-125zM-7 374v-125h125v125v0v0h-125h125h-125zM-7 249v-125h125v125v0v0h-125h125h-125zM-7 124v-125h125v125v0v0h-125h125h-125zM118 749v-125h125
v125v0v0h-125h125h-125zM243 749v-125h125v125v0v0h-125h125h-125zM368 749v-125h125v125v0v0h-125h125h-125z" />
    <glyph glyph-name="quotedblbase" unicode="&#x434;" horiz-adv-x="1000" 
d="M-7 124v-125h125v125v0v0h-125h125h-125zM-7 -1v-125h125v125v0v0h-125h125h-125zM118 249v-125h125v125v0v0h-125h125h-125zM118 124v-125h125v125v0v0h-125h125h-125zM243 749v-125h125v125v0v0h-125h125h-125zM243 624v-125h125v125v0v0h-125h125h-125zM243 499v-125
h125v125v0v0h-125h125h-125zM243 374v-125h125v125v0v0h-125h125h-125zM243 124v-125h125v125v0v0h-125h125h-125zM368 749v-125h125v125v0v0h-125h125h-125zM368 124v-125h125v125v0v0h-125h125h-125zM493 749v-125h125v125v0v0h-125h125h-125zM494 124v-125h124v125v0v0
h-124h124h-124zM618 749v-125h125v125v0v0h-125h125h-125zM618 624v-125h125v125v0v0h-125h125h-125zM618 499v-125h125v125v0v0h-125h125h-125zM618 374v-125h125v125v0v0h-125h125h-125zM618 249v-125h125v125v0v0h-125h125h-125zM618 124v-125h125v125v0v0h-125h125h-125
zM743 124v-125h125v125v0v0h-125h125h-125zM743 -1v-125h125v125v0v0h-125h125h-125z" />
    <glyph glyph-name="perthousand" unicode="&#x435;" 
d="M-7 624v-125h125v125v0v0h-125h125h-125zM-7 499v-125h125v125v0v0h-125h125h-125zM-7 374v-125h125v125v0v0h-125h125h-125zM-7 249v-125h125v125v0v0h-125h125h-125zM118 749v-125h125v125v0v0h-125h125h-125zM118 499v-125h125v125v0v0h-125h125h-125zM118 124v-125
h125v125v0v0h-125h125h-125zM243 749v-125h125v125v0v0h-125h125h-125zM243 499v-125h125v125v0v0h-125h125h-125zM243 124v-125h125v125v0v0h-125h125h-125zM368 749v-125h125v125v0v0h-125h125h-125zM369 499v-125h124v125v0v0h-124h124h-124zM368 124v-125h125v125v0v0
h-125h125h-125zM493 624v-125h125v125v0v0h-125h125h-125zM493 499v-125h125v125v0v0h-125h125h-125zM493 249v-125h125v125v0v0h-125h125h-125z" />
    <glyph glyph-name="Acircumflex" unicode="&#x436;" horiz-adv-x="1000" 
d="M-7 749v-125h125v125v0v0h-125h125h-125zM-7 124v-125h125v125v0v0h-125h125h-125zM118 624v-125h125v125v0v0h-125h125h-125zM118 249v-125h125v125v0v0h-125h125h-125zM243 499v-125h125v125v0v0h-125h125h-125zM243 374v-125h125v125v0v0h-125h125h-125zM368 749v-125
h125v125v0v0h-125h125h-125zM368 624v-125h125v125v0v0h-125h125h-125zM368 499v-125h125v125v0v0h-125h125h-125zM368 374v-125h125v125v0v0h-125h125h-125zM368 249v-125h125v125v0v0h-125h125h-125zM368 124v-125h125v125v0v0h-125h125h-125zM493 499v-125h125v125v0v0
h-125h125h-125zM493 374v-125h125v125v0v0h-125h125h-125zM618 624v-125h125v125v0v0h-125h125h-125zM618 249v-125h125v125v0v0h-125h125h-125zM743 749v-125h125v125v0v0h-125h125h-125zM743 124v-125h125v125v0v0h-125h125h-125z" />
    <glyph glyph-name="Ecircumflex" unicode="&#x437;" horiz-adv-x="625" 
d="M-7 124v-125h125v125v0v0h-125h125h-125zM118 749v-125h125v125v0v0h-125h125h-125zM118 124v-125h125v125v0v0h-125h125h-125zM243 749v-125h125v125v0v0h-125h125h-125zM243 499v-125h125v125v0v0h-125h125h-125zM243 124v-125h125v125v0v0h-125h125h-125zM368 624
v-125h125v125v0v0h-125h125h-125zM368 374v-125h125v125v0v0h-125h125h-125zM368 249v-125h125v125v0v0h-125h125h-125zM-7 624v-125h125v125v0v0h-125h125h-125z" />
    <glyph glyph-name="Aacute" unicode="&#x438;" 
d="M-7 749v-125h125v125v0v0h-125h125h-125zM-7 624v-125h125v125v0v0h-125h125h-125zM-7 499v-125h125v125v0v0h-125h125h-125zM-7 374v-125h125v125v0v0h-125h125h-125zM-7 249v-125h125v125v0v0h-125h125h-125zM-7 124v-125h125v125v0v0h-125h125h-125zM243 499v-125h125
v125v0v0h-125h125h-125zM368 624v-125h125v125v0v0h-125h125h-125zM493 749v-125h125v125v0v0h-125h125h-125zM493 624v-125h125v125v0v0h-125h125h-125zM493 499v-125h125v125v0v0h-125h125h-125zM493 374v-125h125v125v0v0h-125h125h-125zM493 249v-125h125v125v0v0h-125
h125h-125zM493 124v-125h125v125v0v0h-125h125h-125zM118 249v-125h125v125v0v0h-125h125h-125zM243 374v-125h125v125v0v0h-125h125h-125z" />
    <glyph glyph-name="Edieresis" unicode="&#x439;" 
d="M-7 749v-125h125v125v0v0h-125h125h-125zM-7 624v-125h125v125v0v0h-125h125h-125zM-7 499v-125h125v125v0v0h-125h125h-125zM-7 374v-125h125v125v0v0h-125h125h-125zM-7 249v-125h125v125v0v0h-125h125h-125zM-7 124v-125h125v125v0v0h-125h125h-125zM243 499v-125h125
v125v0v0h-125h125h-125zM368 624v-125h125v125v0v0h-125h125h-125zM493 749v-125h125v125v0v0h-125h125h-125zM493 624v-125h125v125v0v0h-125h125h-125zM493 499v-125h125v125v0v0h-125h125h-125zM493 374v-125h125v125v0v0h-125h125h-125zM493 249v-125h125v125v0v0h-125
h125h-125zM493 124v-125h125v125v0v0h-125h125h-125zM118 249v-125h125v125v0v0h-125h125h-125zM243 374v-125h125v125v0v0h-125h125h-125zM243 999v-125h125v125v0v0h-125h125h-125zM368 1124v-125h125v125v0v0h-125h125h-125zM118 1124v-125h125v125v0v0h-125h125h-125z
" />
    <glyph glyph-name="Egrave" unicode="&#x43a;" 
d="M-7 749v-125h125v125v0v0h-125h125h-125zM-7 624v-125h125v125v0v0h-125h125h-125zM-7 499v-125h125v125v0v0h-125h125h-125zM-7 374v-125h125v125v0v0h-125h125h-125zM-7 249v-125h125v125v0v0h-125h125h-125zM-7 124v-125h125v125v0v0h-125h125h-125zM118 499v-125h125
v125v0v0h-125h125h-125zM243 374v-125h125v125v0v0h-125h125h-125zM368 249v-125h125v125v0v0h-125h125h-125zM493 749v-125h125v125v0v0h-125h125h-125zM493 124v-125h125v125v0v0h-125h125h-125zM243 499v-125h125v125v0v0h-125h125h-125zM368 624v-125h125v125v0v0h-125
h125h-125z" />
    <glyph glyph-name="Iacute" unicode="&#x43b;" 
d="M-7 124v-125h125v125v0v0h-125h125h-125zM118 749v-125h125v125v0v0h-125h125h-125zM118 624v-125h125v125v0v0h-125h125h-125zM118 499v-125h125v125v0v0h-125h125h-125zM118 374v-125h125v125v0v0h-125h125h-125zM118 249v-125h125v125v0v0h-125h125h-125zM243 749
v-125h125v125v0v0h-125h125h-125zM368 749v-125h125v125v0v0h-125h125h-125zM493 749v-125h125v125v0v0h-125h125h-125zM493 624v-125h125v125v0v0h-125h125h-125zM493 499v-125h125v125v0v0h-125h125h-125zM493 374v-125h125v125v0v0h-125h125h-125zM493 249v-125h125v125
v0v0h-125h125h-125zM493 124v-125h125v125v0v0h-125h125h-125z" />
    <glyph glyph-name="Icircumflex" unicode="&#x43c;" 
d="M-7 749v-125h125v125v0v0h-125h125h-125zM-7 624v-125h125v125v0v0h-125h125h-125zM-7 499v-125h125v125v0v0h-125h125h-125zM-7 374v-125h125v125v0v0h-125h125h-125zM-7 249v-125h125v125v0v0h-125h125h-125zM-7 124v-125h125v125v0v0h-125h125h-125zM118 624v-125h125
v125v0v0h-125h125h-125zM243 499v-125h125v125v0v0h-125h125h-125zM243 374v-125h125v125v0v0h-125h125h-125zM368 624v-125h125v125v0v0h-125h125h-125zM493 749v-125h125v125v0v0h-125h125h-125zM493 624v-125h125v125v0v0h-125h125h-125zM493 499v-125h125v125v0v0h-125
h125h-125zM493 374v-125h125v125v0v0h-125h125h-125zM493 249v-125h125v125v0v0h-125h125h-125zM493 124v-125h125v125v0v0h-125h125h-125z" />
    <glyph glyph-name="Idieresis" unicode="&#x43d;" 
d="M-7 749v-125h125v125v0v0h-125h125h-125zM-7 624v-125h125v125v0v0h-125h125h-125zM-7 499v-125h125v125v0v0h-125h125h-125zM-7 374v-125h125v125v0v0h-125h125h-125zM-7 249v-125h125v125v0v0h-125h125h-125zM-7 124v-125h125v125v0v0h-125h125h-125zM118 499v-125h125
v125v0v0h-125h125h-125zM243 499v-125h125v125v0v0h-125h125h-125zM368 499v-125h125v125v0v0h-125h125h-125zM493 749v-125h125v125v0v0h-125h125h-125zM493 624v-125h125v125v0v0h-125h125h-125zM493 499v-125h125v125v0v0h-125h125h-125zM493 374v-125h125v125v0v0h-125
h125h-125zM493 249v-125h125v125v0v0h-125h125h-125zM493 124v-125h125v125v0v0h-125h125h-125z" />
    <glyph glyph-name="Igrave" unicode="&#x43e;" 
d="M-7 624v-125h125v125v0v0h-125h125h-125zM-7 499v-125h125v125v0v0h-125h125h-125zM-7 374v-125h125v125v0v0h-125h125h-125zM-7 249v-125h125v125v0v0h-125h125h-125zM118 749v-125h125v125v0v0h-125h125h-125zM118 124v-125h125v125v0v0h-125h125h-125zM243 749v-125
h125v125v0v0h-125h125h-125zM243 124v-125h125v125v0v0h-125h125h-125zM368 749v-125h125v125v0v0h-125h125h-125zM369 124v-125h124v125v0v0h-124h124h-124zM493 624v-125h125v125v0v0h-125h125h-125zM493 499v-125h125v125v0v0h-125h125h-125zM493 374v-125h125v125v0v0
h-125h125h-125zM493 249v-125h125v125v0v0h-125h125h-125z" />
    <glyph glyph-name="Oacute" unicode="&#x43f;" 
d="M-7 749v-125h125v125v0v0h-125h125h-125zM-7 624v-125h125v125v0v0h-125h125h-125zM-7 499v-125h125v125v0v0h-125h125h-125zM-7 374v-125h125v125v0v0h-125h125h-125zM-7 249v-125h125v125v0v0h-125h125h-125zM-7 124v-125h125v125v0v0h-125h125h-125zM118 749v-125h125
v125v0v0h-125h125h-125zM243 749v-125h125v125v0v0h-125h125h-125zM368 749v-125h125v125v0v0h-125h125h-125zM493 749v-125h125v125v0v0h-125h125h-125zM493 624v-125h125v125v0v0h-125h125h-125zM493 499v-125h125v125v0v0h-125h125h-125zM493 374v-125h125v125v0v0h-125
h125h-125zM493 249v-125h125v125v0v0h-125h125h-125zM493 124v-125h125v125v0v0h-125h125h-125z" />
    <glyph glyph-name="Ocircumflex" unicode="&#x440;" 
d="M-7 749v-125h125v125v0v0h-125h125h-125zM-7 624v-125h125v125v0v0h-125h125h-125zM-7 499v-125h125v125v0v0h-125h125h-125zM-7 374v-125h125v125v0v0h-125h125h-125zM-7 249v-125h125v125v0v0h-125h125h-125zM-7 124v-125h125v125v0v0h-125h125h-125zM-7 -1v-125h125
v125v0v0h-125h125h-125zM-7 -126v-125h125v125v0v0h-125h125h-125zM118 749v-125h125v125v0v0h-125h125h-125zM118 124v-125h125v125v0v0h-125h125h-125zM243 749v-125h125v125v0v0h-125h125h-125zM243 124v-125h125v125v0v0h-125h125h-125zM368 749v-125h125v125v0v0h-125
h125h-125zM369 124v-125h124v125v0v0h-124h124h-124zM493 624v-125h125v125v0v0h-125h125h-125zM493 499v-125h125v125v0v0h-125h125h-125zM493 374v-125h125v125v0v0h-125h125h-125zM493 249v-125h125v125v0v0h-125h125h-125z" />
    <glyph glyph-name="apple" unicode="&#x441;" 
d="M-7 624v-125h125v125v0v0h-125h125h-125zM-7 499v-125h125v125v0v0h-125h125h-125zM-7 374v-125h125v125v0v0h-125h125h-125zM-7 249v-125h125v125v0v0h-125h125h-125zM118 749v-125h125v125v0v0h-125h125h-125zM118 124v-125h125v125v0v0h-125h125h-125zM243 749v-125
h125v125v0v0h-125h125h-125zM243 124v-125h125v125v0v0h-125h125h-125zM368 749v-125h125v125v0v0h-125h125h-125zM368 124v-125h125v125v0v0h-125h125h-125zM493 624v-125h125v125v0v0h-125h125h-125zM493 249v-125h125v125v0v0h-125h125h-125z" />
    <glyph glyph-name="Ograve" unicode="&#x442;" 
d="M-7 749v-125h125v125v0v0h-125h125h-125zM118 749v-125h125v125v0v0h-125h125h-125zM243 749v-125h125v125v0v0h-125h125h-125zM243 624v-125h125v125v0v0h-125h125h-125zM243 499v-125h125v125v0v0h-125h125h-125zM243 374v-125h125v125v0v0h-125h125h-125zM243 249
v-125h125v125v0v0h-125h125h-125zM243 124v-125h125v125v0v0h-125h125h-125zM368 749v-125h125v125v0v0h-125h125h-125zM493 749v-125h125v125v0v0h-125h125h-125z" />
    <glyph glyph-name="Uacute" unicode="&#x443;" 
d="M-7 749v-125h125v125v0v0h-125h125h-125zM118 499v-125h125v125v0v0h-125h125h-125zM118 374v-125h125v125v0v0h-125h125h-125zM118 -126v-125h125v125v0v0h-125h125h-125zM243 124v-125h125v125v0v0h-125h125h-125zM243 -1v-125h125v125v0v0h-125h125h-125zM368 499
v-125h125v125v0v0h-125h125h-125zM368 374v-125h125v125v0v0h-125h125h-125zM493 749v-125h125v125v0v0h-125h125h-125zM-7 624v-125h125v125v0v0h-125h125h-125zM493 624v-125h125v125v0v0h-125h125h-125zM118 249v-125h125v125v0v0h-125h125h-125zM368 249v-125h125v125v0
v0h-125h125h-125z" />
    <glyph glyph-name="Ucircumflex" unicode="&#x444;" 
d="M118 749v-125h125v125v0v0h-125h125h-125zM119 124v-125h124v125v0v0h-124h124h-124zM243 999v-125h125v125v0v0h-125h125h-125zM243 874v-125h125v125v0v0h-125h125h-125zM243 749v-125h125v125v0v0h-125h125h-125zM243 624v-125h125v125v0v0h-125h125h-125zM243 499
v-125h125v125v0v0h-125h125h-125zM243 374v-125h125v125v0v0h-125h125h-125zM243 249v-125h125v125v0v0h-125h125h-125zM243 124v-125h125v125v0v0h-125h125h-125zM243 -1v-125h125v125v0v0h-125h125h-125zM243 -126v-125h125v125v0v0h-125h125h-125zM368 749v-125h125v125
v0v0h-125h125h-125zM369 124v-125h124v125v0v0h-124h124h-124zM493 249v-125h125v125v0v0h-125h125h-125zM493 374v-125h125v125v0v0h-125h125h-125zM493 499v-125h125v125v0v0h-125h125h-125zM493 624v-125h125v125v0v0h-125h125h-125zM-7 624v-125h125v125v0v0h-125h125
h-125zM-7 499v-125h125v125v0v0h-125h125h-125zM-7 374v-125h125v125v0v0h-125h125h-125zM-7 249v-125h125v125v0v0h-125h125h-125z" />
    <glyph glyph-name="Ugrave" unicode="&#x445;" 
d="M-7 749v-125h125v125v0v0h-125h125h-125zM-7 124v-125h125v125v0v0h-125h125h-125zM118 624v-125h125v125v0v0h-125h125h-125zM118 249v-125h125v125v0v0h-125h125h-125zM243 499v-125h125v125v0v0h-125h125h-125zM243 374v-125h125v125v0v0h-125h125h-125zM368 624v-125
h125v125v0v0h-125h125h-125zM368 249v-125h125v125v0v0h-125h125h-125zM493 749v-125h125v125v0v0h-125h125h-125zM493 124v-125h125v125v0v0h-125h125h-125z" />
    <glyph glyph-name="dotlessi" unicode="&#x446;" horiz-adv-x="875" 
d="M-7 749v-125h125v125v0v0h-125h125h-125zM-7 624v-125h125v125v0v0h-125h125h-125zM-7 499v-125h125v125v0v0h-125h125h-125zM-7 374v-125h125v125v0v0h-125h125h-125zM-7 249v-125h125v125v0v0h-125h125h-125zM-7 124v-125h125v125v0v0h-125h125h-125zM118 124v-125h125
v125v0v0h-125h125h-125zM243 124v-125h125v125v0v0h-125h125h-125zM493 124v-125h125v125v0v0h-125h125h-125zM493 749v-125h125v125v0v0h-125h125h-125zM493 499v-125h125v125v0v0h-125h125h-125zM493 374v-125h125v125v0v0h-125h125h-125zM493 249v-125h125v125v0v0h-125
h125h-125zM368 124v-125h125v125v0v0h-125h125h-125zM618 124v-125h125v125v0v0h-125h125h-125zM618 -1v-125h125v125v0v0h-125h125h-125zM493 624v-125h125v125v0v0h-125h125h-125z" />
    <glyph glyph-name="circumflex" unicode="&#x447;" 
d="M-7 749v-125h125v125v0v0h-125h125h-125zM-7 624v-125h125v125v0v0h-125h125h-125zM-7 499v-125h125v125v0v0h-125h125h-125zM118 374v-125h125v125v0v0h-125h125h-125zM243 374v-125h125v125v0v0h-125h125h-125zM368 374v-125h125v125v0v0h-125h125h-125zM493 749v-125
h125v125v0v0h-125h125h-125zM493 624v-125h125v125v0v0h-125h125h-125zM493 499v-125h125v125v0v0h-125h125h-125zM493 374v-125h125v125v0v0h-125h125h-125zM493 249v-125h125v125v0v0h-125h125h-125zM493 124v-125h125v125v0v0h-125h125h-125z" />
    <glyph glyph-name="tilde" unicode="&#x448;" horiz-adv-x="1000" 
d="M-7 749v-125h125v125v0v0h-125h125h-125zM-7 624v-125h125v125v0v0h-125h125h-125zM-7 499v-125h125v125v0v0h-125h125h-125zM-7 374v-125h125v125v0v0h-125h125h-125zM-7 249v-125h125v125v0v0h-125h125h-125zM-7 124v-125h125v125v0v0h-125h125h-125zM118 124v-125h125
v125v0v0h-125h125h-125zM243 124v-125h125v125v0v0h-125h125h-125zM368 749v-125h125v125v0v0h-125h125h-125zM368 624v-125h125v125v0v0h-125h125h-125zM368 499v-125h125v125v0v0h-125h125h-125zM368 374v-125h125v125v0v0h-125h125h-125zM368 249v-125h125v125v0v0h-125
h125h-125zM368 124v-125h125v125v0v0h-125h125h-125zM493 124v-125h125v125v0v0h-125h125h-125zM618 124v-125h125v125v0v0h-125h125h-125zM743 749v-125h125v125v0v0h-125h125h-125zM743 624v-125h125v125v0v0h-125h125h-125zM743 499v-125h125v125v0v0h-125h125h-125z
M743 374v-125h125v125v0v0h-125h125h-125zM743 249v-125h125v125v0v0h-125h125h-125zM743 124v-125h125v125v0v0h-125h125h-125z" />
    <glyph glyph-name="macron" unicode="&#x449;" horiz-adv-x="1125" 
d="M-7 749v-125h125v125v0v0h-125h125h-125zM-7 624v-125h125v125v0v0h-125h125h-125zM-7 499v-125h125v125v0v0h-125h125h-125zM-7 374v-125h125v125v0v0h-125h125h-125zM-7 249v-125h125v125v0v0h-125h125h-125zM-7 124v-125h125v125v0v0h-125h125h-125zM118 124v-125h125
v125v0v0h-125h125h-125zM243 124v-125h125v125v0v0h-125h125h-125zM368 749v-125h125v125v0v0h-125h125h-125zM368 624v-125h125v125v0v0h-125h125h-125zM368 499v-125h125v125v0v0h-125h125h-125zM368 374v-125h125v125v0v0h-125h125h-125zM368 249v-125h125v125v0v0h-125
h125h-125zM368 124v-125h125v125v0v0h-125h125h-125zM493 124v-125h125v125v0v0h-125h125h-125zM618 124v-125h125v125v0v0h-125h125h-125zM743 749v-125h125v125v0v0h-125h125h-125zM743 624v-125h125v125v0v0h-125h125h-125zM743 499v-125h125v125v0v0h-125h125h-125z
M743 374v-125h125v125v0v0h-125h125h-125zM743 249v-125h125v125v0v0h-125h125h-125zM743 124v-125h125v125v0v0h-125h125h-125zM868 124v-125h125v125v0v0h-125h125h-125zM868 -1v-125h125v125v0v0h-125h125h-125z" />
    <glyph glyph-name="breve" unicode="&#x44a;" horiz-adv-x="875" 
d="M-7 749v-125h125v125v0v0h-125h125h-125zM118 749v-125h125v125v0v0h-125h125h-125zM118 624v-125h125v125v0v0h-125h125h-125zM118 499v-125h125v125v0v0h-125h125h-125zM118 374v-125h125v125v0v0h-125h125h-125zM118 249v-125h125v125v0v0h-125h125h-125zM118 124
v-125h125v125v0v0h-125h125h-125zM243 499v-125h125v125v0v0h-125h125h-125zM243 124v-125h125v125v0v0h-125h125h-125zM368 499v-125h125v125v0v0h-125h125h-125zM368 124v-125h125v125v0v0h-125h125h-125zM493 499v-125h125v125v0v0h-125h125h-125zM618 374v-125h125v125
v0v0h-125h125h-125zM618 249v-125h125v125v0v0h-125h125h-125zM494 124v-125h124v125v0v0h-124h124h-124z" />
    <glyph glyph-name="dotaccent" unicode="&#x44b;" horiz-adv-x="1000" 
d="M-7 749v-125h125v125v0v0h-125h125h-125zM-7 624v-125h125v125v0v0h-125h125h-125zM-7 499v-125h125v125v0v0h-125h125h-125zM-7 374v-125h125v125v0v0h-125h125h-125zM-7 249v-125h125v125v0v0h-125h125h-125zM-7 124v-125h125v125v0v0h-125h125h-125zM118 499v-125h125
v125v0v0h-125h125h-125zM118 124v-125h125v125v0v0h-125h125h-125zM243 499v-125h125v125v0v0h-125h125h-125zM243 124v-125h125v125v0v0h-125h125h-125zM368 499v-125h125v125v0v0h-125h125h-125zM369 124v-125h124v125v0v0h-124h124h-124zM493 374v-125h125v125v0v0h-125
h125h-125zM493 249v-125h125v125v0v0h-125h125h-125zM743 749v-125h125v125v0v0h-125h125h-125zM743 624v-125h125v125v0v0h-125h125h-125zM743 499v-125h125v125v0v0h-125h125h-125zM743 374v-125h125v125v0v0h-125h125h-125zM743 249v-125h125v125v0v0h-125h125h-125z
M743 124v-125h125v125v0v0h-125h125h-125z" />
    <glyph glyph-name="ring" unicode="&#x44c;" 
d="M-7 749v-125h125v125v0v0h-125h125h-125zM-7 624v-125h125v125v0v0h-125h125h-125zM-7 499v-125h125v125v0v0h-125h125h-125zM-7 374v-125h125v125v0v0h-125h125h-125zM-7 249v-125h125v125v0v0h-125h125h-125zM-7 124v-125h125v125v0v0h-125h125h-125zM118 499v-125h125
v125v0v0h-125h125h-125zM118 124v-125h125v125v0v0h-125h125h-125zM243 499v-125h125v125v0v0h-125h125h-125zM243 124v-125h125v125v0v0h-125h125h-125zM368 499v-125h125v125v0v0h-125h125h-125zM369 124v-125h124v125v0v0h-124h124h-124zM493 374v-125h125v125v0v0h-125
h125h-125zM493 249v-125h125v125v0v0h-125h125h-125z" />
    <glyph glyph-name="cedilla" unicode="&#x44d;" 
d="M-7 624v-125h125v125v0v0h-125h125h-125zM-7 249v-125h125v125v0v0h-125h125h-125zM118 749v-125h125v125v0v0h-125h125h-125zM118 124v-125h125v125v0v0h-125h125h-125zM243 749v-125h125v125v0v0h-125h125h-125zM243 499v-125h125v125v0v0h-125h125h-125zM243 124v-125
h125v125v0v0h-125h125h-125zM368 749v-125h125v125v0v0h-125h125h-125zM368 499v-125h125v125v0v0h-125h125h-125zM368 124v-125h125v125v0v0h-125h125h-125zM493 624v-125h125v125v0v0h-125h125h-125zM493 499v-125h125v125v0v0h-125h125h-125zM493 374v-125h125v125v0v0
h-125h125h-125zM493 249v-125h125v125v0v0h-125h125h-125z" />
    <glyph glyph-name="hungarumlaut" unicode="&#x44e;" horiz-adv-x="1000" 
d="M-7 499v-125h125v125v0v0h-125h125h-125zM243 624v-125h125v125v0v0h-125h125h-125zM243 499v-125h125v125v0v0h-125h125h-125zM243 374v-125h125v125v0v0h-125h125h-125zM243 249v-125h125v125v0v0h-125h125h-125zM368 749v-125h125v125v0v0h-125h125h-125zM368 124
v-125h125v125v0v0h-125h125h-125zM493 749v-125h125v125v0v0h-125h125h-125zM493 124v-125h125v125v0v0h-125h125h-125zM618 749v-125h125v125v0v0h-125h125h-125zM619 124v-125h124v125v0v0h-124h124h-124zM743 624v-125h125v125v0v0h-125h125h-125zM743 499v-125h125v125
v0v0h-125h125h-125zM743 374v-125h125v125v0v0h-125h125h-125zM743 249v-125h125v125v0v0h-125h125h-125zM118 499v-125h125v125v0v0h-125h125h-125zM-7 749v-125h125v125v0v0h-125h125h-125zM-7 624v-125h125v125v0v0h-125h125h-125zM-7 374v-125h125v125v0v0h-125h125
h-125zM-7 249v-125h125v125v0v0h-125h125h-125zM-7 124v-125h125v125v0v0h-125h125h-125z" />
    <glyph glyph-name="ogonek" unicode="&#x44f;" 
d="M-7 624v-125h125v125v0v0h-125h125h-125zM-7 499v-125h125v125v0v0h-125h125h-125zM-7 124v-125h125v125v0v0h-125h125h-125zM118 749v-125h125v125v0v0h-125h125h-125zM118 374v-125h125v125v0v0h-125h125h-125zM243 749v-125h125v125v0v0h-125h125h-125zM243 374v-125
h125v125v0v0h-125h125h-125zM368 749v-125h125v125v0v0h-125h125h-125zM369 374v-125h124v125v0v0h-124h124h-124zM493 749v-125h125v125v0v0h-125h125h-125zM493 624v-125h125v125v0v0h-125h125h-125zM493 499v-125h125v125v0v0h-125h125h-125zM493 374v-125h125v125v0v0
h-125h125h-125zM493 249v-125h125v125v0v0h-125h125h-125zM493 124v-125h125v125v0v0h-125h125h-125zM-7 249v-125h125v125v0v0h-125h125h-125z" />
    <glyph glyph-name="summation" unicode="&#x451;" 
d="M-7 624v-125h125v125v0v0h-125h125h-125zM-7 499v-125h125v125v0v0h-125h125h-125zM-7 374v-125h125v125v0v0h-125h125h-125zM-7 249v-125h125v125v0v0h-125h125h-125zM118 999v-125h125v125v0v0h-125h125h-125zM118 749v-125h125v125v0v0h-125h125h-125zM118 499v-125
h125v125v0v0h-125h125h-125zM118 124v-125h125v125v0v0h-125h125h-125zM243 749v-125h125v125v0v0h-125h125h-125zM243 499v-125h125v125v0v0h-125h125h-125zM243 124v-125h125v125v0v0h-125h125h-125zM368 999v-125h125v125v0v0h-125h125h-125zM368 749v-125h125v125v0v0
h-125h125h-125zM369 499v-125h124v125v0v0h-124h124h-124zM368 124v-125h125v125v0v0h-125h125h-125zM493 624v-125h125v125v0v0h-125h125h-125zM493 499v-125h125v125v0v0h-125h125h-125zM493 249v-125h125v125v0v0h-125h125h-125z" />
    <glyph glyph-name="ecircumflex" unicode="&#x452;" horiz-adv-x="875" 
d="M-7 999v-125h125v125v0v0h-125h125h-125zM118 1124v-125h125v125v0v0h-125h125h-125zM118 999v-125h125v125v0v0h-125h125h-125zM118 874v-125h125v125v0v0h-125h125h-125zM118 749v-125h125v125v0v0h-125h125h-125zM118 624v-125h125v125v0v0h-125h125h-125zM118 499
v-125h125v125v0v0h-125h125h-125zM118 374v-125h125v125v0v0h-125h125h-125zM118 249v-125h125v125v0v0h-125h125h-125zM118 124v-125h125v125v0v0h-125h125h-125zM243 999v-125h125v125v0v0h-125h125h-125zM243 749v-125h125v125v0v0h-125h125h-125zM368 999v-125h125v125
v0v0h-125h125h-125zM368 749v-125h125v125v0v0h-125h125h-125zM368 -126v-125h125v125v0v0h-125h125h-125zM493 749v-125h125v125v0v0h-125h125h-125zM493 -1v-125h125v125v0v0h-125h125h-125zM618 624v-125h125v125v0v0h-125h125h-125zM618 499v-125h125v125v0v0h-125h125
h-125zM618 374v-125h125v125v0v0h-125h125h-125zM618 249v-125h125v125v0v0h-125h125h-125zM493 124v-125h125v125v0v0h-125h125h-125zM493 999v-125h125v125v0v0h-125h125h-125z" />
    <glyph glyph-name="Eacute" unicode="&#x453;" horiz-adv-x="625" 
d="M-7 749v-125h125v125v0v0h-125h125h-125zM-7 624v-125h125v125v0v0h-125h125h-125zM-7 499v-125h125v125v0v0h-125h125h-125zM-7 374v-125h125v125v0v0h-125h125h-125zM-7 249v-125h125v125v0v0h-125h125h-125zM-7 124v-125h125v125v0v0h-125h125h-125zM118 749v-125h125
v125v0v0h-125h125h-125zM243 749v-125h125v125v0v0h-125h125h-125zM368 749v-125h125v125v0v0h-125h125h-125zM118 1124v-125h125v125v0v0h-125h125h-125zM118 999v-125h125v125v0v0h-125h125h-125z" />
    <glyph glyph-name="pi" unicode="&#x454;" 
d="M-7 624v-125h125v125v0v0h-125h125h-125zM-7 499v-125h125v125v0v0h-125h125h-125zM-7 374v-125h125v125v0v0h-125h125h-125zM-7 249v-125h125v125v0v0h-125h125h-125zM118 749v-125h125v125v0v0h-125h125h-125zM118 499v-125h125v125v0v0h-125h125h-125zM118 124v-125
h125v125v0v0h-125h125h-125zM243 749v-125h125v125v0v0h-125h125h-125zM243 499v-125h125v125v0v0h-125h125h-125zM243 124v-125h125v125v0v0h-125h125h-125zM368 749v-125h125v125v0v0h-125h125h-125zM368 124v-125h125v125v0v0h-125h125h-125zM493 624v-125h125v125v0v0
h-125h125h-125zM493 249v-125h125v125v0v0h-125h125h-125z" />
    <glyph glyph-name="Omega" unicode="&#x455;" horiz-adv-x="625" 
d="M-7 624v-125h125v125v0v0h-125h125h-125zM118 749v-125h125v125v0v0h-125h125h-125zM118 499v-125h125v125v0v0h-125h125h-125zM118 124v-125h125v125v0v0h-125h125h-125zM243 749v-125h125v125v0v0h-125h125h-125zM243 124v-125h125v125v0v0h-125h125h-125zM368 374
v-125h125v125v0v0h-125h125h-125zM368 249v-125h125v125v0v0h-125h125h-125zM243 499v-125h125v125v0v0h-125h125h-125zM368 749v-125h125v125v0v0h-125h125h-125zM-7 124v-125h125v125v0v0h-125h125h-125z" />
    <glyph glyph-name="lessequal" unicode="&#x456;" horiz-adv-x="250" 
d="M-7 749v-125h125v125v0v0h-125h125h-125zM-7 624v-125h125v125v0v0h-125h125h-125zM-7 499v-125h125v125v0v0h-125h125h-125zM-7 374v-125h125v125v0v0h-125h125h-125zM-7 249v-125h125v125v0v0h-125h125h-125zM-7 124v-125h125v125v0v0h-125h125h-125zM-7 999v-125h125
v125v0v0h-125h125h-125z" />
    <glyph glyph-name="ae" unicode="&#x457;" horiz-adv-x="375" 
d="M-7 999v-125h125v125v0v0h-125h125h-125zM118 749v-125h125v125v0v0h-125h125h-125zM118 624v-125h125v125v0v0h-125h125h-125zM118 499v-125h125v125v0v0h-125h125h-125zM118 374v-125h125v125v0v0h-125h125h-125zM118 249v-125h125v125v0v0h-125h125h-125zM118 124
v-125h125v125v0v0h-125h125h-125zM243 999v-125h125v125v0v0h-125h125h-125z" />
    <glyph glyph-name="ordfeminine" unicode="&#x458;" horiz-adv-x="250" 
d="M-132 -126v-125h125v125v0v0h-125h125h-125zM-7 749v-125h125v125v0v0h-125h125h-125zM-7 624v-125h125v125v0v0h-125h125h-125zM-7 499v-125h125v125v0v0h-125h125h-125zM-7 374v-125h125v125v0v0h-125h125h-125zM-7 249v-125h125v125v0v0h-125h125h-125zM-7 124v-125
h125v125v0v0h-125h125h-125zM-7 -1v-125h125v125v0v0h-125h125h-125zM-7 999v-125h125v125v0v0h-125h125h-125z" />
    <glyph glyph-name="ocircumflex" unicode="&#x459;" horiz-adv-x="1125" 
d="M-7 124v-125h125v125v0v0h-125h125h-125zM118 749v-125h125v125v0v0h-125h125h-125zM118 624v-125h125v125v0v0h-125h125h-125zM118 499v-125h125v125v0v0h-125h125h-125zM118 374v-125h125v125v0v0h-125h125h-125zM118 249v-125h125v125v0v0h-125h125h-125zM243 749
v-125h125v125v0v0h-125h125h-125zM368 749v-125h125v125v0v0h-125h125h-125zM493 749v-125h125v125v0v0h-125h125h-125zM493 624v-125h125v125v0v0h-125h125h-125zM493 499v-125h125v125v0v0h-125h125h-125zM493 374v-125h125v125v0v0h-125h125h-125zM493 249v-125h125v125
v0v0h-125h125h-125zM493 124v-125h125v125v0v0h-125h125h-125zM618 499v-125h125v125v0v0h-125h125h-125zM618 124v-125h125v125v0v0h-125h125h-125zM743 499v-125h125v125v0v0h-125h125h-125zM744 124v-125h124v125v0v0h-124h124h-124zM868 374v-125h125v125v0v0h-125h125
h-125zM868 249v-125h125v125v0v0h-125h125h-125z" />
    <glyph glyph-name="otilde" unicode="&#x45a;" horiz-adv-x="1000" 
d="M-7 499v-125h125v125v0v0h-125h125h-125zM118 499v-125h125v125v0v0h-125h125h-125zM243 499v-125h125v125v0v0h-125h125h-125zM368 749v-125h125v125v0v0h-125h125h-125zM368 624v-125h125v125v0v0h-125h125h-125zM368 499v-125h125v125v0v0h-125h125h-125zM368 374
v-125h125v125v0v0h-125h125h-125zM368 249v-125h125v125v0v0h-125h125h-125zM368 124v-125h125v125v0v0h-125h125h-125zM493 499v-125h125v125v0v0h-125h125h-125zM493 124v-125h125v125v0v0h-125h125h-125zM618 499v-125h125v125v0v0h-125h125h-125zM619 124v-125h124v125
v0v0h-124h124h-124zM743 374v-125h125v125v0v0h-125h125h-125zM743 249v-125h125v125v0v0h-125h125h-125zM-7 749v-125h125v125v0v0h-125h125h-125zM-7 624v-125h125v125v0v0h-125h125h-125zM-7 374v-125h125v125v0v0h-125h125h-125zM-7 249v-125h125v125v0v0h-125h125h-125
zM-7 124v-125h125v125v0v0h-125h125h-125z" />
    <glyph glyph-name="ugrave" unicode="&#x45b;" horiz-adv-x="875" 
d="M-7 999v-125h125v125v0v0h-125h125h-125zM118 1124v-125h125v125v0v0h-125h125h-125zM118 999v-125h125v125v0v0h-125h125h-125zM118 874v-125h125v125v0v0h-125h125h-125zM118 749v-125h125v125v0v0h-125h125h-125zM118 624v-125h125v125v0v0h-125h125h-125zM118 499
v-125h125v125v0v0h-125h125h-125zM118 374v-125h125v125v0v0h-125h125h-125zM118 249v-125h125v125v0v0h-125h125h-125zM118 124v-125h125v125v0v0h-125h125h-125zM243 999v-125h125v125v0v0h-125h125h-125zM243 749v-125h125v125v0v0h-125h125h-125zM368 999v-125h125v125
v0v0h-125h125h-125zM368 749v-125h125v125v0v0h-125h125h-125zM493 749v-125h125v125v0v0h-125h125h-125zM618 624v-125h125v125v0v0h-125h125h-125zM618 499v-125h125v125v0v0h-125h125h-125zM618 374v-125h125v125v0v0h-125h125h-125zM618 249v-125h125v125v0v0h-125h125
h-125zM618 124v-125h125v125v0v0h-125h125h-125zM493 999v-125h125v125v0v0h-125h125h-125z" />
    <glyph glyph-name="uacute" unicode="&#x45c;" 
d="M-7 749v-125h125v125v0v0h-125h125h-125zM-7 624v-125h125v125v0v0h-125h125h-125zM-7 499v-125h125v125v0v0h-125h125h-125zM-7 374v-125h125v125v0v0h-125h125h-125zM-7 249v-125h125v125v0v0h-125h125h-125zM-7 124v-125h125v125v0v0h-125h125h-125zM118 499v-125h125
v125v0v0h-125h125h-125zM243 999v-125h125v125v0v0h-125h125h-125zM243 499v-125h125v125v0v0h-125h125h-125zM243 374v-125h125v125v0v0h-125h125h-125zM368 1124v-125h125v125v0v0h-125h125h-125zM368 624v-125h125v125v0v0h-125h125h-125zM368 249v-125h125v125v0v0h-125
h125h-125zM493 749v-125h125v125v0v0h-125h125h-125zM493 124v-125h125v125v0v0h-125h125h-125z" />
    <glyph glyph-name="degree" unicode="&#x45e;" 
d="M-7 749v-125h125v125v0v0h-125h125h-125zM118 499v-125h125v125v0v0h-125h125h-125zM118 374v-125h125v125v0v0h-125h125h-125zM118 -126v-125h125v125v0v0h-125h125h-125zM243 124v-125h125v125v0v0h-125h125h-125zM243 -1v-125h125v125v0v0h-125h125h-125zM368 499
v-125h125v125v0v0h-125h125h-125zM368 374v-125h125v125v0v0h-125h125h-125zM493 749v-125h125v125v0v0h-125h125h-125zM-7 624v-125h125v125v0v0h-125h125h-125zM493 624v-125h125v125v0v0h-125h125h-125zM118 249v-125h125v125v0v0h-125h125h-125zM368 249v-125h125v125v0
v0h-125h125h-125zM118 1124v-125h125v125v0v0h-125h125h-125zM243 999v-125h125v125v0v0h-125h125h-125zM368 1124v-125h125v125v0v0h-125h125h-125z" />
    <glyph glyph-name="ucircumflex" unicode="&#x45f;" 
d="M-7 749v-125h125v125v0v0h-125h125h-125zM-7 624v-125h125v125v0v0h-125h125h-125zM-7 499v-125h125v125v0v0h-125h125h-125zM-7 374v-125h125v125v0v0h-125h125h-125zM-7 249v-125h125v125v0v0h-125h125h-125zM-7 124v-125h125v125v0v0h-125h125h-125zM118 124v-125h125
v125v0v0h-125h125h-125zM243 124v-125h125v125v0v0h-125h125h-125zM243 -1v-125h125v125v0v0h-125h125h-125zM243 -126v-125h125v125v0v0h-125h125h-125zM368 124v-125h125v125v0v0h-125h125h-125zM493 749v-125h125v125v0v0h-125h125h-125zM493 624v-125h125v125v0v0h-125
h125h-125zM493 499v-125h125v125v0v0h-125h125h-125zM493 374v-125h125v125v0v0h-125h125h-125zM493 249v-125h125v125v0v0h-125h125h-125zM493 124v-125h125v125v0v0h-125h125h-125z" />
    <glyph glyph-name="section" unicode="&#x490;" 
d="M-7 874v-125h125v125v0v0h-125h125h-125zM-7 749v-125h125v125v0v0h-125h125h-125zM-7 624v-125h125v125v0v0h-125h125h-125zM-7 499v-125h125v125v0v0h-125h125h-125zM-7 374v-125h125v125v0v0h-125h125h-125zM-7 249v-125h125v125v0v0h-125h125h-125zM-7 124v-125h125
v125v0v0h-125h125h-125zM118 999v-125h125v125v0v0h-125h125h-125zM243 999v-125h125v125v0v0h-125h125h-125zM368 999v-125h125v125v0v0h-125h125h-125zM493 1249v-125h125v125v0v0h-125h125h-125zM493 1124v-125h125v125v0v0h-125h125h-125zM493 999v-125h125v125v0v0
h-125h125h-125z" />
    <glyph glyph-name="greaterequal" unicode="&#x491;" horiz-adv-x="625" 
d="M-7 624v-125h125v125v0v0h-125h125h-125zM-7 499v-125h125v125v0v0h-125h125h-125zM-7 374v-125h125v125v0v0h-125h125h-125zM-7 249v-125h125v125v0v0h-125h125h-125zM-7 124v-125h125v125v0v0h-125h125h-125zM118 749v-125h125v125v0v0h-125h125h-125zM243 749v-125
h125v125v0v0h-125h125h-125zM368 999v-125h125v125v0v0h-125h125h-125zM368 874v-125h125v125v0v0h-125h125h-125zM368 749v-125h125v125v0v0h-125h125h-125z" />
    <glyph glyph-name="ntilde" unicode="&#x2013;" 
d="M-7 499v-125h125v125v0v0h-125h125h-125zM118 499v-125h125v125v0v0h-125h125h-125zM243 499v-125h125v125v0v0h-125h125h-125zM368 499v-125h125v125v0v0h-125h125h-125zM493 499v-125h125v125v0v0h-125h125h-125z" />
    <glyph glyph-name="oacute" unicode="&#x2014;" horiz-adv-x="1250" 
d="M-7 499v-125h125v125v0v0h-125h125h-125zM118 499v-125h125v125v0v0h-125h125h-125zM243 499v-125h125v125v0v0h-125h125h-125zM368 499v-125h125v125v0v0h-125h125h-125zM493 499v-125h125v125v0v0h-125h125h-125zM618 499v-125h125v125v0v0h-125h125h-125zM743 499
v-125h125v125v0v0h-125h125h-125zM868 499v-125h125v125v0v0h-125h125h-125zM993 499v-125h125v125v0v0h-125h125h-125z" />
    <glyph glyph-name="edieresis" unicode="&#x2018;" horiz-adv-x="375" 
d="M-7 1124v-125h125v125v0v0h-125h125h-125zM-7 999v-125h125v125v0v0h-125h125h-125zM118 874v-125h125v125v0v0h-125h125h-125z" />
    <glyph glyph-name="iacute" unicode="&#x2019;" horiz-adv-x="375" 
d="M-7 874v-125h125v125v0v0h-125h125h-125zM118 1124v-125h125v125v0v0h-125h125h-125zM118 999v-125h125v125v0v0h-125h125h-125z" />
    <glyph glyph-name="Ccedilla" unicode="&#x201a;" horiz-adv-x="250" 
d="M-132 -1v-125h125v125v0v0h-125h125h-125zM-7 249v-125h125v125v0v0h-125h125h-125zM-7 124v-125h125v125v0v0h-125h125h-125z" />
    <glyph glyph-name="igrave" unicode="&#x201c;" horiz-adv-x="625" 
d="M-7 1124v-125h125v125v0v0h-125h125h-125zM-7 999v-125h125v125v0v0h-125h125h-125zM118 874v-125h125v125v0v0h-125h125h-125zM243 1124v-125h125v125v0v0h-125h125h-125zM243 999v-125h125v125v0v0h-125h125h-125zM368 874v-125h125v125v0v0h-125h125h-125z" />
    <glyph glyph-name="icircumflex" unicode="&#x201d;" horiz-adv-x="625" 
d="M-7 874v-125h125v125v0v0h-125h125h-125zM118 1124v-125h125v125v0v0h-125h125h-125zM118 999v-125h125v125v0v0h-125h125h-125zM243 874v-125h125v125v0v0h-125h125h-125zM368 1124v-125h125v125v0v0h-125h125h-125zM368 999v-125h125v125v0v0h-125h125h-125z" />
    <glyph glyph-name="Ntilde" unicode="&#x201e;" horiz-adv-x="500" 
d="M-132 -126v-125h125v125v0v0h-125h125h-125zM-7 124v-125h125v125v0v0h-125h125h-125zM-7 -1v-125h125v125v0v0h-125h125h-125zM118 -126v-125h125v125v0v0h-125h125h-125zM243 124v-125h125v125v0v0h-125h125h-125zM243 -1v-125h125v125v0v0h-125h125h-125z" />
    <glyph glyph-name="Udieresis" unicode="&#x2020;" 
d="M-7 874v-125h125v125v0v0h-125h125h-125zM118 874v-125h125v125v0v0h-125h125h-125zM243 1124v-125h125v125v0v0h-125h125h-125zM243 999v-125h125v125v0v0h-125h125h-125zM243 874v-125h125v125v0v0h-125h125h-125zM243 749v-125h125v125v0v0h-125h125h-125zM243 624
v-125h125v125v0v0h-125h125h-125zM243 499v-125h125v125v0v0h-125h125h-125zM243 374v-125h125v125v0v0h-125h125h-125zM243 249v-125h125v125v0v0h-125h125h-125zM368 874v-125h125v125v0v0h-125h125h-125zM493 874v-125h125v125v0v0h-125h125h-125zM243 124v-125h125v125
v0v0h-125h125h-125zM243 -1v-125h125v125v0v0h-125h125h-125z" />
    <glyph glyph-name="aacute" unicode="&#x2021;" 
d="M-7 874v-125h125v125v0v0h-125h125h-125zM118 874v-125h125v125v0v0h-125h125h-125zM243 1124v-125h125v125v0v0h-125h125h-125zM243 999v-125h125v125v0v0h-125h125h-125zM243 874v-125h125v125v0v0h-125h125h-125zM243 749v-125h125v125v0v0h-125h125h-125zM243 624
v-125h125v125v0v0h-125h125h-125zM243 374v-125h125v125v0v0h-125h125h-125zM243 249v-125h125v125v0v0h-125h125h-125zM368 874v-125h125v125v0v0h-125h125h-125zM493 874v-125h125v125v0v0h-125h125h-125zM243 124v-125h125v125v0v0h-125h125h-125zM243 -1v-125h125v125v0
v0h-125h125h-125zM243 499v-125h125v125v0v0h-125h125h-125zM-7 249v-125h125v125v0v0h-125h125h-125zM118 249v-125h125v125v0v0h-125h125h-125zM368 249v-125h125v125v0v0h-125h125h-125zM493 249v-125h125v125v0v0h-125h125h-125z" />
    <glyph glyph-name="idieresis" unicode="&#x2022;" horiz-adv-x="625" 
d="M118 499v-125h125v125v0v0h-125h125h-125zM118 374v-125h125v125v0v0h-125h125h-125zM243 624v-125h125v125v0v0h-125h125h-125zM243 499v-125h125v125v0v0h-125h125h-125zM368 624v-125h125v125v0v0h-125h125h-125zM368 499v-125h125v125v0v0h-125h125h-125zM368 374
v-125h125v125v0v0h-125h125h-125zM243 374v-125h125v125v0v0h-125h125h-125zM118 624v-125h125v125v0v0h-125h125h-125z" />
    <glyph glyph-name="Odieresis" unicode="&#x2026;" horiz-adv-x="1000" 
d="M-7 124v-125h125v125v0v0h-125h125h-125zM368 124v-125h125v125v0v0h-125h125h-125zM743 124v-125h125v125v0v0h-125h125h-125z" />
    <glyph glyph-name="acircumflex" unicode="&#x2030;" horiz-adv-x="2000" 
d="M-7 874v-125h125v125v0v0h-125h125h-125zM-7 749v-125h125v125v0v0h-125h125h-125zM118 999v-125h125v125v0v0h-125h125h-125zM118 624v-125h125v125v0v0h-125h125h-125zM243 999v-125h125v125v0v0h-125h125h-125zM244 624v-125h124v125v0v0h-124h124h-124zM368 874v-125
h125v125v0v0h-125h125h-125zM368 749v-125h125v125v0v0h-125h125h-125zM368 249v-125h125v125v0v0h-125h125h-125zM368 124v-125h125v125v0v0h-125h125h-125zM493 499v-125h125v125v0v0h-125h125h-125zM493 374v-125h125v125v0v0h-125h125h-125zM618 749v-125h125v125v0v0
h-125h125h-125zM618 624v-125h125v125v0v0h-125h125h-125zM743 999v-125h125v125v0v0h-125h125h-125zM743 874v-125h125v125v0v0h-125h125h-125zM743 374v-125h125v125v0v0h-125h125h-125zM743 249v-125h125v125v0v0h-125h125h-125zM868 499v-125h125v125v0v0h-125h125h-125
zM868 124v-125h125v125v0v0h-125h125h-125zM993 499v-125h125v125v0v0h-125h125h-125zM994 124v-125h124v125v0v0h-124h124h-124zM1118 374v-125h125v125v0v0h-125h125h-125zM1118 249v-125h125v125v0v0h-125h125h-125zM1368 374v-125h125v125v0v0h-125h125h-125zM1368 249
v-125h125v125v0v0h-125h125h-125zM1493 499v-125h125v125v0v0h-125h125h-125zM1493 124v-125h125v125v0v0h-125h125h-125zM1618 499v-125h125v125v0v0h-125h125h-125zM1619 124v-125h124v125v0v0h-124h124h-124zM1743 374v-125h125v125v0v0h-125h125h-125zM1743 249v-125
h125v125v0v0h-125h125h-125z" />
    <glyph glyph-name="atilde" unicode="&#x2039;" horiz-adv-x="500" 
d="M-7 499v-125h125v125v0v0h-125h125h-125zM118 624v-125h125v125v0v0h-125h125h-125zM118 374v-125h125v125v0v0h-125h125h-125zM243 749v-125h125v125v0v0h-125h125h-125zM243 249v-125h125v125v0v0h-125h125h-125z" />
    <glyph glyph-name="odieresis" unicode="&#x203a;" horiz-adv-x="500" 
d="M-7 749v-125h125v125v0v0h-125h125h-125zM-7 249v-125h125v125v0v0h-125h125h-125zM118 624v-125h125v125v0v0h-125h125h-125zM118 374v-125h125v125v0v0h-125h125h-125zM243 499v-125h125v125v0v0h-125h125h-125z" />
    <glyph glyph-name="agrave" unicode="&#x20ac;" horiz-adv-x="875" 
d="M618 999v-125h125v125v0v0h-125h125h-125zM493 999v-125h125v125v0v0h-125h125h-125zM368 999v-125h125v125v0v0h-125h125h-125zM243 874v-125h125v125v0v0h-125h125h-125zM118 749v-125h125v125v0v0h-125h125h-125zM118 624v-125h125v125v0v0h-125h125h-125zM118 499
v-125h125v125v0v0h-125h125h-125zM118 374v-125h125v125v0v0h-125h125h-125zM243 249v-125h125v125v0v0h-125h125h-125zM368 124v-125h125v125v0v0h-125h125h-125zM493 124v-125h125v125v0v0h-125h125h-125zM618 124v-125h125v125v0v0h-125h125h-125zM243 374v-125h125v125
v0v0h-125h125h-125zM368 374v-125h125v125v0v0h-125h125h-125zM243 749v-125h125v125v0v0h-125h125h-125zM368 749v-125h125v125v0v0h-125h125h-125zM-7 749v-125h125v125v0v0h-125h125h-125zM-7 374v-125h125v125v0v0h-125h125h-125z" />
    <glyph glyph-name="product" unicode="&#x2116;" horiz-adv-x="1375" 
d="M-7 999v-125h125v125v0v0h-125h125h-125zM-7 874v-125h125v125v0v0h-125h125h-125zM-7 749v-125h125v125v0v0h-125h125h-125zM-7 624v-125h125v125v0v0h-125h125h-125zM-7 499v-125h125v125v0v0h-125h125h-125zM-7 374v-125h125v125v0v0h-125h125h-125zM-7 249v-125h125
v125v0v0h-125h125h-125zM-7 124v-125h125v125v0v0h-125h125h-125zM118 874v-125h125v125v0v0h-125h125h-125zM243 624v-125h125v125v0v0h-125h125h-125zM493 249v-125h125v125v0v0h-125h125h-125zM493 124v-125h125v125v0v0h-125h125h-125zM993 999v-125h125v125v0v0h-125
h125h-125zM993 249v-125h125v125v0v0h-125h125h-125zM1118 249v-125h125v125v0v0h-125h125h-125zM994 624v-125h124v125v0v0h-124h124h-124zM493 374v-125h125v125v0v0h-125h125h-125zM493 499v-125h125v125v0v0h-125h125h-125zM493 624v-125h125v125v0v0h-125h125h-125z
M493 749v-125h125v125v0v0h-125h125h-125zM493 874v-125h125v125v0v0h-125h125h-125zM493 999v-125h125v125v0v0h-125h125h-125zM243 749v-125h125v125v0v0h-125h125h-125zM243 374v-125h125v125v0v0h-125h125h-125zM243 499v-125h125v125v0v0h-125h125h-125zM368 249v-125
h125v125v0v0h-125h125h-125zM743 874v-125h125v125v0v0h-125h125h-125zM868 999v-125h125v125v0v0h-125h125h-125zM743 749v-125h125v125v0v0h-125h125h-125zM868 624v-125h125v125v0v0h-125h125h-125zM1118 749v-125h125v125v0v0h-125h125h-125zM1118 874v-125h125v125v0v0
h-125h125h-125zM743 249v-125h125v125v0v0h-125h125h-125zM868 249v-125h125v125v0v0h-125h125h-125z" />
    <glyph glyph-name="ograve" unicode="&#x2122;" horiz-adv-x="1000" 
d="M-7 999v-125h125v125v0v0h-125h125h-125zM118 999v-125h125v125v0v0h-125h125h-125zM118 874v-125h125v125v0v0h-125h125h-125zM118 749v-125h125v125v0v0h-125h125h-125zM118 624v-125h125v125v0v0h-125h125h-125zM243 999v-125h125v125v0v0h-125h125h-125zM493 999
v-125h125v125v0v0h-125h125h-125zM493 874v-125h125v125v0v0h-125h125h-125zM493 749v-125h125v125v0v0h-125h125h-125zM493 624v-125h125v125v0v0h-125h125h-125zM618 874v-125h125v125v0v0h-125h125h-125zM743 999v-125h125v125v0v0h-125h125h-125zM743 874v-125h125v125
v0v0h-125h125h-125zM743 749v-125h125v125v0v0h-125h125h-125zM743 624v-125h125v125v0v0h-125h125h-125z" />
    <glyph glyph-name="caron" unicode="&#x7530;" horiz-adv-x="625" 
 />
  </font>
</defs>
</svg>
