<svg width="32" height="30" viewBox="0 0 32 30" fill="none" xmlns="http://www.w3.org/2000/svg">
<path d="M19.405 24.5873C22.0538 24.0883 23.9156 22.1689 24.9905 18.8292C25.5279 17.1785 25.7966 15.547 25.7966 13.9347C25.7966 13.7428 25.7966 13.5701 25.7966 13.4165C25.7582 13.3013 25.7198 13.0134 25.6814 12.5528L19.405 12.5528L19.405 0L31.6699 0L31.6699 11.5739C31.6699 17.2553 30.5375 21.6315 28.2726 24.7025C26.0077 27.7735 23.0519 29.5393 19.405 30V24.5873ZM5.72205e-05 24.5873C2.11138 24.2418 3.72367 23.0518 4.83691 21.0173C5.91176 18.9827 6.44919 16.6411 6.44919 13.9923C6.44919 13.762 6.44919 13.5317 6.44919 13.3013C6.4108 13.071 6.35322 12.8215 6.27645 12.5528L5.72205e-05 12.5528L5.72205e-05 0L12.3225 0L12.3225 11.5739C12.3225 16.142 11.3628 20.2111 9.44343 23.7812C7.52405 27.3896 4.37626 29.4626 5.72205e-05 30L5.72205e-05 24.5873Z" fill="white"/>
</svg>
