<svg xmlns="http://www.w3.org/2000/svg" width="341" height="429" viewBox="0 0 341 429">
    <g fill="none" fill-rule="evenodd">
        <g>
            <path fill="#FCD0D0" d="M52.81 22.2S72.063 23.935 67.753 0C42.293 4.376 52.81 22.2 52.81 22.2M45.3 30.36s8.12-10.227-6.99-16.67c-6.975 15.996 6.99 16.67 6.99 16.67M36.122 42.601s7.005-11.018-8.694-15.848c-5.265 16.637 8.694 15.848 8.694 15.848M31.282 55.03s3.016-12.704-13.402-12.129c.474 17.443 13.402 12.13 13.402 12.13M48.779 31.433s6.565 11.285 18.068-.443c-12.36-12.317-18.068.443-18.068.443M41.224 45.648s6.566 11.286 18.069-.443c-12.36-12.316-18.069.443-18.069.443M21.1 85.098s5.508-11.839-10.691-14.576c-3.043 17.182 10.69 14.576 10.69 14.576M27.492 85.377s6.569 11.285 18.068-.443c-12.36-12.317-18.068.443-18.068.443" transform="rotate(-13 424.058 44.057)"/>
            <path fill="#FCD0D0" d="M17.425 99.072s5.51-11.84-10.686-14.577c-3.046 17.182 10.686 14.577 10.686 14.577M23.818 99.35s6.57 11.286 18.072-.443c-12.364-12.316-18.072.443-18.072.443M35.998 56.506s3.2 12.66 17.493 4.561c-8.484-15.25-17.493-4.56-17.493-4.56M26.732 68.622s3.016-12.705-13.402-12.13c.47 17.443 13.402 12.13 13.402 12.13M31.448 70.098s3.2 12.66 17.489 4.56c-8.48-15.249-17.49-4.56-17.49-4.56M14.248 128.166s3.373-12.612-13.052-12.503c-.023 17.452 13.052 12.503 13.052 12.503M20.592 127.335s8.426 9.973 17.722-3.568c-14.308-9.988-17.722 3.568-17.722 3.568" transform="rotate(-13 424.058 44.057)"/>
            <path fill="#FCD0D0" d="M13.052 142.564S16.425 129.952 0 130.061c-.023 17.452 13.052 12.503 13.052 12.503M19.4 141.733s8.423 9.977 17.718-3.568c-14.308-9.988-17.719 3.568-17.719 3.568M16.94 110.965s.767-13.036-15.3-9.624c3.485 17.097 15.3 9.624 15.3 9.624M21.84 111.6s5.347 11.915 18.016 1.461C28.86 99.511 21.84 111.6 21.84 111.6" transform="rotate(-13 424.058 44.057)"/>
            <path fill="#0C5AE5" d="M57.574 289.548c-.218 0-.425-.117-.534-.324C12.277 203.421 13.255 135.536 21.96 93.7 31.4 48.332 51.727 22.92 51.934 22.67c.207-.258.586-.296.842-.088.256.21.293.587.087.844-.204.25-20.374 25.483-29.745 70.59-8.648 41.634-9.596 109.2 34.986 194.657.155.293.042.654-.252.808-.09.045-.184.068-.278.068" transform="rotate(-13 424.058 44.057)"/>
        </g>
        <path fill="#FCD0D0" d="M124.091 404.027s-3.55-102.273-108.019-155.76C5.262 354.981 112.081 424.04 112.081 424.04l12.01-20.012"/>
        <path fill="#FF6F61" d="M16.584 249.204c-5.197 54.505 20.952 98.877 43.879 126.557 23.08 27.871 47.587 44.853 51.426 47.432l11.593-19.32c-.117-2.313-1.64-27.067-14.797-57.48-12.623-29.177-38.844-69.66-92.101-97.19zm95.497 175.433c-.117 0-.23-.03-.328-.094-.267-.173-27.07-17.666-52.193-47.989-23.205-28.01-49.689-73.014-44.082-128.347.019-.195.135-.372.308-.466.177-.094.384-.094.56-.008 54.123 27.71 80.697 68.713 93.46 98.231 13.83 31.99 14.872 57.785 14.883 58.04.004.117-.026.23-.087.328l-12.006 20.016c-.087.139-.222.237-.38.274-.045.012-.09.015-.135.015z"/>
        <path fill="#FCD0D0" d="M64.201 281.918L65.596 329.979 64.201 281.918"/>
        <path fill="#FF6F61" d="M65.596 330.577c-.324 0-.59-.256-.602-.583l-1.391-48.06c-.008-.332.252-.606.582-.617.354-.004.606.252.617.583l1.391 48.06c.008.331-.251.61-.582.617h-.015"/>
        <path fill="#FCD0D0" d="M78.915 351.954L32.73 334.668 78.915 351.954"/>
        <path fill="#FF6F61" d="M78.915 352.556c-.072 0-.143-.011-.21-.038l-46.185-17.29c-.308-.116-.466-.462-.35-.77.117-.313.463-.467.771-.354l46.184 17.29c.309.117.466.462.35.77-.09.241-.32.392-.56.392"/>
        <path fill="#FCD0D0" d="M42.131 351.462L88.958 368.526 42.131 351.462"/>
        <path fill="#FF6F61" d="M88.958 369.128c-.067 0-.139-.012-.206-.038l-46.828-17.068c-.312-.113-.47-.455-.357-.767.113-.312.455-.47.767-.357l46.827 17.068c.313.112.474.455.358.767-.087.244-.316.395-.56.395"/>
        <path fill="#FCD0D0" d="M16.072 248.267L117.789 416.098 16.072 248.267"/>
        <path fill="#FF6F61" d="M117.789 416.7c-.203 0-.403-.106-.515-.29L15.56 248.58c-.173-.283-.083-.651.203-.824.282-.17.65-.083.82.203L118.3 415.789c.173.282.083.65-.203.824-.098.056-.203.086-.308.086"/>
        <g>
            <path fill="#D4E6FC" d="M143.757 0C125.053 3.934 99.325-.837 92.41 25.628c-4.775 18.257 4.99 37.34-17.045 46.493-8.736 3.629-17.817 3.636-23.999 11.74-5.37 7.043-5.87 16.726-6.268 25.213-.339 7.295 1.628 16.7-.459 23.787-3.407 11.57-13.44 12.04-23.02 16.73-9.12 4.463-17.4 11.39-20.498 21.52-4.103 13.402 4.4 24.57 4.08 37.321 0 0 8.024 49.96 57.51 28.417 11.695-5.091 23.972-8.032 32.125-19.43 6.163-8.618 6.633-19.403 4.64-29.356-2.095-10.461-7.818-18.715-.696-28.45 4.358-5.965 13.026-10.116 18.614-14.816 6.501-5.472 13.887-11.755 16.218-20.299 2.681-9.833-2.832-17.049-5.253-26.19-6.118-23.066 14.97-26.901 26.574-41.785 16.816-21.573-2.602-39.11-10.841-56.358L143.757 0" transform="translate(178.4 175.919)"/>
            <path fill="#0C5AE5" d="M20.054 251.379c-.09 0-.18-.019-.267-.06-.293-.147-.417-.508-.27-.805L123.153 40.767c.147-.297.508-.413.801-.27.297.146.418.507.271.804L20.592 251.044c-.105.21-.32.335-.538.335" transform="translate(178.4 175.919)"/>
            <path fill="#0C5AE5" d="M80.64 128.763c-.278 0-.526-.196-.586-.478l-7.547-36.441c-.068-.324.139-.64.462-.707.316-.072.643.139.711.466l7.547 36.438c.068.323-.14.639-.466.707-.042.01-.083.015-.12.015M43.635 203.653c-.282 0-.534-.2-.587-.485-.067-.323.147-.64.47-.703l32.82-6.43c.324-.068.644.146.704.473.064.324-.147.64-.47.7l-32.824 6.434c-.038.007-.075.011-.113.011M93.628 102.47c-.225 0-.447-.131-.545-.353-.135-.305 0-.658.301-.793l24.95-11.184c.3-.135.654 0 .79.305.135.3 0 .654-.301.79l-24.95 11.183c-.08.037-.162.052-.245.052" transform="translate(178.4 175.919)"/>
        </g>
        <g>
            <path fill="#D4E6FC" d="M108.214 348.215L20.046 348.215 8.062 250.021 120.202 250.021 108.214 348.215" transform="translate(89.022 79.905)"/>
            <path fill="#0C5AE5" d="M1.2 271.797h125.865V250.62H1.2v21.178zm126.463 1.2H.602c-.331 0-.602-.27-.602-.602v-22.374c0-.334.27-.601.602-.601h127.06c.332 0 .599.267.599.601v22.374c0 .331-.267.602-.598.602z" transform="translate(89.022 79.905)"/>
            <path fill="#0C5AE5" d="M64.132 250.62c-.33 0-.601-.268-.601-.599V49.881c0-.33.27-.598.601-.598.331 0 .598.268.598.599v200.14c0 .33-.267.597-.598.597" transform="translate(89.022 79.905)"/>
            <path fill="#0C5AE5" d="M64.132 153.126s0-42.555-43.168-47.833c-3.595 35.495 43.168 47.833 43.168 47.833" transform="translate(89.022 79.905)"/>
            <path fill="#FFF" d="M53.927 140.976c-.15 0-.301-.056-.418-.17l-23.825-23.26c-.237-.23-.24-.613-.011-.847.233-.236.609-.244.85-.01l23.825 23.26c.237.23.24.61.007.847-.116.12-.27.18-.428.18" transform="translate(89.022 79.905)"/>
            <path fill="#0C5AE5" d="M64.339 206.5s0-42.556 43.168-47.832C111.102 194.162 64.34 206.5 64.34 206.5" transform="translate(89.022 79.905)"/>
            <path fill="#FFF" d="M74.54 194.35c-.153 0-.311-.06-.428-.18-.233-.237-.226-.617.011-.847l23.826-23.26c.237-.234.616-.227.846.01.233.237.23.617-.008.846l-23.829 23.262c-.116.113-.267.169-.417.169" transform="translate(89.022 79.905)"/>
            <path fill="#FF6F61" d="M64.328 83.91L20.32 39.73c-9.081-9.113-9.051-23.862.064-32.94 9.11-9.082 23.855-9.046 32.94.065l9.822 9.864 8.111-8.734c8.75-9.43 23.487-9.97 32.918-1.22 9.423 8.753 9.968 23.49 1.214 32.916L64.328 83.91" transform="translate(89.022 79.905)"/>
            <path fill="#0C5AE5" d="M20.576 347.617h87.108l11.841-96.998H8.74l11.837 96.998zm87.638 1.195H20.046c-.3 0-.556-.225-.594-.526L7.464 250.093c-.019-.17.034-.342.147-.47.116-.128.278-.203.451-.203h112.14c.173 0 .335.075.448.203.116.128.169.3.146.47l-11.988 98.193c-.033.3-.29.526-.594.526z" transform="translate(89.022 79.905)"/>
            <path fill="#FFF" d="M0.602 272.395L127.663 272.395 127.663 250.021 0.602 250.021z" transform="translate(89.022 79.905)"/>
        </g>
        <path fill="#FCD0D0" d="M118.297 47.282l-12.778-12.827c-2.636-2.646-2.624-6.928.02-9.564 2.646-2.637 6.926-2.627 9.565.019l2.85 2.864 2.358-2.536c2.539-2.738 6.818-2.895 9.555-.355 2.738 2.542 2.896 6.82.354 9.557l-11.924 12.842M288.304 40.717c-1.715 0-3.43.651-4.734 1.954-1.267 1.265-1.97 2.948-1.974 4.74-.004 1.793.692 3.48 1.955 4.75l12.74 12.789 11.886-12.802c1.219-1.313 1.854-3.024 1.79-4.815-.067-1.79-.827-3.449-2.14-4.669-2.714-2.518-6.971-2.36-9.483.351l-2.358 2.537c-.007.01-.022.016-.037.017-.015 0-.027-.006-.038-.016l-2.85-2.864c-1.313-1.314-3.035-1.972-4.757-1.972zm7.99 24.36c-.014 0-.03-.006-.037-.015L283.48 52.235c-1.286-1.29-1.993-3.003-1.99-4.823.004-1.82.719-3.53 2.008-4.815 1.286-1.282 2.99-1.987 4.806-1.987h.015c1.82.004 3.531.716 4.813 2.006l2.817 2.826 2.316-2.497c2.557-2.755 6.878-2.912 9.634-.357 1.331 1.238 2.102 2.922 2.17 4.741.067 1.82-.576 3.556-1.816 4.89l-11.92 12.84c-.012.011-.023.017-.038.018zM214.654 35.1l-17.921-17.989c-3.697-3.71-3.682-9.716.026-13.413 3.712-3.698 9.717-3.684 13.413.027l4.001 4.016 3.305-3.556c3.562-3.84 9.563-4.06 13.402-.497 3.836 3.564 4.061 9.565.497 13.403l-16.723 18.01"/>
    </g>
</svg>
