<?xml version="1.0" encoding="utf-8"?>
<!-- Generator: Adobe Illustrator 21.0.2, SVG Export Plug-In . SVG Version: 6.00 Build 0)  -->
<svg version="1.1" id="Layer_1" xmlns="http://www.w3.org/2000/svg" xmlns:xlink="http://www.w3.org/1999/xlink" x="0px" y="0px"
	 viewBox="0 0 24 24" style="enable-background:new 0 0 24 24;" xml:space="preserve">
<style type="text/css">
	.st0{font-family:'MyriadPro-Bold';}
	.st1{font-size:9px;}
</style>
<g transform="translate(0,-952.36218)">
	<path d="M10,955.2c-1.1,0-2,0.9-2,2v1h-5c-1.1,0-2,0.9-2,2v7.4c0,1.1,0.9,2,2,2h1v3.5c0,0.2,0.1,0.4,0.3,0.5c0.1,0,0.1,0,0.2,0
		c0.1,0,0.3-0.1,0.4-0.2l3.3-3.8H14c1.1,0,2-0.9,2-2v-0.7l3.1,3.5c0.1,0.1,0.4,0.2,0.5,0.1c0.2-0.1,0.3-0.3,0.3-0.5v-3.5h1
		c1.1,0,2-0.9,2-2v-7.4c0-1.1-0.9-2-2-2H10z M10,956.2h10.9c0.6,0,1,0.4,1,1v7.4c0,0.6-0.4,1-1,1h-1.5c-0.3,0-0.5,0.2-0.5,0.5v2.6
		l-3-3.4v-5.2c0-1.1-0.9-2-2-2H9v-1C9,956.6,9.5,956.2,10,956.2z M3.1,959.1H14c0.6,0,1,0.4,1,1v7.4c0,0.6-0.4,1-1,1H8
		c-0.1,0-0.3,0.1-0.4,0.2l-2.6,3v-2.6c0-0.3-0.2-0.5-0.5-0.5H3.1c-0.6,0-1-0.4-1-1v-7.4C2.1,959.6,2.5,959.1,3.1,959.1z"/>
</g>
<text transform="matrix(1 0 0 1 5.7732 14.2237)" class="st0 st1">1</text>
</svg>
