<?xml version="1.0" encoding="utf-8"?>
<!-- Generator: Adobe Illustrator 21.0.2, SVG Export Plug-In . SVG Version: 6.00 Build 0)  -->
<svg version="1.1" id="Layer_1" xmlns="http://www.w3.org/2000/svg" xmlns:xlink="http://www.w3.org/1999/xlink" x="0px" y="0px"
	 viewBox="0 0 24 24" style="enable-background:new 0 0 24 24;" xml:space="preserve">
<g>
	<path d="M18.3,5.7h0.4c0.1,0,0.2-0.2,0.2-0.3V1.7c0-0.1-0.1-0.1-0.2-0.1h-5c-0.1,0-0.2,0-0.2,0.1v2.9h0.9V4.5H16v0.2h-1.1
		C15,4.8,15.1,5,15.1,5.1v0.6h2.6l1.5,0.7L18.3,5.7z M18.1,4h-3.6V3.8h3.6L18.1,4L18.1,4z M18.1,3.3h-3.6V3h3.6L18.1,3.3L18.1,3.3z
		 M18.1,2.6h-3.6V2.3h3.6L18.1,2.6L18.1,2.6z"/>
	<path d="M10.1,1.5h-5C5.1,1.5,5,1.6,5,1.7v3.8c0,0.1,0.1,0.3,0.2,0.3h0.4L4.8,6.4l1.5-0.7h2.6V5.1c0-0.3,0.2-0.6,0.6-0.6h0.9V1.7
		C10.3,1.6,10.2,1.5,10.1,1.5z M7.3,4.7H5.8V4.5h1.5V4.7z M9.5,4H5.8V3.8h3.6V4z M9.5,3.3H5.8V3h3.6V3.3z M9.5,2.6H5.8V2.3h3.6V2.6z
		"/>
	<g>
		<path d="M21.3,9C21.3,9,21.3,9,21.3,9c-0.1-0.3-0.1-0.6-0.2-0.9c-0.3-0.7-0.8-1.3-1.4-1.5c-0.2-0.1-0.4-0.1-0.6-0.1
			c-0.9,0-1.6,0.6-2,1.6C17,8.4,17,8.7,17,9c0,0-0.1,0-0.1,0c-0.2,0-0.3,0.3-0.2,0.6c0,0.3,0.2,0.6,0.4,0.5c0,0,0.1,0,0.1,0
			c0.3,0.9,1.1,1.6,2,1.6c0.2,0,0.4,0,0.6-0.1c0.6-0.2,1.1-0.8,1.4-1.5c0,0,0.1,0,0.1,0c0.2,0,0.3-0.2,0.4-0.5
			C21.6,9.3,21.5,9,21.3,9z M19.7,11.2c-0.2,0.1-0.4,0.1-0.6,0.1c-1,0-1.7-1-1.7-2.2c0-0.2,0-0.4,0.1-0.6c0.2-0.2,0.4-0.3,0.6-0.4
			c0.2-0.1,0.4-0.1,0.6,0c0.3,0.1,0.5,0.2,0.7,0.5c0.1,0.1,0.2,0.2,0.3,0.3c0.5,0.4,1,0.4,1.2,0.4C20.8,10.2,20.3,10.9,19.7,11.2z"
			/>
		<path d="M23.1,14.4c0-0.5-0.2-0.9-0.4-1.3c-0.5-0.7-1.3-1.1-2.3-1.1h-0.1c-0.2,0-0.3,0.1-0.5,0.1c0,0-0.1,0.2-0.1,0.6
			c0,0.1-0.1,0.2-0.1,0.3c-0.2,0.7-0.4,1.6-0.4,1.9c0-0.3-0.3-1.2-0.4-1.9c0-0.1,0-0.2-0.1-0.4c-0.1-0.4-0.1-0.5-0.1-0.5
			C18.3,12.1,18.2,12,18,12h-0.1c-0.9,0-1.8,0.4-2.2,1.1c-0.3,0.4-0.4,0.8-0.4,1.4l0,1c0,0,0,0,0,0.2c0,0,0,0,0,0c0,0,0,0,0,0
			c0,0.4,0.3,0.7,0.8,0.7h6.2c0.4,0,0.8-0.5,0.8-0.9c0,0,0,0,0,0V14.4z"/>
	</g>
	<path d="M6.9,9C6.9,9,6.9,9,6.9,9C6.8,8.7,6.8,8.4,6.7,8.1C6.4,7.4,5.9,6.8,5.3,6.6C5.1,6.6,4.9,6.5,4.7,6.5c-0.9,0-1.6,0.6-2,1.6
		C2.7,8.4,2.6,8.7,2.6,9c0,0-0.1,0-0.1,0C2.3,9,2.2,9.3,2.3,9.6c0,0.3,0.2,0.6,0.4,0.5c0,0,0.1,0,0.1,0c0.3,0.9,1.1,1.6,2,1.6
		c0.2,0,0.4,0,0.6-0.1c0.6-0.2,1.1-0.8,1.4-1.5c0,0,0.1,0,0.1,0c0.2,0,0.3-0.2,0.4-0.5C7.2,9.3,7.1,9,6.9,9z M5.3,11.2
		c-0.2,0.1-0.4,0.1-0.6,0.1c-1,0-1.7-1-1.7-2.2c0-0.2,0-0.4,0.1-0.6c0.2-0.2,0.4-0.3,0.6-0.4c0.2-0.1,0.4-0.1,0.6,0
		C4.5,8.2,4.8,8.3,5,8.6c0.1,0.1,0.2,0.2,0.3,0.3c0.5,0.4,1,0.4,1.2,0.4C6.4,10.2,5.9,10.9,5.3,11.2z"/>
	<path d="M8.6,14.4c0-0.5-0.1-0.9-0.4-1.3C7.7,12.4,7,12,6,12H5.9c-0.2,0-0.3,0.1-0.5,0.1c0,0-0.1,0.2-0.1,0.6
		c0,0.1-0.1,0.2-0.1,0.3C5,13.8,4.8,14.7,4.8,15c0-0.3-0.3-1.2-0.4-1.9c0-0.1,0-0.2-0.1-0.4c-0.1-0.4-0.1-0.5-0.1-0.5
		C3.9,12.1,3.8,12,3.6,12H3.5c-0.9,0-1.8,0.4-2.2,1.1c-0.3,0.4-0.4,0.8-0.4,1.4l0,1c0,0,0,0,0,0.2c0,0,0,0,0,0c0,0,0,0,0,0
		c0,0.4,0.3,0.7,0.7,0.7h6.2c0.4,0,0.7-0.5,0.7-0.9c0,0,0,0,0,0V14.4z"/>
	<g>
		<path d="M14.7,12.9c0,0-0.1,0-0.1,0c0-0.4-0.1-0.8-0.2-1.1c-0.3-0.9-1-1.6-1.8-1.9c-0.2-0.1-0.5-0.1-0.7-0.1c-1.1,0-2.1,0.8-2.5,2
			c-0.1,0.3-0.2,0.7-0.2,1.1c0,0-0.1,0-0.1,0c-0.2,0-0.3,0.4-0.3,0.8s0.3,0.7,0.5,0.7c0,0,0.1,0,0.1-0.1c0.4,1.1,1.4,2,2.5,2
			c0.2,0,0.5,0,0.7-0.1c0.8-0.3,1.4-0.9,1.8-1.8c0,0,0.1,0,0.1,0.1c0.2,0,0.4-0.3,0.5-0.7C15.1,13.3,14.9,13,14.7,12.9z"/>
	</g>
	<path d="M14.4,5h-5C9.4,5,9.3,5,9.3,5.1v3.8c0,0.1,0.1,0.3,0.2,0.3h2.2l0.2,0.5l0.2-0.5h2.3c0.1,0,0.2-0.2,0.2-0.3V5.1
		C14.6,5,14.5,5,14.4,5z M11.6,8.2h-1.5V7.9h1.5V8.2z M13.8,7.4h-3.6V7.2h3.6C13.8,7.2,13.8,7.4,13.8,7.4z M13.8,6.7h-3.6V6.5h3.6
		C13.8,6.5,13.8,6.7,13.8,6.7z M13.8,6h-3.6V5.8h3.6C13.8,5.8,13.8,6,13.8,6z"/>
	<path d="M16.6,18c-0.6-1-1.7-1.5-2.9-1.5h-0.8c0,0-0.1,0-0.1,0c-0.3,0.1-0.6,0.1-0.8,0.1c-0.3,0-0.6-0.1-0.9-0.2h-0.5
		c-1.2,0-2.3,0.5-2.9,1.5c-0.3,0.5-0.5,1.1-0.5,1.8c0,0,0,0.3,0,0.3v1.8c0,0.3,0.3,0.6,0.6,0.6h0.4h8h0.5c0.3,0,0.6-0.3,0.6-0.6
		v-2.2C17.1,19,16.9,18.5,16.6,18z"/>
</g>
</svg>
