<svg width="409" height="508" viewBox="0 0 409 508" fill="none" xmlns="http://www.w3.org/2000/svg">
<mask id="mask0" mask-type="alpha" maskUnits="userSpaceOnUse" x="0" y="0" width="409" height="508">
<rect x="8.73145" width="400" height="500.289" transform="rotate(1 8.73145 0)" fill="#C4C4C4"/>
</mask>
<g mask="url(#mask0)">
<line y1="-0.5" x2="451.394" y2="-0.5" transform="matrix(0.93797 0.346717 -0.542532 0.840035 -12.5454 454.961)" stroke="#C4C4C4"/>
<line y1="-0.5" x2="451.394" y2="-0.5" transform="matrix(0.93797 0.346717 -0.542532 0.840035 -10.8765 437.478)" stroke="#C4C4C4"/>
<line y1="-0.5" x2="451.394" y2="-0.5" transform="matrix(0.93797 0.346717 -0.542532 0.840035 -11.9351 419.947)" stroke="#C4C4C4"/>
<line y1="-0.5" x2="451.394" y2="-0.5" transform="matrix(0.93797 0.346717 -0.542532 0.840035 -23.4614 507.309)" stroke="#C4C4C4"/>
<line y1="-0.5" x2="451.394" y2="-0.5" transform="matrix(0.93797 0.346717 -0.542532 0.840035 -21.792 489.825)" stroke="#C4C4C4"/>
<line y1="-0.5" x2="451.394" y2="-0.5" transform="matrix(0.93797 0.346717 -0.542532 0.840035 -21.4868 472.317)" stroke="#C4C4C4"/>
<line y1="-0.5" x2="451.394" y2="-0.5" transform="matrix(0.93797 0.346717 -0.542532 0.840035 -11.6299 402.439)" stroke="#C4C4C4"/>
<line y1="-0.5" x2="451.394" y2="-0.5" transform="matrix(0.93797 0.346717 -0.542532 0.840035 -11.3242 384.931)" stroke="#C4C4C4"/>
<line y1="-0.5" x2="451.394" y2="-0.5" transform="matrix(0.93797 0.346717 -0.542532 0.840035 -11.0156 367.423)" stroke="#C4C4C4"/>
<line y1="-0.5" x2="451.394" y2="-0.5" transform="matrix(0.93797 0.346717 -0.542532 0.840035 -10.7104 349.916)" stroke="#C4C4C4"/>
<line y1="-0.5" x2="451.394" y2="-0.5" transform="matrix(0.93797 0.346717 -0.542532 0.840035 -10.4053 332.409)" stroke="#C4C4C4"/>
<line y1="-0.5" x2="451.394" y2="-0.5" transform="matrix(0.93797 0.346717 -0.542532 0.840035 -10.1001 314.902)" stroke="#C4C4C4"/>
<line y1="-0.5" x2="451.394" y2="-0.5" transform="matrix(0.93797 0.346717 -0.542532 0.840035 -9.79492 297.394)" stroke="#C4C4C4"/>
<line y1="-0.5" x2="451.394" y2="-0.5" transform="matrix(0.93797 0.346717 -0.542532 0.840035 -9.48975 279.886)" stroke="#C4C4C4"/>
<line y1="-0.5" x2="451.394" y2="-0.5" transform="matrix(0.93797 0.346717 -0.542532 0.840035 -9.18408 262.378)" stroke="#C4C4C4"/>
<line y1="-0.5" x2="451.394" y2="-0.5" transform="matrix(0.93797 0.346717 -0.542532 0.840035 -8.87891 244.871)" stroke="#C4C4C4"/>
<line y1="-0.5" x2="451.394" y2="-0.5" transform="matrix(0.93797 0.346717 -0.542532 0.840035 -8.57373 227.365)" stroke="#C4C4C4"/>
<line y1="-0.5" x2="451.394" y2="-0.5" transform="matrix(0.93797 0.346717 -0.542532 0.840035 -8.26807 209.857)" stroke="#C4C4C4"/>
<line y1="-0.5" x2="451.394" y2="-0.5" transform="matrix(0.93797 0.346717 -0.542532 0.840035 -7.95947 192.35)" stroke="#C4C4C4"/>
<line y1="-0.5" x2="451.394" y2="-0.5" transform="matrix(0.93797 0.346717 -0.542532 0.840035 -7.65479 174.842)" stroke="#C4C4C4"/>
<line y1="-0.5" x2="451.394" y2="-0.5" transform="matrix(0.93797 0.346717 -0.542532 0.840035 -7.34961 157.334)" stroke="#C4C4C4"/>
<line y1="-0.5" x2="451.394" y2="-0.5" transform="matrix(0.93797 0.346717 -0.542532 0.840035 -7.04395 139.828)" stroke="#C4C4C4"/>
<line y1="-0.5" x2="451.394" y2="-0.5" transform="matrix(0.93797 0.346717 -0.542532 0.840035 -6.73877 122.32)" stroke="#C4C4C4"/>
<line y1="-0.5" x2="451.394" y2="-0.5" transform="matrix(0.93797 0.346717 -0.542532 0.840035 -6.43359 104.812)" stroke="#C4C4C4"/>
<line y1="-0.5" x2="451.394" y2="-0.5" transform="matrix(0.93797 0.346717 -0.542532 0.840035 -6.12793 87.3042)" stroke="#C4C4C4"/>
<line y1="-0.5" x2="451.394" y2="-0.5" transform="matrix(0.93797 0.346717 -0.542532 0.840035 -5.82275 69.7969)" stroke="#C4C4C4"/>
<line y1="-0.5" x2="451.394" y2="-0.5" transform="matrix(0.93797 0.346717 -0.542532 0.840035 -5.51807 52.2891)" stroke="#C4C4C4"/>
<line y1="-0.5" x2="451.394" y2="-0.5" transform="matrix(0.93797 0.346717 -0.542532 0.840035 -5.2124 34.7827)" stroke="#C4C4C4"/>
<line y1="-0.5" x2="451.394" y2="-0.5" transform="matrix(0.93797 0.346717 -0.542532 0.840035 -4.90381 17.2749)" stroke="#C4C4C4"/>
<line y1="-0.5" x2="451.394" y2="-0.5" transform="matrix(0.93797 0.346717 -0.542532 0.840035 -4.59863 -0.23291)" stroke="#C4C4C4"/>
<line y1="-0.5" x2="451.394" y2="-0.5" transform="matrix(0.93797 0.346717 -0.542532 0.840035 -4.29346 -17.7407)" stroke="#C4C4C4"/>
<line y1="-0.5" x2="451.394" y2="-0.5" transform="matrix(0.93797 0.346717 -0.542532 0.840035 -3.98779 -35.248)" stroke="#C4C4C4"/>
<line y1="-0.5" x2="451.394" y2="-0.5" transform="matrix(0.93797 0.346717 -0.542532 0.840035 -3.68262 -52.7544)" stroke="#C4C4C4"/>
<line y1="-0.5" x2="451.394" y2="-0.5" transform="matrix(0.93797 0.346717 -0.542532 0.840035 -3.37793 -70.2622)" stroke="#C4C4C4"/>
<line y1="-0.5" x2="451.394" y2="-0.5" transform="matrix(0.93797 0.346717 -0.542532 0.840035 -3.07227 -87.77)" stroke="#C4C4C4"/>
<line y1="-0.5" x2="451.394" y2="-0.5" transform="matrix(0.93797 0.346717 -0.542532 0.840035 -2.76709 -105.278)" stroke="#C4C4C4"/>
<line y1="-0.5" x2="451.394" y2="-0.5" transform="matrix(0.93797 0.346717 -0.542532 0.840035 -2.46191 -122.785)" stroke="#C4C4C4"/>
<line y1="-0.5" x2="451.394" y2="-0.5" transform="matrix(0.93797 0.346717 -0.542532 0.840035 -2.15625 -140.293)" stroke="#C4C4C4"/>
</g>
</svg>
