<?xml version="1.0" standalone="no"?>
<!DOCTYPE svg PUBLIC "-//W3C//DTD SVG 1.1//EN" "http://www.w3.org/Graphics/SVG/1.1/DTD/svg11.dtd" >
<svg>
<metadata>
Created by FontForge 20090622 at Sat Sep 12 17:59:29 2020
 By deploy user
Copyright &#194;&#169; 2019 by Colophon Foundry. All rights reserved.
</metadata>
<defs>
<font id="UbisoftSans-Regular" horiz-adv-x="0" >
  <font-face 
    font-family="Ubisoft Sans"
    font-weight="400"
    font-stretch="normal"
    units-per-em="1000"
    panose-1="2 0 5 4 3 0 0 2 0 4"
    ascent="800"
    descent="-200"
    x-height="490"
    cap-height="700"
    bbox="-357 -496 1224 1019"
    underline-thickness="50"
    underline-position="-50"
    unicode-range="U+0020-U+FEFC"
  />
<missing-glyph horiz-adv-x="505" 
d="M414 -210h-320v1010h320v-1010zM170 732v-33h65v-37h-66v-34h167v34h-66v37h66v33h-166zM169 602v-105h167v34h-66v71h-101zM235 531h-33v37h33v-37zM169 470v-34h66v-37h-66v-33h101v70h66v34h-167zM303 409v-67h-134v-34h167v101h-33zM235 286v-57h35v24h33v-48h-101
v81h-33v-114h167v114h-101zM169 111v-114h167v114h-167zM303 30h-101v48h101v-48zM169 -26v-34h70l-70 -47v-33h167v33h-103l71 47h32v34h-167z" />
    <glyph glyph-name="fi" unicode="fi" horiz-adv-x="524" 
d="M454 0h-84v418h-188v-418h-84v418h-60v72h60v60q0 75 41.5 118.5t103.5 43.5q34 0 58 -12v-80q-22 11 -45 11q-74 0 -74 -81v-60h272v-490zM372.5 604.5q-16.5 16.5 -16.5 39.5t16.5 39.5t39.5 16.5t39.5 -16.5t16.5 -39.5t-16.5 -39.5t-39.5 -16.5t-39.5 16.5z" />
    <glyph glyph-name="fl" unicode="fl" horiz-adv-x="508" 
d="M98 418h-60v72h60v60q0 75 41.5 118.5t103.5 43.5h205v-712h-84v631h-108q-74 0 -74 -81v-60h104v-72h-104v-418h-84v418z" />
    <glyph glyph-name="uniFEFB" unicode="&#xfedf;&#xfe8e;" horiz-adv-x="646" arabic-form="isolated" 
d="M576 700v-700h-536v80h226l-54 427l84 12l54 -439h142v620h84z" />
    <glyph glyph-name="uniFEFC" unicode="&#xfee0;&#xfe8e;" horiz-adv-x="676" arabic-form="final" 
d="M676 80v-80h-636v80h226l-54 427l84 12l54 -439h142v620h84v-620h100z" />
    <glyph glyph-name="uniFEF7" unicode="&#xfedf;&#xfe84;" horiz-adv-x="646" arabic-form="isolated" 
d="M576 700v-700h-536v80h226l-54 427l84 12l54 -439h142v620h84zM371 620v-50h-220v50h42q-17 23 -17 54q0 43 29 71.5t72 28.5q26 0 49 -10t39 -29l-38 -34q-19 23 -50 23q-23 0 -37 -14t-14 -36q0 -24 23 -39t61 -15h61z" />
    <glyph glyph-name="uniFEF8" unicode="&#xfee0;&#xfe84;" horiz-adv-x="676" arabic-form="final" 
d="M676 80v-80h-636v80h226l-54 427l84 12l54 -439h142v620h84v-620h100zM371 620v-50h-220v50h42q-17 23 -17 54q0 43 29 71.5t72 28.5q26 0 49 -10t39 -29l-38 -34q-19 23 -50 23q-23 0 -37 -14t-14 -36q0 -24 23 -39t61 -15h61z" />
    <glyph glyph-name="uniFEF9" unicode="&#xfedf;&#xfe88;" horiz-adv-x="646" arabic-form="isolated" 
d="M576 700v-700h-536v80h226l-54 427l84 12l54 -439h142v620h84zM430 -210v-50h-220v50h42q-17 23 -17 54q0 43 29 71.5t72 28.5q26 0 49 -10t39 -29l-38 -34q-19 23 -50 23q-23 0 -37 -14t-14 -36q0 -24 23 -39t61 -15h61z" />
    <glyph glyph-name="uniFEFA" unicode="&#xfee0;&#xfe88;" horiz-adv-x="676" arabic-form="final" 
d="M676 80v-80h-636v80h226l-54 427l84 12l54 -439h142v620h84v-620h100zM430 -210v-50h-220v50h42q-17 23 -17 54q0 43 29 71.5t72 28.5q26 0 49 -10t39 -29l-38 -34q-19 23 -50 23q-23 0 -37 -14t-14 -36q0 -24 23 -39t61 -15h61z" />
    <glyph glyph-name="uniFEF5" unicode="&#xfedf;&#xfe82;" horiz-adv-x="646" arabic-form="isolated" 
d="M576 700v-700h-536v80h226l-54 427l84 12l54 -439h142v620h84zM450 617q-32 -47 -84 -47q-28 0 -52.5 10t-55.5 29q-28 16 -45 23.5t-35 7.5q-43 0 -55 -41l-48 16q11 35 38.5 55t64.5 20q27 0 50.5 -10t54.5 -28q28 -17 45.5 -24.5t37.5 -7.5q14 0 24 5.5t20 19.5z" />
    <glyph glyph-name="uniFEF6" unicode="&#xfee0;&#xfe82;" horiz-adv-x="676" arabic-form="final" 
d="M676 80v-80h-636v80h226l-54 427l84 12l54 -439h142v620h84v-620h100zM450 617q-32 -47 -84 -47q-28 0 -52.5 10t-55.5 29q-28 16 -45 23.5t-35 7.5q-43 0 -55 -41l-48 16q11 35 38.5 55t64.5 20q27 0 50.5 -10t54.5 -28q28 -17 45.5 -24.5t37.5 -7.5q14 0 24 5.5
t20 19.5z" />
    <glyph glyph-name="uni06440671" unicode="&#xfedf;&#xfb51;" horiz-adv-x="646" 
d="M576 700v-700h-536v80h226l-54 427l84 12l54 -439h142v620h84zM358 713q28 -26 28 -72v-71h-271v50h43v137h50v-18h73q49 0 77 -26zM336 641q0 48 -55 48h-73v-69h128v21z" />
    <glyph glyph-name="uni06440671.fina" unicode="&#xfee0;&#xfb51;" horiz-adv-x="676" 
d="M676 80v-80h-636v80h226l-54 427l84 12l54 -439h142v620h84v-620h100zM358 713q28 -26 28 -72v-71h-271v50h43v137h50v-18h73q49 0 77 -26zM336 641q0 48 -55 48h-73v-69h128v21z" />
    <glyph glyph-name="uniFE8E" unicode="&#x627;" horiz-adv-x="254" arabic-form="final" 
d="M70 700h84v-620h100v-80h-184v700z" />
    <glyph glyph-name="uniFE84" unicode="&#x623;" horiz-adv-x="254" arabic-form="final" 
d="M70 700h84v-620h100v-80h-184v700zM222 800v-50h-220v50h42q-17 23 -17 54q0 43 29 71.5t72 28.5q26 0 49 -10t39 -29l-38 -34q-19 23 -50 23q-23 0 -37 -14t-14 -36q0 -24 23 -39t61 -15h61z" />
    <glyph glyph-name="uniFE88" unicode="&#x625;" horiz-adv-x="254" arabic-form="final" 
d="M70 700h84v-620h100v-80h-184v700zM222 -210v-50h-220v50h42q-17 23 -17 54q0 43 29 71.5t72 28.5q26 0 49 -10t39 -29l-38 -34q-19 23 -50 23q-23 0 -37 -14t-14 -36q0 -24 23 -39t61 -15h61z" />
    <glyph glyph-name="uniFE82" unicode="&#x622;" horiz-adv-x="254" arabic-form="final" 
d="M70 700h84v-620h100v-80h-184v700zM301 797q-32 -47 -84 -47q-28 0 -52.5 10t-55.5 29q-28 16 -45 23.5t-35 7.5q-43 0 -55 -41l-48 16q11 35 38.5 55t64.5 20q27 0 50.5 -10t54.5 -28q28 -17 45.5 -24.5t37.5 -7.5q14 0 24 5.5t20 19.5z" />
    <glyph glyph-name="uniFB51" unicode="&#x671;" horiz-adv-x="254" arabic-form="final" 
d="M70 700h84v-620h100v-80h-184v700zM209 893q28 -26 28 -72v-71h-271v50h43v137h50v-18h73q49 0 77 -26zM187 821q0 48 -55 48h-73v-69h128v21z" />
    <glyph glyph-name="uni066E.init" unicode="&#x66e;" horiz-adv-x="275" 
d="M205 420v-420h-205q-10 0 -17.5 9t-7.5 29q0 23 7.5 32.5t17.5 9.5h121v340h84z" />
    <glyph glyph-name="uni066E.medi" unicode="&#x66e;" horiz-adv-x="305" 
d="M305 80v-80h-305q-10 0 -17.5 9t-7.5 29q0 23 7.5 32.5t17.5 9.5h121v340h84v-340h100z" />
    <glyph glyph-name="uni066E.fina" unicode="&#x66e;" horiz-adv-x="894" 
d="M894 80v-80h-619q-116 0 -180.5 52t-64.5 146q0 83 54 165l70 -42q-21 -34 -30.5 -63t-9.5 -60q0 -56 42 -87t119 -31h435v340h84v-340h100z" />
    <glyph glyph-name="uniFE90" unicode="&#x628;" horiz-adv-x="894" arabic-form="final" 
d="M894 80v-80h-619q-116 0 -180.5 52t-64.5 146q0 83 54 165l70 -42q-21 -34 -30.5 -63t-9.5 -60q0 -56 42 -87t119 -31h435v340h84v-340h100zM395.5 -165.5q-14.5 14.5 -14.5 36.5t14.5 36.5t36.5 14.5t36.5 -14.5t14.5 -36.5t-14.5 -36.5t-36.5 -14.5t-36.5 14.5z" />
    <glyph glyph-name="uniFE92" unicode="&#x628;" horiz-adv-x="305" arabic-form="medial" 
d="M305 80v-80h-305q-10 0 -17.5 9t-7.5 29q0 23 7.5 32.5t17.5 9.5h121v340h84v-340h100zM106.5 -165.5q-14.5 14.5 -14.5 36.5t14.5 36.5t36.5 14.5t36.5 -14.5t14.5 -36.5t-14.5 -36.5t-36.5 -14.5t-36.5 14.5z" />
    <glyph glyph-name="uniFE91" unicode="&#x628;" horiz-adv-x="275" arabic-form="initial" 
d="M205 420v-420h-205q-10 0 -17.5 9t-7.5 29q0 23 7.5 32.5t17.5 9.5h121v340h84zM106.5 -165.5q-14.5 14.5 -14.5 36.5t14.5 36.5t36.5 14.5t36.5 -14.5t14.5 -36.5t-14.5 -36.5t-36.5 -14.5t-36.5 14.5z" />
    <glyph glyph-name="uniFE96" unicode="&#x62a;" horiz-adv-x="894" arabic-form="final" 
d="M894 80v-80h-619q-116 0 -180.5 52t-64.5 146q0 83 54 165l70 -42q-21 -34 -30.5 -63t-9.5 -60q0 -56 42 -87t119 -31h435v340h84v-340h100zM329.5 424.5q-14.5 14.5 -14.5 36.5t14.5 36.5t36.5 14.5t36.5 -14.5t14.5 -36.5t-14.5 -36.5t-36.5 -14.5t-36.5 14.5z
M461.5 424.5q-14.5 14.5 -14.5 36.5t14.5 36.5t36.5 14.5t36.5 -14.5t14.5 -36.5t-14.5 -36.5t-36.5 -14.5t-36.5 14.5z" />
    <glyph glyph-name="uniFE98" unicode="&#x62a;" horiz-adv-x="305" arabic-form="medial" 
d="M305 80v-80h-305q-10 0 -17.5 9t-7.5 29q0 23 7.5 32.5t17.5 9.5h121v340h84v-340h100zM60.5 554.5q-14.5 14.5 -14.5 36.5t14.5 36.5t36.5 14.5t36.5 -14.5t14.5 -36.5t-14.5 -36.5t-36.5 -14.5t-36.5 14.5zM192.5 554.5q-14.5 14.5 -14.5 36.5t14.5 36.5t36.5 14.5
t36.5 -14.5t14.5 -36.5t-14.5 -36.5t-36.5 -14.5t-36.5 14.5z" />
    <glyph glyph-name="uniFE97" unicode="&#x62a;" horiz-adv-x="275" arabic-form="initial" 
d="M205 420v-420h-205q-10 0 -17.5 9t-7.5 29q0 23 7.5 32.5t17.5 9.5h121v340h84zM60.5 554.5q-14.5 14.5 -14.5 36.5t14.5 36.5t36.5 14.5t36.5 -14.5t14.5 -36.5t-14.5 -36.5t-36.5 -14.5t-36.5 14.5zM192.5 554.5q-14.5 14.5 -14.5 36.5t14.5 36.5t36.5 14.5t36.5 -14.5
t14.5 -36.5t-14.5 -36.5t-36.5 -14.5t-36.5 14.5z" />
    <glyph glyph-name="uniFE9A" unicode="&#x62b;" horiz-adv-x="894" arabic-form="final" 
d="M894 80v-80h-619q-116 0 -180.5 52t-64.5 146q0 83 54 165l70 -42q-21 -34 -30.5 -63t-9.5 -60q0 -56 42 -87t119 -31h435v340h84v-340h100zM395.5 536.5q-14.5 14.5 -14.5 36.5t14.5 36.5t36.5 14.5t36.5 -14.5t14.5 -36.5t-14.5 -36.5t-36.5 -14.5t-36.5 14.5z
M329.5 424.5q-14.5 14.5 -14.5 36.5t14.5 36.5t36.5 14.5t36.5 -14.5t14.5 -36.5t-14.5 -36.5t-36.5 -14.5t-36.5 14.5zM461.5 424.5q-14.5 14.5 -14.5 36.5t14.5 36.5t36.5 14.5t36.5 -14.5t14.5 -36.5t-14.5 -36.5t-36.5 -14.5t-36.5 14.5z" />
    <glyph glyph-name="uniFE9C" unicode="&#x62b;" horiz-adv-x="305" arabic-form="medial" 
d="M305 80v-80h-305q-10 0 -17.5 9t-7.5 29q0 23 7.5 32.5t17.5 9.5h121v340h84v-340h100zM126.5 666.5q-14.5 14.5 -14.5 36.5t14.5 36.5t36.5 14.5t36.5 -14.5t14.5 -36.5t-14.5 -36.5t-36.5 -14.5t-36.5 14.5zM60.5 554.5q-14.5 14.5 -14.5 36.5t14.5 36.5t36.5 14.5
t36.5 -14.5t14.5 -36.5t-14.5 -36.5t-36.5 -14.5t-36.5 14.5zM192.5 554.5q-14.5 14.5 -14.5 36.5t14.5 36.5t36.5 14.5t36.5 -14.5t14.5 -36.5t-14.5 -36.5t-36.5 -14.5t-36.5 14.5z" />
    <glyph glyph-name="uniFE9B" unicode="&#x62b;" horiz-adv-x="275" arabic-form="initial" 
d="M205 420v-420h-205q-10 0 -17.5 9t-7.5 29q0 23 7.5 32.5t17.5 9.5h121v340h84zM126.5 666.5q-14.5 14.5 -14.5 36.5t14.5 36.5t36.5 14.5t36.5 -14.5t14.5 -36.5t-14.5 -36.5t-36.5 -14.5t-36.5 14.5zM60.5 554.5q-14.5 14.5 -14.5 36.5t14.5 36.5t36.5 14.5t36.5 -14.5
t14.5 -36.5t-14.5 -36.5t-36.5 -14.5t-36.5 14.5zM192.5 554.5q-14.5 14.5 -14.5 36.5t14.5 36.5t36.5 14.5t36.5 -14.5t14.5 -36.5t-14.5 -36.5t-36.5 -14.5t-36.5 14.5z" />
    <glyph glyph-name="uniFE9E" unicode="&#x62c;" horiz-adv-x="598" arabic-form="final" 
d="M598 80v-80h-384q-49 0 -74.5 -22.5t-25.5 -63.5t34 -62.5t102 -21.5h139v-80h-139q-102 0 -161 44t-59 120t50.5 121t133.5 45h221q-15 39 -26 105q-10 64 -20.5 98t-36 55.5t-74.5 21.5q-53 0 -115 -44l-44 62q39 31 82 46.5t83 15.5q80 0 123 -37t58 -83.5t27 -121.5
q8 -50 15 -75t16 -34t25 -9h50zM257.5 -51.5q14.5 14.5 36.5 14.5t36.5 -14.5t14.5 -36.5t-14.5 -36.5t-36.5 -14.5t-36.5 14.5t-14.5 36.5t14.5 36.5z" />
    <glyph glyph-name="uniFEA0" unicode="&#x62c;" horiz-adv-x="515" arabic-form="medial" 
d="M515 80v-80h-515q-10 0 -17.5 9t-7.5 29q0 23 7.5 32.5t17.5 9.5h352q-15 39 -26 105q-10 64 -20.5 98t-36 55.5t-74.5 21.5q-53 0 -115 -44l-44 62q39 31 82 46.5t83 15.5q80 0 123 -37t58 -83.5t27 -121.5q8 -50 15 -75t16 -34t25 -9h50zM164.5 -165.5
q-14.5 14.5 -14.5 36.5t14.5 36.5t36.5 14.5t36.5 -14.5t14.5 -36.5t-14.5 -36.5t-36.5 -14.5t-36.5 14.5z" />
    <glyph glyph-name="uniFE9F" unicode="&#x62c;" horiz-adv-x="505" arabic-form="initial" 
d="M424 123q7 -25 16 -34t25 -9v-80h-465q-10 0 -17.5 9t-7.5 29q0 23 7.5 32.5t17.5 9.5h352q-15 39 -26 105q-10 64 -20.5 98t-36 55.5t-74.5 21.5q-53 0 -115 -44l-44 62q39 31 82 46.5t83 15.5q80 0 123 -37t58 -83.5t27 -121.5q8 -50 15 -75zM164.5 -165.5
q-14.5 14.5 -14.5 36.5t14.5 36.5t36.5 14.5t36.5 -14.5t14.5 -36.5t-14.5 -36.5t-36.5 -14.5t-36.5 14.5z" />
    <glyph glyph-name="uniFEA2" unicode="&#x62d;" horiz-adv-x="598" arabic-form="final" 
d="M598 80v-80h-384q-49 0 -74.5 -22.5t-25.5 -63.5t34 -62.5t102 -21.5h139v-80h-139q-102 0 -161 44t-59 120t50.5 121t133.5 45h221q-15 39 -26 105q-10 64 -20.5 98t-36 55.5t-74.5 21.5q-53 0 -115 -44l-44 62q39 31 82 46.5t83 15.5q80 0 123 -37t58 -83.5t27 -121.5
q8 -50 15 -75t16 -34t25 -9h50z" />
    <glyph glyph-name="uniFEA4" unicode="&#x62d;" horiz-adv-x="515" arabic-form="medial" 
d="M515 80v-80h-515q-10 0 -17.5 9t-7.5 29q0 23 7.5 32.5t17.5 9.5h352q-15 39 -26 105q-10 64 -20.5 98t-36 55.5t-74.5 21.5q-53 0 -115 -44l-44 62q39 31 82 46.5t83 15.5q80 0 123 -37t58 -83.5t27 -121.5q8 -50 15 -75t16 -34t25 -9h50z" />
    <glyph glyph-name="uniFEA3" unicode="&#x62d;" horiz-adv-x="505" arabic-form="initial" 
d="M424 123q7 -25 16 -34t25 -9v-80h-465q-10 0 -17.5 9t-7.5 29q0 23 7.5 32.5t17.5 9.5h352q-15 39 -26 105q-10 64 -20.5 98t-36 55.5t-74.5 21.5q-53 0 -115 -44l-44 62q39 31 82 46.5t83 15.5q80 0 123 -37t58 -83.5t27 -121.5q8 -50 15 -75z" />
    <glyph glyph-name="uniFEA6" unicode="&#x62e;" horiz-adv-x="598" arabic-form="final" 
d="M598 80v-80h-384q-49 0 -74.5 -22.5t-25.5 -63.5t34 -62.5t102 -21.5h139v-80h-139q-102 0 -161 44t-59 120t50.5 121t133.5 45h221q-15 39 -26 105q-10 64 -20.5 98t-36 55.5t-74.5 21.5q-53 0 -115 -44l-44 62q39 31 82 46.5t83 15.5q80 0 123 -37t58 -83.5t27 -121.5
q8 -50 15 -75t16 -34t25 -9h50zM247.5 574.5q-14.5 14.5 -14.5 36.5t14.5 36.5t36.5 14.5t36.5 -14.5t14.5 -36.5t-14.5 -36.5t-36.5 -14.5t-36.5 14.5z" />
    <glyph glyph-name="uniFEA8" unicode="&#x62e;" horiz-adv-x="515" arabic-form="medial" 
d="M515 80v-80h-515q-10 0 -17.5 9t-7.5 29q0 23 7.5 32.5t17.5 9.5h352q-15 39 -26 105q-10 64 -20.5 98t-36 55.5t-74.5 21.5q-53 0 -115 -44l-44 62q39 31 82 46.5t83 15.5q80 0 123 -37t58 -83.5t27 -121.5q8 -50 15 -75t16 -34t25 -9h50zM164.5 574.5
q-14.5 14.5 -14.5 36.5t14.5 36.5t36.5 14.5t36.5 -14.5t14.5 -36.5t-14.5 -36.5t-36.5 -14.5t-36.5 14.5z" />
    <glyph glyph-name="uniFEA7" unicode="&#x62e;" horiz-adv-x="505" arabic-form="initial" 
d="M424 123q7 -25 16 -34t25 -9v-80h-465q-10 0 -17.5 9t-7.5 29q0 23 7.5 32.5t17.5 9.5h352q-15 39 -26 105q-10 64 -20.5 98t-36 55.5t-74.5 21.5q-53 0 -115 -44l-44 62q39 31 82 46.5t83 15.5q80 0 123 -37t58 -83.5t27 -121.5q8 -50 15 -75zM164.5 574.5
q-14.5 14.5 -14.5 36.5t14.5 36.5t36.5 14.5t36.5 -14.5t14.5 -36.5t-14.5 -36.5t-36.5 -14.5t-36.5 14.5z" />
    <glyph glyph-name="uniFEAA" unicode="&#x62f;" horiz-adv-x="486" arabic-form="final" 
d="M486 80v-80h-446v80h292q-5 83 -30 163.5t-67 148.5l72 42q47 -78 75.5 -170t33.5 -184h70z" />
    <glyph glyph-name="uniFEAC" unicode="&#x630;" horiz-adv-x="486" arabic-form="final" 
d="M486 80v-80h-446v80h292q-5 83 -30 163.5t-67 148.5l72 42q47 -78 75.5 -170t33.5 -184h70zM234.5 547.5q-14.5 14.5 -14.5 36.5t14.5 36.5t36.5 14.5t36.5 -14.5t14.5 -36.5t-14.5 -36.5t-36.5 -14.5t-36.5 14.5z" />
    <glyph glyph-name="uniFEAE" unicode="&#x631;" horiz-adv-x="380" arabic-form="final" 
d="M380 0h-102q-11 -99 -76 -154.5t-172 -55.5h-10v80h10q166 0 166 166v384h84v-340h100v-80z" />
    <glyph glyph-name="uniFEB0" unicode="&#x632;" horiz-adv-x="380" arabic-form="final" 
d="M380 0h-102q-11 -99 -76 -154.5t-172 -55.5h-10v80h10q166 0 166 166v384h84v-340h100v-80zM201.5 554.5q-14.5 14.5 -14.5 36.5t14.5 36.5t36.5 14.5t36.5 -14.5t14.5 -36.5t-14.5 -36.5t-36.5 -14.5t-36.5 14.5z" />
    <glyph glyph-name="uniFEB2" unicode="&#x633;" horiz-adv-x="1102" arabic-form="final" 
d="M1102 80v-80h-555q-18 -102 -83.5 -156t-171.5 -54q-125 0 -193.5 75.5t-68.5 212.5v182h84v-182q0 -105 44.5 -156.5t133.5 -51.5t133.5 51.5t44.5 156.5v342h84v-340h140v290h84v-290h140v340h84v-340h100z" />
    <glyph glyph-name="uniFEB4" unicode="&#x633;" horiz-adv-x="792" arabic-form="medial" 
d="M792 80v-80h-792q-10 0 -17.5 9t-7.5 29q0 23 7.5 32.5t17.5 9.5h160v290h84v-290h140v290h84v-290h140v340h84v-340h100z" />
    <glyph glyph-name="uniFEB3" unicode="&#x633;" horiz-adv-x="762" arabic-form="initial" 
d="M692 420v-420h-692q-10 0 -17.5 9t-7.5 29q0 23 7.5 32.5t17.5 9.5h160v290h84v-290h140v290h84v-290h140v340h84z" />
    <glyph glyph-name="uniFEB6" unicode="&#x634;" horiz-adv-x="1102" arabic-form="final" 
d="M1102 80v-80h-555q-18 -102 -83.5 -156t-171.5 -54q-125 0 -193.5 75.5t-68.5 212.5v182h84v-182q0 -105 44.5 -156.5t133.5 -51.5t133.5 51.5t44.5 156.5v342h84v-340h140v290h84v-290h140v340h84v-340h100zM699.5 616.5q-14.5 14.5 -14.5 36.5t14.5 36.5t36.5 14.5
t36.5 -14.5t14.5 -36.5t-14.5 -36.5t-36.5 -14.5t-36.5 14.5zM633.5 504.5q-14.5 14.5 -14.5 36.5t14.5 36.5t36.5 14.5t36.5 -14.5t14.5 -36.5t-14.5 -36.5t-36.5 -14.5t-36.5 14.5zM765.5 504.5q-14.5 14.5 -14.5 36.5t14.5 36.5t36.5 14.5t36.5 -14.5t14.5 -36.5
t-14.5 -36.5t-36.5 -14.5t-36.5 14.5z" />
    <glyph glyph-name="uniFEB8" unicode="&#x634;" horiz-adv-x="792" arabic-form="medial" 
d="M792 80v-80h-792q-10 0 -17.5 9t-7.5 29q0 23 7.5 32.5t17.5 9.5h160v290h84v-290h140v290h84v-290h140v340h84v-340h100zM389.5 616.5q-14.5 14.5 -14.5 36.5t14.5 36.5t36.5 14.5t36.5 -14.5t14.5 -36.5t-14.5 -36.5t-36.5 -14.5t-36.5 14.5zM323.5 504.5
q-14.5 14.5 -14.5 36.5t14.5 36.5t36.5 14.5t36.5 -14.5t14.5 -36.5t-14.5 -36.5t-36.5 -14.5t-36.5 14.5zM455.5 504.5q-14.5 14.5 -14.5 36.5t14.5 36.5t36.5 14.5t36.5 -14.5t14.5 -36.5t-14.5 -36.5t-36.5 -14.5t-36.5 14.5z" />
    <glyph glyph-name="uniFEB7" unicode="&#x634;" horiz-adv-x="762" arabic-form="initial" 
d="M692 420v-420h-692q-10 0 -17.5 9t-7.5 29q0 23 7.5 32.5t17.5 9.5h160v290h84v-290h140v290h84v-290h140v340h84zM389.5 616.5q-14.5 14.5 -14.5 36.5t14.5 36.5t36.5 14.5t36.5 -14.5t14.5 -36.5t-14.5 -36.5t-36.5 -14.5t-36.5 14.5zM323.5 504.5
q-14.5 14.5 -14.5 36.5t14.5 36.5t36.5 14.5t36.5 -14.5t14.5 -36.5t-14.5 -36.5t-36.5 -14.5t-36.5 14.5zM455.5 504.5q-14.5 14.5 -14.5 36.5t14.5 36.5t36.5 14.5t36.5 -14.5t14.5 -36.5t-14.5 -36.5t-36.5 -14.5t-36.5 14.5z" />
    <glyph glyph-name="uniFEBA" unicode="&#x635;" horiz-adv-x="1109" arabic-form="final" 
d="M1109 80v-80h-562q-18 -102 -83.5 -156t-171.5 -54q-125 0 -193.5 75.5t-68.5 212.5v182h84v-182q0 -105 44.5 -156.5t133.5 -51.5t133.5 51.5t44.5 156.5v382h84v-40h241q110 0 172 -56.5t62 -157.5v-126h80zM945 206q0 68 -37 101t-113 33h-241v-260h391v126z" />
    <glyph glyph-name="uniFEBC" unicode="&#x635;" horiz-adv-x="760" arabic-form="medial" 
d="M760 80v-80h-760q-10 0 -17.5 9t-7.5 29q0 23 7.5 32.5t17.5 9.5h121v380h84v-40h241q110 0 172 -56.5t62 -157.5v-126h80zM596 206q0 68 -37 101t-113 33h-241v-260h391v126z" />
    <glyph glyph-name="uniFEBB" unicode="&#x635;" horiz-adv-x="740" arabic-form="initial" 
d="M618 363.5q62 -56.5 62 -157.5v-206h-680q-10 0 -17.5 9t-7.5 29q0 23 7.5 32.5t17.5 9.5h121v380h84v-40h241q110 0 172 -56.5zM596 206q0 68 -37 101t-113 33h-241v-260h391v126z" />
    <glyph glyph-name="uniFEBE" unicode="&#x636;" horiz-adv-x="1109" arabic-form="final" 
d="M1109 80v-80h-562q-18 -102 -83.5 -156t-171.5 -54q-125 0 -193.5 75.5t-68.5 212.5v182h84v-182q0 -105 44.5 -156.5t133.5 -51.5t133.5 51.5t44.5 156.5v382h84v-40h241q110 0 172 -56.5t62 -157.5v-126h80zM945 206q0 68 -37 101t-113 33h-241v-260h391v126z
M691.5 554.5q-14.5 14.5 -14.5 36.5t14.5 36.5t36.5 14.5t36.5 -14.5t14.5 -36.5t-14.5 -36.5t-36.5 -14.5t-36.5 14.5z" />
    <glyph glyph-name="uniFEC0" unicode="&#x636;" horiz-adv-x="760" arabic-form="medial" 
d="M760 80v-80h-760q-10 0 -17.5 9t-7.5 29q0 23 7.5 32.5t17.5 9.5h121v380h84v-40h241q110 0 172 -56.5t62 -157.5v-126h80zM596 206q0 68 -37 101t-113 33h-241v-260h391v126zM333.5 554.5q-14.5 14.5 -14.5 36.5t14.5 36.5t36.5 14.5t36.5 -14.5t14.5 -36.5t-14.5 -36.5
t-36.5 -14.5t-36.5 14.5z" />
    <glyph glyph-name="uniFEBF" unicode="&#x636;" horiz-adv-x="740" arabic-form="initial" 
d="M618 363.5q62 -56.5 62 -157.5v-206h-680q-10 0 -17.5 9t-7.5 29q0 23 7.5 32.5t17.5 9.5h121v380h84v-40h241q110 0 172 -56.5zM596 206q0 68 -37 101t-113 33h-241v-260h391v126zM333.5 554.5q-14.5 14.5 -14.5 36.5t14.5 36.5t36.5 14.5t36.5 -14.5t14.5 -36.5
t-14.5 -36.5t-36.5 -14.5t-36.5 14.5z" />
    <glyph glyph-name="uniFEC2" unicode="&#x637;" horiz-adv-x="780" arabic-form="final" 
d="M780 80v-80h-760v80h121v620h84v-280h241q110 0 172 -56.5t62 -157.5v-126h80zM616 206q0 68 -37 101t-113 33h-241v-260h391v126z" />
    <glyph glyph-name="uniFEC4" unicode="&#x637;" horiz-adv-x="760" arabic-form="medial" 
d="M760 80v-80h-760q-10 0 -17.5 9t-7.5 29q0 23 7.5 32.5t17.5 9.5h121v620h84v-280h241q110 0 172 -56.5t62 -157.5v-126h80zM596 206q0 68 -37 101t-113 33h-241v-260h391v126z" />
    <glyph glyph-name="uniFEC3" unicode="&#x637;" horiz-adv-x="740" arabic-form="initial" 
d="M618 363.5q62 -56.5 62 -157.5v-206h-680q-10 0 -17.5 9t-7.5 29q0 23 7.5 32.5t17.5 9.5h121v620h84v-280h241q110 0 172 -56.5zM596 206q0 68 -37 101t-113 33h-241v-260h391v126z" />
    <glyph glyph-name="uniFEC6" unicode="&#x638;" horiz-adv-x="780" arabic-form="final" 
d="M780 80v-80h-760v80h121v620h84v-280h241q110 0 172 -56.5t62 -157.5v-126h80zM616 206q0 68 -37 101t-113 33h-241v-260h391v126zM403.5 554.5q-14.5 14.5 -14.5 36.5t14.5 36.5t36.5 14.5t36.5 -14.5t14.5 -36.5t-14.5 -36.5t-36.5 -14.5t-36.5 14.5z" />
    <glyph glyph-name="uniFEC8" unicode="&#x638;" horiz-adv-x="760" arabic-form="medial" 
d="M760 80v-80h-760q-10 0 -17.5 9t-7.5 29q0 23 7.5 32.5t17.5 9.5h121v620h84v-280h241q110 0 172 -56.5t62 -157.5v-126h80zM596 206q0 68 -37 101t-113 33h-241v-260h391v126zM379.5 554.5q-14.5 14.5 -14.5 36.5t14.5 36.5t36.5 14.5t36.5 -14.5t14.5 -36.5
t-14.5 -36.5t-36.5 -14.5t-36.5 14.5z" />
    <glyph glyph-name="uniFEC7" unicode="&#x638;" horiz-adv-x="740" arabic-form="initial" 
d="M618 363.5q62 -56.5 62 -157.5v-206h-680q-10 0 -17.5 9t-7.5 29q0 23 7.5 32.5t17.5 9.5h121v620h84v-280h241q110 0 172 -56.5zM596 206q0 68 -37 101t-113 33h-241v-260h391v126zM379.5 554.5q-14.5 14.5 -14.5 36.5t14.5 36.5t36.5 14.5t36.5 -14.5t14.5 -36.5
t-14.5 -36.5t-36.5 -14.5t-36.5 14.5z" />
    <glyph glyph-name="uniFECA" unicode="&#x639;" horiz-adv-x="575" arabic-form="final" 
d="M575 80v-80h-64q-83 0 -136 11t-87 35q-92 -40 -133 -71t-41 -68q0 -40 33 -58.5t103 -18.5h139v-80h-139q-103 0 -161.5 40.5t-58.5 116.5q0 67 50 112t159 92q-32 48 -74.5 99t-80.5 87v90q47 23 111 38t118 15q101 0 152.5 -38t51.5 -107q0 -107 -135 -204
q41 -11 129 -11h64zM238 352.5q-38 -7.5 -73 -19.5q41 -42 81.5 -93.5t69.5 -95.5q117 78 117 147q0 33 -31.5 51t-94.5 18q-31 0 -69 -7.5z" />
    <glyph glyph-name="uniFECC" unicode="&#x639;" horiz-adv-x="545" arabic-form="medial" 
d="M545 80v-80h-64q-78 0 -129.5 9.5t-85.5 31.5q-45 -20 -98 -30.5t-106 -10.5h-62q-10 0 -17.5 9t-7.5 29q0 23 7.5 32.5t17.5 9.5h62q81 0 150 26q-33 50 -76.5 102.5t-81.5 88.5v90q47 23 111 38t118 15q101 0 152.5 -38t51.5 -107q0 -107 -135 -204q41 -11 129 -11h64z
M208 352.5q-38 -7.5 -73 -19.5q41 -42 81.5 -93.5t69.5 -95.5q117 78 117 147q0 33 -31.5 51t-94.5 18q-31 0 -69 -7.5z" />
    <glyph glyph-name="uniFECB" unicode="&#x639;" horiz-adv-x="553" arabic-form="initial" 
d="M513 80v-80h-513q-10 0 -17.5 9t-7.5 29q0 23 7.5 32.5t17.5 9.5h5h136q-63 60 -63 146q0 60 29 109t79.5 77t112.5 28q56 0 107 -22.5t87 -63.5l-64 -52q-50 58 -130 58q-60 0 -98.5 -37.5t-38.5 -96.5q0 -43 25 -76t69 -51.5t99 -18.5h158z" />
    <glyph glyph-name="uniFECE" unicode="&#x63a;" horiz-adv-x="575" arabic-form="final" 
d="M575 80v-80h-64q-83 0 -136 11t-87 35q-92 -40 -133 -71t-41 -68q0 -40 33 -58.5t103 -18.5h139v-80h-139q-103 0 -161.5 40.5t-58.5 116.5q0 67 50 112t159 92q-32 48 -74.5 99t-80.5 87v90q47 23 111 38t118 15q101 0 152.5 -38t51.5 -107q0 -107 -135 -204
q41 -11 129 -11h64zM238 352.5q-38 -7.5 -73 -19.5q41 -42 81.5 -93.5t69.5 -95.5q117 78 117 147q0 33 -31.5 51t-94.5 18q-31 0 -69 -7.5zM276.5 574.5q-14.5 14.5 -14.5 36.5t14.5 36.5t36.5 14.5t36.5 -14.5t14.5 -36.5t-14.5 -36.5t-36.5 -14.5t-36.5 14.5z" />
    <glyph glyph-name="uniFED0" unicode="&#x63a;" horiz-adv-x="545" arabic-form="medial" 
d="M545 80v-80h-64q-78 0 -129.5 9.5t-85.5 31.5q-45 -20 -98 -30.5t-106 -10.5h-62q-10 0 -17.5 9t-7.5 29q0 23 7.5 32.5t17.5 9.5h62q81 0 150 26q-33 50 -76.5 102.5t-81.5 88.5v90q47 23 111 38t118 15q101 0 152.5 -38t51.5 -107q0 -107 -135 -204q41 -11 129 -11h64z
M208 352.5q-38 -7.5 -73 -19.5q41 -42 81.5 -93.5t69.5 -95.5q117 78 117 147q0 33 -31.5 51t-94.5 18q-31 0 -69 -7.5zM246.5 574.5q-14.5 14.5 -14.5 36.5t14.5 36.5t36.5 14.5t36.5 -14.5t14.5 -36.5t-14.5 -36.5t-36.5 -14.5t-36.5 14.5z" />
    <glyph glyph-name="uniFECF" unicode="&#x63a;" horiz-adv-x="553" arabic-form="initial" 
d="M513 80v-80h-513q-10 0 -17.5 9t-7.5 29q0 23 7.5 32.5t17.5 9.5h5h136q-63 60 -63 146q0 60 29 109t79.5 77t112.5 28q56 0 107 -22.5t87 -63.5l-64 -52q-50 58 -130 58q-60 0 -98.5 -37.5t-38.5 -96.5q0 -43 25 -76t69 -51.5t99 -18.5h158zM262.5 574.5
q-14.5 14.5 -14.5 36.5t14.5 36.5t36.5 14.5t36.5 -14.5t14.5 -36.5t-14.5 -36.5t-36.5 -14.5t-36.5 14.5z" />
    <glyph glyph-name="uniFED2" unicode="&#x641;" horiz-adv-x="1049" arabic-form="final" 
d="M1049 80v-80h-775q-116 0 -180.5 52t-64.5 146q0 83 54 165l70 -42q-21 -34 -30.5 -63t-9.5 -60q0 -56 42 -87t119 -31h308q-59 59 -59 146q0 59 28 108t76.5 77.5t107.5 28.5q100 0 157 -64t57 -175v-121h100zM865 80v121q0 78 -33.5 118.5t-96.5 40.5
q-55 0 -91.5 -38.5t-36.5 -95.5q0 -69 56 -107.5t157 -38.5h45zM698.5 574.5q-14.5 14.5 -14.5 36.5t14.5 36.5t36.5 14.5t36.5 -14.5t14.5 -36.5t-14.5 -36.5t-36.5 -14.5t-36.5 14.5z" />
    <glyph glyph-name="uniFED4" unicode="&#x641;" horiz-adv-x="584" arabic-form="medial" 
d="M584 80v-80h-584q-10 0 -17.5 9t-7.5 29q0 23 7.5 32.5t17.5 9.5h137q-59 59 -59 146q0 59 28 108t76.5 77.5t107.5 28.5q100 0 157 -64t57 -175v-121h80zM420 80v121q0 78 -33.5 118.5t-96.5 40.5q-55 0 -91.5 -38.5t-36.5 -95.5q0 -69 56 -107.5t157 -38.5h45z
M253.5 574.5q-14.5 14.5 -14.5 36.5t14.5 36.5t36.5 14.5t36.5 -14.5t14.5 -36.5t-14.5 -36.5t-36.5 -14.5t-36.5 14.5z" />
    <glyph glyph-name="uniFED3" unicode="&#x641;" horiz-adv-x="564" arabic-form="initial" 
d="M447 376q57 -64 57 -175v-201h-504q-10 0 -17.5 9t-7.5 29q0 23 7.5 32.5t17.5 9.5h137q-59 59 -59 146q0 59 28 108t76.5 77.5t107.5 28.5q100 0 157 -64zM420 80v121q0 78 -33.5 118.5t-96.5 40.5q-55 0 -91.5 -38.5t-36.5 -95.5q0 -69 56 -107.5t157 -38.5h45z
M253.5 574.5q-14.5 14.5 -14.5 36.5t14.5 36.5t36.5 14.5t36.5 -14.5t14.5 -36.5t-14.5 -36.5t-36.5 -14.5t-36.5 14.5z" />
    <glyph glyph-name="uniFB6B" unicode="&#x6a4;" horiz-adv-x="1049" arabic-form="final" 
d="M1049 80v-80h-775q-116 0 -180.5 52t-64.5 146q0 83 54 165l70 -42q-21 -34 -30.5 -63t-9.5 -60q0 -56 42 -87t119 -31h308q-59 59 -59 146q0 59 28 108t76.5 77.5t107.5 28.5q100 0 157 -64t57 -175v-121h100zM865 80v121q0 78 -33.5 118.5t-96.5 40.5
q-55 0 -91.5 -38.5t-36.5 -95.5q0 -69 56 -107.5t157 -38.5h45zM698.5 686.5q-14.5 14.5 -14.5 36.5t14.5 36.5t36.5 14.5t36.5 -14.5t14.5 -36.5t-14.5 -36.5t-36.5 -14.5t-36.5 14.5zM632.5 574.5q-14.5 14.5 -14.5 36.5t14.5 36.5t36.5 14.5t36.5 -14.5t14.5 -36.5
t-14.5 -36.5t-36.5 -14.5t-36.5 14.5zM764.5 574.5q-14.5 14.5 -14.5 36.5t14.5 36.5t36.5 14.5t36.5 -14.5t14.5 -36.5t-14.5 -36.5t-36.5 -14.5t-36.5 14.5z" />
    <glyph glyph-name="uniFB6D" unicode="&#x6a4;" horiz-adv-x="584" arabic-form="medial" 
d="M584 80v-80h-584q-10 0 -17.5 9t-7.5 29q0 23 7.5 32.5t17.5 9.5h137q-59 59 -59 146q0 59 28 108t76.5 77.5t107.5 28.5q100 0 157 -64t57 -175v-121h80zM420 80v121q0 78 -33.5 118.5t-96.5 40.5q-55 0 -91.5 -38.5t-36.5 -95.5q0 -69 56 -107.5t157 -38.5h45z
M253.5 686.5q-14.5 14.5 -14.5 36.5t14.5 36.5t36.5 14.5t36.5 -14.5t14.5 -36.5t-14.5 -36.5t-36.5 -14.5t-36.5 14.5zM187.5 574.5q-14.5 14.5 -14.5 36.5t14.5 36.5t36.5 14.5t36.5 -14.5t14.5 -36.5t-14.5 -36.5t-36.5 -14.5t-36.5 14.5zM319.5 574.5
q-14.5 14.5 -14.5 36.5t14.5 36.5t36.5 14.5t36.5 -14.5t14.5 -36.5t-14.5 -36.5t-36.5 -14.5t-36.5 14.5z" />
    <glyph glyph-name="uniFB6C" unicode="&#x6a4;" horiz-adv-x="564" arabic-form="initial" 
d="M447 376q57 -64 57 -175v-201h-504q-10 0 -17.5 9t-7.5 29q0 23 7.5 32.5t17.5 9.5h137q-59 59 -59 146q0 59 28 108t76.5 77.5t107.5 28.5q100 0 157 -64zM420 80v121q0 78 -33.5 118.5t-96.5 40.5q-55 0 -91.5 -38.5t-36.5 -95.5q0 -69 56 -107.5t157 -38.5h45z
M253.5 686.5q-14.5 14.5 -14.5 36.5t14.5 36.5t36.5 14.5t36.5 -14.5t14.5 -36.5t-14.5 -36.5t-36.5 -14.5t-36.5 14.5zM187.5 574.5q-14.5 14.5 -14.5 36.5t14.5 36.5t36.5 14.5t36.5 -14.5t14.5 -36.5t-14.5 -36.5t-36.5 -14.5t-36.5 14.5zM319.5 574.5
q-14.5 14.5 -14.5 36.5t14.5 36.5t36.5 14.5t36.5 -14.5t14.5 -36.5t-14.5 -36.5t-36.5 -14.5t-36.5 14.5z" />
    <glyph glyph-name="uni06A1.init" unicode="&#x6a1;" horiz-adv-x="564" 
d="M447 376q57 -64 57 -175v-201h-504q-10 0 -17.5 9t-7.5 29q0 23 7.5 32.5t17.5 9.5h137q-59 59 -59 146q0 59 28 108t76.5 77.5t107.5 28.5q100 0 157 -64zM420 80v121q0 78 -33.5 118.5t-96.5 40.5q-55 0 -91.5 -38.5t-36.5 -95.5q0 -69 56 -107.5t157 -38.5h45z" />
    <glyph glyph-name="uni06A1.medi" unicode="&#x6a1;" horiz-adv-x="584" 
d="M584 80v-80h-584q-10 0 -17.5 9t-7.5 29q0 23 7.5 32.5t17.5 9.5h137q-59 59 -59 146q0 59 28 108t76.5 77.5t107.5 28.5q100 0 157 -64t57 -175v-121h80zM420 80v121q0 78 -33.5 118.5t-96.5 40.5q-55 0 -91.5 -38.5t-36.5 -95.5q0 -69 56 -107.5t157 -38.5h45z" />
    <glyph glyph-name="uni06A1.fina" unicode="&#x6a1;" horiz-adv-x="1049" 
d="M1049 80v-80h-775q-116 0 -180.5 52t-64.5 146q0 83 54 165l70 -42q-21 -34 -30.5 -63t-9.5 -60q0 -56 42 -87t119 -31h308q-59 59 -59 146q0 59 28 108t76.5 77.5t107.5 28.5q100 0 157 -64t57 -175v-121h100zM865 80v121q0 78 -33.5 118.5t-96.5 40.5
q-55 0 -91.5 -38.5t-36.5 -95.5q0 -69 56 -107.5t157 -38.5h45z" />
    <glyph glyph-name="uni066F.fina" unicode="&#x66f;" horiz-adv-x="851" 
d="M851 0h-89q-25 -102 -118.5 -156t-243.5 -54q-177 0 -273.5 75t-96.5 213v182h84v-182q0 -103 71.5 -155.5t214.5 -52.5q226 0 274 130h-32q-90 0 -157 27.5t-103.5 78.5t-36.5 120q0 59 28 108t76.5 77.5t107.5 28.5q100 0 157 -64t57 -175v-121h80v-80zM485 118.5
q56 -38.5 157 -38.5h45v121q0 78 -33.5 118.5t-96.5 40.5q-55 0 -91.5 -38.5t-36.5 -95.5q0 -69 56 -107.5z" />
    <glyph glyph-name="uniFED6" unicode="&#x642;" horiz-adv-x="851" arabic-form="final" 
d="M851 0h-89q-25 -102 -118.5 -156t-243.5 -54q-177 0 -273.5 75t-96.5 213v182h84v-182q0 -103 71.5 -155.5t214.5 -52.5q226 0 274 130h-32q-90 0 -157 27.5t-103.5 78.5t-36.5 120q0 59 28 108t76.5 77.5t107.5 28.5q100 0 157 -64t57 -175v-121h80v-80zM485 118.5
q56 -38.5 157 -38.5h45v121q0 78 -33.5 118.5t-96.5 40.5q-55 0 -91.5 -38.5t-36.5 -95.5q0 -69 56 -107.5zM454.5 574.5q-14.5 14.5 -14.5 36.5t14.5 36.5t36.5 14.5t36.5 -14.5t14.5 -36.5t-14.5 -36.5t-36.5 -14.5t-36.5 14.5zM586.5 574.5q-14.5 14.5 -14.5 36.5
t14.5 36.5t36.5 14.5t36.5 -14.5t14.5 -36.5t-14.5 -36.5t-36.5 -14.5t-36.5 14.5z" />
    <glyph glyph-name="uniFED8" unicode="&#x642;" horiz-adv-x="584" arabic-form="medial" 
d="M584 80v-80h-584q-10 0 -17.5 9t-7.5 29q0 23 7.5 32.5t17.5 9.5h137q-59 59 -59 146q0 59 28 108t76.5 77.5t107.5 28.5q100 0 157 -64t57 -175v-121h80zM420 80v121q0 78 -33.5 118.5t-96.5 40.5q-55 0 -91.5 -38.5t-36.5 -95.5q0 -69 56 -107.5t157 -38.5h45z
M187.5 574.5q-14.5 14.5 -14.5 36.5t14.5 36.5t36.5 14.5t36.5 -14.5t14.5 -36.5t-14.5 -36.5t-36.5 -14.5t-36.5 14.5zM319.5 574.5q-14.5 14.5 -14.5 36.5t14.5 36.5t36.5 14.5t36.5 -14.5t14.5 -36.5t-14.5 -36.5t-36.5 -14.5t-36.5 14.5z" />
    <glyph glyph-name="uniFED7" unicode="&#x642;" horiz-adv-x="564" arabic-form="initial" 
d="M447 376q57 -64 57 -175v-201h-504q-10 0 -17.5 9t-7.5 29q0 23 7.5 32.5t17.5 9.5h137q-59 59 -59 146q0 59 28 108t76.5 77.5t107.5 28.5q100 0 157 -64zM420 80v121q0 78 -33.5 118.5t-96.5 40.5q-55 0 -91.5 -38.5t-36.5 -95.5q0 -69 56 -107.5t157 -38.5h45z
M187.5 574.5q-14.5 14.5 -14.5 36.5t14.5 36.5t36.5 14.5t36.5 -14.5t14.5 -36.5t-14.5 -36.5t-36.5 -14.5t-36.5 14.5zM319.5 574.5q-14.5 14.5 -14.5 36.5t14.5 36.5t36.5 14.5t36.5 -14.5t14.5 -36.5t-14.5 -36.5t-36.5 -14.5t-36.5 14.5z" />
    <glyph glyph-name="uniFEDA" unicode="&#x643;" horiz-adv-x="893" arabic-form="final" 
d="M893 80v-80h-619q-116 0 -180.5 52t-64.5 146q0 83 54 165l70 -42q-21 -34 -30.5 -63t-9.5 -60q0 -56 42 -87t119 -31h435v620h84v-620h100zM329 265v50h42q-17 23 -17 54q0 43 29 71.5t72 28.5q26 0 49 -10t39 -29l-38 -34q-19 23 -50 23q-23 0 -37 -14t-14 -36
q0 -24 23 -39t61 -15h61v-50h-220z" />
    <glyph glyph-name="uniFEDC" unicode="&#x643;" horiz-adv-x="476" arabic-form="medial" 
d="M476 80v-80h-476q-10 0 -17.5 9t-7.5 29q0 23 7.5 32.5t17.5 9.5h321q-8 103 -64 173.5t-163 114.5v103l236 210l56 -60l-215 -190q109 -61 167.5 -148t67.5 -203h70z" />
    <glyph glyph-name="uniFEDB" unicode="&#x643;" horiz-adv-x="457" arabic-form="initial" 
d="M348.5 268q58.5 -97 58.5 -229q0 -26 -1 -39h-406q-10 0 -17.5 9t-7.5 29q0 23 7.5 32.5t17.5 9.5h321q-8 103 -64 173.5t-163 114.5v103l236 210l56 -60l-215 -190q119 -66 177.5 -163z" />
    <glyph glyph-name="uniFEDE" unicode="&#x644;" horiz-adv-x="654" arabic-form="final" 
d="M654 0h-107q-18 -102 -83.5 -156t-171.5 -54q-125 0 -193.5 75.5t-68.5 212.5v182h84v-182q0 -105 44.5 -156.5t133.5 -51.5t133.5 51.5t44.5 156.5v621h84v-619h100v-80z" />
    <glyph glyph-name="uniFEE0" unicode="&#x644;" horiz-adv-x="305" arabic-form="medial" 
d="M305 80v-80h-305q-10 0 -17.5 9t-7.5 29q0 23 7.5 32.5t17.5 9.5h121v620h84v-620h100z" />
    <glyph glyph-name="uniFEDF" unicode="&#x644;" horiz-adv-x="275" arabic-form="initial" 
d="M205 700v-700h-205q-10 0 -17.5 9t-7.5 29q0 23 7.5 32.5t17.5 9.5h121v620h84z" />
    <glyph glyph-name="uniFEE2" unicode="&#x645;" horiz-adv-x="739" arabic-form="final" 
d="M739 0h-138q-28 -29 -67.5 -45t-87.5 -16t-88 15.5t-68 45.5h-40q-59 0 -87.5 -29.5t-28.5 -90.5v-130h-84v130q0 92 51 145t142 55q-12 36 -12 80q0 65 27 115t75.5 77.5t112.5 27.5q63 0 111.5 -27.5t75 -77.5t26.5 -115q0 -44 -12 -80h92v-80zM539.5 57.5
q35.5 38.5 35.5 102.5q0 63 -35.5 101.5t-93.5 38.5q-59 0 -95 -38.5t-36 -101.5q0 -64 36 -102.5t95 -38.5q58 0 93.5 38.5z" />
    <glyph glyph-name="uniFEE4" unicode="&#x645;" horiz-adv-x="586" arabic-form="medial" 
d="M586 0h-138q-28 -29 -67.5 -45t-87.5 -16t-88 15.5t-68 45.5h-137q-10 0 -17.5 9t-7.5 29q0 23 7.5 32.5t17.5 9.5h90q-12 36 -12 80q0 65 27 115t75.5 77.5t112.5 27.5q63 0 111.5 -27.5t75 -77.5t26.5 -115q0 -44 -12 -80h92v-80zM386.5 57.5q35.5 38.5 35.5 102.5
q0 63 -35.5 101.5t-93.5 38.5q-59 0 -95 -38.5t-36 -101.5q0 -64 36 -102.5t95 -38.5q58 0 93.5 38.5z" />
    <glyph glyph-name="uniFEE3" unicode="&#x645;" horiz-adv-x="551" arabic-form="initial" 
d="M404.5 352.5q48.5 -27.5 75 -77.5t26.5 -115q0 -66 -26.5 -116t-75 -77.5t-111.5 -27.5q-48 0 -88 15.5t-68 45.5h-137q-10 0 -17.5 9t-7.5 29q0 23 7.5 32.5t17.5 9.5h90q-12 36 -12 80q0 65 27 115t75.5 77.5t112.5 27.5q63 0 111.5 -27.5zM386.5 57.5
q35.5 38.5 35.5 102.5q0 63 -35.5 101.5t-93.5 38.5q-59 0 -95 -38.5t-36 -101.5q0 -64 36 -102.5t95 -38.5q58 0 93.5 38.5z" />
    <glyph glyph-name="uniFEE6" unicode="&#x646;" horiz-adv-x="654" arabic-form="final" 
d="M654 0h-107q-18 -102 -83.5 -156t-171.5 -54q-125 0 -193.5 75.5t-68.5 212.5v182h84v-182q0 -105 44.5 -156.5t133.5 -51.5t133.5 51.5t44.5 156.5v342h84v-340h100v-80zM255.5 434.5q-14.5 14.5 -14.5 36.5t14.5 36.5t36.5 14.5t36.5 -14.5t14.5 -36.5t-14.5 -36.5
t-36.5 -14.5t-36.5 14.5z" />
    <glyph glyph-name="uniFEE8" unicode="&#x646;" horiz-adv-x="305" arabic-form="medial" 
d="M305 80v-80h-305q-10 0 -17.5 9t-7.5 29q0 23 7.5 32.5t17.5 9.5h121v340h84v-340h100zM126.5 554.5q-14.5 14.5 -14.5 36.5t14.5 36.5t36.5 14.5t36.5 -14.5t14.5 -36.5t-14.5 -36.5t-36.5 -14.5t-36.5 14.5z" />
    <glyph glyph-name="uniFEE7" unicode="&#x646;" horiz-adv-x="275" arabic-form="initial" 
d="M205 420v-420h-205q-10 0 -17.5 9t-7.5 29q0 23 7.5 32.5t17.5 9.5h121v340h84zM126.5 554.5q-14.5 14.5 -14.5 36.5t14.5 36.5t36.5 14.5t36.5 -14.5t14.5 -36.5t-14.5 -36.5t-36.5 -14.5t-36.5 14.5z" />
    <glyph glyph-name="uniFB9F" unicode="&#x6ba;" horiz-adv-x="654" arabic-form="final" 
d="M654 0h-107q-18 -102 -83.5 -156t-171.5 -54q-125 0 -193.5 75.5t-68.5 212.5v182h84v-182q0 -105 44.5 -156.5t133.5 -51.5t133.5 51.5t44.5 156.5v342h84v-340h100v-80z" />
    <glyph glyph-name="uniFEEA" unicode="&#x647;" horiz-adv-x="565" arabic-form="final" 
d="M565 80v-80h-16q-59 0 -102.5 18t-66.5 51q-66 -38 -136 -38q-63 0 -111.5 24t-75.5 68t-27 101q0 65 30.5 114t86.5 75.5t131 26.5h79v43h84v-336q0 -67 108 -67h16zM148.5 141q34.5 -30 95.5 -30q28 0 57.5 10.5t55.5 29.5v209h-79q-79 0 -121.5 -35.5t-42.5 -100.5
q0 -53 34.5 -83z" />
    <glyph glyph-name="uniFEEC" unicode="&#x647;" horiz-adv-x="534" arabic-form="medial" 
d="M534 0h-93q13 -34 13 -64q0 -80 -48 -125.5t-130 -45.5q-95 0 -145 51t-50 149v35h-81q-10 0 -17.5 9t-7.5 29q0 23 7.5 32.5t17.5 9.5h81v123q0 109 52 173t142 64q82 0 131.5 -57t49.5 -150q0 -85 -44 -153h122v-80zM165 80h133q34 22 54 62.5t20 90.5q0 60 -26 93.5
t-71 33.5q-52 0 -81 -40.5t-29 -116.5v-123zM363 -31q-7 17 -18 31h-180v-35q0 -63 27.5 -91.5t83.5 -28.5q94 0 94 91q0 16 -7 33z" />
    <glyph glyph-name="uniFEEB" unicode="&#x647;" horiz-adv-x="636" arabic-form="initial" 
d="M434.5 425.5q67.5 -34.5 104.5 -99.5t37 -152v-174h-576q-10 0 -17.5 9t-7.5 29q0 23 7.5 32.5t17.5 9.5h128q-16 32 -16 67q0 64 40.5 105.5t102.5 41.5t102.5 -41.5t40.5 -105.5q0 -35 -16 -67h110v94q0 97 -59.5 151.5t-155.5 54.5q-84 0 -162 -49l-44 68
q46 29 100.5 45t105.5 16q90 0 157.5 -34.5zM212.5 198.5q-16.5 -19.5 -16.5 -51.5t16.5 -51.5t42.5 -19.5t42.5 19.5t16.5 51.5t-16.5 51.5t-42.5 19.5t-42.5 -19.5z" />
    <glyph glyph-name="uniFE94" unicode="&#x629;" horiz-adv-x="565" arabic-form="final" 
d="M565 80v-80h-16q-59 0 -102.5 18t-66.5 51q-66 -38 -136 -38q-63 0 -111.5 24t-75.5 68t-27 101q0 65 30.5 114t86.5 75.5t131 26.5h79v43h84v-336q0 -67 108 -67h16zM148.5 141q34.5 -30 95.5 -30q28 0 57.5 10.5t55.5 29.5v209h-79q-79 0 -121.5 -35.5t-42.5 -100.5
q0 -53 34.5 -83zM155.5 574.5q-14.5 14.5 -14.5 36.5t14.5 36.5t36.5 14.5t36.5 -14.5t14.5 -36.5t-14.5 -36.5t-36.5 -14.5t-36.5 14.5zM287.5 574.5q-14.5 14.5 -14.5 36.5t14.5 36.5t36.5 14.5t36.5 -14.5t14.5 -36.5t-14.5 -36.5t-36.5 -14.5t-36.5 14.5z" />
    <glyph glyph-name="uniFEEE" unicode="&#x648;" horiz-adv-x="564" arabic-form="final" 
d="M564 0h-82q-10 -102 -75 -156t-179 -54h-78v80h78q79 0 120.5 31.5t49.5 98.5h-43q-90 0 -157 27.5t-103.5 78.5t-36.5 120q0 59 28 108t76.5 77.5t107.5 28.5q100 0 157 -64t57 -175v-121h80v-80zM198 118.5q56 -38.5 157 -38.5h45v121q0 78 -33.5 118.5t-96.5 40.5
q-55 0 -91.5 -38.5t-36.5 -95.5q0 -69 56 -107.5z" />
    <glyph glyph-name="uniFE86" unicode="&#x624;" horiz-adv-x="564" arabic-form="final" 
d="M564 0h-82q-10 -102 -75 -156t-179 -54h-78v80h78q79 0 120.5 31.5t49.5 98.5h-43q-90 0 -157 27.5t-103.5 78.5t-36.5 120q0 59 28 108t76.5 77.5t107.5 28.5q100 0 157 -64t57 -175v-121h80v-80zM198 118.5q56 -38.5 157 -38.5h45v121q0 78 -33.5 118.5t-96.5 40.5
q-55 0 -91.5 -38.5t-36.5 -95.5q0 -69 56 -107.5zM378 590v-60h-254v60h46q-20 28 -20 64q0 51 34.5 85t85.5 34q30 0 57 -12t47 -35l-44 -40q-25 27 -60 27q-27 0 -43.5 -16.5t-16.5 -42.5q0 -29 27 -46.5t72 -17.5h69z" />
    <glyph glyph-name="uniFEF0" unicode="&#x649;" horiz-adv-x="853" arabic-form="final" 
d="M853 80v-80h-34q-37 0 -65 4q3 -15 3 -31q0 -88 -94 -135.5t-263 -47.5q-177 0 -273.5 75t-96.5 213v182h84v-182q0 -103 71.5 -155.5t214.5 -52.5q130 0 201.5 28t71.5 75q0 16 -5.5 28.5t-19.5 24.5q-54 16 -122 44l32 74q90 -37 145 -50.5t116 -13.5h34z" />
    <glyph glyph-name="uniFEF2" unicode="&#x64a;" horiz-adv-x="853" arabic-form="final" 
d="M853 80v-80h-34q-37 0 -65 4q3 -15 3 -31q0 -88 -94 -135.5t-263 -47.5q-177 0 -273.5 75t-96.5 213v182h84v-182q0 -103 71.5 -155.5t214.5 -52.5q130 0 201.5 28t71.5 75q0 16 -5.5 28.5t-19.5 24.5q-54 16 -122 44l32 74q90 -37 145 -50.5t116 -13.5h34zM297.5 -375.5
q-14.5 14.5 -14.5 36.5t14.5 36.5t36.5 14.5t36.5 -14.5t14.5 -36.5t-14.5 -36.5t-36.5 -14.5t-36.5 14.5zM429.5 -375.5q-14.5 14.5 -14.5 36.5t14.5 36.5t36.5 14.5t36.5 -14.5t14.5 -36.5t-14.5 -36.5t-36.5 -14.5t-36.5 14.5z" />
    <glyph glyph-name="uniFEF4" unicode="&#x64a;" horiz-adv-x="305" arabic-form="medial" 
d="M305 80v-80h-305q-10 0 -17.5 9t-7.5 29q0 23 7.5 32.5t17.5 9.5h121v340h84v-340h100zM40.5 -165.5q-14.5 14.5 -14.5 36.5t14.5 36.5t36.5 14.5t36.5 -14.5t14.5 -36.5t-14.5 -36.5t-36.5 -14.5t-36.5 14.5zM172.5 -165.5q-14.5 14.5 -14.5 36.5t14.5 36.5t36.5 14.5
t36.5 -14.5t14.5 -36.5t-14.5 -36.5t-36.5 -14.5t-36.5 14.5z" />
    <glyph glyph-name="uniFEF3" unicode="&#x64a;" horiz-adv-x="275" arabic-form="initial" 
d="M205 420v-420h-205q-10 0 -17.5 9t-7.5 29q0 23 7.5 32.5t17.5 9.5h121v340h84zM40.5 -165.5q-14.5 14.5 -14.5 36.5t14.5 36.5t36.5 14.5t36.5 -14.5t14.5 -36.5t-14.5 -36.5t-36.5 -14.5t-36.5 14.5zM172.5 -165.5q-14.5 14.5 -14.5 36.5t14.5 36.5t36.5 14.5
t36.5 -14.5t14.5 -36.5t-14.5 -36.5t-36.5 -14.5t-36.5 14.5z" />
    <glyph glyph-name="uniFE8A" unicode="&#x626;" horiz-adv-x="853" arabic-form="final" 
d="M853 80v-80h-34q-37 0 -65 4q3 -15 3 -31q0 -88 -94 -135.5t-263 -47.5q-177 0 -273.5 75t-96.5 213v182h84v-182q0 -103 71.5 -155.5t214.5 -52.5q130 0 201.5 28t71.5 75q0 16 -5.5 28.5t-19.5 24.5q-54 16 -122 44l32 74q90 -37 145 -50.5t116 -13.5h34zM282 414v-60
h-254v60h46q-20 28 -20 64q0 51 34.5 85t85.5 34q30 0 57 -12t47 -35l-44 -40q-25 27 -60 27q-27 0 -43.5 -16.5t-16.5 -42.5q0 -29 27 -46.5t72 -17.5h69z" />
    <glyph glyph-name="uniFE8C" unicode="&#x626;" horiz-adv-x="305" arabic-form="medial" 
d="M305 80v-80h-305q-10 0 -17.5 9t-7.5 29q0 23 7.5 32.5t17.5 9.5h121v340h84v-340h100zM271 570v-60h-254v60h46q-20 28 -20 64q0 51 34.5 85t85.5 34q30 0 57 -12t47 -35l-44 -40q-25 27 -60 27q-27 0 -43.5 -16.5t-16.5 -42.5q0 -29 27 -46.5t72 -17.5h69z" />
    <glyph glyph-name="uniFE8B" unicode="&#x626;" horiz-adv-x="275" arabic-form="initial" 
d="M205 420v-420h-205q-10 0 -17.5 9t-7.5 29q0 23 7.5 32.5t17.5 9.5h121v340h84zM271 570v-60h-254v60h46q-20 28 -20 64q0 51 34.5 85t85.5 34q30 0 57 -12t47 -35l-44 -40q-25 27 -60 27q-27 0 -43.5 -16.5t-16.5 -42.5q0 -29 27 -46.5t72 -17.5h69z" />
    <glyph glyph-name=".notdef" horiz-adv-x="505" 
d="M414 -210h-320v1010h320v-1010zM170 732v-33h65v-37h-66v-34h167v34h-66v37h66v33h-166zM169 602v-105h167v34h-66v71h-101zM235 531h-33v37h33v-37zM169 470v-34h66v-37h-66v-33h101v70h66v34h-167zM303 409v-67h-134v-34h167v101h-33zM235 286v-57h35v24h33v-48h-101
v81h-33v-114h167v114h-101zM169 111v-114h167v114h-167zM303 30h-101v48h101v-48zM169 -26v-34h70l-70 -47v-33h167v33h-103l71 47h32v34h-167z" />
    <glyph glyph-name="space" unicode=" " horiz-adv-x="230" 
 />
    <glyph glyph-name="A" unicode="A" horiz-adv-x="702" 
d="M295 700h112l263 -700h-94l-58 159h-334l-58 -159h-94zM491 233l-113 305l-24 84h-6l-24 -84l-113 -305h280z" />
    <glyph glyph-name="Aacute" unicode="&#xc1;" horiz-adv-x="702" 
d="M295 700h112l263 -700h-94l-58 159h-334l-58 -159h-94zM491 233l-113 305l-24 84h-6l-24 -84l-113 -305h280zM361 930h111l-81 -142h-81z" />
    <glyph glyph-name="Abreve" unicode="&#x102;" horiz-adv-x="702" 
d="M295 700h112l263 -700h-94l-58 159h-334l-58 -159h-94zM491 233l-113 305l-24 84h-6l-24 -84l-113 -305h280zM263.5 814q-33.5 32 -35.5 87h74q2 -22 15.5 -35.5t33.5 -13.5t33 13.5t15 35.5h74q-1 -54 -34.5 -86.5t-87.5 -32.5t-87.5 32z" />
    <glyph glyph-name="Acircumflex" unicode="&#xc2;" horiz-adv-x="702" 
d="M295 700h112l263 -700h-94l-58 159h-334l-58 -159h-94zM491 233l-113 305l-24 84h-6l-24 -84l-113 -305h280zM326 923h50l120 -134h-88l-57 60l-57 -60h-88z" />
    <glyph glyph-name="Adieresis" unicode="&#xc4;" horiz-adv-x="702" 
d="M295 700h112l263 -700h-94l-58 159h-334l-58 -159h-94zM491 233l-113 305l-24 84h-6l-24 -84l-113 -305h280zM225.5 814.5q-17.5 17.5 -17.5 41.5t17.5 41.5t41.5 17.5t41.5 -17.5t17.5 -41.5t-17.5 -41.5t-41.5 -17.5t-41.5 17.5zM392.5 814.5q-17.5 17.5 -17.5 41.5
t17.5 41.5t41.5 17.5t41.5 -17.5t17.5 -41.5t-17.5 -41.5t-41.5 -17.5t-41.5 17.5z" />
    <glyph glyph-name="Agrave" unicode="&#xc0;" horiz-adv-x="702" 
d="M295 700h112l263 -700h-94l-58 159h-334l-58 -159h-94zM491 233l-113 305l-24 84h-6l-24 -84l-113 -305h280zM229 930h111l51 -142h-81z" />
    <glyph glyph-name="Amacron" unicode="&#x100;" horiz-adv-x="702" 
d="M295 700h112l263 -700h-94l-58 159h-334l-58 -159h-94zM491 233l-113 305l-24 84h-6l-24 -84l-113 -305h280zM210 880h282v-64h-282v64z" />
    <glyph glyph-name="Aogonek" unicode="&#x104;" horiz-adv-x="702" 
d="M295 700h112l263 -700h-94l-58 159h-334l-58 -159h-94zM491 233l-113 305l-24 84h-6l-24 -84l-113 -305h280zM540 -195q-28 27 -28 68q0 43 23.5 76.5t56.5 50.5h78l-34 -25t-40 -41t-13 -46q0 -23 13 -36.5t33 -13.5q21 0 46 13l19 -53q-37 -20 -78 -20q-48 0 -76 27z
" />
    <glyph glyph-name="Aring" unicode="&#xc5;" horiz-adv-x="702" 
d="M295 700h112l263 -700h-94l-58 159h-334l-58 -159h-94zM491 233l-113 305l-24 84h-6l-24 -84l-113 -305h280zM287 791q-27 27 -27 64q0 38 27 64.5t64 26.5q38 0 64.5 -26.5t26.5 -64.5q0 -37 -26.5 -64t-64.5 -27q-37 0 -64 27zM374.5 832q9.5 10 9.5 23q0 14 -9.5 23.5
t-23.5 9.5q-13 0 -23 -9.5t-10 -23.5q0 -13 10 -23t23 -10q14 0 23.5 10z" />
    <glyph glyph-name="Atilde" unicode="&#xc3;" horiz-adv-x="702" 
d="M295 700h112l263 -700h-94l-58 159h-334l-58 -159h-94zM491 233l-113 305l-24 84h-6l-24 -84l-113 -305h280zM379.5 779.5q-15.5 6.5 -34.5 19.5q-16 10 -27.5 15t-24.5 5q-18 0 -31 -11t-13 -29h-69q0 52 29.5 83.5t74.5 31.5q21 0 37 -6.5t34 -18.5q17 -11 28 -16
t25 -5q18 0 30.5 11t12.5 29h70q0 -52 -30 -83.5t-75 -31.5q-21 0 -36.5 6.5z" />
    <glyph glyph-name="AE" unicode="&#xc6;" horiz-adv-x="911" 
d="M863 86v-86h-451v159h-211l-72 -159h-97l323 700h502v-86h-353v-226h319v-76h-319v-226h359zM412 233v389h-14l-24 -84l-139 -305h177z" />
    <glyph glyph-name="B" unicode="B" horiz-adv-x="549" 
d="M62 700h212q66 0 114.5 -23.5t74 -64.5t25.5 -91q0 -55 -27 -95t-67 -59q57 -23 89 -63t32 -106q0 -56 -29.5 -101t-83 -71t-121.5 -26h-219v700zM277 400q57 0 89 28t32 79t-32 79t-89 28h-123v-214h123zM291 86q60 0 96 33.5t36 86.5t-36 86.5t-96 33.5h-137v-240h137z
" />
    <glyph glyph-name="C" unicode="C" horiz-adv-x="708" 
d="M213.5 33.5q-78.5 45.5 -123 128t-44.5 188.5q0 105 44.5 187.5t122 128.5t173.5 46q102 0 172 -41.5t108 -118.5l-72 -49q-33 62 -81.5 92.5t-123.5 30.5q-72 0 -129 -35t-88.5 -98t-31.5 -143q0 -83 30.5 -145t86.5 -96.5t132 -34.5q77 0 122 30t81 98l74 -52
q-43 -79 -110.5 -120.5t-166.5 -41.5q-97 0 -175.5 45.5z" />
    <glyph glyph-name="Cacute" unicode="&#x106;" horiz-adv-x="708" 
d="M213.5 33.5q-78.5 45.5 -123 128t-44.5 188.5q0 105 44.5 187.5t122 128.5t173.5 46q102 0 172 -41.5t108 -118.5l-72 -49q-33 62 -81.5 92.5t-123.5 30.5q-72 0 -129 -35t-88.5 -98t-31.5 -143q0 -83 30.5 -145t86.5 -96.5t132 -34.5q77 0 122 30t81 98l74 -52
q-43 -79 -110.5 -120.5t-166.5 -41.5q-97 0 -175.5 45.5zM401 930h111l-81 -142h-81z" />
    <glyph glyph-name="Ccaron" unicode="&#x10c;" horiz-adv-x="708" 
d="M213.5 33.5q-78.5 45.5 -123 128t-44.5 188.5q0 105 44.5 187.5t122 128.5t173.5 46q102 0 172 -41.5t108 -118.5l-72 -49q-33 62 -81.5 92.5t-123.5 30.5q-72 0 -129 -35t-88.5 -98t-31.5 -143q0 -83 30.5 -145t86.5 -96.5t132 -34.5q77 0 122 30t81 98l74 -52
q-43 -79 -110.5 -120.5t-166.5 -41.5q-97 0 -175.5 45.5zM246 923h88l57 -60l57 60h88l-120 -134h-50z" />
    <glyph glyph-name="Ccedilla" unicode="&#xc7;" horiz-adv-x="708" 
d="M511 104q45 30 81 98l74 -52q-42 -78 -109 -119.5t-165 -42.5l-13 -39q4 6 15 9.5t21 3.5q32 0 52 -22.5t20 -57.5q0 -39 -27 -62.5t-70 -23.5q-20 0 -40 7.5t-34 22.5l28 34q12 -10 21.5 -15t24.5 -5q22 0 34.5 12.5t12.5 30.5q0 16 -8.5 26t-23.5 10q-13 0 -22 -7
t-13 -16l-9 -4l-36 14l19 85q-86 10 -154 58t-106 126t-38 175q0 105 44.5 187.5t122 128.5t173.5 46q102 0 172 -41.5t108 -118.5l-72 -49q-33 62 -81.5 92.5t-123.5 30.5q-72 0 -129 -35t-88.5 -98t-31.5 -143q0 -83 30.5 -145t86.5 -96.5t132 -34.5q77 0 122 30z" />
    <glyph glyph-name="D" unicode="D" horiz-adv-x="665" 
d="M62 700h203q106 0 186 -44t124 -123.5t44 -182.5t-44 -182.5t-124 -123.5t-186 -44h-203v700zM265 86q80 0 139.5 32.5t91 92.5t31.5 139t-31.5 139t-91 92.5t-139.5 32.5h-111v-528h111z" />
    <glyph glyph-name="Eth" unicode="&#xd0;" horiz-adv-x="696" 
d="M482 656q80 -44 124 -123.5t44 -182.5t-44 -182.5t-124 -123.5t-186 -44h-203v313h-69v76h69v311h203q106 0 186 -44zM435.5 118.5q59.5 32.5 91 92.5t31.5 139t-31.5 139t-91 92.5t-139.5 32.5h-111v-225h154v-76h-154v-227h111q80 0 139.5 32.5z" />
    <glyph glyph-name="Dcaron" unicode="&#x10e;" horiz-adv-x="665" 
d="M62 700h203q106 0 186 -44t124 -123.5t44 -182.5t-44 -182.5t-124 -123.5t-186 -44h-203v700zM265 86q80 0 139.5 32.5t91 92.5t31.5 139t-31.5 139t-91 92.5t-139.5 32.5h-111v-528h111zM140 923h88l57 -60l57 60h88l-120 -134h-50z" />
    <glyph glyph-name="Dcroat" unicode="&#x110;" horiz-adv-x="696" 
d="M482 656q80 -44 124 -123.5t44 -182.5t-44 -182.5t-124 -123.5t-186 -44h-203v313h-69v76h69v311h203q106 0 186 -44zM435.5 118.5q59.5 32.5 91 92.5t31.5 139t-31.5 139t-91 92.5t-139.5 32.5h-111v-225h154v-76h-154v-227h111q80 0 139.5 32.5z" />
    <glyph glyph-name="E" unicode="E" horiz-adv-x="561" 
d="M513 86v-86h-451v700h445v-86h-353v-226h319v-76h-319v-226h359z" />
    <glyph glyph-name="Eacute" unicode="&#xc9;" horiz-adv-x="561" 
d="M513 86v-86h-451v700h445v-86h-353v-226h319v-76h-319v-226h359zM304 930h111l-81 -142h-81z" />
    <glyph glyph-name="Ecaron" unicode="&#x11a;" horiz-adv-x="561" 
d="M513 86v-86h-451v700h445v-86h-353v-226h319v-76h-319v-226h359zM149 923h88l57 -60l57 60h88l-120 -134h-50z" />
    <glyph glyph-name="Ecircumflex" unicode="&#xca;" horiz-adv-x="561" 
d="M513 86v-86h-451v700h445v-86h-353v-226h319v-76h-319v-226h359zM269 923h50l120 -134h-88l-57 60l-57 -60h-88z" />
    <glyph glyph-name="Edieresis" unicode="&#xcb;" horiz-adv-x="561" 
d="M513 86v-86h-451v700h445v-86h-353v-226h319v-76h-319v-226h359zM168.5 814.5q-17.5 17.5 -17.5 41.5t17.5 41.5t41.5 17.5t41.5 -17.5t17.5 -41.5t-17.5 -41.5t-41.5 -17.5t-41.5 17.5zM335.5 814.5q-17.5 17.5 -17.5 41.5t17.5 41.5t41.5 17.5t41.5 -17.5t17.5 -41.5
t-17.5 -41.5t-41.5 -17.5t-41.5 17.5z" />
    <glyph glyph-name="Edotaccent" unicode="&#x116;" horiz-adv-x="561" 
d="M513 86v-86h-451v700h445v-86h-353v-226h319v-76h-319v-226h359zM254.5 814.5q-16.5 16.5 -16.5 39.5t16.5 39.5t39.5 16.5t39.5 -16.5t16.5 -39.5t-16.5 -39.5t-39.5 -16.5t-39.5 16.5z" />
    <glyph glyph-name="Egrave" unicode="&#xc8;" horiz-adv-x="561" 
d="M513 86v-86h-451v700h445v-86h-353v-226h319v-76h-319v-226h359zM172 930h111l51 -142h-81z" />
    <glyph glyph-name="Emacron" unicode="&#x112;" horiz-adv-x="561" 
d="M513 86v-86h-451v700h445v-86h-353v-226h319v-76h-319v-226h359zM153 880h282v-64h-282v64z" />
    <glyph glyph-name="Eogonek" unicode="&#x118;" horiz-adv-x="561" 
d="M513 86v-86h-451v700h445v-86h-353v-226h319v-76h-319v-226h359zM383 -195q-28 27 -28 68q0 43 23.5 76.5t56.5 50.5h78l-34 -25t-40 -41t-13 -46q0 -23 13 -36.5t33 -13.5q21 0 46 13l19 -53q-37 -20 -78 -20q-48 0 -76 27z" />
    <glyph glyph-name="F" unicode="F" horiz-adv-x="563" 
d="M154 614v-235h327v-76h-327v-303h-92v700h453v-86h-361z" />
    <glyph glyph-name="G" unicode="G" horiz-adv-x="742" 
d="M217 34q-79 46 -125 128.5t-46 187.5t47 187.5t127.5 128.5t177.5 46q100 0 172 -44.5t110 -119.5l-72 -52q-31 62 -83.5 96t-126.5 34q-78 0 -136.5 -37.5t-90 -100.5t-31.5 -138t30.5 -138t89 -100.5t136.5 -37.5q64 0 110 19.5t82 59.5v134h-148v76h240v-247
q-56 -62 -124.5 -95t-164.5 -33q-95 0 -174 46z" />
    <glyph glyph-name="Gbreve" unicode="&#x11e;" horiz-adv-x="742" 
d="M217 34q-79 46 -125 128.5t-46 187.5t47 187.5t127.5 128.5t177.5 46q100 0 172 -44.5t110 -119.5l-72 -52q-31 62 -83.5 96t-126.5 34q-78 0 -136.5 -37.5t-90 -100.5t-31.5 -138t30.5 -138t89 -100.5t136.5 -37.5q64 0 110 19.5t82 59.5v134h-148v76h240v-247
q-56 -62 -124.5 -95t-164.5 -33q-95 0 -174 46zM305.5 814q-33.5 32 -35.5 87h74q2 -22 15.5 -35.5t33.5 -13.5t33 13.5t15 35.5h74q-1 -54 -34.5 -86.5t-87.5 -32.5t-87.5 32z" />
    <glyph glyph-name="uni0122" unicode="&#x122;" horiz-adv-x="742" 
d="M217 34q-79 46 -125 128.5t-46 187.5t47 187.5t127.5 128.5t177.5 46q100 0 172 -44.5t110 -119.5l-72 -52q-31 62 -83.5 96t-126.5 34q-78 0 -136.5 -37.5t-90 -100.5t-31.5 -138t30.5 -138t89 -100.5t136.5 -37.5q64 0 110 19.5t82 59.5v134h-148v76h240v-247
q-56 -62 -124.5 -95t-164.5 -33q-95 0 -174 46zM346 -86h94l-69 -176h-77z" />
    <glyph glyph-name="H" unicode="H" horiz-adv-x="682" 
d="M620 700v-700h-92v309h-374v-309h-92v700h92v-305h374v305h92z" />
    <glyph glyph-name="I" unicode="I" horiz-adv-x="216" 
d="M62 700h92v-700h-92v700z" />
    <glyph glyph-name="Iacute" unicode="&#xcd;" horiz-adv-x="216" 
d="M62 700h92v-700h-92v700zM118 930h111l-81 -142h-81z" />
    <glyph glyph-name="Icircumflex" unicode="&#xce;" horiz-adv-x="216" 
d="M62 700h92v-700h-92v700zM83 923h50l120 -134h-88l-57 60l-57 -60h-88z" />
    <glyph glyph-name="Idieresis" unicode="&#xcf;" horiz-adv-x="216" 
d="M62 700h92v-700h-92v700zM-17.5 814.5q-17.5 17.5 -17.5 41.5t17.5 41.5t41.5 17.5t41.5 -17.5t17.5 -41.5t-17.5 -41.5t-41.5 -17.5t-41.5 17.5zM149.5 814.5q-17.5 17.5 -17.5 41.5t17.5 41.5t41.5 17.5t41.5 -17.5t17.5 -41.5t-17.5 -41.5t-41.5 -17.5t-41.5 17.5z
" />
    <glyph glyph-name="Idotaccent" unicode="&#x130;" horiz-adv-x="216" 
d="M62 700h92v-700h-92v700zM68.5 814.5q-16.5 16.5 -16.5 39.5t16.5 39.5t39.5 16.5t39.5 -16.5t16.5 -39.5t-16.5 -39.5t-39.5 -16.5t-39.5 16.5z" />
    <glyph glyph-name="Igrave" unicode="&#xcc;" horiz-adv-x="216" 
d="M62 700h92v-700h-92v700zM-14 930h111l51 -142h-81z" />
    <glyph glyph-name="Imacron" unicode="&#x12a;" horiz-adv-x="216" 
d="M62 700h92v-700h-92v700zM-33 880h282v-64h-282v64z" />
    <glyph glyph-name="Iogonek" unicode="&#x12e;" horiz-adv-x="216" 
d="M62 700h92v-700h-92v700zM24 -195q-28 27 -28 68q0 43 23.5 76.5t56.5 50.5h78l-34 -25t-40 -41t-13 -46q0 -23 13 -36.5t33 -13.5q21 0 46 13l19 -53q-37 -20 -78 -20q-48 0 -76 27z" />
    <glyph glyph-name="J" unicode="J" horiz-adv-x="481" 
d="M96 29q-53 41 -68 110l82 35q11 -49 39.5 -74.5t75.5 -25.5q51 0 78.5 31.5t27.5 92.5v502h92v-496q0 -106 -54 -161t-144 -55q-76 0 -129 41z" />
    <glyph glyph-name="K" unicode="K" horiz-adv-x="595" 
d="M62 700h92v-374h6l49 80l214 294h105l-206 -288v-6l253 -406h-108l-209 328l-104 -138v-190h-92v700z" />
    <glyph glyph-name="uni0136" unicode="&#x136;" horiz-adv-x="595" 
d="M62 700h92v-374h6l49 80l214 294h105l-206 -288v-6l253 -406h-108l-209 328l-104 -138v-190h-92v700zM258 -86h94l-69 -176h-77z" />
    <glyph glyph-name="L" unicode="L" horiz-adv-x="563" 
d="M513 86v-86h-451v700h92v-614h359z" />
    <glyph glyph-name="Lacute" unicode="&#x139;" horiz-adv-x="563" 
d="M513 86v-86h-451v700h92v-614h359zM118 930h111l-81 -142h-81z" />
    <glyph glyph-name="Lcaron" unicode="&#x13d;" horiz-adv-x="563" 
d="M513 86v-86h-451v700h92v-614h359zM445 537h-89l59 163h89z" />
    <glyph glyph-name="uni013B" unicode="&#x13b;" horiz-adv-x="563" 
d="M513 86v-86h-451v700h92v-614h359zM240 -86h94l-69 -176h-77z" />
    <glyph glyph-name="Lslash" unicode="&#x141;" horiz-adv-x="563" 
d="M513 86v-86h-451v232l-52 -30v88l52 30v380h92v-326l176 102v-88l-176 -102v-200h359z" />
    <glyph glyph-name="M" unicode="M" horiz-adv-x="852" 
d="M62 700h116l248 -615l248 615h116v-700h-92v447l6 103h-6l-226 -550h-92l-226 550h-6l6 -103v-447h-92v700z" />
    <glyph glyph-name="N" unicode="N" horiz-adv-x="676" 
d="M62 700h126l334 -592h6l-6 83v509h92v-700h-126l-334 592h-6l6 -83v-509h-92v700z" />
    <glyph glyph-name="Nacute" unicode="&#x143;" horiz-adv-x="676" 
d="M62 700h126l334 -592h6l-6 83v509h92v-700h-126l-334 592h-6l6 -83v-509h-92v700zM348 930h111l-81 -142h-81z" />
    <glyph glyph-name="Ncaron" unicode="&#x147;" horiz-adv-x="676" 
d="M62 700h126l334 -592h6l-6 83v509h92v-700h-126l-334 592h-6l6 -83v-509h-92v700zM193 923h88l57 -60l57 60h88l-120 -134h-50z" />
    <glyph glyph-name="uni0145" unicode="&#x145;" horiz-adv-x="676" 
d="M62 700h126l334 -592h6l-6 83v509h92v-700h-126l-334 592h-6l6 -83v-509h-92v700zM291 -86h94l-69 -176h-77z" />
    <glyph glyph-name="Ntilde" unicode="&#xd1;" horiz-adv-x="676" 
d="M62 700h126l334 -592h6l-6 83v509h92v-700h-126l-334 592h-6l6 -83v-509h-92v700zM366.5 779.5q-15.5 6.5 -34.5 19.5q-16 10 -27.5 15t-24.5 5q-18 0 -31 -11t-13 -29h-69q0 52 29.5 83.5t74.5 31.5q21 0 37 -6.5t34 -18.5q17 -11 28 -16t25 -5q18 0 30.5 11t12.5 29h70
q0 -52 -30 -83.5t-75 -31.5q-21 0 -36.5 6.5z" />
    <glyph glyph-name="O" unicode="O" horiz-adv-x="780" 
d="M212.5 35q-78.5 47 -122.5 129.5t-44 185.5t44 185.5t122.5 129.5t177.5 47t177.5 -47t122.5 -129.5t44 -185.5t-44 -185.5t-122.5 -129.5t-177.5 -47t-177.5 47zM520 109.5q57 35.5 88.5 98t31.5 142.5t-31.5 142.5t-88.5 98t-130 35.5t-130 -35.5t-88.5 -98
t-31.5 -142.5t31.5 -142.5t88.5 -98t130 -35.5t130 35.5z" />
    <glyph glyph-name="Oacute" unicode="&#xd3;" horiz-adv-x="780" 
d="M212.5 35q-78.5 47 -122.5 129.5t-44 185.5t44 185.5t122.5 129.5t177.5 47t177.5 -47t122.5 -129.5t44 -185.5t-44 -185.5t-122.5 -129.5t-177.5 -47t-177.5 47zM520 109.5q57 35.5 88.5 98t31.5 142.5t-31.5 142.5t-88.5 98t-130 35.5t-130 -35.5t-88.5 -98
t-31.5 -142.5t31.5 -142.5t88.5 -98t130 -35.5t130 35.5zM400 930h111l-81 -142h-81z" />
    <glyph glyph-name="Ocircumflex" unicode="&#xd4;" horiz-adv-x="780" 
d="M212.5 35q-78.5 47 -122.5 129.5t-44 185.5t44 185.5t122.5 129.5t177.5 47t177.5 -47t122.5 -129.5t44 -185.5t-44 -185.5t-122.5 -129.5t-177.5 -47t-177.5 47zM520 109.5q57 35.5 88.5 98t31.5 142.5t-31.5 142.5t-88.5 98t-130 35.5t-130 -35.5t-88.5 -98
t-31.5 -142.5t31.5 -142.5t88.5 -98t130 -35.5t130 35.5zM365 923h50l120 -134h-88l-57 60l-57 -60h-88z" />
    <glyph glyph-name="Odieresis" unicode="&#xd6;" horiz-adv-x="780" 
d="M212.5 35q-78.5 47 -122.5 129.5t-44 185.5t44 185.5t122.5 129.5t177.5 47t177.5 -47t122.5 -129.5t44 -185.5t-44 -185.5t-122.5 -129.5t-177.5 -47t-177.5 47zM520 109.5q57 35.5 88.5 98t31.5 142.5t-31.5 142.5t-88.5 98t-130 35.5t-130 -35.5t-88.5 -98
t-31.5 -142.5t31.5 -142.5t88.5 -98t130 -35.5t130 35.5zM264.5 814.5q-17.5 17.5 -17.5 41.5t17.5 41.5t41.5 17.5t41.5 -17.5t17.5 -41.5t-17.5 -41.5t-41.5 -17.5t-41.5 17.5zM431.5 814.5q-17.5 17.5 -17.5 41.5t17.5 41.5t41.5 17.5t41.5 -17.5t17.5 -41.5t-17.5 -41.5
t-41.5 -17.5t-41.5 17.5z" />
    <glyph glyph-name="Ograve" unicode="&#xd2;" horiz-adv-x="780" 
d="M212.5 35q-78.5 47 -122.5 129.5t-44 185.5t44 185.5t122.5 129.5t177.5 47t177.5 -47t122.5 -129.5t44 -185.5t-44 -185.5t-122.5 -129.5t-177.5 -47t-177.5 47zM520 109.5q57 35.5 88.5 98t31.5 142.5t-31.5 142.5t-88.5 98t-130 35.5t-130 -35.5t-88.5 -98
t-31.5 -142.5t31.5 -142.5t88.5 -98t130 -35.5t130 35.5zM268 930h111l51 -142h-81z" />
    <glyph glyph-name="Ohungarumlaut" unicode="&#x150;" horiz-adv-x="780" 
d="M212.5 35q-78.5 47 -122.5 129.5t-44 185.5t44 185.5t122.5 129.5t177.5 47t177.5 -47t122.5 -129.5t44 -185.5t-44 -185.5t-122.5 -129.5t-177.5 -47t-177.5 47zM520 109.5q57 35.5 88.5 98t31.5 142.5t-31.5 142.5t-88.5 98t-130 35.5t-130 -35.5t-88.5 -98
t-31.5 -142.5t31.5 -142.5t88.5 -98t130 -35.5t130 35.5zM326 930h105l-81 -142h-75zM468 930h105l-81 -142h-75z" />
    <glyph glyph-name="Omacron" unicode="&#x14c;" horiz-adv-x="780" 
d="M212.5 35q-78.5 47 -122.5 129.5t-44 185.5t44 185.5t122.5 129.5t177.5 47t177.5 -47t122.5 -129.5t44 -185.5t-44 -185.5t-122.5 -129.5t-177.5 -47t-177.5 47zM520 109.5q57 35.5 88.5 98t31.5 142.5t-31.5 142.5t-88.5 98t-130 35.5t-130 -35.5t-88.5 -98
t-31.5 -142.5t31.5 -142.5t88.5 -98t130 -35.5t130 35.5zM249 880h282v-64h-282v64z" />
    <glyph glyph-name="Oslash" unicode="&#xd8;" horiz-adv-x="780" 
d="M700.5 514.5q33.5 -74.5 33.5 -164.5q0 -103 -44 -185.5t-122.5 -129.5t-177.5 -47q-77 0 -143 29l-47 -82l-75 42l49 85q-61 49 -94.5 123.5t-33.5 164.5q0 103 44 185.5t122.5 129.5t177.5 47q77 0 143 -29l47 82l75 -42l-49 -85q61 -49 94.5 -123.5zM160.5 231.5
q20.5 -53.5 59.5 -90.5l269 466q-47 19 -99 19q-73 0 -130 -35.5t-88.5 -98t-31.5 -142.5q0 -65 20.5 -118.5zM520 109.5q57 35.5 88.5 98t31.5 142.5q0 65 -20.5 118.5t-59.5 90.5l-269 -466q48 -19 99 -19q73 0 130 35.5z" />
    <glyph glyph-name="Otilde" unicode="&#xd5;" horiz-adv-x="780" 
d="M212.5 35q-78.5 47 -122.5 129.5t-44 185.5t44 185.5t122.5 129.5t177.5 47t177.5 -47t122.5 -129.5t44 -185.5t-44 -185.5t-122.5 -129.5t-177.5 -47t-177.5 47zM520 109.5q57 35.5 88.5 98t31.5 142.5t-31.5 142.5t-88.5 98t-130 35.5t-130 -35.5t-88.5 -98
t-31.5 -142.5t31.5 -142.5t88.5 -98t130 -35.5t130 35.5zM418.5 779.5q-15.5 6.5 -34.5 19.5q-16 10 -27.5 15t-24.5 5q-18 0 -31 -11t-13 -29h-69q0 52 29.5 83.5t74.5 31.5q21 0 37 -6.5t34 -18.5q17 -11 28 -16t25 -5q18 0 30.5 11t12.5 29h70q0 -52 -30 -83.5t-75 -31.5
q-21 0 -36.5 6.5z" />
    <glyph glyph-name="OE" unicode="&#x152;" horiz-adv-x="1140" 
d="M212.5 35q-78.5 47 -122.5 129.5t-44 185.5t44 185.5t122.5 129.5t177.5 47q72 0 133.5 -25t108.5 -72h9v85h445v-86h-353v-226h319v-76h-319v-226h359v-86h-451v85h-9q-47 -47 -108.5 -72t-133.5 -25q-99 0 -177.5 47zM520 109.5q57 35.5 88.5 98t31.5 142.5
t-31.5 142.5t-88.5 98t-130 35.5t-130 -35.5t-88.5 -98t-31.5 -142.5t31.5 -142.5t88.5 -98t130 -35.5t130 35.5z" />
    <glyph glyph-name="P" unicode="P" horiz-adv-x="545" 
d="M62 700h215q108 0 171 -55t63 -152t-63 -152t-171 -55h-123v-286h-92v700zM282 372q64 0 100.5 32t36.5 89t-36.5 89t-100.5 32h-128v-242h128z" />
    <glyph glyph-name="Thorn" unicode="&#xde;" horiz-adv-x="545" 
d="M62 700h92v-143h123q108 0 171 -55t63 -152t-63 -152t-171 -55h-123v-143h-92v700zM282 229q64 0 100.5 32t36.5 89t-36.5 89t-100.5 32h-128v-242h128z" />
    <glyph glyph-name="Q" unicode="Q" horiz-adv-x="790" 
d="M683 -8l-73 73q-91 -77 -220 -77q-99 0 -177.5 47t-122.5 129.5t-44 185.5t44 185.5t122.5 129.5t177.5 47t177.5 -47t122.5 -129.5t44 -185.5q0 -117 -56 -206l80 -82zM171.5 207.5q31.5 -62.5 88.5 -98t130 -35.5t130 35.5t88.5 98t31.5 142.5t-31.5 142.5t-88.5 98
t-130 35.5t-130 -35.5t-88.5 -98t-31.5 -142.5t31.5 -142.5z" />
    <glyph glyph-name="R" unicode="R" horiz-adv-x="587" 
d="M440 0l-157 290h-129v-290h-92v700h241q69 0 121 -25.5t80.5 -72t28.5 -107.5q0 -72 -40 -123.5t-109 -71.5l163 -300h-107zM154 366h148q63 0 101 31t38 93t-38 93t-101 31h-148v-248z" />
    <glyph glyph-name="Racute" unicode="&#x154;" horiz-adv-x="587" 
d="M440 0l-157 290h-129v-290h-92v700h241q69 0 121 -25.5t80.5 -72t28.5 -107.5q0 -72 -40 -123.5t-109 -71.5l163 -300h-107zM154 366h148q63 0 101 31t38 93t-38 93t-101 31h-148v-248zM288 930h111l-81 -142h-81z" />
    <glyph glyph-name="Rcaron" unicode="&#x158;" horiz-adv-x="587" 
d="M440 0l-157 290h-129v-290h-92v700h241q69 0 121 -25.5t80.5 -72t28.5 -107.5q0 -72 -40 -123.5t-109 -71.5l163 -300h-107zM154 366h148q63 0 101 31t38 93t-38 93t-101 31h-148v-248zM133 923h88l57 -60l57 60h88l-120 -134h-50z" />
    <glyph glyph-name="uni0156" unicode="&#x156;" horiz-adv-x="587" 
d="M440 0l-157 290h-129v-290h-92v700h241q69 0 121 -25.5t80.5 -72t28.5 -107.5q0 -72 -40 -123.5t-109 -71.5l163 -300h-107zM154 366h148q63 0 101 31t38 93t-38 93t-101 31h-148v-248zM251 -86h94l-69 -176h-77z" />
    <glyph glyph-name="S" unicode="S" horiz-adv-x="553" 
d="M138.5 26q-63.5 38 -94.5 113l78 58q20 -57 62 -90t100 -33q63 0 98 28t35 86q0 34 -15 57.5t-48.5 43t-93.5 40.5q-80 28 -134.5 77t-54.5 123q0 54 29 96t78 64.5t105 22.5q81 0 132.5 -32.5t81.5 -94.5l-73 -52q-44 95 -143 95q-50 0 -86 -24.5t-36 -70.5
q0 -47 39 -77t131 -63q86 -31 133 -78.5t47 -119.5q0 -63 -31.5 -110t-83 -72t-110.5 -25q-82 0 -145.5 38z" />
    <glyph glyph-name="Sacute" unicode="&#x15a;" horiz-adv-x="553" 
d="M138.5 26q-63.5 38 -94.5 113l78 58q20 -57 62 -90t100 -33q63 0 98 28t35 86q0 34 -15 57.5t-48.5 43t-93.5 40.5q-80 28 -134.5 77t-54.5 123q0 54 29 96t78 64.5t105 22.5q81 0 132.5 -32.5t81.5 -94.5l-73 -52q-44 95 -143 95q-50 0 -86 -24.5t-36 -70.5
q0 -47 39 -77t131 -63q86 -31 133 -78.5t47 -119.5q0 -63 -31.5 -110t-83 -72t-110.5 -25q-82 0 -145.5 38zM292 930h111l-81 -142h-81z" />
    <glyph glyph-name="Scaron" unicode="&#x160;" horiz-adv-x="553" 
d="M138.5 26q-63.5 38 -94.5 113l78 58q20 -57 62 -90t100 -33q63 0 98 28t35 86q0 34 -15 57.5t-48.5 43t-93.5 40.5q-80 28 -134.5 77t-54.5 123q0 54 29 96t78 64.5t105 22.5q81 0 132.5 -32.5t81.5 -94.5l-73 -52q-44 95 -143 95q-50 0 -86 -24.5t-36 -70.5
q0 -47 39 -77t131 -63q86 -31 133 -78.5t47 -119.5q0 -63 -31.5 -110t-83 -72t-110.5 -25q-82 0 -145.5 38zM137 923h88l57 -60l57 60h88l-120 -134h-50z" />
    <glyph glyph-name="Scedilla" unicode="&#x15e;" horiz-adv-x="553" 
d="M480.5 90.5q-28.5 -45.5 -75 -71.5t-101.5 -30l-14 -40q4 6 15 9.5t21 3.5q32 0 52 -22.5t20 -57.5q0 -39 -27 -62.5t-70 -23.5q-20 0 -40 7.5t-34 22.5l28 34q12 -10 21.5 -15t24.5 -5q22 0 34.5 12.5t12.5 30.5q0 16 -8.5 26t-23.5 10q-13 0 -22 -7t-13 -16l-9 -4
l-36 14l19 83q-73 6 -128 44t-83 106l78 58q20 -57 62 -90t100 -33q63 0 98 28t35 86q0 34 -15 57.5t-48.5 43t-93.5 40.5q-80 28 -134.5 77t-54.5 123q0 54 29 96t78 64.5t105 22.5q81 0 132.5 -32.5t81.5 -94.5l-73 -52q-44 95 -143 95q-50 0 -86 -24.5t-36 -70.5
q0 -47 39 -77t131 -63q86 -31 133 -78.5t47 -119.5q0 -59 -28.5 -104.5z" />
    <glyph glyph-name="uni0218" unicode="&#x218;" horiz-adv-x="553" 
d="M138.5 26q-63.5 38 -94.5 113l78 58q20 -57 62 -90t100 -33q63 0 98 28t35 86q0 34 -15 57.5t-48.5 43t-93.5 40.5q-80 28 -134.5 77t-54.5 123q0 54 29 96t78 64.5t105 22.5q81 0 132.5 -32.5t81.5 -94.5l-73 -52q-44 95 -143 95q-50 0 -86 -24.5t-36 -70.5
q0 -47 39 -77t131 -63q86 -31 133 -78.5t47 -119.5q0 -63 -31.5 -110t-83 -72t-110.5 -25q-82 0 -145.5 38zM235 -86h94l-69 -176h-77z" />
    <glyph glyph-name="T" unicode="T" horiz-adv-x="587" 
d="M547 616h-207v-616h-92v616h-208v84h507v-84z" />
    <glyph glyph-name="Tcaron" unicode="&#x164;" horiz-adv-x="587" 
d="M547 616h-207v-616h-92v616h-208v84h507v-84zM149 923h88l57 -60l57 60h88l-120 -134h-50z" />
    <glyph glyph-name="uni0162" unicode="&#x162;" horiz-adv-x="587" 
d="M320 0l-18 -51q4 6 15 9.5t21 3.5q32 0 52 -22.5t20 -57.5q0 -39 -27 -62.5t-70 -23.5q-20 0 -40 7.5t-34 22.5l28 34q12 -10 21.5 -15t24.5 -5q22 0 34.5 12.5t12.5 30.5q0 16 -8.5 26t-23.5 10q-13 0 -22 -7t-13 -16l-9 -4l-36 14l21 94h-21v616h-208v84h507v-84h-207
v-616h-20z" />
    <glyph glyph-name="uni021A" unicode="&#x21a;" horiz-adv-x="587" 
d="M547 616h-207v-616h-92v616h-208v84h507v-84zM247 -86h94l-69 -176h-77z" />
    <glyph glyph-name="U" unicode="U" horiz-adv-x="658" 
d="M185.5 22.5q-61.5 34.5 -94.5 97.5t-33 145v435h92v-425q0 -98 49 -149.5t130 -51.5t130 51.5t49 149.5v425h92v-435q0 -82 -33 -145t-94.5 -97.5t-143.5 -34.5t-143.5 34.5z" />
    <glyph glyph-name="Uacute" unicode="&#xda;" horiz-adv-x="658" 
d="M185.5 22.5q-61.5 34.5 -94.5 97.5t-33 145v435h92v-425q0 -98 49 -149.5t130 -51.5t130 51.5t49 149.5v425h92v-435q0 -82 -33 -145t-94.5 -97.5t-143.5 -34.5t-143.5 34.5zM339 930h111l-81 -142h-81z" />
    <glyph glyph-name="Ucircumflex" unicode="&#xdb;" horiz-adv-x="658" 
d="M185.5 22.5q-61.5 34.5 -94.5 97.5t-33 145v435h92v-425q0 -98 49 -149.5t130 -51.5t130 51.5t49 149.5v425h92v-435q0 -82 -33 -145t-94.5 -97.5t-143.5 -34.5t-143.5 34.5zM304 923h50l120 -134h-88l-57 60l-57 -60h-88z" />
    <glyph glyph-name="Udieresis" unicode="&#xdc;" horiz-adv-x="658" 
d="M185.5 22.5q-61.5 34.5 -94.5 97.5t-33 145v435h92v-425q0 -98 49 -149.5t130 -51.5t130 51.5t49 149.5v425h92v-435q0 -82 -33 -145t-94.5 -97.5t-143.5 -34.5t-143.5 34.5zM203.5 814.5q-17.5 17.5 -17.5 41.5t17.5 41.5t41.5 17.5t41.5 -17.5t17.5 -41.5t-17.5 -41.5
t-41.5 -17.5t-41.5 17.5zM370.5 814.5q-17.5 17.5 -17.5 41.5t17.5 41.5t41.5 17.5t41.5 -17.5t17.5 -41.5t-17.5 -41.5t-41.5 -17.5t-41.5 17.5z" />
    <glyph glyph-name="Ugrave" unicode="&#xd9;" horiz-adv-x="658" 
d="M185.5 22.5q-61.5 34.5 -94.5 97.5t-33 145v435h92v-425q0 -98 49 -149.5t130 -51.5t130 51.5t49 149.5v425h92v-435q0 -82 -33 -145t-94.5 -97.5t-143.5 -34.5t-143.5 34.5zM207 930h111l51 -142h-81z" />
    <glyph glyph-name="Uhungarumlaut" unicode="&#x170;" horiz-adv-x="658" 
d="M185.5 22.5q-61.5 34.5 -94.5 97.5t-33 145v435h92v-425q0 -98 49 -149.5t130 -51.5t130 51.5t49 149.5v425h92v-435q0 -82 -33 -145t-94.5 -97.5t-143.5 -34.5t-143.5 34.5zM265 930h105l-81 -142h-75zM407 930h105l-81 -142h-75z" />
    <glyph glyph-name="Umacron" unicode="&#x16a;" horiz-adv-x="658" 
d="M185.5 22.5q-61.5 34.5 -94.5 97.5t-33 145v435h92v-425q0 -98 49 -149.5t130 -51.5t130 51.5t49 149.5v425h92v-435q0 -82 -33 -145t-94.5 -97.5t-143.5 -34.5t-143.5 34.5zM188 880h282v-64h-282v64z" />
    <glyph glyph-name="Uogonek" unicode="&#x172;" horiz-adv-x="658" 
d="M600 700v-435q0 -110 -58 -183.5t-160 -89.5q-40 -29 -58 -50t-18 -54q0 -23 13 -36.5t33 -13.5q21 0 46 13l19 -53q-37 -20 -78 -20q-48 0 -76 27t-28 68q0 37 18 67t45 49q-111 10 -175.5 85t-64.5 191v435h92v-425q0 -98 49 -149.5t130 -51.5t130 51.5t49 149.5v425
h92z" />
    <glyph glyph-name="Uring" unicode="&#x16e;" horiz-adv-x="658" 
d="M185.5 22.5q-61.5 34.5 -94.5 97.5t-33 145v435h92v-425q0 -98 49 -149.5t130 -51.5t130 51.5t49 149.5v425h92v-435q0 -82 -33 -145t-94.5 -97.5t-143.5 -34.5t-143.5 34.5zM265 791q-27 27 -27 64q0 38 27 64.5t64 26.5q38 0 64.5 -26.5t26.5 -64.5q0 -37 -26.5 -64
t-64.5 -27q-37 0 -64 27zM352.5 832q9.5 10 9.5 23q0 14 -9.5 23.5t-23.5 9.5q-13 0 -23 -9.5t-10 -23.5q0 -13 10 -23t23 -10q14 0 23.5 10z" />
    <glyph glyph-name="V" unicode="V" horiz-adv-x="670" 
d="M26 700h103l179 -525l24 -92h6l24 92l175 525h107l-249 -700h-120z" />
    <glyph glyph-name="W" unicode="W" horiz-adv-x="946" 
d="M26 700h99l127 -515l14 -89h6l14 89l132 515h109l135 -515l14 -89h6l14 89l122 515h102l-179 -700h-126l-139 570h-6l-135 -570h-130z" />
    <glyph glyph-name="X" unicode="X" horiz-adv-x="624" 
d="M248 369l-200 331h110l119 -206l33 -78h4l33 78l119 206h110l-200 -331l220 -369h-106l-139 235l-36 77h-6l-36 -77l-139 -235h-106z" />
    <glyph glyph-name="Y" unicode="Y" horiz-adv-x="575" 
d="M248 210l-220 490h96l166 -378h6l158 378h93l-294 -700h-93z" />
    <glyph glyph-name="Yacute" unicode="&#xdd;" horiz-adv-x="575" 
d="M248 210l-220 490h96l166 -378h6l158 378h93l-294 -700h-93zM299 930h111l-81 -142h-81z" />
    <glyph glyph-name="Ydieresis" unicode="&#x178;" horiz-adv-x="575" 
d="M248 210l-220 490h96l166 -378h6l158 378h93l-294 -700h-93zM163.5 814.5q-17.5 17.5 -17.5 41.5t17.5 41.5t41.5 17.5t41.5 -17.5t17.5 -41.5t-17.5 -41.5t-41.5 -17.5t-41.5 17.5zM330.5 814.5q-17.5 17.5 -17.5 41.5t17.5 41.5t41.5 17.5t41.5 -17.5t17.5 -41.5
t-17.5 -41.5t-41.5 -17.5t-41.5 17.5z" />
    <glyph glyph-name="Z" unicode="Z" horiz-adv-x="570" 
d="M47 0v42h-1l333 565v6l-320 1v86l447 -1v-42l-333 -565v-6l351 -1v-86z" />
    <glyph glyph-name="Zacute" unicode="&#x179;" horiz-adv-x="570" 
d="M47 0v42h-1l333 565v6l-320 1v86l447 -1v-42l-333 -565v-6l351 -1v-86zM284 930h111l-81 -142h-81z" />
    <glyph glyph-name="Zcaron" unicode="&#x17d;" horiz-adv-x="570" 
d="M47 0v42h-1l333 565v6l-320 1v86l447 -1v-42l-333 -565v-6l351 -1v-86zM129 923h88l57 -60l57 60h88l-120 -134h-50z" />
    <glyph glyph-name="Zdotaccent" unicode="&#x17b;" horiz-adv-x="570" 
d="M47 0v42h-1l333 565v6l-320 1v86l447 -1v-42l-333 -565v-6l351 -1v-86zM234.5 814.5q-16.5 16.5 -16.5 39.5t16.5 39.5t39.5 16.5t39.5 -16.5t16.5 -39.5t-16.5 -39.5t-39.5 -16.5t-39.5 16.5z" />
    <glyph glyph-name="O.ss01" horiz-adv-x="780" 
d="M212.5 35q-78.5 47 -122.5 129.5t-44 185.5q0 141 99 243l-14 14q43 48 112.5 76.5t146.5 28.5q99 0 177.5 -47t122.5 -129.5t44 -185.5t-44 -185.5t-122.5 -129.5t-177.5 -47t-177.5 47zM520 109.5q57 35.5 88.5 98t31.5 142.5t-31.5 142.5t-88.5 98t-130 35.5
q-60 0 -112 -24t-82 -59l14 -14q-70 -75 -70 -179q0 -80 31.5 -142.5t88.5 -98t130 -35.5t130 35.5z" />
    <glyph glyph-name="Oacute.ss01" horiz-adv-x="780" 
d="M212.5 35q-78.5 47 -122.5 129.5t-44 185.5q0 141 99 243l-14 14q43 48 112.5 76.5t146.5 28.5q99 0 177.5 -47t122.5 -129.5t44 -185.5t-44 -185.5t-122.5 -129.5t-177.5 -47t-177.5 47zM520 109.5q57 35.5 88.5 98t31.5 142.5t-31.5 142.5t-88.5 98t-130 35.5
q-60 0 -112 -24t-82 -59l14 -14q-70 -75 -70 -179q0 -80 31.5 -142.5t88.5 -98t130 -35.5t130 35.5zM400 930h111l-81 -142h-81z" />
    <glyph glyph-name="Ocircumflex.ss01" horiz-adv-x="780" 
d="M212.5 35q-78.5 47 -122.5 129.5t-44 185.5q0 141 99 243l-14 14q43 48 112.5 76.5t146.5 28.5q99 0 177.5 -47t122.5 -129.5t44 -185.5t-44 -185.5t-122.5 -129.5t-177.5 -47t-177.5 47zM520 109.5q57 35.5 88.5 98t31.5 142.5t-31.5 142.5t-88.5 98t-130 35.5
q-60 0 -112 -24t-82 -59l14 -14q-70 -75 -70 -179q0 -80 31.5 -142.5t88.5 -98t130 -35.5t130 35.5zM365 923h50l120 -134h-88l-57 60l-57 -60h-88z" />
    <glyph glyph-name="Odieresis.ss01" horiz-adv-x="780" 
d="M212.5 35q-78.5 47 -122.5 129.5t-44 185.5q0 141 99 243l-14 14q43 48 112.5 76.5t146.5 28.5q99 0 177.5 -47t122.5 -129.5t44 -185.5t-44 -185.5t-122.5 -129.5t-177.5 -47t-177.5 47zM520 109.5q57 35.5 88.5 98t31.5 142.5t-31.5 142.5t-88.5 98t-130 35.5
q-60 0 -112 -24t-82 -59l14 -14q-70 -75 -70 -179q0 -80 31.5 -142.5t88.5 -98t130 -35.5t130 35.5zM264.5 814.5q-17.5 17.5 -17.5 41.5t17.5 41.5t41.5 17.5t41.5 -17.5t17.5 -41.5t-17.5 -41.5t-41.5 -17.5t-41.5 17.5zM431.5 814.5q-17.5 17.5 -17.5 41.5t17.5 41.5
t41.5 17.5t41.5 -17.5t17.5 -41.5t-17.5 -41.5t-41.5 -17.5t-41.5 17.5z" />
    <glyph glyph-name="Ograve.ss01" horiz-adv-x="780" 
d="M212.5 35q-78.5 47 -122.5 129.5t-44 185.5q0 141 99 243l-14 14q43 48 112.5 76.5t146.5 28.5q99 0 177.5 -47t122.5 -129.5t44 -185.5t-44 -185.5t-122.5 -129.5t-177.5 -47t-177.5 47zM520 109.5q57 35.5 88.5 98t31.5 142.5t-31.5 142.5t-88.5 98t-130 35.5
q-60 0 -112 -24t-82 -59l14 -14q-70 -75 -70 -179q0 -80 31.5 -142.5t88.5 -98t130 -35.5t130 35.5zM268 930h111l51 -142h-81z" />
    <glyph glyph-name="Ohungarumlaut.ss01" horiz-adv-x="780" 
d="M212.5 35q-78.5 47 -122.5 129.5t-44 185.5q0 141 99 243l-14 14q43 48 112.5 76.5t146.5 28.5q99 0 177.5 -47t122.5 -129.5t44 -185.5t-44 -185.5t-122.5 -129.5t-177.5 -47t-177.5 47zM520 109.5q57 35.5 88.5 98t31.5 142.5t-31.5 142.5t-88.5 98t-130 35.5
q-60 0 -112 -24t-82 -59l14 -14q-70 -75 -70 -179q0 -80 31.5 -142.5t88.5 -98t130 -35.5t130 35.5zM326 930h105l-81 -142h-75zM468 930h105l-81 -142h-75z" />
    <glyph glyph-name="Omacron.ss01" horiz-adv-x="780" 
d="M212.5 35q-78.5 47 -122.5 129.5t-44 185.5q0 141 99 243l-14 14q43 48 112.5 76.5t146.5 28.5q99 0 177.5 -47t122.5 -129.5t44 -185.5t-44 -185.5t-122.5 -129.5t-177.5 -47t-177.5 47zM520 109.5q57 35.5 88.5 98t31.5 142.5t-31.5 142.5t-88.5 98t-130 35.5
q-60 0 -112 -24t-82 -59l14 -14q-70 -75 -70 -179q0 -80 31.5 -142.5t88.5 -98t130 -35.5t130 35.5zM249 880h282v-64h-282v64z" />
    <glyph glyph-name="Oslash.ss01" horiz-adv-x="780" 
d="M700 515q34 -75 34 -165q0 -103 -44 -185.5t-122.5 -129.5t-177.5 -47q-76 0 -145 30l-47 -82l-72 41l49 84q-61 49 -95 124t-34 165q0 141 99 243l-14 14q43 48 112.5 76.5t146.5 28.5q76 0 145 -30l47 82l72 -41l-49 -84q61 -49 95 -124zM161 231q21 -54 60 -91
l269 466q-46 20 -100 20q-60 0 -112 -24t-82 -59l14 -14q-70 -75 -70 -179q0 -65 21 -119zM520 109.5q57 35.5 88.5 98t31.5 142.5q0 65 -21 119t-60 91l-269 -466q46 -20 100 -20q73 0 130 35.5z" />
    <glyph glyph-name="Otilde.ss01" horiz-adv-x="780" 
d="M212.5 35q-78.5 47 -122.5 129.5t-44 185.5q0 141 99 243l-14 14q43 48 112.5 76.5t146.5 28.5q99 0 177.5 -47t122.5 -129.5t44 -185.5t-44 -185.5t-122.5 -129.5t-177.5 -47t-177.5 47zM520 109.5q57 35.5 88.5 98t31.5 142.5t-31.5 142.5t-88.5 98t-130 35.5
q-60 0 -112 -24t-82 -59l14 -14q-70 -75 -70 -179q0 -80 31.5 -142.5t88.5 -98t130 -35.5t130 35.5zM418.5 779.5q-15.5 6.5 -34.5 19.5q-16 10 -27.5 15t-24.5 5q-18 0 -31 -11t-13 -29h-69q0 52 29.5 83.5t74.5 31.5q21 0 37 -6.5t34 -18.5q17 -11 28 -16t25 -5
q18 0 30.5 11t12.5 29h70q0 -52 -30 -83.5t-75 -31.5q-21 0 -36.5 6.5z" />
    <glyph glyph-name="Q.ss01" horiz-adv-x="780" 
d="M687 -8l-76 76q-41 -39 -102.5 -59.5t-118.5 -20.5q-101 0 -179.5 47t-121.5 129.5t-43 185.5t44 185.5t122.5 129.5t177.5 47q98 0 176.5 -47.5t123 -126t44.5 -167.5q0 -64 -18 -114t-53 -94l99 -101zM474.5 89q45.5 15 71.5 41l-13 15q44 34 75.5 92.5t31.5 122.5
q0 75 -31.5 135.5t-88.5 95.5t-130 35t-130 -35.5t-88.5 -98t-31.5 -142.5q0 -81 32 -144t89 -97.5t129 -34.5q39 0 84.5 15z" />
    <glyph glyph-name="a" unicode="a" horiz-adv-x="586" 
d="M159 21q-53 33 -84 91.5t-31 132.5q0 75 31.5 133.5t85 91t117.5 32.5q53 0 97.5 -21.5t66.5 -56.5v66h84v-490h-78v72h-6q-21 -37 -66.5 -60.5t-101.5 -23.5q-62 0 -115 33zM369 90q37 22 58 62.5t21 92.5t-21 92.5t-57.5 62.5t-81.5 22q-46 0 -82.5 -22t-57 -62
t-20.5 -93q0 -52 20.5 -92.5t56.5 -62.5t81 -22q46 0 83 22z" />
    <glyph glyph-name="aacute" unicode="&#xe1;" horiz-adv-x="586" 
d="M159 21q-53 33 -84 91.5t-31 132.5q0 75 31.5 133.5t85 91t117.5 32.5q53 0 97.5 -21.5t66.5 -56.5v66h84v-490h-78v72h-6q-21 -37 -66.5 -60.5t-101.5 -23.5q-62 0 -115 33zM369 90q37 22 58 62.5t21 92.5t-21 92.5t-57.5 62.5t-81.5 22q-46 0 -82.5 -22t-57 -62
t-20.5 -93q0 -52 20.5 -92.5t56.5 -62.5t81 -22q46 0 83 22zM295 720h111l-81 -142h-81z" />
    <glyph glyph-name="abreve" unicode="&#x103;" horiz-adv-x="586" 
d="M159 21q-53 33 -84 91.5t-31 132.5q0 75 31.5 133.5t85 91t117.5 32.5q53 0 97.5 -21.5t66.5 -56.5v66h84v-490h-78v72h-6q-21 -37 -66.5 -60.5t-101.5 -23.5q-62 0 -115 33zM369 90q37 22 58 62.5t21 92.5t-21 92.5t-57.5 62.5t-81.5 22q-46 0 -82.5 -22t-57 -62
t-20.5 -93q0 -52 20.5 -92.5t56.5 -62.5t81 -22q46 0 83 22zM197.5 604q-33.5 32 -35.5 87h74q2 -22 15.5 -35.5t33.5 -13.5t33 13.5t15 35.5h74q-1 -54 -34.5 -86.5t-87.5 -32.5t-87.5 32z" />
    <glyph glyph-name="acircumflex" unicode="&#xe2;" horiz-adv-x="586" 
d="M159 21q-53 33 -84 91.5t-31 132.5q0 75 31.5 133.5t85 91t117.5 32.5q53 0 97.5 -21.5t66.5 -56.5v66h84v-490h-78v72h-6q-21 -37 -66.5 -60.5t-101.5 -23.5q-62 0 -115 33zM369 90q37 22 58 62.5t21 92.5t-21 92.5t-57.5 62.5t-81.5 22q-46 0 -82.5 -22t-57 -62
t-20.5 -93q0 -52 20.5 -92.5t56.5 -62.5t81 -22q46 0 83 22zM260 713h50l120 -134h-88l-57 60l-57 -60h-88z" />
    <glyph glyph-name="adieresis" unicode="&#xe4;" horiz-adv-x="586" 
d="M159 21q-53 33 -84 91.5t-31 132.5q0 75 31.5 133.5t85 91t117.5 32.5q53 0 97.5 -21.5t66.5 -56.5v66h84v-490h-78v72h-6q-21 -37 -66.5 -60.5t-101.5 -23.5q-62 0 -115 33zM369 90q37 22 58 62.5t21 92.5t-21 92.5t-57.5 62.5t-81.5 22q-46 0 -82.5 -22t-57 -62
t-20.5 -93q0 -52 20.5 -92.5t56.5 -62.5t81 -22q46 0 83 22zM159.5 604.5q-17.5 17.5 -17.5 41.5t17.5 41.5t41.5 17.5t41.5 -17.5t17.5 -41.5t-17.5 -41.5t-41.5 -17.5t-41.5 17.5zM326.5 604.5q-17.5 17.5 -17.5 41.5t17.5 41.5t41.5 17.5t41.5 -17.5t17.5 -41.5
t-17.5 -41.5t-41.5 -17.5t-41.5 17.5z" />
    <glyph glyph-name="agrave" unicode="&#xe0;" horiz-adv-x="586" 
d="M159 21q-53 33 -84 91.5t-31 132.5q0 75 31.5 133.5t85 91t117.5 32.5q53 0 97.5 -21.5t66.5 -56.5v66h84v-490h-78v72h-6q-21 -37 -66.5 -60.5t-101.5 -23.5q-62 0 -115 33zM369 90q37 22 58 62.5t21 92.5t-21 92.5t-57.5 62.5t-81.5 22q-46 0 -82.5 -22t-57 -62
t-20.5 -93q0 -52 20.5 -92.5t56.5 -62.5t81 -22q46 0 83 22zM163 720h111l51 -142h-81z" />
    <glyph glyph-name="amacron" unicode="&#x101;" horiz-adv-x="586" 
d="M159 21q-53 33 -84 91.5t-31 132.5q0 75 31.5 133.5t85 91t117.5 32.5q53 0 97.5 -21.5t66.5 -56.5v66h84v-490h-78v72h-6q-21 -37 -66.5 -60.5t-101.5 -23.5q-62 0 -115 33zM369 90q37 22 58 62.5t21 92.5t-21 92.5t-57.5 62.5t-81.5 22q-46 0 -82.5 -22t-57 -62
t-20.5 -93q0 -52 20.5 -92.5t56.5 -62.5t81 -22q46 0 83 22zM144 670h282v-64h-282v64z" />
    <glyph glyph-name="aogonek" unicode="&#x105;" horiz-adv-x="586" 
d="M550 -202q-37 -20 -78 -20q-48 0 -76 27t-28 68q0 43 23.5 76.5t56.5 50.5v72h-6q-21 -37 -66.5 -60.5t-101.5 -23.5q-62 0 -115 33t-84 91.5t-31 132.5q0 75 31.5 133.5t85 91t117.5 32.5q53 0 97.5 -21.5t66.5 -56.5v66h84v-490l-34 -25t-40 -41t-13 -46
q0 -23 13 -36.5t33 -13.5q21 0 46 13zM369 90q37 22 58 62.5t21 92.5t-21 92.5t-57.5 62.5t-81.5 22q-46 0 -82.5 -22t-57 -62t-20.5 -93q0 -52 20.5 -92.5t56.5 -62.5t81 -22q46 0 83 22z" />
    <glyph glyph-name="aring" unicode="&#xe5;" horiz-adv-x="586" 
d="M159 21q-53 33 -84 91.5t-31 132.5q0 75 31.5 133.5t85 91t117.5 32.5q53 0 97.5 -21.5t66.5 -56.5v66h84v-490h-78v72h-6q-21 -37 -66.5 -60.5t-101.5 -23.5q-62 0 -115 33zM369 90q37 22 58 62.5t21 92.5t-21 92.5t-57.5 62.5t-81.5 22q-46 0 -82.5 -22t-57 -62
t-20.5 -93q0 -52 20.5 -92.5t56.5 -62.5t81 -22q46 0 83 22zM221 581q-27 27 -27 64q0 38 27 64.5t64 26.5q38 0 64.5 -26.5t26.5 -64.5q0 -37 -26.5 -64t-64.5 -27q-37 0 -64 27zM308.5 622q9.5 10 9.5 23q0 14 -9.5 23.5t-23.5 9.5q-13 0 -23 -9.5t-10 -23.5q0 -13 10 -23
t23 -10q14 0 23.5 10z" />
    <glyph glyph-name="atilde" unicode="&#xe3;" horiz-adv-x="586" 
d="M159 21q-53 33 -84 91.5t-31 132.5q0 75 31.5 133.5t85 91t117.5 32.5q53 0 97.5 -21.5t66.5 -56.5v66h84v-490h-78v72h-6q-21 -37 -66.5 -60.5t-101.5 -23.5q-62 0 -115 33zM369 90q37 22 58 62.5t21 92.5t-21 92.5t-57.5 62.5t-81.5 22q-46 0 -82.5 -22t-57 -62
t-20.5 -93q0 -52 20.5 -92.5t56.5 -62.5t81 -22q46 0 83 22zM313.5 569.5q-15.5 6.5 -34.5 19.5q-16 10 -27.5 15t-24.5 5q-18 0 -31 -11t-13 -29h-69q0 52 29.5 83.5t74.5 31.5q21 0 37 -6.5t34 -18.5q17 -11 28 -16t25 -5q18 0 30.5 11t12.5 29h70q0 -52 -30 -83.5
t-75 -31.5q-21 0 -36.5 6.5z" />
    <glyph glyph-name="ae" unicode="&#xe6;" horiz-adv-x="959" 
d="M159 21q-53 33 -84 91.5t-31 132.5q0 75 31.5 133.5t85 91t117.5 32.5q53 0 97.5 -21.5t66.5 -56.5v66h84v-52q32 31 73 47.5t87 16.5q73 0 124.5 -31.5t78 -85t26.5 -118.5q0 -18 -3 -33l-12 -13h-367q7 -73 52 -113t110 -40q51 0 84 23t54 63l69 -37q-25 -55 -76.5 -92
t-130.5 -37q-101 0 -169 63v-51h-78v72h-6q-21 -37 -66.5 -60.5t-101.5 -23.5q-62 0 -115 33zM369 90q37 22 58 62.5t21 92.5t-21 92.5t-57.5 62.5t-81.5 22q-46 0 -82.5 -22t-57 -62t-20.5 -93q0 -52 20.5 -92.5t56.5 -62.5t81 -22q46 0 83 22zM828 295q-6 62 -46 94.5
t-96 32.5t-96 -34t-53 -93h291z" />
    <glyph glyph-name="b" unicode="b" horiz-adv-x="590" 
d="M211.5 12q-46.5 24 -67.5 60h-6v-72h-78v700h84v-280q22 34 71.5 58t99.5 24q64 0 117 -32.5t83.5 -91t30.5 -133.5q0 -74 -31.5 -132.5t-85 -91.5t-115.5 -33q-56 0 -102.5 24zM383.5 90q36.5 22 57.5 62.5t21 92.5t-21 92.5t-58 62.5t-83 22q-45 0 -82 -22t-58.5 -62.5
t-21.5 -92.5t21.5 -92.5t59 -62.5t83.5 -22q45 0 81.5 22z" />
    <glyph glyph-name="c" unicode="c" horiz-adv-x="543" 
d="M164 21.5q-56 33.5 -88 92t-32 131.5t32 131.5t88 92t126 33.5q71 0 125.5 -31.5t87.5 -88.5l-69 -47q-20 42 -57.5 64.5t-86.5 22.5q-70 0 -116 -47.5t-46 -129.5t46 -129.5t116 -47.5q48 0 87.5 24.5t62.5 65.5l67 -47q-32 -55 -90 -89t-127 -34q-70 0 -126 33.5z" />
    <glyph glyph-name="cacute" unicode="&#x107;" horiz-adv-x="543" 
d="M164 21.5q-56 33.5 -88 92t-32 131.5t32 131.5t88 92t126 33.5q71 0 125.5 -31.5t87.5 -88.5l-69 -47q-20 42 -57.5 64.5t-86.5 22.5q-70 0 -116 -47.5t-46 -129.5t46 -129.5t116 -47.5q48 0 87.5 24.5t62.5 65.5l67 -47q-32 -55 -90 -89t-127 -34q-70 0 -126 33.5z
M300 720h111l-81 -142h-81z" />
    <glyph glyph-name="ccaron" unicode="&#x10d;" horiz-adv-x="543" 
d="M164 21.5q-56 33.5 -88 92t-32 131.5t32 131.5t88 92t126 33.5q71 0 125.5 -31.5t87.5 -88.5l-69 -47q-20 42 -57.5 64.5t-86.5 22.5q-70 0 -116 -47.5t-46 -129.5t46 -129.5t116 -47.5q48 0 87.5 24.5t62.5 65.5l67 -47q-32 -55 -90 -89t-127 -34q-70 0 -126 33.5z
M145 713h88l57 -60l57 60h88l-120 -134h-50z" />
    <glyph glyph-name="ccedilla" unicode="&#xe7;" horiz-adv-x="543" 
d="M425.5 27q-51.5 -33 -113.5 -38l-14 -40q4 6 15 9.5t21 3.5q32 0 52 -22.5t20 -57.5q0 -39 -27 -62.5t-70 -23.5q-20 0 -40 7.5t-34 22.5l28 34q12 -10 21.5 -15t24.5 -5q22 0 34.5 12.5t12.5 30.5q0 16 -8.5 26t-23.5 10q-13 0 -22 -7t-13 -16l-9 -4l-36 14l19 83
q-63 7 -113 42t-78 90.5t-28 123.5q0 73 32 131.5t88 92t126 33.5q71 0 125.5 -31.5t87.5 -88.5l-69 -47q-20 42 -57.5 64.5t-86.5 22.5q-70 0 -116 -47.5t-46 -129.5t46 -129.5t116 -47.5q48 0 87.5 24.5t62.5 65.5l67 -47q-30 -51 -81.5 -84z" />
    <glyph glyph-name="d" unicode="d" horiz-adv-x="590" 
d="M160.5 21q-53.5 33 -85 91.5t-31.5 132.5q0 75 30.5 133.5t83.5 91t117 32.5q50 0 100 -22.5t71 -56.5v277h84v-700h-78v72h-6q-21 -36 -67.5 -60t-102.5 -24q-62 0 -115.5 33zM371.5 90q37.5 22 59 62.5t21.5 92.5t-21.5 92.5t-58.5 62.5t-82 22q-46 0 -83 -22
t-58 -62.5t-21 -92.5t21 -92.5t57.5 -62.5t81.5 -22q46 0 83.5 22z" />
    <glyph glyph-name="eth" unicode="&#xf0;" horiz-adv-x="594" 
d="M541 331q0 -151 -56.5 -247t-197.5 -96q-70 0 -125.5 32.5t-86.5 91t-31 133.5q0 74 31.5 132.5t85 91.5t115.5 33q56 0 102.5 -24t67.5 -60h6q0 31 -21 75t-62 89l-48 -50l-54 46l50 52q-26 22 -68 49l54 50q40 -27 65 -46l48 50l54 -46l-49 -51q120 -122 120 -305z
M372 90q37 22 58.5 62.5t21.5 92.5t-21.5 92.5t-59 62.5t-83.5 22q-45 0 -81.5 -22t-57.5 -62.5t-21 -92.5t21 -92.5t58 -62.5t83 -22q45 0 82 22z" />
    <glyph glyph-name="dcaron" unicode="&#x10f;" horiz-adv-x="722" 
d="M160.5 21q-53.5 33 -85 91.5t-31.5 132.5q0 75 30.5 133.5t83.5 91t117 32.5q50 0 100 -22.5t71 -56.5v277h84v-700h-78v72h-6q-21 -36 -67.5 -60t-102.5 -24q-62 0 -115.5 33zM371.5 90q37.5 22 59 62.5t21.5 92.5t-21.5 92.5t-58.5 62.5t-82 22q-46 0 -83 -22
t-58 -62.5t-21 -92.5t21 -92.5t57.5 -62.5t81.5 -22q46 0 83.5 22zM633 700h89l-59 -163h-89z" />
    <glyph glyph-name="dcroat" unicode="&#x111;" horiz-adv-x="610" 
d="M610 566h-80v-566h-78v72h-6q-21 -36 -67.5 -60t-102.5 -24q-62 0 -115.5 33t-85 91.5t-31.5 132.5q0 75 30.5 133.5t83.5 91t117 32.5q50 0 100 -22.5t71 -56.5v143h-198v64h198v70h84v-70h80v-64zM371.5 90q37.5 22 59 62.5t21.5 92.5t-21.5 92.5t-58.5 62.5t-82 22
q-46 0 -83 -22t-58 -62.5t-21 -92.5t21 -92.5t57.5 -62.5t81.5 -22q46 0 83.5 22z" />
    <glyph glyph-name="e" unicode="e" horiz-adv-x="555" 
d="M496 221h-367q7 -73 52 -113t110 -40q51 0 84 23t54 63l69 -37q-25 -55 -76.5 -92t-130.5 -37q-73 0 -129 33t-87 91.5t-31 132.5q0 73 31.5 132t86 92t120.5 33q73 0 124.5 -31.5t78 -85t26.5 -118.5q0 -18 -3 -33zM424 295q-6 62 -46 94.5t-96 32.5t-96 -34t-53 -93
h291z" />
    <glyph glyph-name="eacute" unicode="&#xe9;" horiz-adv-x="555" 
d="M496 221h-367q7 -73 52 -113t110 -40q51 0 84 23t54 63l69 -37q-25 -55 -76.5 -92t-130.5 -37q-73 0 -129 33t-87 91.5t-31 132.5q0 73 31.5 132t86 92t120.5 33q73 0 124.5 -31.5t78 -85t26.5 -118.5q0 -18 -3 -33zM424 295q-6 62 -46 94.5t-96 32.5t-96 -34t-53 -93
h291zM289 720h111l-81 -142h-81z" />
    <glyph glyph-name="ecaron" unicode="&#x11b;" horiz-adv-x="555" 
d="M496 221h-367q7 -73 52 -113t110 -40q51 0 84 23t54 63l69 -37q-25 -55 -76.5 -92t-130.5 -37q-73 0 -129 33t-87 91.5t-31 132.5q0 73 31.5 132t86 92t120.5 33q73 0 124.5 -31.5t78 -85t26.5 -118.5q0 -18 -3 -33zM424 295q-6 62 -46 94.5t-96 32.5t-96 -34t-53 -93
h291zM134 713h88l57 -60l57 60h88l-120 -134h-50z" />
    <glyph glyph-name="ecircumflex" unicode="&#xea;" horiz-adv-x="555" 
d="M496 221h-367q7 -73 52 -113t110 -40q51 0 84 23t54 63l69 -37q-25 -55 -76.5 -92t-130.5 -37q-73 0 -129 33t-87 91.5t-31 132.5q0 73 31.5 132t86 92t120.5 33q73 0 124.5 -31.5t78 -85t26.5 -118.5q0 -18 -3 -33zM424 295q-6 62 -46 94.5t-96 32.5t-96 -34t-53 -93
h291zM254 713h50l120 -134h-88l-57 60l-57 -60h-88z" />
    <glyph glyph-name="edieresis" unicode="&#xeb;" horiz-adv-x="555" 
d="M496 221h-367q7 -73 52 -113t110 -40q51 0 84 23t54 63l69 -37q-25 -55 -76.5 -92t-130.5 -37q-73 0 -129 33t-87 91.5t-31 132.5q0 73 31.5 132t86 92t120.5 33q73 0 124.5 -31.5t78 -85t26.5 -118.5q0 -18 -3 -33zM424 295q-6 62 -46 94.5t-96 32.5t-96 -34t-53 -93
h291zM153.5 604.5q-17.5 17.5 -17.5 41.5t17.5 41.5t41.5 17.5t41.5 -17.5t17.5 -41.5t-17.5 -41.5t-41.5 -17.5t-41.5 17.5zM320.5 604.5q-17.5 17.5 -17.5 41.5t17.5 41.5t41.5 17.5t41.5 -17.5t17.5 -41.5t-17.5 -41.5t-41.5 -17.5t-41.5 17.5z" />
    <glyph glyph-name="edotaccent" unicode="&#x117;" horiz-adv-x="555" 
d="M496 221h-367q7 -73 52 -113t110 -40q51 0 84 23t54 63l69 -37q-25 -55 -76.5 -92t-130.5 -37q-73 0 -129 33t-87 91.5t-31 132.5q0 73 31.5 132t86 92t120.5 33q73 0 124.5 -31.5t78 -85t26.5 -118.5q0 -18 -3 -33zM424 295q-6 62 -46 94.5t-96 32.5t-96 -34t-53 -93
h291zM239.5 604.5q-16.5 16.5 -16.5 39.5t16.5 39.5t39.5 16.5t39.5 -16.5t16.5 -39.5t-16.5 -39.5t-39.5 -16.5t-39.5 16.5z" />
    <glyph glyph-name="egrave" unicode="&#xe8;" horiz-adv-x="555" 
d="M496 221h-367q7 -73 52 -113t110 -40q51 0 84 23t54 63l69 -37q-25 -55 -76.5 -92t-130.5 -37q-73 0 -129 33t-87 91.5t-31 132.5q0 73 31.5 132t86 92t120.5 33q73 0 124.5 -31.5t78 -85t26.5 -118.5q0 -18 -3 -33zM424 295q-6 62 -46 94.5t-96 32.5t-96 -34t-53 -93
h291zM157 720h111l51 -142h-81z" />
    <glyph glyph-name="emacron" unicode="&#x113;" horiz-adv-x="555" 
d="M496 221h-367q7 -73 52 -113t110 -40q51 0 84 23t54 63l69 -37q-25 -55 -76.5 -92t-130.5 -37q-73 0 -129 33t-87 91.5t-31 132.5q0 73 31.5 132t86 92t120.5 33q73 0 124.5 -31.5t78 -85t26.5 -118.5q0 -18 -3 -33zM424 295q-6 62 -46 94.5t-96 32.5t-96 -34t-53 -93
h291zM138 670h282v-64h-282v64z" />
    <glyph glyph-name="eogonek" unicode="&#x119;" horiz-adv-x="555" 
d="M496 221h-367q7 -73 52 -113t110 -40q51 0 84 23t54 63l69 -37q-18 -39 -50.5 -70.5t-78.5 -46.5l-34 -25t-40 -41t-13 -46q0 -23 13 -36.5t33 -13.5q21 0 46 13l19 -53q-37 -20 -78 -20q-48 0 -76 27t-28 68q0 36 17.5 66t43.5 50q-68 4 -119.5 37.5t-80 90.5t-28.5 128
q0 73 31.5 132t86 92t120.5 33q73 0 124.5 -31.5t78 -85t26.5 -118.5q0 -18 -3 -33zM424 295q-6 62 -46 94.5t-96 32.5t-96 -34t-53 -93h291z" />
    <glyph glyph-name="f" unicode="f" horiz-adv-x="325" 
d="M182 550v-60h114v-72h-114v-418h-84v418h-60v72h60v60q0 75 41.5 118.5t103.5 43.5q34 0 58 -12v-80q-22 11 -45 11q-74 0 -74 -81z" />
    <glyph glyph-name="g" unicode="g" horiz-adv-x="578" 
d="M151 -189q-60 34 -86 86l74 49q20 -42 57.5 -65.5t88.5 -23.5q149 0 149 167v63q-22 -39 -68.5 -63t-100.5 -24q-64 0 -116.5 31t-82.5 88t-30 132q0 74 31 131t83.5 88.5t115.5 31.5q56 0 101.5 -23.5t66.5 -60.5h6v72h78v-473q0 -118 -65 -179t-168 -61q-74 0 -134 34z
M360 100.5q37 20.5 58.5 59.5t21.5 91t-22 91t-59 59.5t-81 20.5q-43 0 -79.5 -20.5t-57.5 -59.5t-21 -91t21.5 -91t58 -59.5t80.5 -20.5q43 0 80 20.5z" />
    <glyph glyph-name="gbreve" unicode="&#x11f;" horiz-adv-x="578" 
d="M151 -189q-60 34 -86 86l74 49q20 -42 57.5 -65.5t88.5 -23.5q149 0 149 167v63q-22 -39 -68.5 -63t-100.5 -24q-64 0 -116.5 31t-82.5 88t-30 132q0 74 31 131t83.5 88.5t115.5 31.5q56 0 101.5 -23.5t66.5 -60.5h6v72h78v-473q0 -118 -65 -179t-168 -61q-74 0 -134 34z
M360 100.5q37 20.5 58.5 59.5t21.5 91t-22 91t-59 59.5t-81 20.5q-43 0 -79.5 -20.5t-57.5 -59.5t-21 -91t21.5 -91t58 -59.5t80.5 -20.5q43 0 80 20.5zM193.5 604q-33.5 32 -35.5 87h74q2 -22 15.5 -35.5t33.5 -13.5t33 13.5t15 35.5h74q-1 -54 -34.5 -86.5t-87.5 -32.5
t-87.5 32z" />
    <glyph glyph-name="uni0123" unicode="&#x123;" horiz-adv-x="578" 
d="M151 -189q-60 34 -86 86l74 49q20 -42 57.5 -65.5t88.5 -23.5q149 0 149 167v63q-22 -39 -68.5 -63t-100.5 -24q-64 0 -116.5 31t-82.5 88t-30 132q0 74 31 131t83.5 88.5t115.5 31.5q56 0 101.5 -23.5t66.5 -60.5h6v72h78v-473q0 -118 -65 -179t-168 -61q-74 0 -134 34z
M360 100.5q37 20.5 58.5 59.5t21.5 91t-22 91t-59 59.5t-81 20.5q-43 0 -79.5 -20.5t-57.5 -59.5t-21 -91t21.5 -91t58 -59.5t80.5 -20.5q43 0 80 20.5zM302 720h77l-53 -142h-89z" />
    <glyph glyph-name="h" unicode="h" horiz-adv-x="535" 
d="M60 700h78v-279h6q23 36 63.5 58.5t93.5 22.5q84 0 131 -52.5t47 -143.5v-306h-84v292q0 62 -31.5 96t-88.5 34q-37 0 -66.5 -19t-47 -52.5t-17.5 -74.5v-276h-84v700z" />
    <glyph glyph-name="i" unicode="i" horiz-adv-x="224" 
d="M72.5 604.5q-16.5 16.5 -16.5 39.5t16.5 39.5t39.5 16.5t39.5 -16.5t16.5 -39.5t-16.5 -39.5t-39.5 -16.5t-39.5 16.5zM70 490h84v-490h-84v490z" />
    <glyph glyph-name="dotlessi" unicode="&#x131;" horiz-adv-x="204" 
d="M60 490h84v-490h-84v490z" />
    <glyph glyph-name="iacute" unicode="&#xed;" horiz-adv-x="204" 
d="M60 490h84v-490h-84v490zM112 720h111l-81 -142h-81z" />
    <glyph glyph-name="icircumflex" unicode="&#xee;" horiz-adv-x="204" 
d="M60 490h84v-490h-84v490zM77 713h50l120 -134h-88l-57 60l-57 -60h-88z" />
    <glyph glyph-name="idieresis" unicode="&#xef;" horiz-adv-x="204" 
d="M60 490h84v-490h-84v490zM-23.5 604.5q-17.5 17.5 -17.5 41.5t17.5 41.5t41.5 17.5t41.5 -17.5t17.5 -41.5t-17.5 -41.5t-41.5 -17.5t-41.5 17.5zM143.5 604.5q-17.5 17.5 -17.5 41.5t17.5 41.5t41.5 17.5t41.5 -17.5t17.5 -41.5t-17.5 -41.5t-41.5 -17.5t-41.5 17.5z
" />
    <glyph glyph-name="igrave" unicode="&#xec;" horiz-adv-x="204" 
d="M60 490h84v-490h-84v490zM-20 720h111l51 -142h-81z" />
    <glyph glyph-name="imacron" unicode="&#x12b;" horiz-adv-x="204" 
d="M60 490h84v-490h-84v490zM-39 670h282v-64h-282v64z" />
    <glyph glyph-name="iogonek" unicode="&#x12f;" horiz-adv-x="204" 
d="M60 490h84v-490h-84v490zM62.5 604.5q-16.5 16.5 -16.5 39.5t16.5 39.5t39.5 16.5t39.5 -16.5t16.5 -39.5t-16.5 -39.5t-39.5 -16.5t-39.5 16.5zM14 -195q-28 27 -28 68q0 43 23.5 76.5t56.5 50.5h78l-34 -25t-40 -41t-13 -46q0 -23 13 -36.5t33 -13.5q21 0 46 13l19 -53
q-37 -20 -78 -20q-48 0 -76 27z" />
    <glyph glyph-name="j" unicode="j" horiz-adv-x="227" 
d="M75.5 604.5q-16.5 16.5 -16.5 39.5t16.5 39.5t39.5 16.5t39.5 -16.5t16.5 -39.5t-16.5 -39.5t-39.5 -16.5t-39.5 16.5zM157 490v-567q0 -68 -36 -106.5t-92 -38.5q-24 0 -47.5 5.5t-38.5 14.5l27 80q20 -12 46 -12q28 0 42.5 15.5t14.5 51.5v557h84z" />
    <glyph glyph-name="k" unicode="k" horiz-adv-x="465" 
d="M231 260l212 -260h-99l-200 243v-243h-84v700h84v-425l200 215h99z" />
    <glyph glyph-name="uni0137" unicode="&#x137;" horiz-adv-x="465" 
d="M231 260l212 -260h-99l-200 243v-243h-84v700h84v-425l200 215h99zM189 -86h94l-69 -176h-77z" />
    <glyph glyph-name="l" unicode="l" horiz-adv-x="204" 
d="M60 700h84v-700h-84v700z" />
    <glyph glyph-name="lacute" unicode="&#x13a;" horiz-adv-x="204" 
d="M60 700h84v-700h-84v700zM112 930h111l-81 -142h-81z" />
    <glyph glyph-name="lcaron" unicode="&#x13e;" horiz-adv-x="342" 
d="M60 700h84v-700h-84v700zM253 700h89l-59 -163h-89z" />
    <glyph glyph-name="uni013C" unicode="&#x13c;" horiz-adv-x="204" 
d="M60 700h84v-700h-84v700zM55 -86h94l-69 -176h-77z" />
    <glyph glyph-name="lslash" unicode="&#x142;" horiz-adv-x="300" 
d="M280 351l-92 -53v-298h-84v249l-84 -49v88l84 49v363h84v-314l92 53v-88z" />
    <glyph glyph-name="m" unicode="m" horiz-adv-x="778" 
d="M683 456q39 -46 39 -127v-329h-84v310q0 112 -95 112q-28 0 -53 -15.5t-41 -45.5t-16 -70v-291h-84v310q0 112 -95 112q-28 0 -53 -15.5t-41 -45.5t-16 -70v-291h-84v490h78v-70h6q18 37 54.5 59.5t83.5 22.5q52 0 86.5 -23t50.5 -65q20 41 61 64.5t91 23.5q73 0 112 -46
z" />
    <glyph glyph-name="n" unicode="n" horiz-adv-x="523" 
d="M60 490h78v-74h6q18 37 58.5 61.5t94.5 24.5q79 0 124.5 -53t45.5 -143v-306h-84v292q0 62 -29 96t-85 34q-55 0 -90 -41.5t-35 -104.5v-276h-84v490z" />
    <glyph glyph-name="nacute" unicode="&#x144;" horiz-adv-x="523" 
d="M60 490h78v-74h6q18 37 58.5 61.5t94.5 24.5q79 0 124.5 -53t45.5 -143v-306h-84v292q0 62 -29 96t-85 34q-55 0 -90 -41.5t-35 -104.5v-276h-84v490zM274 720h111l-81 -142h-81z" />
    <glyph glyph-name="ncaron" unicode="&#x148;" horiz-adv-x="523" 
d="M60 490h78v-74h6q18 37 58.5 61.5t94.5 24.5q79 0 124.5 -53t45.5 -143v-306h-84v292q0 62 -29 96t-85 34q-55 0 -90 -41.5t-35 -104.5v-276h-84v490zM119 713h88l57 -60l57 60h88l-120 -134h-50z" />
    <glyph glyph-name="uni0146" unicode="&#x146;" horiz-adv-x="523" 
d="M60 490h78v-74h6q18 37 58.5 61.5t94.5 24.5q79 0 124.5 -53t45.5 -143v-306h-84v292q0 62 -29 96t-85 34q-55 0 -90 -41.5t-35 -104.5v-276h-84v490zM217 -86h94l-69 -176h-77z" />
    <glyph glyph-name="ntilde" unicode="&#xf1;" horiz-adv-x="523" 
d="M60 490h78v-74h6q18 37 58.5 61.5t94.5 24.5q79 0 124.5 -53t45.5 -143v-306h-84v292q0 62 -29 96t-85 34q-55 0 -90 -41.5t-35 -104.5v-276h-84v490zM292.5 569.5q-15.5 6.5 -34.5 19.5q-16 10 -27.5 15t-24.5 5q-18 0 -31 -11t-13 -29h-69q0 52 29.5 83.5t74.5 31.5
q21 0 37 -6.5t34 -18.5q17 -11 28 -16t25 -5q18 0 30.5 11t12.5 29h70q0 -52 -30 -83.5t-75 -31.5q-21 0 -36.5 6.5z" />
    <glyph glyph-name="o" unicode="o" horiz-adv-x="592" 
d="M168.5 21.5q-57.5 33.5 -91 92.5t-33.5 131t33.5 131t91 92.5t127.5 33.5t127.5 -33.5t91 -92.5t33.5 -131t-33.5 -131t-91 -92.5t-127.5 -33.5t-127.5 33.5zM379.5 89q38.5 21 61.5 61.5t23 94.5t-23 94.5t-61.5 61.5t-83.5 21t-83.5 -21t-61.5 -61.5t-23 -94.5
t23 -94.5t61.5 -61.5t83.5 -21t83.5 21z" />
    <glyph glyph-name="oacute" unicode="&#xf3;" horiz-adv-x="592" 
d="M168.5 21.5q-57.5 33.5 -91 92.5t-33.5 131t33.5 131t91 92.5t127.5 33.5t127.5 -33.5t91 -92.5t33.5 -131t-33.5 -131t-91 -92.5t-127.5 -33.5t-127.5 33.5zM379.5 89q38.5 21 61.5 61.5t23 94.5t-23 94.5t-61.5 61.5t-83.5 21t-83.5 -21t-61.5 -61.5t-23 -94.5
t23 -94.5t61.5 -61.5t83.5 -21t83.5 21zM306 720h111l-81 -142h-81z" />
    <glyph glyph-name="ocircumflex" unicode="&#xf4;" horiz-adv-x="592" 
d="M168.5 21.5q-57.5 33.5 -91 92.5t-33.5 131t33.5 131t91 92.5t127.5 33.5t127.5 -33.5t91 -92.5t33.5 -131t-33.5 -131t-91 -92.5t-127.5 -33.5t-127.5 33.5zM379.5 89q38.5 21 61.5 61.5t23 94.5t-23 94.5t-61.5 61.5t-83.5 21t-83.5 -21t-61.5 -61.5t-23 -94.5
t23 -94.5t61.5 -61.5t83.5 -21t83.5 21zM271 713h50l120 -134h-88l-57 60l-57 -60h-88z" />
    <glyph glyph-name="odieresis" unicode="&#xf6;" horiz-adv-x="592" 
d="M168.5 21.5q-57.5 33.5 -91 92.5t-33.5 131t33.5 131t91 92.5t127.5 33.5t127.5 -33.5t91 -92.5t33.5 -131t-33.5 -131t-91 -92.5t-127.5 -33.5t-127.5 33.5zM379.5 89q38.5 21 61.5 61.5t23 94.5t-23 94.5t-61.5 61.5t-83.5 21t-83.5 -21t-61.5 -61.5t-23 -94.5
t23 -94.5t61.5 -61.5t83.5 -21t83.5 21zM170.5 604.5q-17.5 17.5 -17.5 41.5t17.5 41.5t41.5 17.5t41.5 -17.5t17.5 -41.5t-17.5 -41.5t-41.5 -17.5t-41.5 17.5zM337.5 604.5q-17.5 17.5 -17.5 41.5t17.5 41.5t41.5 17.5t41.5 -17.5t17.5 -41.5t-17.5 -41.5t-41.5 -17.5
t-41.5 17.5z" />
    <glyph glyph-name="ograve" unicode="&#xf2;" horiz-adv-x="592" 
d="M168.5 21.5q-57.5 33.5 -91 92.5t-33.5 131t33.5 131t91 92.5t127.5 33.5t127.5 -33.5t91 -92.5t33.5 -131t-33.5 -131t-91 -92.5t-127.5 -33.5t-127.5 33.5zM379.5 89q38.5 21 61.5 61.5t23 94.5t-23 94.5t-61.5 61.5t-83.5 21t-83.5 -21t-61.5 -61.5t-23 -94.5
t23 -94.5t61.5 -61.5t83.5 -21t83.5 21zM174 720h111l51 -142h-81z" />
    <glyph glyph-name="ohungarumlaut" unicode="&#x151;" horiz-adv-x="592" 
d="M168.5 21.5q-57.5 33.5 -91 92.5t-33.5 131t33.5 131t91 92.5t127.5 33.5t127.5 -33.5t91 -92.5t33.5 -131t-33.5 -131t-91 -92.5t-127.5 -33.5t-127.5 33.5zM379.5 89q38.5 21 61.5 61.5t23 94.5t-23 94.5t-61.5 61.5t-83.5 21t-83.5 -21t-61.5 -61.5t-23 -94.5
t23 -94.5t61.5 -61.5t83.5 -21t83.5 21zM232 720h105l-81 -142h-75zM374 720h105l-81 -142h-75z" />
    <glyph glyph-name="omacron" unicode="&#x14d;" horiz-adv-x="592" 
d="M168.5 21.5q-57.5 33.5 -91 92.5t-33.5 131t33.5 131t91 92.5t127.5 33.5t127.5 -33.5t91 -92.5t33.5 -131t-33.5 -131t-91 -92.5t-127.5 -33.5t-127.5 33.5zM379.5 89q38.5 21 61.5 61.5t23 94.5t-23 94.5t-61.5 61.5t-83.5 21t-83.5 -21t-61.5 -61.5t-23 -94.5
t23 -94.5t61.5 -61.5t83.5 -21t83.5 21zM155 670h282v-64h-282v64z" />
    <glyph glyph-name="oslash" unicode="&#xf8;" horiz-adv-x="592" 
d="M524 358q24 -52 24 -113q0 -72 -33.5 -131t-91 -92.5t-127.5 -33.5q-50 0 -93 17l-40 -69l-68 39l40 70q-43 35 -67 87t-24 113q0 72 33.5 131t91 92.5t127.5 33.5q50 0 93 -17l40 69l68 -39l-40 -70q43 -35 67 -87zM177 116l171 298q-26 8 -52 8q-45 0 -83.5 -21
t-61.5 -61.5t-23 -94.5q0 -78 49 -129zM379.5 89q38.5 21 61.5 61.5t23 94.5q0 78 -49 129l-171 -298q26 -8 52 -8q45 0 83.5 21z" />
    <glyph glyph-name="otilde" unicode="&#xf5;" horiz-adv-x="592" 
d="M168.5 21.5q-57.5 33.5 -91 92.5t-33.5 131t33.5 131t91 92.5t127.5 33.5t127.5 -33.5t91 -92.5t33.5 -131t-33.5 -131t-91 -92.5t-127.5 -33.5t-127.5 33.5zM379.5 89q38.5 21 61.5 61.5t23 94.5t-23 94.5t-61.5 61.5t-83.5 21t-83.5 -21t-61.5 -61.5t-23 -94.5
t23 -94.5t61.5 -61.5t83.5 -21t83.5 21zM324.5 569.5q-15.5 6.5 -34.5 19.5q-16 10 -27.5 15t-24.5 5q-18 0 -31 -11t-13 -29h-69q0 52 29.5 83.5t74.5 31.5q21 0 37 -6.5t34 -18.5q17 -11 28 -16t25 -5q18 0 30.5 11t12.5 29h70q0 -52 -30 -83.5t-75 -31.5q-21 0 -36.5 6.5
z" />
    <glyph glyph-name="oe" unicode="&#x153;" horiz-adv-x="975" 
d="M168.5 21.5q-57.5 33.5 -91 92.5t-33.5 131t33.5 131t91 92.5t127.5 33.5q66 0 120.5 -29.5t88.5 -83.5q32 53 83.5 83t113.5 30q73 0 124.5 -31.5t78 -85t26.5 -118.5q0 -18 -3 -33l-12 -13h-367q7 -73 52 -113t110 -40q51 0 84 23t54 63l69 -37q-25 -55 -76.5 -92
t-130.5 -37q-68 0 -121.5 29.5t-85.5 83.5q-34 -54 -88 -83.5t-120 -29.5q-70 0 -127.5 33.5zM379.5 89q38.5 21 61.5 61.5t23 94.5t-23 94.5t-61.5 61.5t-83.5 21t-83.5 -21t-61.5 -61.5t-23 -94.5t23 -94.5t61.5 -61.5t83.5 -21t83.5 21zM844 295q-6 62 -46 94.5t-96 32.5
t-96 -34t-53 -93h291z" />
    <glyph glyph-name="p" unicode="p" horiz-adv-x="590" 
d="M60 490h78v-72h6q21 36 67.5 60t102.5 24q62 0 115.5 -33t85 -91.5t31.5 -132.5q0 -75 -30.5 -133.5t-83.5 -91t-117 -32.5q-51 0 -99 20t-72 55v-273h-84v700zM383 90q37 22 58 62.5t21 92.5t-21 92.5t-57.5 62.5t-81.5 22q-46 0 -83.5 -22t-59 -62.5t-21.5 -92.5
t21.5 -92.5t58.5 -62.5t82 -22q46 0 83 22z" />
    <glyph glyph-name="thorn" unicode="&#xfe;" horiz-adv-x="590" 
d="M60 700h78v-282h6q21 36 67.5 60t102.5 24q62 0 115.5 -33t85 -91.5t31.5 -132.5q0 -75 -30.5 -133.5t-83.5 -91t-117 -32.5q-51 0 -99 20t-72 55v-273h-84v910zM383 90q37 22 58 62.5t21 92.5t-21 92.5t-57.5 62.5t-81.5 22q-46 0 -83.5 -22t-59 -62.5t-21.5 -92.5
t21.5 -92.5t58.5 -62.5t82 -22q46 0 83 22z" />
    <glyph glyph-name="q" unicode="q" horiz-adv-x="590" 
d="M446 67q-23 -35 -71 -57t-100 -22q-64 0 -117 32.5t-83.5 91t-30.5 133.5q0 74 31.5 132.5t85 91.5t115.5 33q56 0 102.5 -24t67.5 -60h6v72h78v-700h-84v277zM372 90q37 22 58.5 62.5t21.5 92.5t-21.5 92.5t-59 62.5t-83.5 22q-45 0 -81.5 -22t-57.5 -62.5t-21 -92.5
t21 -92.5t58 -62.5t83 -22q45 0 82 22z" />
    <glyph glyph-name="r" unicode="r" horiz-adv-x="358" 
d="M60 490h78v-71h6q41 83 145 83q31 0 51 -10l-19 -81q-15 6 -25 8.5t-26 2.5q-56 0 -91 -44.5t-35 -108.5v-269h-84v490z" />
    <glyph glyph-name="racute" unicode="&#x155;" horiz-adv-x="358" 
d="M60 490h78v-71h6q41 83 145 83q31 0 51 -10l-19 -81q-15 6 -25 8.5t-26 2.5q-56 0 -91 -44.5t-35 -108.5v-269h-84v490zM210 720h111l-81 -142h-81z" />
    <glyph glyph-name="rcaron" unicode="&#x159;" horiz-adv-x="358" 
d="M60 490h78v-71h6q41 83 145 83q31 0 51 -10l-19 -81q-15 6 -25 8.5t-26 2.5q-56 0 -91 -44.5t-35 -108.5v-269h-84v490zM55 713h88l57 -60l57 60h88l-120 -134h-50z" />
    <glyph glyph-name="uni0157" unicode="&#x157;" horiz-adv-x="358" 
d="M60 490h78v-71h6q41 83 145 83q31 0 51 -10l-19 -81q-15 6 -25 8.5t-26 2.5q-56 0 -91 -44.5t-35 -108.5v-269h-84v490zM55 -86h94l-69 -176h-77z" />
    <glyph glyph-name="s" unicode="s" horiz-adv-x="441" 
d="M106 19.5q-51 31.5 -70 79.5l70 49q16 -34 46.5 -57t73.5 -23q40 0 64.5 18.5t24.5 51.5q0 24 -12.5 39.5t-38.5 26.5t-75 25q-133 36 -133 138q0 43 24 73.5t62 46t79 15.5q60 0 102 -23.5t65 -67.5l-61 -44q-20 29 -45.5 43t-63.5 14q-37 0 -59.5 -17t-22.5 -42
q0 -29 29.5 -44.5t97.5 -35.5q66 -20 101 -53.5t35 -87.5q0 -69 -49 -112.5t-126 -43.5q-67 0 -118 31.5z" />
    <glyph glyph-name="sacute" unicode="&#x15b;" horiz-adv-x="441" 
d="M106 19.5q-51 31.5 -70 79.5l70 49q16 -34 46.5 -57t73.5 -23q40 0 64.5 18.5t24.5 51.5q0 24 -12.5 39.5t-38.5 26.5t-75 25q-133 36 -133 138q0 43 24 73.5t62 46t79 15.5q60 0 102 -23.5t65 -67.5l-61 -44q-20 29 -45.5 43t-63.5 14q-37 0 -59.5 -17t-22.5 -42
q0 -29 29.5 -44.5t97.5 -35.5q66 -20 101 -53.5t35 -87.5q0 -69 -49 -112.5t-126 -43.5q-67 0 -118 31.5zM228 720h111l-81 -142h-81z" />
    <glyph glyph-name="scaron" unicode="&#x161;" horiz-adv-x="441" 
d="M106 19.5q-51 31.5 -70 79.5l70 49q16 -34 46.5 -57t73.5 -23q40 0 64.5 18.5t24.5 51.5q0 24 -12.5 39.5t-38.5 26.5t-75 25q-133 36 -133 138q0 43 24 73.5t62 46t79 15.5q60 0 102 -23.5t65 -67.5l-61 -44q-20 29 -45.5 43t-63.5 14q-37 0 -59.5 -17t-22.5 -42
q0 -29 29.5 -44.5t97.5 -35.5q66 -20 101 -53.5t35 -87.5q0 -69 -49 -112.5t-126 -43.5q-67 0 -118 31.5zM73 713h88l57 -60l57 60h88l-120 -134h-50z" />
    <glyph glyph-name="scedilla" unicode="&#x15f;" horiz-adv-x="441" 
d="M356.5 37.5q-42.5 -42.5 -110.5 -48.5l-14 -40q4 6 15 9.5t21 3.5q32 0 52 -22.5t20 -57.5q0 -39 -27 -62.5t-70 -23.5q-20 0 -40 7.5t-34 22.5l28 34q12 -10 21.5 -15t24.5 -5q22 0 34.5 12.5t12.5 30.5q0 16 -8.5 26t-23.5 10q-13 0 -22 -7t-13 -16l-9 -4l-36 14l19 83
q-58 7 -101 37t-60 73l70 49q16 -34 46.5 -57t73.5 -23q40 0 64.5 18.5t24.5 51.5q0 24 -12.5 39.5t-38.5 26.5t-75 25q-133 36 -133 138q0 43 24 73.5t62 46t79 15.5q60 0 102 -23.5t65 -67.5l-61 -44q-20 29 -45.5 43t-63.5 14q-37 0 -59.5 -17t-22.5 -42
q0 -29 29.5 -44.5t97.5 -35.5q66 -20 101 -53.5t35 -87.5q0 -64 -42.5 -106.5z" />
    <glyph glyph-name="uni0219" unicode="&#x219;" horiz-adv-x="441" 
d="M106 19.5q-51 31.5 -70 79.5l70 49q16 -34 46.5 -57t73.5 -23q40 0 64.5 18.5t24.5 51.5q0 24 -12.5 39.5t-38.5 26.5t-75 25q-133 36 -133 138q0 43 24 73.5t62 46t79 15.5q60 0 102 -23.5t65 -67.5l-61 -44q-20 29 -45.5 43t-63.5 14q-37 0 -59.5 -17t-22.5 -42
q0 -29 29.5 -44.5t97.5 -35.5q66 -20 101 -53.5t35 -87.5q0 -69 -49 -112.5t-126 -43.5q-67 0 -118 31.5zM177 -86h94l-69 -176h-77z" />
    <glyph glyph-name="germandbls" unicode="&#xdf;" horiz-adv-x="565" 
d="M483 309.5q40 -46.5 40 -128.5q0 -87 -53.5 -140t-140.5 -53q-76 0 -129 32v87q26 -18 59 -28.5t65 -10.5q49 0 82 28t33 85q0 58 -38 95.5t-117 37.5h-37v80q74 0 114 31.5t40 83.5q0 64 -37 93.5t-88 29.5q-55 0 -93.5 -34.5t-38.5 -117.5v-480h-84v480q0 112 58 172
t155 60q99 0 155.5 -54.5t56.5 -143.5q0 -59 -27.5 -96.5t-76.5 -54.5q62 -7 102 -53.5z" />
    <glyph glyph-name="t" unicode="t" horiz-adv-x="348" 
d="M178 418v-269q0 -78 67 -78q28 0 53 13v-82q-18 -8 -34 -11t-40 -3q-60 0 -95 41.5t-35 113.5v275h-54v72h54v116l84 32v-148h126v-72h-126z" />
    <glyph glyph-name="tcaron" unicode="&#x165;" horiz-adv-x="372" 
d="M178 418v-269q0 -78 67 -78q28 0 53 13v-82q-18 -8 -34 -11t-40 -3q-60 0 -95 41.5t-35 113.5v275h-54v72h54v116l84 32v-148h126v-72h-126zM283 700h89l-59 -163h-89z" />
    <glyph glyph-name="uni0163" unicode="&#x163;" horiz-adv-x="348" 
d="M296 -60.5q20 -22.5 20 -57.5q0 -39 -27 -62.5t-70 -23.5q-20 0 -40 7.5t-34 22.5l28 34q12 -10 21.5 -15t24.5 -5q22 0 34.5 12.5t12.5 30.5q0 16 -8.5 26t-23.5 10q-13 0 -22 -7t-13 -16l-9 -4l-36 14l20 91q-38 14 -59 52t-21 94v275h-54v72h54v116l84 32v-148h126
v-72h-126v-269q0 -78 67 -78q28 0 53 13v-82q-18 -8 -34 -11t-40 -3h-3l-13 -39q4 6 15 9.5t21 3.5q32 0 52 -22.5z" />
    <glyph glyph-name="uni021B" unicode="&#x21b;" horiz-adv-x="348" 
d="M178 418v-269q0 -78 67 -78q28 0 53 13v-82q-18 -8 -34 -11t-40 -3q-60 0 -95 41.5t-35 113.5v275h-54v72h54v116l84 32v-148h126v-72h-126zM153 -86h94l-69 -176h-77z" />
    <glyph glyph-name="u" unicode="u" horiz-adv-x="523" 
d="M101.5 41q-45.5 53 -45.5 143v306h84v-292q0 -62 29 -96t85 -34q55 0 90 41.5t35 104.5v276h84v-490h-78v74h-6q-18 -37 -58.5 -61.5t-94.5 -24.5q-79 0 -124.5 53z" />
    <glyph glyph-name="uacute" unicode="&#xfa;" horiz-adv-x="523" 
d="M101.5 41q-45.5 53 -45.5 143v306h84v-292q0 -62 29 -96t85 -34q55 0 90 41.5t35 104.5v276h84v-490h-78v74h-6q-18 -37 -58.5 -61.5t-94.5 -24.5q-79 0 -124.5 53zM270 720h111l-81 -142h-81z" />
    <glyph glyph-name="ucircumflex" unicode="&#xfb;" horiz-adv-x="523" 
d="M101.5 41q-45.5 53 -45.5 143v306h84v-292q0 -62 29 -96t85 -34q55 0 90 41.5t35 104.5v276h84v-490h-78v74h-6q-18 -37 -58.5 -61.5t-94.5 -24.5q-79 0 -124.5 53zM235 713h50l120 -134h-88l-57 60l-57 -60h-88z" />
    <glyph glyph-name="udieresis" unicode="&#xfc;" horiz-adv-x="523" 
d="M101.5 41q-45.5 53 -45.5 143v306h84v-292q0 -62 29 -96t85 -34q55 0 90 41.5t35 104.5v276h84v-490h-78v74h-6q-18 -37 -58.5 -61.5t-94.5 -24.5q-79 0 -124.5 53zM134.5 604.5q-17.5 17.5 -17.5 41.5t17.5 41.5t41.5 17.5t41.5 -17.5t17.5 -41.5t-17.5 -41.5
t-41.5 -17.5t-41.5 17.5zM301.5 604.5q-17.5 17.5 -17.5 41.5t17.5 41.5t41.5 17.5t41.5 -17.5t17.5 -41.5t-17.5 -41.5t-41.5 -17.5t-41.5 17.5z" />
    <glyph glyph-name="ugrave" unicode="&#xf9;" horiz-adv-x="523" 
d="M101.5 41q-45.5 53 -45.5 143v306h84v-292q0 -62 29 -96t85 -34q55 0 90 41.5t35 104.5v276h84v-490h-78v74h-6q-18 -37 -58.5 -61.5t-94.5 -24.5q-79 0 -124.5 53zM138 720h111l51 -142h-81z" />
    <glyph glyph-name="uhungarumlaut" unicode="&#x171;" horiz-adv-x="523" 
d="M101.5 41q-45.5 53 -45.5 143v306h84v-292q0 -62 29 -96t85 -34q55 0 90 41.5t35 104.5v276h84v-490h-78v74h-6q-18 -37 -58.5 -61.5t-94.5 -24.5q-79 0 -124.5 53zM196 720h105l-81 -142h-75zM338 720h105l-81 -142h-75z" />
    <glyph glyph-name="umacron" unicode="&#x16b;" horiz-adv-x="523" 
d="M101.5 41q-45.5 53 -45.5 143v306h84v-292q0 -62 29 -96t85 -34q55 0 90 41.5t35 104.5v276h84v-490h-78v74h-6q-18 -37 -58.5 -61.5t-94.5 -24.5q-79 0 -124.5 53zM119 670h282v-64h-282v64z" />
    <glyph glyph-name="uogonek" unicode="&#x173;" horiz-adv-x="523" 
d="M487 -202q-37 -20 -78 -20q-48 0 -76 27t-28 68q0 43 23.5 76.5t56.5 50.5v74h-6q-18 -37 -58.5 -61.5t-94.5 -24.5q-79 0 -124.5 53t-45.5 143v306h84v-292q0 -62 29 -96t85 -34q55 0 90 41.5t35 104.5v276h84v-490l-34 -25t-40 -41t-13 -46q0 -23 13 -36.5t33 -13.5
q21 0 46 13z" />
    <glyph glyph-name="uring" unicode="&#x16f;" horiz-adv-x="523" 
d="M101.5 41q-45.5 53 -45.5 143v306h84v-292q0 -62 29 -96t85 -34q55 0 90 41.5t35 104.5v276h84v-490h-78v74h-6q-18 -37 -58.5 -61.5t-94.5 -24.5q-79 0 -124.5 53zM196 581q-27 27 -27 64q0 38 27 64.5t64 26.5q38 0 64.5 -26.5t26.5 -64.5q0 -37 -26.5 -64t-64.5 -27
q-37 0 -64 27zM283.5 622q9.5 10 9.5 23q0 14 -9.5 23.5t-23.5 9.5q-13 0 -23 -9.5t-10 -23.5q0 -13 10 -23t23 -10q14 0 23.5 10z" />
    <glyph glyph-name="v" unicode="v" horiz-adv-x="532" 
d="M18 490h92l153 -384h6l153 384h92l-202 -490h-92z" />
    <glyph glyph-name="w" unicode="w" horiz-adv-x="740" 
d="M18 490h84l111 -378h6l107 378h88l107 -378h6l111 378h84l-152 -490h-96l-101 366h-6l-101 -366h-96z" />
    <glyph glyph-name="x" unicode="x" horiz-adv-x="486" 
d="M195 251v6l-172 233h97l123 -178l123 178h97l-172 -233v-6l181 -251h-98l-131 189l-131 -189h-98z" />
    <glyph glyph-name="y" unicode="y" horiz-adv-x="516" 
d="M217 0l-195 490h92l146 -379h6l136 379h92l-270 -700h-83z" />
    <glyph glyph-name="yacute" unicode="&#xfd;" horiz-adv-x="516" 
d="M217 0l-195 490h92l146 -379h6l136 379h92l-270 -700h-83zM271 720h111l-81 -142h-81z" />
    <glyph glyph-name="ydieresis" unicode="&#xff;" horiz-adv-x="516" 
d="M217 0l-195 490h92l146 -379h6l136 379h92l-270 -700h-83zM135.5 604.5q-17.5 17.5 -17.5 41.5t17.5 41.5t41.5 17.5t41.5 -17.5t17.5 -41.5t-17.5 -41.5t-41.5 -17.5t-41.5 17.5zM302.5 604.5q-17.5 17.5 -17.5 41.5t17.5 41.5t41.5 17.5t41.5 -17.5t17.5 -41.5
t-17.5 -41.5t-41.5 -17.5t-41.5 17.5z" />
    <glyph glyph-name="z" unicode="z" horiz-adv-x="440" 
d="M42 60l240 344v6h-232v80h338v-60l-240 -344v-6h250v-80h-356v60z" />
    <glyph glyph-name="zacute" unicode="&#x17a;" horiz-adv-x="440" 
d="M42 60l240 344v6h-232v80h338v-60l-240 -344v-6h250v-80h-356v60zM228 720h111l-81 -142h-81z" />
    <glyph glyph-name="zcaron" unicode="&#x17e;" horiz-adv-x="440" 
d="M42 60l240 344v6h-232v80h338v-60l-240 -344v-6h250v-80h-356v60zM73 713h88l57 -60l57 60h88l-120 -134h-50z" />
    <glyph glyph-name="zdotaccent" unicode="&#x17c;" horiz-adv-x="440" 
d="M42 60l240 344v6h-232v80h338v-60l-240 -344v-6h250v-80h-356v60zM178.5 604.5q-16.5 16.5 -16.5 39.5t16.5 39.5t39.5 16.5t39.5 -16.5t16.5 -39.5t-16.5 -39.5t-39.5 -16.5t-39.5 16.5z" />
    <glyph glyph-name="a.ss02" horiz-adv-x="517" 
d="M127 8q-39 20 -60 54.5t-21 77.5q0 42 22 76.5t64 55t101 20.5q36 0 73 -11t67 -31v64q0 47 -31 77.5t-84 30.5q-95 0 -136 -94l-70 44q29 62 81.5 96t124.5 34q92 0 145.5 -50.5t53.5 -130.5v-321h-84v58h-6q-59 -70 -150 -70q-51 0 -90 20zM311 88q39 26 60 69v9
q-57 52 -139 52q-44 0 -73 -20.5t-29 -57.5q0 -33 27.5 -55.5t68.5 -22.5q46 0 85 26z" />
    <glyph glyph-name="aacute.ss02" horiz-adv-x="517" 
d="M127 8q-39 20 -60 54.5t-21 77.5q0 42 22 76.5t64 55t101 20.5q36 0 73 -11t67 -31v64q0 47 -31 77.5t-84 30.5q-95 0 -136 -94l-70 44q29 62 81.5 96t124.5 34q92 0 145.5 -50.5t53.5 -130.5v-321h-84v58h-6q-59 -70 -150 -70q-51 0 -90 20zM311 88q39 26 60 69v9
q-57 52 -139 52q-44 0 -73 -20.5t-29 -57.5q0 -33 27.5 -55.5t68.5 -22.5q46 0 85 26zM268 720h111l-81 -142h-81z" />
    <glyph glyph-name="abreve.ss02" horiz-adv-x="517" 
d="M127 8q-39 20 -60 54.5t-21 77.5q0 42 22 76.5t64 55t101 20.5q36 0 73 -11t67 -31v64q0 47 -31 77.5t-84 30.5q-95 0 -136 -94l-70 44q29 62 81.5 96t124.5 34q92 0 145.5 -50.5t53.5 -130.5v-321h-84v58h-6q-59 -70 -150 -70q-51 0 -90 20zM311 88q39 26 60 69v9
q-57 52 -139 52q-44 0 -73 -20.5t-29 -57.5q0 -33 27.5 -55.5t68.5 -22.5q46 0 85 26zM170.5 604q-33.5 32 -35.5 87h74q2 -22 15.5 -35.5t33.5 -13.5t33 13.5t15 35.5h74q-1 -54 -34.5 -86.5t-87.5 -32.5t-87.5 32z" />
    <glyph glyph-name="acircumflex.ss02" horiz-adv-x="517" 
d="M127 8q-39 20 -60 54.5t-21 77.5q0 42 22 76.5t64 55t101 20.5q36 0 73 -11t67 -31v64q0 47 -31 77.5t-84 30.5q-95 0 -136 -94l-70 44q29 62 81.5 96t124.5 34q92 0 145.5 -50.5t53.5 -130.5v-321h-84v58h-6q-59 -70 -150 -70q-51 0 -90 20zM311 88q39 26 60 69v9
q-57 52 -139 52q-44 0 -73 -20.5t-29 -57.5q0 -33 27.5 -55.5t68.5 -22.5q46 0 85 26zM233 713h50l120 -134h-88l-57 60l-57 -60h-88z" />
    <glyph glyph-name="adieresis.ss02" horiz-adv-x="517" 
d="M127 8q-39 20 -60 54.5t-21 77.5q0 42 22 76.5t64 55t101 20.5q36 0 73 -11t67 -31v64q0 47 -31 77.5t-84 30.5q-95 0 -136 -94l-70 44q29 62 81.5 96t124.5 34q92 0 145.5 -50.5t53.5 -130.5v-321h-84v58h-6q-59 -70 -150 -70q-51 0 -90 20zM311 88q39 26 60 69v9
q-57 52 -139 52q-44 0 -73 -20.5t-29 -57.5q0 -33 27.5 -55.5t68.5 -22.5q46 0 85 26zM132.5 604.5q-17.5 17.5 -17.5 41.5t17.5 41.5t41.5 17.5t41.5 -17.5t17.5 -41.5t-17.5 -41.5t-41.5 -17.5t-41.5 17.5zM299.5 604.5q-17.5 17.5 -17.5 41.5t17.5 41.5t41.5 17.5
t41.5 -17.5t17.5 -41.5t-17.5 -41.5t-41.5 -17.5t-41.5 17.5z" />
    <glyph glyph-name="agrave.ss02" horiz-adv-x="517" 
d="M127 8q-39 20 -60 54.5t-21 77.5q0 42 22 76.5t64 55t101 20.5q36 0 73 -11t67 -31v64q0 47 -31 77.5t-84 30.5q-95 0 -136 -94l-70 44q29 62 81.5 96t124.5 34q92 0 145.5 -50.5t53.5 -130.5v-321h-84v58h-6q-59 -70 -150 -70q-51 0 -90 20zM311 88q39 26 60 69v9
q-57 52 -139 52q-44 0 -73 -20.5t-29 -57.5q0 -33 27.5 -55.5t68.5 -22.5q46 0 85 26zM136 720h111l51 -142h-81z" />
    <glyph glyph-name="amacron.ss02" horiz-adv-x="517" 
d="M127 8q-39 20 -60 54.5t-21 77.5q0 42 22 76.5t64 55t101 20.5q36 0 73 -11t67 -31v64q0 47 -31 77.5t-84 30.5q-95 0 -136 -94l-70 44q29 62 81.5 96t124.5 34q92 0 145.5 -50.5t53.5 -130.5v-321h-84v58h-6q-59 -70 -150 -70q-51 0 -90 20zM311 88q39 26 60 69v9
q-57 52 -139 52q-44 0 -73 -20.5t-29 -57.5q0 -33 27.5 -55.5t68.5 -22.5q46 0 85 26zM117 670h282v-64h-282v64z" />
    <glyph glyph-name="aogonek.ss02" horiz-adv-x="517" 
d="M481 -202q-37 -20 -78 -20q-48 0 -76 27t-28 68q0 43 23.5 76.5t56.5 50.5h-6v58h-6q-59 -70 -150 -70q-51 0 -90 20t-60 54.5t-21 77.5q0 42 22 76.5t64 55t101 20.5q36 0 73 -11t67 -31v64q0 47 -31 77.5t-84 30.5q-95 0 -136 -94l-70 44q29 62 81.5 96t124.5 34
q92 0 145.5 -50.5t53.5 -130.5v-321l-34 -25t-40 -41t-13 -46q0 -23 13 -36.5t33 -13.5q21 0 46 13zM371 166q-57 52 -139 52q-44 0 -73 -20.5t-29 -57.5q0 -33 27.5 -55.5t68.5 -22.5q46 0 85 26t60 69v9z" />
    <glyph glyph-name="aring.ss02" horiz-adv-x="517" 
d="M127 8q-39 20 -60 54.5t-21 77.5q0 42 22 76.5t64 55t101 20.5q36 0 73 -11t67 -31v64q0 47 -31 77.5t-84 30.5q-95 0 -136 -94l-70 44q29 62 81.5 96t124.5 34q92 0 145.5 -50.5t53.5 -130.5v-321h-84v58h-6q-59 -70 -150 -70q-51 0 -90 20zM311 88q39 26 60 69v9
q-57 52 -139 52q-44 0 -73 -20.5t-29 -57.5q0 -33 27.5 -55.5t68.5 -22.5q46 0 85 26zM194 581q-27 27 -27 64q0 38 27 64.5t64 26.5q38 0 64.5 -26.5t26.5 -64.5q0 -37 -26.5 -64t-64.5 -27q-37 0 -64 27zM281.5 622q9.5 10 9.5 23q0 14 -9.5 23.5t-23.5 9.5
q-13 0 -23 -9.5t-10 -23.5q0 -13 10 -23t23 -10q14 0 23.5 10z" />
    <glyph glyph-name="atilde.ss02" horiz-adv-x="517" 
d="M127 8q-39 20 -60 54.5t-21 77.5q0 42 22 76.5t64 55t101 20.5q36 0 73 -11t67 -31v64q0 47 -31 77.5t-84 30.5q-95 0 -136 -94l-70 44q29 62 81.5 96t124.5 34q92 0 145.5 -50.5t53.5 -130.5v-321h-84v58h-6q-59 -70 -150 -70q-51 0 -90 20zM311 88q39 26 60 69v9
q-57 52 -139 52q-44 0 -73 -20.5t-29 -57.5q0 -33 27.5 -55.5t68.5 -22.5q46 0 85 26zM286.5 569.5q-15.5 6.5 -34.5 19.5q-16 10 -27.5 15t-24.5 5q-18 0 -31 -11t-13 -29h-69q0 52 29.5 83.5t74.5 31.5q21 0 37 -6.5t34 -18.5q17 -11 28 -16t25 -5q18 0 30.5 11t12.5 29
h70q0 -52 -30 -83.5t-75 -31.5q-21 0 -36.5 6.5z" />
    <glyph glyph-name="ae.ss02" horiz-adv-x="890" 
d="M127 8q-39 20 -60 54.5t-21 77.5q0 42 22 76.5t64 55t101 20.5q36 0 73 -11t67 -31v64q0 47 -31 77.5t-84 30.5q-95 0 -136 -94l-70 44q29 62 81.5 96t124.5 34q62 0 107.5 -24t68.5 -66q76 90 183 90q73 0 124.5 -31.5t78 -85t26.5 -118.5q0 -18 -3 -33l-12 -13h-367
q7 -73 52 -113t110 -40q51 0 84 23t54 63l69 -37q-25 -55 -76.5 -92t-130.5 -37q-101 0 -169 63v-51h-84v58h-6q-59 -70 -150 -70q-51 0 -90 20zM759 295q-6 62 -46 94.5t-96 32.5t-96 -34t-53 -93h291zM311 88q39 26 60 69v9q-57 52 -139 52q-44 0 -73 -20.5t-29 -57.5
q0 -33 27.5 -55.5t68.5 -22.5q46 0 85 26z" />
    <glyph glyph-name="ordfeminine" unicode="&#xaa;" horiz-adv-x="393" 
d="M98 370q-36 23 -56.5 64.5t-20.5 93.5q0 53 20.5 94t56.5 64t82 23q35 0 62 -13t43 -38v43h74v-346h-69v49h-5q-33 -57 -107 -57q-44 0 -80 23zM262.5 445.5q27.5 31.5 27.5 82.5t-27.5 82.5t-71.5 31.5t-71 -31.5t-27 -82.5t27 -82.5t70 -31.5q45 0 72.5 31.5z" />
    <glyph glyph-name="ordmasculine" unicode="&#xba;" horiz-adv-x="393" 
d="M106 370.5q-40 23.5 -62.5 64.5t-22.5 93q0 51 22.5 92.5t62.5 65t90 23.5t90.5 -23.5t63 -65t22.5 -92.5q0 -52 -22.5 -93t-63 -64.5t-90.5 -23.5t-90 23.5zM270 445q29 30 29 83t-29 83t-74 30t-74 -30t-29 -83t29 -83t74 -30t74 30z" />
    <glyph glyph-name="uni0410" unicode="&#x410;" horiz-adv-x="702" 
d="M295 700h112l263 -700h-94l-58 159h-334l-58 -159h-94zM491 233l-113 305l-24 84h-6l-24 -84l-113 -305h280z" />
    <glyph glyph-name="uni0411" unicode="&#x411;" horiz-adv-x="575" 
d="M62 700h428v-86h-336v-200h153q108 0 171 -55t63 -152t-63 -152t-171 -55h-245v700zM312 86q64 0 100.5 32t36.5 89t-36.5 89t-100.5 32h-158v-242h158z" />
    <glyph glyph-name="uni0412" unicode="&#x412;" horiz-adv-x="549" 
d="M62 700h212q66 0 114.5 -23.5t74 -64.5t25.5 -91q0 -55 -27 -95t-67 -59q57 -23 89 -63t32 -106q0 -56 -29.5 -101t-83 -71t-121.5 -26h-219v700zM277 400q57 0 89 28t32 79t-32 79t-89 28h-123v-214h123zM291 86q60 0 96 33.5t36 86.5t-36 86.5t-96 33.5h-137v-240h137z
" />
    <glyph glyph-name="uni0413" unicode="&#x413;" horiz-adv-x="565" 
d="M515 614h-361v-614h-92v700h453v-86z" />
    <glyph glyph-name="uni0403" unicode="&#x403;" horiz-adv-x="565" 
d="M515 614h-361v-614h-92v700h453v-86zM298 930h111l-81 -142h-81z" />
    <glyph glyph-name="uni0490" unicode="&#x490;" horiz-adv-x="565" 
d="M515 836v-222h-361v-614h-92v700h361v136h92z" />
    <glyph glyph-name="uni0414" unicode="&#x414;" horiz-adv-x="767" 
d="M38 86h80q39 79 58.5 162.5t21.5 180.5l6 271h446v-614h77v-226h-92v140h-505v-140h-92v226zM558 86v528h-268l-6 -181q-3 -103 -19 -187t-51 -160h344z" />
    <glyph glyph-name="uni0415" unicode="&#x415;" horiz-adv-x="561" 
d="M513 86v-86h-451v700h445v-86h-353v-226h319v-76h-319v-226h359z" />
    <glyph glyph-name="uni0400" unicode="&#x400;" horiz-adv-x="561" 
d="M513 86v-86h-451v700h445v-86h-353v-226h319v-76h-319v-226h359zM172 930h111l51 -142h-81z" />
    <glyph glyph-name="uni0401" unicode="&#x401;" horiz-adv-x="561" 
d="M513 86v-86h-451v700h445v-86h-353v-226h319v-76h-319v-226h359zM168.5 814.5q-17.5 17.5 -17.5 41.5t17.5 41.5t41.5 17.5t41.5 -17.5t17.5 -41.5t-17.5 -41.5t-41.5 -17.5t-41.5 17.5zM335.5 814.5q-17.5 17.5 -17.5 41.5t17.5 41.5t41.5 17.5t41.5 -17.5t17.5 -41.5
t-17.5 -41.5t-41.5 -17.5t-41.5 17.5z" />
    <glyph glyph-name="uni0416" unicode="&#x416;" horiz-adv-x="882" 
d="M862 0h-108l-261 326h-6v-326h-92v326h-6l-261 -326h-108l283 359v6l-254 335h106l234 -312h6v312h92v-312h6l234 312h106l-254 -335v-6z" />
    <glyph glyph-name="uni0417" unicode="&#x417;" horiz-adv-x="592" 
d="M135.5 28.5q-68.5 40.5 -99.5 106.5l71 51q29 -50 75.5 -81t110.5 -31q68 0 109.5 32.5t41.5 95.5q0 55 -43 89t-117 34h-67v80h72q61 0 98 27.5t37 81.5t-37.5 83t-102.5 29q-51 0 -91.5 -26.5t-64.5 -70.5l-69 47q28 59 88.5 97.5t136.5 38.5q70 0 123 -23t82 -65.5
t29 -98.5q0 -55 -29 -95.5t-75 -60.5q57 -22 90.5 -63.5t33.5 -100.5q0 -64 -32 -113.5t-87.5 -76.5t-125.5 -27q-89 0 -157.5 40.5z" />
    <glyph glyph-name="uni0418" unicode="&#x418;" horiz-adv-x="676" 
d="M522 0v525l6 83h-6l-334 -608h-126v700h92v-525l-6 -83h6l334 608h126v-700h-92z" />
    <glyph glyph-name="uni0419" unicode="&#x419;" horiz-adv-x="676" 
d="M522 0v525l6 83h-6l-334 -608h-126v700h92v-525l-6 -83h6l334 608h126v-700h-92zM250.5 814q-33.5 32 -35.5 87h74q2 -22 15.5 -35.5t33.5 -13.5t33 13.5t15 35.5h74q-1 -54 -34.5 -86.5t-87.5 -32.5t-87.5 32z" />
    <glyph glyph-name="uni040D" unicode="&#x40d;" horiz-adv-x="676" 
d="M522 0v525l6 83h-6l-334 -608h-126v700h92v-525l-6 -83h6l334 608h126v-700h-92zM216 930h111l51 -142h-81z" />
    <glyph glyph-name="uni041A" unicode="&#x41a;" horiz-adv-x="579" 
d="M62 700h92v-312h6l262 312h108l-282 -335v-6l311 -359h-108l-291 326h-6v-326h-92v700z" />
    <glyph glyph-name="uni040C" unicode="&#x40c;" horiz-adv-x="579" 
d="M62 700h92v-312h6l262 312h108l-282 -335v-6l311 -359h-108l-291 326h-6v-326h-92v700zM286 930h111l-81 -142h-81z" />
    <glyph glyph-name="uni041B" unicode="&#x41b;" horiz-adv-x="693" 
d="M34 2v88q26 -14 58 -14q28 0 43 15t21 51q12 71 16 185l14 373h445v-700h-92v614h-268l-13 -301q-8 -188 -45 -257q-18 -35 -46.5 -49.5t-72.5 -14.5q-34 0 -60 10z" />
    <glyph glyph-name="uni041C" unicode="&#x41c;" horiz-adv-x="852" 
d="M62 700h116l248 -615l248 615h116v-700h-92v447l6 103h-6l-226 -550h-92l-226 550h-6l6 -103v-447h-92v700z" />
    <glyph glyph-name="uni041D" unicode="&#x41d;" horiz-adv-x="682" 
d="M620 700v-700h-92v309h-374v-309h-92v700h92v-305h374v305h92z" />
    <glyph glyph-name="uni041E" unicode="&#x41e;" horiz-adv-x="780" 
d="M212.5 35q-78.5 47 -122.5 129.5t-44 185.5t44 185.5t122.5 129.5t177.5 47t177.5 -47t122.5 -129.5t44 -185.5t-44 -185.5t-122.5 -129.5t-177.5 -47t-177.5 47zM520 109.5q57 35.5 88.5 98t31.5 142.5t-31.5 142.5t-88.5 98t-130 35.5t-130 -35.5t-88.5 -98
t-31.5 -142.5t31.5 -142.5t88.5 -98t130 -35.5t130 35.5z" />
    <glyph glyph-name="uni041F" unicode="&#x41f;" horiz-adv-x="652" 
d="M590 0h-92v614h-344v-614h-92v700h528v-700z" />
    <glyph glyph-name="uni0420" unicode="&#x420;" horiz-adv-x="545" 
d="M62 700h215q108 0 171 -55t63 -152t-63 -152t-171 -55h-123v-286h-92v700zM282 372q64 0 100.5 32t36.5 89t-36.5 89t-100.5 32h-128v-242h128z" />
    <glyph glyph-name="uni0421" unicode="&#x421;" horiz-adv-x="708" 
d="M213.5 33.5q-78.5 45.5 -123 128t-44.5 188.5q0 105 44.5 187.5t122 128.5t173.5 46q102 0 172 -41.5t108 -118.5l-72 -49q-33 62 -81.5 92.5t-123.5 30.5q-72 0 -129 -35t-88.5 -98t-31.5 -143q0 -83 30.5 -145t86.5 -96.5t132 -34.5q77 0 122 30t81 98l74 -52
q-43 -79 -110.5 -120.5t-166.5 -41.5q-97 0 -175.5 45.5z" />
    <glyph glyph-name="uni0422" unicode="&#x422;" horiz-adv-x="587" 
d="M547 616h-207v-616h-92v616h-208v84h507v-84z" />
    <glyph glyph-name="uni0423" unicode="&#x423;" horiz-adv-x="575" 
d="M248 210l-220 490h96l166 -378h6l158 378h93l-294 -700h-93z" />
    <glyph glyph-name="uni040E" unicode="&#x40e;" horiz-adv-x="575" 
d="M248 210l-220 490h96l166 -378h6l158 378h93l-294 -700h-93zM200.5 814q-33.5 32 -35.5 87h74q2 -22 15.5 -35.5t33.5 -13.5t33 13.5t15 35.5h74q-1 -54 -34.5 -86.5t-87.5 -32.5t-87.5 32z" />
    <glyph glyph-name="uni0424" unicode="&#x424;" horiz-adv-x="822" 
d="M737 195.5q-39 -67.5 -111.5 -106t-169.5 -41.5v-64h-92v64q-97 3 -169 42t-110.5 106t-38.5 154t38.5 154t110.5 106t169 42v64h92v-64q97 -3 169.5 -41.5t111.5 -106t39 -154.5t-39 -154.5zM622.5 194q59.5 56 59.5 156t-59.5 156t-166.5 60v-432q107 4 166.5 60z
M198.5 194.5q58.5 -55.5 165.5 -60.5v432q-107 -5 -165.5 -60.5t-58.5 -155.5t58.5 -155.5z" />
    <glyph glyph-name="uni0425" unicode="&#x425;" horiz-adv-x="624" 
d="M248 369l-200 331h110l119 -206l33 -78h4l33 78l119 206h110l-200 -331l220 -369h-106l-139 235l-36 77h-6l-36 -77l-139 -235h-106z" />
    <glyph glyph-name="uni0427" unicode="&#x427;" horiz-adv-x="624" 
d="M470 306q-89 -41 -180 -41q-116 0 -176 60.5t-60 159.5v215h92v-209q0 -66 40 -103t117 -37q46 0 83 9.5t84 31.5v308h92v-700h-92v306z" />
    <glyph glyph-name="uni0426" unicode="&#x426;" horiz-adv-x="707" 
d="M667 86v-226h-92v140h-513v700h92v-614h344v614h92v-614h77z" />
    <glyph glyph-name="uni0428" unicode="&#x428;" horiz-adv-x="928" 
d="M62 700h92v-614h264v614h92v-614h264v614h92v-700h-804v700z" />
    <glyph glyph-name="uni0429" unicode="&#x429;" horiz-adv-x="983" 
d="M943 86v-226h-92v140h-789v700h92v-614h264v614h92v-614h264v614h92v-614h77z" />
    <glyph glyph-name="uni040F" unicode="&#x40f;" horiz-adv-x="652" 
d="M590 0h-218v-140h-92v140h-218v700h92v-614h344v614h92v-700z" />
    <glyph glyph-name="uni042C" unicode="&#x42c;" horiz-adv-x="575" 
d="M62 700h92v-286h153q108 0 171 -55t63 -152t-63 -152t-171 -55h-245v700zM312 86q64 0 100.5 32t36.5 89t-36.5 89t-100.5 32h-158v-242h158z" />
    <glyph glyph-name="uni042A" unicode="&#x42a;" horiz-adv-x="717" 
d="M204 614h-184v86h276v-286h153q108 0 171 -55t63 -152t-63 -152t-171 -55h-245v614zM454 86q64 0 100.5 32t36.5 89t-36.5 89t-100.5 32h-158v-242h158z" />
    <glyph glyph-name="uni042B" unicode="&#x42b;" horiz-adv-x="778" 
d="M62 700h92v-286h153q108 0 171 -55t63 -152t-63 -152t-171 -55h-245v700zM312 86q64 0 100.5 32t36.5 89t-36.5 89t-100.5 32h-158v-242h158zM624 700h92v-700h-92v700z" />
    <glyph glyph-name="uni0409" unicode="&#x409;" horiz-adv-x="1052" 
d="M34 2v88q26 -14 58 -14q28 0 43 15t21 51q12 71 16 185l14 373h445v-286h153q108 0 171 -55t63 -152t-63 -152t-171 -55h-245v614h-268l-13 -301q-8 -188 -45 -257q-18 -35 -46.5 -49.5t-72.5 -14.5q-34 0 -60 10zM789 86q64 0 100.5 32t36.5 89t-36.5 89t-100.5 32h-158
v-242h158z" />
    <glyph glyph-name="uni040A" unicode="&#x40a;" horiz-adv-x="1001" 
d="M62 700h92v-305h334v305h92v-305h159q106 0 167 -52.5t61 -145.5t-61 -145t-167 -52h-251v309h-334v-309h-92v700zM744 86q131 0 131 111q0 112 -131 112h-164v-223h164z" />
    <glyph glyph-name="uni0405" unicode="&#x405;" horiz-adv-x="553" 
d="M138.5 26q-63.5 38 -94.5 113l78 58q20 -57 62 -90t100 -33q63 0 98 28t35 86q0 34 -15 57.5t-48.5 43t-93.5 40.5q-80 28 -134.5 77t-54.5 123q0 54 29 96t78 64.5t105 22.5q81 0 132.5 -32.5t81.5 -94.5l-73 -52q-44 95 -143 95q-50 0 -86 -24.5t-36 -70.5
q0 -47 39 -77t131 -63q86 -31 133 -78.5t47 -119.5q0 -63 -31.5 -110t-83 -72t-110.5 -25q-82 0 -145.5 38z" />
    <glyph glyph-name="uni0404" unicode="&#x404;" horiz-adv-x="702" 
d="M660 140q-44 -74 -109.5 -113t-161.5 -39q-97 0 -175.5 45.5t-123 128t-44.5 188.5q0 105 44.5 187.5t122 128.5t173.5 46q100 0 166 -37t106 -108l-72 -49q-33 53 -80.5 80.5t-116.5 27.5q-66 0 -119 -29t-86.5 -82t-41.5 -122h339v-86h-339q12 -107 78 -170t169 -63
q74 0 117.5 27.5t79.5 90.5z" />
    <glyph glyph-name="uni042D" unicode="&#x42d;" horiz-adv-x="708" 
d="M500.5 666q75.5 -46 118.5 -128.5t43 -187.5q0 -106 -44.5 -188.5t-121.5 -128t-172 -45.5q-97 0 -167.5 41.5t-114.5 114.5l76 52q34 -57 86 -89.5t123 -32.5q99 0 163.5 63t75.5 170h-339v86h339q-12 106 -76.5 169.5t-163.5 63.5q-64 0 -118.5 -30t-85.5 -78l-72 49
q45 67 116.5 106t162.5 39q96 0 171.5 -46z" />
    <glyph glyph-name="uni0406" unicode="&#x406;" horiz-adv-x="216" 
d="M62 700h92v-700h-92v700z" />
    <glyph glyph-name="uni0407" unicode="&#x407;" horiz-adv-x="216" 
d="M62 700h92v-700h-92v700zM-17.5 814.5q-17.5 17.5 -17.5 41.5t17.5 41.5t41.5 17.5t41.5 -17.5t17.5 -41.5t-17.5 -41.5t-41.5 -17.5t-41.5 17.5zM149.5 814.5q-17.5 17.5 -17.5 41.5t17.5 41.5t41.5 17.5t41.5 -17.5t17.5 -41.5t-17.5 -41.5t-41.5 -17.5t-41.5 17.5z
" />
    <glyph glyph-name="uni0408" unicode="&#x408;" horiz-adv-x="481" 
d="M96 29q-53 41 -68 110l82 35q11 -49 39.5 -74.5t75.5 -25.5q51 0 78.5 31.5t27.5 92.5v502h92v-496q0 -106 -54 -161t-144 -55q-76 0 -129 41z" />
    <glyph glyph-name="uni040B" unicode="&#x40b;" horiz-adv-x="768" 
d="M236 616h-196v84h557v-84h-269v-223q33 18 79 30t92 12q105 0 159 -53.5t54 -146.5v-235h-92v225q0 59 -34 91.5t-100 32.5q-45 0 -81 -10t-77 -31v-308h-92v616z" />
    <glyph glyph-name="uni042E" unicode="&#x42e;" horiz-adv-x="972" 
d="M771 665.5q75 -46.5 115 -129t40 -186.5t-40 -186.5t-115 -129t-175 -46.5q-93 0 -164.5 41t-113.5 113.5t-50 166.5h-114v-309h-92v700h92v-305h114q9 93 51 164.5t113 112t164 40.5q100 0 175 -46.5zM720.5 109q53.5 35 82.5 98t29 143t-29 143t-82.5 98t-124.5 35
t-124.5 -35t-82.5 -98t-29 -143t29 -143t82.5 -98t124.5 -35t124.5 35z" />
    <glyph glyph-name="uni042F" unicode="&#x42f;" horiz-adv-x="595" 
d="M533 700v-700h-92v266h-156l-144 -266h-107l153 281q-65 23 -102 76t-37 126q0 64 29 113.5t82.5 76.5t124.5 27h249zM441 614h-156q-64 0 -104.5 -33t-40.5 -98t40.5 -98t104.5 -33h156v262z" />
    <glyph glyph-name="uni0402" unicode="&#x402;" horiz-adv-x="763" 
d="M393 15v86q18 -11 40.5 -16t40.5 -5q153 0 153 137q0 59 -40.5 95.5t-100.5 36.5q-45 0 -81 -10t-77 -31v-308h-92v616h-196v84h557v-84h-269v-223q33 18 79 30t92 12q101 0 160.5 -59.5t59.5 -158.5q0 -68 -30 -118.5t-80.5 -77.5t-108.5 -27q-66 0 -107 21z" />
    <glyph glyph-name="uni0462" unicode="&#x462;" horiz-adv-x="660" 
d="M563 359q63 -55 63 -152t-63 -152t-171 -55h-245v530h-127v86h127v98h92v-98h278v-86h-278v-116h153q108 0 171 -55zM497.5 118q36.5 32 36.5 89t-36.5 89t-100.5 32h-158v-242h158q64 0 100.5 32z" />
    <glyph glyph-name="uni0472" unicode="&#x472;" horiz-adv-x="780" 
d="M567.5 665q78.5 -47 122.5 -129.5t44 -185.5t-44 -185.5t-122.5 -129.5t-177.5 -47t-177.5 47t-122.5 129.5t-44 185.5t44 185.5t122.5 129.5t177.5 47t177.5 -47zM266 594q-55 -32 -87.5 -89t-37.5 -130q63 47 142 47q32 0 56.5 -7.5t56.5 -22.5q34 -16 57 -23t53 -7
q62 0 127 58q-19 93 -84.5 149.5t-158.5 56.5q-69 0 -124 -32zM514 106q55 32 87.5 89t37.5 130q-63 -47 -144 -47q-36 0 -61.5 8t-57.5 24q-31 14 -52.5 21t-50.5 7q-62 0 -126 -57q19 -94 84 -150.5t159 -56.5q69 0 124 32z" />
    <glyph glyph-name="uni0474" unicode="&#x474;" horiz-adv-x="736" 
d="M656 611q-24 0 -37.5 -11t-21.5 -33l-202 -567h-120l-249 700h103l179 -525l24 -92h6l24 92l143 428q16 49 48.5 79t85.5 30q24 0 41 -4.5t36 -13.5l-10 -99q-26 16 -50 16z" />
    <glyph glyph-name="uni041E.ss01" horiz-adv-x="780" 
d="M212.5 35q-78.5 47 -122.5 129.5t-44 185.5q0 141 99 243l-14 14q43 48 112.5 76.5t146.5 28.5q99 0 177.5 -47t122.5 -129.5t44 -185.5t-44 -185.5t-122.5 -129.5t-177.5 -47t-177.5 47zM520 109.5q57 35.5 88.5 98t31.5 142.5t-31.5 142.5t-88.5 98t-130 35.5
q-60 0 -112 -24t-82 -59l14 -14q-70 -75 -70 -179q0 -80 31.5 -142.5t88.5 -98t130 -35.5t130 35.5z" />
    <glyph glyph-name="uni0430" unicode="&#x430;" horiz-adv-x="586" 
d="M159 21q-53 33 -84 91.5t-31 132.5q0 75 31.5 133.5t85 91t117.5 32.5q53 0 97.5 -21.5t66.5 -56.5v66h84v-490h-78v72h-6q-21 -37 -66.5 -60.5t-101.5 -23.5q-62 0 -115 33zM369 90q37 22 58 62.5t21 92.5t-21 92.5t-57.5 62.5t-81.5 22q-46 0 -82.5 -22t-57 -62
t-20.5 -93q0 -52 20.5 -92.5t56.5 -62.5t81 -22q46 0 83 22z" />
    <glyph glyph-name="uni0431" unicode="&#x431;" horiz-adv-x="569" 
d="M163.5 23q-56.5 35 -84.5 96q-18 41 -26.5 81.5t-8.5 99.5q0 114 48.5 205t169.5 125q65 18 102 35.5t69 46.5l59 -50q-44 -42 -91.5 -64.5t-124.5 -42.5q-72 -20 -112 -68t-43 -120h6q19 39 69 67t106 28q63 0 114 -30t80 -84t29 -123q0 -67 -32.5 -121.5t-86.5 -85
t-115 -30.5q-71 0 -127.5 35zM398 111.5q43 43.5 43 113.5t-44 113.5t-110 43.5q-43 0 -78 -19.5t-55.5 -55.5t-20.5 -82q0 -70 44.5 -113.5t111.5 -43.5q66 0 109 43.5z" />
    <glyph glyph-name="uni0432" unicode="&#x432;" horiz-adv-x="485" 
d="M64 490h201q75 0 116.5 -33.5t41.5 -88.5q0 -38 -18 -66t-45 -41q85 -34 85 -119q0 -64 -45 -103t-124 -39h-212v490zM266 290q35 0 55.5 17t20.5 45q0 30 -20.5 46t-55.5 16h-118v-124h118zM278 78q39 0 61 19t22 51t-22 51t-61 19h-130v-140h130z" />
    <glyph glyph-name="uni0433" unicode="&#x433;" horiz-adv-x="424" 
d="M382 410h-234v-410h-84v490h318v-80z" />
    <glyph glyph-name="uni0453" unicode="&#x453;" horiz-adv-x="424" 
d="M382 410h-234v-410h-84v490h318v-80zM234 720h111l-81 -142h-81z" />
    <glyph glyph-name="uni0491" unicode="&#x491;" horiz-adv-x="430" 
d="M388 614v-204h-240v-410h-84v490h240v124h84z" />
    <glyph glyph-name="uni0434" unicode="&#x434;" horiz-adv-x="604" 
d="M30 80h72q24 57 36 105.5t15 114.5l8 190h347v-410h66v-200h-84v120h-376v-120h-84v200zM424 80v330h-183l-6 -108q-4 -76 -15 -124.5t-31 -97.5h235z" />
    <glyph glyph-name="uni0435" unicode="&#x435;" horiz-adv-x="555" 
d="M496 221h-367q7 -73 52 -113t110 -40q51 0 84 23t54 63l69 -37q-25 -55 -76.5 -92t-130.5 -37q-73 0 -129 33t-87 91.5t-31 132.5q0 73 31.5 132t86 92t120.5 33q73 0 124.5 -31.5t78 -85t26.5 -118.5q0 -18 -3 -33zM424 295q-6 62 -46 94.5t-96 32.5t-96 -34t-53 -93
h291z" />
    <glyph glyph-name="uni0450" unicode="&#x450;" horiz-adv-x="555" 
d="M496 221h-367q7 -73 52 -113t110 -40q51 0 84 23t54 63l69 -37q-25 -55 -76.5 -92t-130.5 -37q-73 0 -129 33t-87 91.5t-31 132.5q0 73 31.5 132t86 92t120.5 33q73 0 124.5 -31.5t78 -85t26.5 -118.5q0 -18 -3 -33zM424 295q-6 62 -46 94.5t-96 32.5t-96 -34t-53 -93
h291zM157 720h111l51 -142h-81z" />
    <glyph glyph-name="uni0451" unicode="&#x451;" horiz-adv-x="555" 
d="M496 221h-367q7 -73 52 -113t110 -40q51 0 84 23t54 63l69 -37q-25 -55 -76.5 -92t-130.5 -37q-73 0 -129 33t-87 91.5t-31 132.5q0 73 31.5 132t86 92t120.5 33q73 0 124.5 -31.5t78 -85t26.5 -118.5q0 -18 -3 -33zM424 295q-6 62 -46 94.5t-96 32.5t-96 -34t-53 -93
h291zM153.5 604.5q-17.5 17.5 -17.5 41.5t17.5 41.5t41.5 17.5t41.5 -17.5t17.5 -41.5t-17.5 -41.5t-41.5 -17.5t-41.5 17.5zM320.5 604.5q-17.5 17.5 -17.5 41.5t17.5 41.5t41.5 17.5t41.5 -17.5t17.5 -41.5t-17.5 -41.5t-41.5 -17.5t-41.5 17.5z" />
    <glyph glyph-name="uni0436" unicode="&#x436;" horiz-adv-x="710" 
d="M482 260l206 -260h-99l-192 242v-242h-84v242l-192 -242h-99l206 260l-206 230h104l187 -214v214h84v-214l187 214h104z" />
    <glyph glyph-name="uni0437" unicode="&#x437;" horiz-adv-x="437" 
d="M102 17q-50 29 -74 73l67 52q43 -76 122 -76q42 0 69 22t27 58t-26.5 55t-69.5 19h-53v70h55q38 0 61 16.5t23 50.5q0 30 -23.5 48.5t-60.5 18.5q-71 0 -113 -74l-65 46q24 46 71 76t106 30q76 0 120.5 -39t44.5 -100q0 -38 -17.5 -64t-46.5 -41q78 -27 78 -112
q0 -71 -50 -114.5t-130 -43.5q-65 0 -115 29z" />
    <glyph glyph-name="uni0438" unicode="&#x438;" horiz-adv-x="547" 
d="M64 490h84v-293l-6 -84h6l245 377h90v-490h-84v292l6 85h-6l-245 -377h-90v490z" />
    <glyph glyph-name="uni0439" unicode="&#x439;" horiz-adv-x="547" 
d="M64 490h84v-293l-6 -84h6l245 377h90v-490h-84v292l6 85h-6l-245 -377h-90v490zM189.5 604q-33.5 32 -35.5 87h74q2 -22 15.5 -35.5t33.5 -13.5t33 13.5t15 35.5h74q-1 -54 -34.5 -86.5t-87.5 -32.5t-87.5 32z" />
    <glyph glyph-name="uni045D" unicode="&#x45d;" horiz-adv-x="547" 
d="M64 490h84v-293l-6 -84h6l245 377h90v-490h-84v292l6 85h-6l-245 -377h-90v490zM155 720h111l51 -142h-81z" />
    <glyph glyph-name="uni043A" unicode="&#x43a;" horiz-adv-x="469" 
d="M235 260l212 -260h-99l-200 243v-243h-84v490h84v-215l200 215h99z" />
    <glyph glyph-name="uni045C" unicode="&#x45c;" horiz-adv-x="469" 
d="M235 260l212 -260h-99l-200 243v-243h-84v490h84v-215l200 215h99zM249 720h111l-81 -142h-81z" />
    <glyph glyph-name="uni043B" unicode="&#x43b;" horiz-adv-x="569" 
d="M34 2v80q26 -13 50 -13q21 0 33 11.5t18 33.5q8 30 12 75.5t7 110.5l8 190h347v-490h-84v410h-187l-6 -148q-3 -78 -11.5 -127t-25.5 -82q-32 -64 -104 -64q-35 0 -57 13z" />
    <glyph glyph-name="uni043C" unicode="&#x43c;" horiz-adv-x="640" 
d="M64 490h105l151 -394l151 394h105v-490h-78v291l6 68h-6l-142 -359h-72l-143 359h-5l5 -68v-291h-77v490z" />
    <glyph glyph-name="uni043D" unicode="&#x43d;" horiz-adv-x="548" 
d="M484 490v-490h-84v216h-252v-216h-84v490h84v-194h252v194h84z" />
    <glyph glyph-name="uni043E" unicode="&#x43e;" horiz-adv-x="592" 
d="M168.5 21.5q-57.5 33.5 -91 92.5t-33.5 131t33.5 131t91 92.5t127.5 33.5t127.5 -33.5t91 -92.5t33.5 -131t-33.5 -131t-91 -92.5t-127.5 -33.5t-127.5 33.5zM379.5 89q38.5 21 61.5 61.5t23 94.5t-23 94.5t-61.5 61.5t-83.5 21t-83.5 -21t-61.5 -61.5t-23 -94.5
t23 -94.5t61.5 -61.5t83.5 -21t83.5 21z" />
    <glyph glyph-name="uni043F" unicode="&#x43f;" horiz-adv-x="536" 
d="M472 0h-84v410h-244v-410h-84v490h412v-490z" />
    <glyph glyph-name="uni0440" unicode="&#x440;" horiz-adv-x="590" 
d="M60 490h78v-72h6q21 36 67.5 60t102.5 24q62 0 115.5 -33t85 -91.5t31.5 -132.5q0 -75 -30.5 -133.5t-83.5 -91t-117 -32.5q-51 0 -99 20t-72 55v-273h-84v700zM383 90q37 22 58 62.5t21 92.5t-21 92.5t-57.5 62.5t-81.5 22q-46 0 -83.5 -22t-59 -62.5t-21.5 -92.5
t21.5 -92.5t58.5 -62.5t82 -22q46 0 83 22z" />
    <glyph glyph-name="uni0441" unicode="&#x441;" horiz-adv-x="543" 
d="M164 21.5q-56 33.5 -88 92t-32 131.5t32 131.5t88 92t126 33.5q71 0 125.5 -31.5t87.5 -88.5l-69 -47q-20 42 -57.5 64.5t-86.5 22.5q-70 0 -116 -47.5t-46 -129.5t46 -129.5t116 -47.5q48 0 87.5 24.5t62.5 65.5l67 -47q-32 -55 -90 -89t-127 -34q-70 0 -126 33.5z" />
    <glyph glyph-name="uni0442" unicode="&#x442;" horiz-adv-x="456" 
d="M430 410h-160v-410h-84v410h-160v80h404v-80z" />
    <glyph glyph-name="uni0443" unicode="&#x443;" horiz-adv-x="516" 
d="M217 0l-195 490h92l146 -379h6l136 379h92l-270 -700h-83z" />
    <glyph glyph-name="uni045E" unicode="&#x45e;" horiz-adv-x="516" 
d="M217 0l-195 490h92l146 -379h6l136 379h92l-270 -700h-83zM173.5 604q-33.5 32 -35.5 87h74q2 -22 15.5 -35.5t33.5 -13.5t33 13.5t15 35.5h74q-1 -54 -34.5 -86.5t-87.5 -32.5t-87.5 32z" />
    <glyph glyph-name="uni0444" unicode="&#x444;" horiz-adv-x="676" 
d="M599 117q-33 -58 -90.5 -92t-128.5 -37v-198h-84v198q-71 3 -128.5 37t-90.5 92t-33 128t33 128t90.5 92t128.5 37v198h84v-198q71 -3 128.5 -37t90.5 -92t33 -128t-33 -128zM173.5 120q45.5 -46 122.5 -51v352q-77 -5 -122.5 -51t-45.5 -125t45.5 -125zM502.5 120
q45.5 46 45.5 125t-45.5 125t-122.5 51v-352q77 5 122.5 51z" />
    <glyph glyph-name="uni0445" unicode="&#x445;" horiz-adv-x="486" 
d="M195 251v6l-172 233h97l123 -178l123 178h97l-172 -233v-6l181 -251h-98l-131 189l-131 -189h-98z" />
    <glyph glyph-name="uni0447" unicode="&#x447;" horiz-adv-x="514" 
d="M366 217q-64 -31 -149 -31q-84 0 -131.5 52t-47.5 132v120h84v-110q0 -52 29.5 -83t78.5 -31q75 0 136 30v194h84v-490h-84v217z" />
    <glyph glyph-name="uni0446" unicode="&#x446;" horiz-adv-x="566" 
d="M536 80v-200h-84v120h-392v490h84v-410h244v410h84v-410h64z" />
    <glyph glyph-name="uni0448" unicode="&#x448;" horiz-adv-x="788" 
d="M64 490h84v-410h204v410h84v-410h204v410h84v-490h-660v490z" />
    <glyph glyph-name="uni0449" unicode="&#x449;" horiz-adv-x="814" 
d="M784 80v-200h-84v120h-640v490h84v-410h204v410h84v-410h204v410h84v-410h64z" />
    <glyph glyph-name="uni045F" unicode="&#x45f;" horiz-adv-x="540" 
d="M476 0h-164v-120h-84v120h-164v490h84v-410h244v410h84v-490z" />
    <glyph glyph-name="uni044C" unicode="&#x44c;" horiz-adv-x="482" 
d="M60 490h84v-168h127q79 0 128 -43.5t49 -116.5t-49.5 -117.5t-128.5 -44.5h-210v490zM269 76q45 0 72 22.5t27 63.5t-27 63.5t-72 22.5h-125v-172h125z" />
    <glyph glyph-name="uni044A" unicode="&#x44a;" horiz-adv-x="574" 
d="M491 278.5q49 -43.5 49 -116.5t-49.5 -117.5t-128.5 -44.5h-210v416h-132v74h216v-168h127q79 0 128 -43.5zM433 98.5q27 22.5 27 63.5t-27 63.5t-72 22.5h-125v-172h125q45 0 72 22.5z" />
    <glyph glyph-name="uni044B" unicode="&#x44b;" horiz-adv-x="686" 
d="M60 490h84v-168h127q79 0 128 -43.5t49 -116.5t-49.5 -117.5t-128.5 -44.5h-210v490zM269 76q45 0 72 22.5t27 63.5t-27 63.5t-72 22.5h-125v-172h125zM542 490h84v-490h-84v490z" />
    <glyph glyph-name="uni0459" unicode="&#x459;" horiz-adv-x="847" 
d="M764 278.5q49 -43.5 49 -116.5t-49.5 -117.5t-128.5 -44.5h-210v410h-187l-8 -148q-4 -75 -12.5 -126t-24.5 -83q-32 -64 -102 -64q-35 0 -57 13v80q26 -13 50 -13q21 0 33 11.5t18 33.5q8 30 12 75.5t7 110.5l8 190h347v-168h127q79 0 128 -43.5zM706 98.5
q27 22.5 27 63.5t-27 63.5t-72 22.5h-125v-172h125q45 0 72 22.5z" />
    <glyph glyph-name="uni045A" unicode="&#x45a;" horiz-adv-x="818" 
d="M735 278.5q49 -43.5 49 -116.5t-49.5 -117.5t-128.5 -44.5h-210v216h-252v-216h-84v490h84v-194h252v194h84v-168h127q79 0 128 -43.5zM677 98.5q27 22.5 27 63.5t-27 63.5t-72 22.5h-125v-172h125q45 0 72 22.5z" />
    <glyph glyph-name="uni0455" unicode="&#x455;" horiz-adv-x="441" 
d="M106 19.5q-51 31.5 -70 79.5l70 49q16 -34 46.5 -57t73.5 -23q40 0 64.5 18.5t24.5 51.5q0 24 -12.5 39.5t-38.5 26.5t-75 25q-133 36 -133 138q0 43 24 73.5t62 46t79 15.5q60 0 102 -23.5t65 -67.5l-61 -44q-20 29 -45.5 43t-63.5 14q-37 0 -59.5 -17t-22.5 -42
q0 -29 29.5 -44.5t97.5 -35.5q66 -20 101 -53.5t35 -87.5q0 -69 -49 -112.5t-126 -43.5q-67 0 -118 31.5z" />
    <glyph glyph-name="uni0454" unicode="&#x454;" horiz-adv-x="536" 
d="M500 101q-32 -51 -87.5 -82t-122.5 -31q-70 0 -126 33.5t-88 92t-32 131.5t32 131.5t88 92t126 33.5q69 0 122 -29t85 -82l-69 -47q-19 37 -55 57.5t-83 20.5q-61 0 -104.5 -36t-54.5 -101h233v-80h-233q11 -65 54.5 -101t104.5 -36q46 0 83 21.5t60 58.5z" />
    <glyph glyph-name="uni044D" unicode="&#x44d;" horiz-adv-x="536" 
d="M375.5 468.5q55.5 -33.5 86 -92t30.5 -131.5t-30.5 -131.5t-86 -92t-127.5 -33.5q-71 0 -125 29.5t-87 83.5l69 49q23 -38 59.5 -60t83.5 -22q61 0 103.5 36t53.5 101h-233v80h233q-11 65 -53.5 101t-103.5 36q-43 0 -80.5 -21t-59.5 -57l-69 47q34 52 88 81.5t121 29.5
q72 0 127.5 -33.5z" />
    <glyph glyph-name="uni0456" unicode="&#x456;" horiz-adv-x="224" 
d="M72.5 604.5q-16.5 16.5 -16.5 39.5t16.5 39.5t39.5 16.5t39.5 -16.5t16.5 -39.5t-16.5 -39.5t-39.5 -16.5t-39.5 16.5zM70 490h84v-490h-84v490z" />
    <glyph glyph-name="uni0457" unicode="&#x457;" horiz-adv-x="204" 
d="M60 490h84v-490h-84v490zM-23.5 604.5q-17.5 17.5 -17.5 41.5t17.5 41.5t41.5 17.5t41.5 -17.5t17.5 -41.5t-17.5 -41.5t-41.5 -17.5t-41.5 17.5zM143.5 604.5q-17.5 17.5 -17.5 41.5t17.5 41.5t41.5 17.5t41.5 -17.5t17.5 -41.5t-17.5 -41.5t-41.5 -17.5t-41.5 17.5z
" />
    <glyph glyph-name="uni0458" unicode="&#x458;" horiz-adv-x="227" 
d="M75.5 604.5q-16.5 16.5 -16.5 39.5t16.5 39.5t39.5 16.5t39.5 -16.5t16.5 -39.5t-16.5 -39.5t-39.5 -16.5t-39.5 16.5zM157 490v-567q0 -68 -36 -106.5t-92 -38.5q-24 0 -47.5 5.5t-38.5 14.5l27 80q20 -12 46 -12q28 0 42.5 15.5t14.5 51.5v557h84z" />
    <glyph glyph-name="uni045B" unicode="&#x45b;" horiz-adv-x="551" 
d="M448 449.5q47 -52.5 47 -143.5v-306h-84v292q0 62 -31.5 96t-88.5 34q-37 0 -66.5 -19t-47 -52.5t-17.5 -74.5v-276h-84v573h-60v66h60v61h78v-61h148v-66h-148v-152h6q23 36 63.5 58.5t93.5 22.5q84 0 131 -52.5z" />
    <glyph glyph-name="uni044E" unicode="&#x44e;" horiz-adv-x="738" 
d="M586.5 468.5q51.5 -33.5 79.5 -92t28 -131.5t-28 -131.5t-79.5 -92t-120.5 -33.5q-64 0 -113.5 29t-78.5 81t-35 118h-91v-216h-84v490h84v-194h94q14 93 73.5 149.5t150.5 56.5q69 0 120.5 -33.5zM570 115q40 47 40 130t-40 130t-104 47t-104 -47t-40 -130t40 -130
t104 -47t104 47z" />
    <glyph glyph-name="uni044F" unicode="&#x44f;" horiz-adv-x="478" 
d="M414 490v-490h-84v183h-109l-101 -183h-90l110 195q-46 17 -72 54t-26 86q0 68 47.5 111.5t125.5 43.5h199zM330 414h-114q-43 0 -68.5 -20.5t-25.5 -58.5q0 -37 25.5 -57.5t68.5 -20.5h114v157z" />
    <glyph glyph-name="uni0452" unicode="&#x452;" horiz-adv-x="555" 
d="M452 449.5q47 -52.5 47 -143.5v-383q0 -68 -36 -106.5t-92 -38.5q-24 0 -47.5 5.5t-38.5 14.5l27 80q20 -12 46 -12q28 0 42.5 15.5t14.5 51.5v359q0 62 -31.5 96t-88.5 34q-37 0 -66.5 -19t-47 -52.5t-17.5 -74.5v-276h-84v573h-60v66h60v61h78v-61h148v-66h-148v-152h6
q23 36 63.5 58.5t93.5 22.5q84 0 131 -52.5z" />
    <glyph glyph-name="uni0463" unicode="&#x463;" horiz-adv-x="559" 
d="M467 271.5q48 -42.5 48 -113.5q0 -72 -48 -115t-126 -43h-214v416h-117v74h117v210h84v-210h181v-74h-181v-102h131q77 0 125 -42.5zM409.5 97.5q25.5 21.5 25.5 60.5t-25.5 60.5t-69.5 21.5h-129v-164h129q44 0 69.5 21.5z" />
    <glyph glyph-name="uni0473" unicode="&#x473;" horiz-adv-x="592" 
d="M423.5 468.5q57.5 -33.5 91 -92.5t33.5 -131t-33.5 -131t-91 -92.5t-127.5 -33.5t-127.5 33.5t-91 92.5t-33.5 131t33.5 131t91 92.5t127.5 33.5t127.5 -33.5zM188 383.5q-47 -38.5 -58 -105.5q34 28 80 28q21 0 43.5 -6.5t53.5 -18.5q26 -11 42.5 -16t30.5 -5
q25 0 45.5 10.5t32.5 25.5q-15 59 -60 92.5t-102 33.5q-61 0 -108 -38.5zM405 106.5q47 38.5 57 105.5q-34 -27 -80 -27q-21 0 -43.5 6.5t-53.5 19.5q-26 10 -42.5 15t-29.5 5q-26 0 -46 -10.5t-33 -25.5q15 -60 60 -93.5t102 -33.5q62 0 109 38.5z" />
    <glyph glyph-name="uni0475" unicode="&#x475;" horiz-adv-x="576" 
d="M18 490h92l153 -384h6l122 307q19 46 46.5 67.5t68.5 21.5q32 0 58 -11v-76q-25 9 -44 9q-20 0 -32 -12.5t-26 -46.5l-150 -365h-92z" />
    <glyph glyph-name="uni0430.ss02" horiz-adv-x="517" 
d="M127 8q-39 20 -60 54.5t-21 77.5q0 42 22 76.5t64 55t101 20.5q36 0 73 -11t67 -31v64q0 47 -31 77.5t-84 30.5q-95 0 -136 -94l-70 44q29 62 81.5 96t124.5 34q92 0 145.5 -50.5t53.5 -130.5v-321h-84v58h-6q-59 -70 -150 -70q-51 0 -90 20zM311 88q39 26 60 69v9
q-57 52 -139 52q-44 0 -73 -20.5t-29 -57.5q0 -33 27.5 -55.5t68.5 -22.5q46 0 85 26z" />
    <glyph glyph-name="pi" unicode="&#x3c0;" horiz-adv-x="678" 
d="M514 418v-269q0 -78 67 -78q28 0 53 13v-82q-18 -8 -34 -11t-40 -3q-60 0 -95 41.5t-35 113.5v275h-198v-418h-84v418h-108v72h594v-72h-120z" />
    <glyph glyph-name="uni0621" unicode="&#x621;" horiz-adv-x="432" 
d="M392 80v-80h-362v80h63q-29 40 -29 90q0 45 22 82t60 58.5t85 21.5q42 0 80.5 -17t64.5 -48l-64 -52q-31 37 -81 37q-37 0 -60 -23t-23 -59q0 -41 36.5 -65.5t99.5 -24.5h108z" />
    <glyph glyph-name="uni0627" unicode="&#x627;" horiz-adv-x="224" 
d="M70 700h84v-700h-84v700z" />
    <glyph glyph-name="uni0623" unicode="&#x623;" horiz-adv-x="224" 
d="M70 700h84v-700h-84v700zM222 800v-50h-220v50h42q-17 23 -17 54q0 43 29 71.5t72 28.5q26 0 49 -10t39 -29l-38 -34q-19 23 -50 23q-23 0 -37 -14t-14 -36q0 -24 23 -39t61 -15h61z" />
    <glyph glyph-name="uni0625" unicode="&#x625;" horiz-adv-x="224" 
d="M70 700h84v-700h-84v700zM222 -210v-50h-220v50h42q-17 23 -17 54q0 43 29 71.5t72 28.5q26 0 49 -10t39 -29l-38 -34q-19 23 -50 23q-23 0 -37 -14t-14 -36q0 -24 23 -39t61 -15h61z" />
    <glyph glyph-name="uni0622" unicode="&#x622;" horiz-adv-x="224" 
d="M70 700h84v-700h-84v700zM301 797q-32 -47 -84 -47q-28 0 -52.5 10t-55.5 29q-28 16 -45 23.5t-35 7.5q-43 0 -55 -41l-48 16q11 35 38.5 55t64.5 20q27 0 50.5 -10t54.5 -28q28 -17 45.5 -24.5t37.5 -7.5q14 0 24 5.5t20 19.5z" />
    <glyph glyph-name="uni0671" unicode="&#x671;" horiz-adv-x="224" 
d="M70 700h84v-700h-84v700zM209 893q28 -26 28 -72v-71h-271v50h43v137h50v-18h73q49 0 77 -26zM187 821q0 48 -55 48h-73v-69h128v21z" />
    <glyph glyph-name="uni066E" unicode="&#x66e;" horiz-adv-x="864" 
d="M154 321q-21 -34 -30.5 -63t-9.5 -60q0 -56 42 -87t119 -31h435v340h84v-420h-519q-116 0 -180.5 52t-64.5 146q0 83 54 165z" />
    <glyph glyph-name="uni066E.medi.wide" horiz-adv-x="305" 
d="M305 80v-80h-305q-10 0 -17.5 9t-7.5 29q0 23 7.5 32.5t17.5 9.5h121v340h84v-340h100z" />
    <glyph glyph-name="uni066E.init.wide" horiz-adv-x="285" 
d="M205 420v-420h-205q-10 0 -17.5 9t-7.5 29q0 23 7.5 32.5t17.5 9.5h121v340h84z" />
    <glyph glyph-name="uni0628" unicode="&#x628;" horiz-adv-x="864" 
d="M154 321q-21 -34 -30.5 -63t-9.5 -60q0 -56 42 -87t119 -31h435v340h84v-420h-519q-116 0 -180.5 52t-64.5 146q0 83 54 165zM395.5 -165.5q-14.5 14.5 -14.5 36.5t14.5 36.5t36.5 14.5t36.5 -14.5t14.5 -36.5t-14.5 -36.5t-36.5 -14.5t-36.5 14.5z" />
    <glyph glyph-name="uni062A" unicode="&#x62a;" horiz-adv-x="864" 
d="M154 321q-21 -34 -30.5 -63t-9.5 -60q0 -56 42 -87t119 -31h435v340h84v-420h-519q-116 0 -180.5 52t-64.5 146q0 83 54 165zM329.5 424.5q-14.5 14.5 -14.5 36.5t14.5 36.5t36.5 14.5t36.5 -14.5t14.5 -36.5t-14.5 -36.5t-36.5 -14.5t-36.5 14.5zM461.5 424.5
q-14.5 14.5 -14.5 36.5t14.5 36.5t36.5 14.5t36.5 -14.5t14.5 -36.5t-14.5 -36.5t-36.5 -14.5t-36.5 14.5z" />
    <glyph glyph-name="uniFE98.wide" horiz-adv-x="305" 
d="M305 80v-80h-305q-10 0 -17.5 9t-7.5 29q0 23 7.5 32.5t17.5 9.5h121v340h84v-340h100zM60.5 554.5q-14.5 14.5 -14.5 36.5t14.5 36.5t36.5 14.5t36.5 -14.5t14.5 -36.5t-14.5 -36.5t-36.5 -14.5t-36.5 14.5zM192.5 554.5q-14.5 14.5 -14.5 36.5t14.5 36.5t36.5 14.5
t36.5 -14.5t14.5 -36.5t-14.5 -36.5t-36.5 -14.5t-36.5 14.5z" />
    <glyph glyph-name="uniFE97.wide" horiz-adv-x="275" 
d="M205 420v-420h-205q-10 0 -17.5 9t-7.5 29q0 23 7.5 32.5t17.5 9.5h121v340h84zM60.5 554.5q-14.5 14.5 -14.5 36.5t14.5 36.5t36.5 14.5t36.5 -14.5t14.5 -36.5t-14.5 -36.5t-36.5 -14.5t-36.5 14.5zM192.5 554.5q-14.5 14.5 -14.5 36.5t14.5 36.5t36.5 14.5t36.5 -14.5
t14.5 -36.5t-14.5 -36.5t-36.5 -14.5t-36.5 14.5z" />
    <glyph glyph-name="uni062B" unicode="&#x62b;" horiz-adv-x="864" 
d="M154 321q-21 -34 -30.5 -63t-9.5 -60q0 -56 42 -87t119 -31h435v340h84v-420h-519q-116 0 -180.5 52t-64.5 146q0 83 54 165zM395.5 536.5q-14.5 14.5 -14.5 36.5t14.5 36.5t36.5 14.5t36.5 -14.5t14.5 -36.5t-14.5 -36.5t-36.5 -14.5t-36.5 14.5zM329.5 424.5
q-14.5 14.5 -14.5 36.5t14.5 36.5t36.5 14.5t36.5 -14.5t14.5 -36.5t-14.5 -36.5t-36.5 -14.5t-36.5 14.5zM461.5 424.5q-14.5 14.5 -14.5 36.5t14.5 36.5t36.5 14.5t36.5 -14.5t14.5 -36.5t-14.5 -36.5t-36.5 -14.5t-36.5 14.5z" />
    <glyph glyph-name="uniFE9C.wide" horiz-adv-x="305" 
d="M305 80v-80h-305q-10 0 -17.5 9t-7.5 29q0 23 7.5 32.5t17.5 9.5h121v340h84v-340h100zM126.5 666.5q-14.5 14.5 -14.5 36.5t14.5 36.5t36.5 14.5t36.5 -14.5t14.5 -36.5t-14.5 -36.5t-36.5 -14.5t-36.5 14.5zM60.5 554.5q-14.5 14.5 -14.5 36.5t14.5 36.5t36.5 14.5
t36.5 -14.5t14.5 -36.5t-14.5 -36.5t-36.5 -14.5t-36.5 14.5zM192.5 554.5q-14.5 14.5 -14.5 36.5t14.5 36.5t36.5 14.5t36.5 -14.5t14.5 -36.5t-14.5 -36.5t-36.5 -14.5t-36.5 14.5z" />
    <glyph glyph-name="uniFE9B.wide" horiz-adv-x="275" 
d="M205 420v-420h-205q-10 0 -17.5 9t-7.5 29q0 23 7.5 32.5t17.5 9.5h121v340h84zM126.5 666.5q-14.5 14.5 -14.5 36.5t14.5 36.5t36.5 14.5t36.5 -14.5t14.5 -36.5t-14.5 -36.5t-36.5 -14.5t-36.5 14.5zM60.5 554.5q-14.5 14.5 -14.5 36.5t14.5 36.5t36.5 14.5t36.5 -14.5
t14.5 -36.5t-14.5 -36.5t-36.5 -14.5t-36.5 14.5zM192.5 554.5q-14.5 14.5 -14.5 36.5t14.5 36.5t36.5 14.5t36.5 -14.5t14.5 -36.5t-14.5 -36.5t-36.5 -14.5t-36.5 14.5z" />
    <glyph glyph-name="uni062C" unicode="&#x62c;" horiz-adv-x="588" 
d="M139.5 -22.5q-25.5 -22.5 -25.5 -63.5t34 -62.5t102 -21.5h139v-80h-139q-102 0 -161 44t-59 120t50.5 121t133.5 45h221q-15 39 -26 105q-10 64 -20.5 98t-36 55.5t-74.5 21.5q-53 0 -115 -44l-44 62q39 31 82 46.5t83 15.5q80 0 123 -37t58 -83.5t27 -121.5
q8 -50 15 -75t16 -34t25 -9v-80h-334q-49 0 -74.5 -22.5zM257.5 -124.5q-14.5 14.5 -14.5 36.5t14.5 36.5t36.5 14.5t36.5 -14.5t14.5 -36.5t-14.5 -36.5t-36.5 -14.5t-36.5 14.5z" />
    <glyph glyph-name="uni062D" unicode="&#x62d;" horiz-adv-x="588" 
d="M139.5 -22.5q-25.5 -22.5 -25.5 -63.5t34 -62.5t102 -21.5h139v-80h-139q-102 0 -161 44t-59 120t50.5 121t133.5 45h221q-15 39 -26 105q-10 64 -20.5 98t-36 55.5t-74.5 21.5q-53 0 -115 -44l-44 62q39 31 82 46.5t83 15.5q80 0 123 -37t58 -83.5t27 -121.5
q8 -50 15 -75t16 -34t25 -9v-80h-334q-49 0 -74.5 -22.5z" />
    <glyph glyph-name="uni062E" unicode="&#x62e;" horiz-adv-x="588" 
d="M139.5 -22.5q-25.5 -22.5 -25.5 -63.5t34 -62.5t102 -21.5h139v-80h-139q-102 0 -161 44t-59 120t50.5 121t133.5 45h221q-15 39 -26 105q-10 64 -20.5 98t-36 55.5t-74.5 21.5q-53 0 -115 -44l-44 62q39 31 82 46.5t83 15.5q80 0 123 -37t58 -83.5t27 -121.5
q8 -50 15 -75t16 -34t25 -9v-80h-334q-49 0 -74.5 -22.5zM247.5 574.5q-14.5 14.5 -14.5 36.5t14.5 36.5t36.5 14.5t36.5 -14.5t14.5 -36.5t-14.5 -36.5t-36.5 -14.5t-36.5 14.5z" />
    <glyph glyph-name="uni062F" unicode="&#x62f;" horiz-adv-x="467" 
d="M40 80h292q-5 83 -30 163.5t-67 148.5l72 42q52 -86 81 -189.5t29 -204.5q0 -27 -1 -40h-376v80z" />
    <glyph glyph-name="uni0630" unicode="&#x630;" horiz-adv-x="467" 
d="M40 80h292q-5 83 -30 163.5t-67 148.5l72 42q52 -86 81 -189.5t29 -204.5q0 -27 -1 -40h-376v80zM234.5 547.5q-14.5 14.5 -14.5 36.5t14.5 36.5t36.5 14.5t36.5 -14.5t14.5 -36.5t-14.5 -36.5t-36.5 -14.5t-36.5 14.5z" />
    <glyph glyph-name="uni0631" unicode="&#x631;" horiz-adv-x="350" 
d="M20 -130h10q166 0 166 166v384h84v-384q0 -115 -66.5 -180.5t-183.5 -65.5h-10v80z" />
    <glyph glyph-name="uni0632" unicode="&#x632;" horiz-adv-x="350" 
d="M20 -130h10q166 0 166 166v384h84v-384q0 -115 -66.5 -180.5t-183.5 -65.5h-10v80zM201.5 554.5q-14.5 14.5 -14.5 36.5t14.5 36.5t36.5 14.5t36.5 -14.5t14.5 -36.5t-14.5 -36.5t-36.5 -14.5t-36.5 14.5z" />
    <glyph glyph-name="uni0633" unicode="&#x633;" horiz-adv-x="1072" 
d="M1002 420v-420h-455q-18 -102 -83.5 -156t-171.5 -54q-125 0 -193.5 75.5t-68.5 212.5v182h84v-182q0 -105 44.5 -156.5t133.5 -51.5t133.5 51.5t44.5 156.5v342h84v-340h140v290h84v-290h140v340h84z" />
    <glyph glyph-name="uni0634" unicode="&#x634;" horiz-adv-x="1072" 
d="M1002 420v-420h-455q-18 -102 -83.5 -156t-171.5 -54q-125 0 -193.5 75.5t-68.5 212.5v182h84v-182q0 -105 44.5 -156.5t133.5 -51.5t133.5 51.5t44.5 156.5v342h84v-340h140v290h84v-290h140v340h84zM699.5 616.5q-14.5 14.5 -14.5 36.5t14.5 36.5t36.5 14.5t36.5 -14.5
t14.5 -36.5t-14.5 -36.5t-36.5 -14.5t-36.5 14.5zM633.5 504.5q-14.5 14.5 -14.5 36.5t14.5 36.5t36.5 14.5t36.5 -14.5t14.5 -36.5t-14.5 -36.5t-36.5 -14.5t-36.5 14.5zM765.5 504.5q-14.5 14.5 -14.5 36.5t14.5 36.5t36.5 14.5t36.5 -14.5t14.5 -36.5t-14.5 -36.5
t-36.5 -14.5t-36.5 14.5z" />
    <glyph glyph-name="uni0635" unicode="&#x635;" horiz-adv-x="1089" 
d="M1029 0h-482q-18 -102 -83.5 -156t-171.5 -54q-125 0 -193.5 75.5t-68.5 212.5v182h84v-182q0 -105 44.5 -156.5t133.5 -51.5t133.5 51.5t44.5 156.5v382h84v-40h241q110 0 172 -56.5t62 -157.5v-206zM945 206q0 68 -37 101t-113 33h-241v-260h391v126z" />
    <glyph glyph-name="uni0636" unicode="&#x636;" horiz-adv-x="1089" 
d="M1029 0h-482q-18 -102 -83.5 -156t-171.5 -54q-125 0 -193.5 75.5t-68.5 212.5v182h84v-182q0 -105 44.5 -156.5t133.5 -51.5t133.5 51.5t44.5 156.5v382h84v-40h241q110 0 172 -56.5t62 -157.5v-206zM945 206q0 68 -37 101t-113 33h-241v-260h391v126zM691.5 554.5
q-14.5 14.5 -14.5 36.5t14.5 36.5t36.5 14.5t36.5 -14.5t14.5 -36.5t-14.5 -36.5t-36.5 -14.5t-36.5 14.5z" />
    <glyph glyph-name="uni0637" unicode="&#x637;" horiz-adv-x="760" 
d="M638 363.5q62 -56.5 62 -157.5v-206h-680v80h121v620h84v-280h241q110 0 172 -56.5zM616 206q0 68 -37 101t-113 33h-241v-260h391v126z" />
    <glyph glyph-name="uni0638" unicode="&#x638;" horiz-adv-x="760" 
d="M638 363.5q62 -56.5 62 -157.5v-206h-680v80h121v620h84v-280h241q110 0 172 -56.5zM616 206q0 68 -37 101t-113 33h-241v-260h391v126zM403.5 554.5q-14.5 14.5 -14.5 36.5t14.5 36.5t36.5 14.5t36.5 -14.5t14.5 -36.5t-14.5 -36.5t-36.5 -14.5t-36.5 14.5z" />
    <glyph glyph-name="uni0639" unicode="&#x639;" horiz-adv-x="553" 
d="M139.5 -22.5q-25.5 -22.5 -25.5 -63.5t34 -62.5t102 -21.5h139v-80h-139q-102 0 -161 44t-59 120q0 59 32 100.5t88 57.5q-35 30 -53.5 69t-18.5 85q0 60 29 109t79.5 77t112.5 28q56 0 107 -22.5t87 -63.5l-64 -52q-50 58 -130 58q-60 0 -98.5 -37.5t-38.5 -96.5
q0 -43 25 -76t69 -51.5t99 -18.5h158v-80h-299q-49 0 -74.5 -22.5z" />
    <glyph glyph-name="uni063A" unicode="&#x63a;" horiz-adv-x="553" 
d="M139.5 -22.5q-25.5 -22.5 -25.5 -63.5t34 -62.5t102 -21.5h139v-80h-139q-102 0 -161 44t-59 120q0 59 32 100.5t88 57.5q-35 30 -53.5 69t-18.5 85q0 60 29 109t79.5 77t112.5 28q56 0 107 -22.5t87 -63.5l-64 -52q-50 58 -130 58q-60 0 -98.5 -37.5t-38.5 -96.5
q0 -43 25 -76t69 -51.5t99 -18.5h158v-80h-299q-49 0 -74.5 -22.5zM262.5 574.5q-14.5 14.5 -14.5 36.5t14.5 36.5t36.5 14.5t36.5 -14.5t14.5 -36.5t-14.5 -36.5t-36.5 -14.5t-36.5 14.5z" />
    <glyph glyph-name="uni0641" unicode="&#x641;" horiz-adv-x="1009" 
d="M892 376q57 -64 57 -175v-201h-675q-116 0 -180.5 52t-64.5 146q0 83 54 165l70 -42q-21 -34 -30.5 -63t-9.5 -60q0 -56 42 -87t119 -31h308q-59 59 -59 146q0 59 28 108t76.5 77.5t107.5 28.5q100 0 157 -64zM865 80v121q0 78 -33.5 118.5t-96.5 40.5q-55 0 -91.5 -38.5
t-36.5 -95.5q0 -69 56 -107.5t157 -38.5h45zM698.5 574.5q-14.5 14.5 -14.5 36.5t14.5 36.5t36.5 14.5t36.5 -14.5t14.5 -36.5t-14.5 -36.5t-36.5 -14.5t-36.5 14.5z" />
    <glyph glyph-name="uni06A4" unicode="&#x6a4;" horiz-adv-x="1009" 
d="M892 376q57 -64 57 -175v-201h-675q-116 0 -180.5 52t-64.5 146q0 83 54 165l70 -42q-21 -34 -30.5 -63t-9.5 -60q0 -56 42 -87t119 -31h308q-59 59 -59 146q0 59 28 108t76.5 77.5t107.5 28.5q100 0 157 -64zM865 80v121q0 78 -33.5 118.5t-96.5 40.5q-55 0 -91.5 -38.5
t-36.5 -95.5q0 -69 56 -107.5t157 -38.5h45zM698.5 686.5q-14.5 14.5 -14.5 36.5t14.5 36.5t36.5 14.5t36.5 -14.5t14.5 -36.5t-14.5 -36.5t-36.5 -14.5t-36.5 14.5zM632.5 574.5q-14.5 14.5 -14.5 36.5t14.5 36.5t36.5 14.5t36.5 -14.5t14.5 -36.5t-14.5 -36.5t-36.5 -14.5
t-36.5 14.5zM764.5 574.5q-14.5 14.5 -14.5 36.5t14.5 36.5t36.5 14.5t36.5 -14.5t14.5 -36.5t-14.5 -36.5t-36.5 -14.5t-36.5 14.5z" />
    <glyph glyph-name="uni06A1" unicode="&#x6a1;" horiz-adv-x="1009" 
d="M892 376q57 -64 57 -175v-201h-675q-116 0 -180.5 52t-64.5 146q0 83 54 165l70 -42q-21 -34 -30.5 -63t-9.5 -60q0 -56 42 -87t119 -31h308q-59 59 -59 146q0 59 28 108t76.5 77.5t107.5 28.5q100 0 157 -64zM865 80v121q0 78 -33.5 118.5t-96.5 40.5q-55 0 -91.5 -38.5
t-36.5 -95.5q0 -69 56 -107.5t157 -38.5h45z" />
    <glyph glyph-name="uni066F" unicode="&#x66f;" horiz-adv-x="831" 
d="M714 376q57 -64 57 -175v-123q0 -138 -97 -213t-274 -75t-273.5 75t-96.5 213v182h84v-182q0 -103 71.5 -155.5t214.5 -52.5q226 0 274 130h-32q-90 0 -157 27.5t-103.5 78.5t-36.5 120q0 59 28 108t76.5 77.5t107.5 28.5q100 0 157 -64zM485 118.5q56 -38.5 157 -38.5
h45v121q0 78 -33.5 118.5t-96.5 40.5q-55 0 -91.5 -38.5t-36.5 -95.5q0 -69 56 -107.5z" />
    <glyph glyph-name="uni0642" unicode="&#x642;" horiz-adv-x="831" 
d="M714 376q57 -64 57 -175v-123q0 -138 -97 -213t-274 -75t-273.5 75t-96.5 213v182h84v-182q0 -103 71.5 -155.5t214.5 -52.5q226 0 274 130h-32q-90 0 -157 27.5t-103.5 78.5t-36.5 120q0 59 28 108t76.5 77.5t107.5 28.5q100 0 157 -64zM485 118.5q56 -38.5 157 -38.5
h45v121q0 78 -33.5 118.5t-96.5 40.5q-55 0 -91.5 -38.5t-36.5 -95.5q0 -69 56 -107.5zM454.5 574.5q-14.5 14.5 -14.5 36.5t14.5 36.5t36.5 14.5t36.5 -14.5t14.5 -36.5t-14.5 -36.5t-36.5 -14.5t-36.5 14.5zM586.5 574.5q-14.5 14.5 -14.5 36.5t14.5 36.5t36.5 14.5
t36.5 -14.5t14.5 -36.5t-14.5 -36.5t-36.5 -14.5t-36.5 14.5z" />
    <glyph glyph-name="uni0643" unicode="&#x643;" horiz-adv-x="863" 
d="M793 700v-700h-519q-116 0 -180.5 52t-64.5 146q0 83 54 165l70 -42q-21 -34 -30.5 -63t-9.5 -60q0 -56 42 -87t119 -31h435v620h84zM329 265v50h42q-17 23 -17 54q0 43 29 71.5t72 28.5q26 0 49 -10t39 -29l-38 -34q-19 23 -50 23q-23 0 -37 -14t-14 -36q0 -24 23 -39
t61 -15h61v-50h-220z" />
    <glyph glyph-name="uni0644" unicode="&#x644;" horiz-adv-x="624" 
d="M114 260v-182q0 -105 44.5 -156.5t133.5 -51.5t133.5 51.5t44.5 156.5v621h84v-621q0 -137 -68.5 -212.5t-193.5 -75.5t-193.5 75.5t-68.5 212.5v182h84z" />
    <glyph glyph-name="uni0645" unicode="&#x645;" horiz-adv-x="704" 
d="M557.5 352.5q48.5 -27.5 75 -77.5t26.5 -115q0 -66 -26.5 -116t-75 -77.5t-111.5 -27.5q-48 0 -88 15.5t-68 45.5h-40q-59 0 -87.5 -29.5t-28.5 -90.5v-130h-84v130q0 92 51 145t142 55q-12 36 -12 80q0 65 27 115t75.5 77.5t112.5 27.5q63 0 111.5 -27.5zM539.5 57.5
q35.5 38.5 35.5 102.5q0 63 -35.5 101.5t-93.5 38.5q-59 0 -95 -38.5t-36 -101.5q0 -64 36 -102.5t95 -38.5q58 0 93.5 38.5z" />
    <glyph glyph-name="uni0646" unicode="&#x646;" horiz-adv-x="624" 
d="M114 260v-182q0 -105 44.5 -156.5t133.5 -51.5t133.5 51.5t44.5 156.5v342h84v-342q0 -137 -68.5 -212.5t-193.5 -75.5t-193.5 75.5t-68.5 212.5v182h84zM255.5 434.5q-14.5 14.5 -14.5 36.5t14.5 36.5t36.5 14.5t36.5 -14.5t14.5 -36.5t-14.5 -36.5t-36.5 -14.5
t-36.5 14.5z" />
    <glyph glyph-name="uni06BA" unicode="&#x6ba;" horiz-adv-x="624" 
d="M114 260v-182q0 -105 44.5 -156.5t133.5 -51.5t133.5 51.5t44.5 156.5v342h84v-342q0 -137 -68.5 -212.5t-193.5 -75.5t-193.5 75.5t-68.5 212.5v182h84z" />
    <glyph glyph-name="uni0647" unicode="&#x647;" horiz-adv-x="503" 
d="M132.5 26.5q-48.5 27.5 -75.5 77.5t-27 116q0 65 27 115t75.5 77.5t112.5 27.5q63 0 111.5 -27.5t75 -77.5t26.5 -115q0 -66 -26.5 -116t-75 -77.5t-111.5 -27.5q-64 0 -112.5 27.5zM338.5 117.5q35.5 38.5 35.5 102.5q0 63 -35.5 101.5t-93.5 38.5q-59 0 -95 -38.5
t-36 -101.5q0 -64 36 -102.5t95 -38.5q58 0 93.5 38.5z" />
    <glyph glyph-name="uni0629" unicode="&#x629;" horiz-adv-x="503" 
d="M132.5 26.5q-48.5 27.5 -75.5 77.5t-27 116q0 65 27 115t75.5 77.5t112.5 27.5q63 0 111.5 -27.5t75 -77.5t26.5 -115q0 -66 -26.5 -116t-75 -77.5t-111.5 -27.5q-64 0 -112.5 27.5zM338.5 117.5q35.5 38.5 35.5 102.5q0 63 -35.5 101.5t-93.5 38.5q-59 0 -95 -38.5
t-36 -101.5q0 -64 36 -102.5t95 -38.5q58 0 93.5 38.5zM142.5 574.5q-14.5 14.5 -14.5 36.5t14.5 36.5t36.5 14.5t36.5 -14.5t14.5 -36.5t-14.5 -36.5t-36.5 -14.5t-36.5 14.5zM274.5 574.5q-14.5 14.5 -14.5 36.5t14.5 36.5t36.5 14.5t36.5 -14.5t14.5 -36.5t-14.5 -36.5
t-36.5 -14.5t-36.5 14.5z" />
    <glyph glyph-name="uni0648" unicode="&#x648;" horiz-adv-x="544" 
d="M427 376q57 -64 57 -175v-165q0 -119 -66 -182.5t-190 -63.5h-78v80h78q79 0 120.5 31.5t49.5 98.5h-43q-90 0 -157 27.5t-103.5 78.5t-36.5 120q0 59 28 108t76.5 77.5t107.5 28.5q100 0 157 -64zM198 118.5q56 -38.5 157 -38.5h45v121q0 78 -33.5 118.5t-96.5 40.5
q-55 0 -91.5 -38.5t-36.5 -95.5q0 -69 56 -107.5z" />
    <glyph glyph-name="uni0648.ss01" horiz-adv-x="544" 
d="M427 376q57 -64 57 -175v-165q0 -119 -66 -182.5t-190 -63.5h-78v80h78q79 0 120.5 31.5t49.5 98.5h-43q-90 0 -157 27.5t-103.5 78.5t-36.5 120q0 59 28 108t76.5 77.5t107.5 28.5q100 0 157 -64zM198 118.5q56 -38.5 157 -38.5h45v121q0 78 -33.5 118.5t-96.5 40.5
q-55 0 -91.5 -38.5t-36.5 -95.5q0 -69 56 -107.5z" />
    <glyph glyph-name="uniFEEE.ss01" horiz-adv-x="564" 
d="M564 0h-82q-10 -102 -75 -156t-179 -54h-78v80h78q79 0 120.5 31.5t49.5 98.5h-43q-90 0 -157 27.5t-103.5 78.5t-36.5 120q0 59 28 108t76.5 77.5t107.5 28.5q100 0 157 -64t57 -175v-121h80v-80zM198 118.5q56 -38.5 157 -38.5h45v121q0 78 -33.5 118.5t-96.5 40.5
q-55 0 -91.5 -38.5t-36.5 -95.5q0 -69 56 -107.5z" />
    <glyph glyph-name="uni0624" unicode="&#x624;" horiz-adv-x="544" 
d="M427 376q57 -64 57 -175v-165q0 -119 -66 -182.5t-190 -63.5h-78v80h78q79 0 120.5 31.5t49.5 98.5h-43q-90 0 -157 27.5t-103.5 78.5t-36.5 120q0 59 28 108t76.5 77.5t107.5 28.5q100 0 157 -64zM198 118.5q56 -38.5 157 -38.5h45v121q0 78 -33.5 118.5t-96.5 40.5
q-55 0 -91.5 -38.5t-36.5 -95.5q0 -69 56 -107.5zM378 590v-60h-254v60h46q-20 28 -20 64q0 51 34.5 85t85.5 34q30 0 57 -12t47 -35l-44 -40q-25 27 -60 27q-27 0 -43.5 -16.5t-16.5 -42.5q0 -29 27 -46.5t72 -17.5h69z" />
    <glyph glyph-name="uni0624.ss01" horiz-adv-x="544" 
d="M427 376q57 -64 57 -175v-165q0 -119 -66 -182.5t-190 -63.5h-78v80h78q79 0 120.5 31.5t49.5 98.5h-43q-90 0 -157 27.5t-103.5 78.5t-36.5 120q0 59 28 108t76.5 77.5t107.5 28.5q100 0 157 -64zM198 118.5q56 -38.5 157 -38.5h45v121q0 78 -33.5 118.5t-96.5 40.5
q-55 0 -91.5 -38.5t-36.5 -95.5q0 -69 56 -107.5zM378 590v-60h-254v60h46q-20 28 -20 64q0 51 34.5 85t85.5 34q30 0 57 -12t47 -35l-44 -40q-25 27 -60 27q-27 0 -43.5 -16.5t-16.5 -42.5q0 -29 27 -46.5t72 -17.5h69z" />
    <glyph glyph-name="uniFE86.ss01" horiz-adv-x="564" 
d="M564 0h-82q-10 -102 -75 -156t-179 -54h-78v80h78q79 0 120.5 31.5t49.5 98.5h-43q-90 0 -157 27.5t-103.5 78.5t-36.5 120q0 59 28 108t76.5 77.5t107.5 28.5q100 0 157 -64t57 -175v-121h80v-80zM198 118.5q56 -38.5 157 -38.5h45v121q0 78 -33.5 118.5t-96.5 40.5
q-55 0 -91.5 -38.5t-36.5 -95.5q0 -69 56 -107.5zM378 590v-60h-254v60h46q-20 28 -20 64q0 51 34.5 85t85.5 34q30 0 57 -12t47 -35l-44 -40q-25 27 -60 27q-27 0 -43.5 -16.5t-16.5 -42.5q0 -29 27 -46.5t72 -17.5h69z" />
    <glyph glyph-name="uni0649" unicode="&#x649;" horiz-adv-x="808" 
d="M114 260v-182q0 -103 71.5 -155.5t214.5 -52.5q130 0 201.5 28t71.5 75q0 18 -9 30.5t-32.5 24t-69.5 26.5q-57 19 -95.5 38.5t-67.5 57t-29 96.5q0 56 27 100.5t75 69t110 24.5q54 0 102.5 -21.5t83.5 -60.5l-62 -54q-50 56 -124 56q-59 0 -93.5 -30.5t-34.5 -83.5
q0 -44 32 -67.5t103 -48.5q62 -21 94.5 -37t53 -44.5t20.5 -75.5q0 -88 -94 -135.5t-263 -47.5q-177 0 -273.5 75t-96.5 213v182h84z" />
    <glyph glyph-name="uni064A" unicode="&#x64a;" horiz-adv-x="808" 
d="M114 260v-182q0 -103 71.5 -155.5t214.5 -52.5q130 0 201.5 28t71.5 75q0 18 -9 30.5t-32.5 24t-69.5 26.5q-57 19 -95.5 38.5t-67.5 57t-29 96.5q0 56 27 100.5t75 69t110 24.5q54 0 102.5 -21.5t83.5 -60.5l-62 -54q-50 56 -124 56q-59 0 -93.5 -30.5t-34.5 -83.5
q0 -44 32 -67.5t103 -48.5q62 -21 94.5 -37t53 -44.5t20.5 -75.5q0 -88 -94 -135.5t-263 -47.5q-177 0 -273.5 75t-96.5 213v182h84zM297.5 -375.5q-14.5 14.5 -14.5 36.5t14.5 36.5t36.5 14.5t36.5 -14.5t14.5 -36.5t-14.5 -36.5t-36.5 -14.5t-36.5 14.5zM429.5 -375.5
q-14.5 14.5 -14.5 36.5t14.5 36.5t36.5 14.5t36.5 -14.5t14.5 -36.5t-14.5 -36.5t-36.5 -14.5t-36.5 14.5z" />
    <glyph glyph-name="uniFEF4.wide" horiz-adv-x="305" 
d="M305 80v-80h-305q-10 0 -17.5 9t-7.5 29q0 23 7.5 32.5t17.5 9.5h121v340h84v-340h100zM40.5 -165.5q-14.5 14.5 -14.5 36.5t14.5 36.5t36.5 14.5t36.5 -14.5t14.5 -36.5t-14.5 -36.5t-36.5 -14.5t-36.5 14.5zM172.5 -165.5q-14.5 14.5 -14.5 36.5t14.5 36.5t36.5 14.5
t36.5 -14.5t14.5 -36.5t-14.5 -36.5t-36.5 -14.5t-36.5 14.5z" />
    <glyph glyph-name="uniFEF3.wide" horiz-adv-x="275" 
d="M205 420v-420h-205q-10 0 -17.5 9t-7.5 29q0 23 7.5 32.5t17.5 9.5h121v340h84zM40.5 -165.5q-14.5 14.5 -14.5 36.5t14.5 36.5t36.5 14.5t36.5 -14.5t14.5 -36.5t-14.5 -36.5t-36.5 -14.5t-36.5 14.5zM172.5 -165.5q-14.5 14.5 -14.5 36.5t14.5 36.5t36.5 14.5
t36.5 -14.5t14.5 -36.5t-14.5 -36.5t-36.5 -14.5t-36.5 14.5z" />
    <glyph glyph-name="uni0626" unicode="&#x626;" horiz-adv-x="808" 
d="M114 260v-182q0 -103 71.5 -155.5t214.5 -52.5q130 0 201.5 28t71.5 75q0 18 -9 30.5t-32.5 24t-69.5 26.5q-57 19 -95.5 38.5t-67.5 57t-29 96.5q0 56 27 100.5t75 69t110 24.5q54 0 102.5 -21.5t83.5 -60.5l-62 -54q-50 56 -124 56q-59 0 -93.5 -30.5t-34.5 -83.5
q0 -44 32 -67.5t103 -48.5q62 -21 94.5 -37t53 -44.5t20.5 -75.5q0 -88 -94 -135.5t-263 -47.5q-177 0 -273.5 75t-96.5 213v182h84zM272 410v-60h-254v60h46q-20 28 -20 64q0 51 34.5 85t85.5 34q30 0 57 -12t47 -35l-44 -40q-25 27 -60 27q-27 0 -43.5 -16.5t-16.5 -42.5
q0 -29 27 -46.5t72 -17.5h69z" />
    <glyph glyph-name="uniFE8C.wide" horiz-adv-x="305" 
d="M305 80v-80h-305q-10 0 -17.5 9t-7.5 29q0 23 7.5 32.5t17.5 9.5h121v340h84v-340h100zM271 570v-60h-254v60h46q-20 28 -20 64q0 51 34.5 85t85.5 34q30 0 57 -12t47 -35l-44 -40q-25 27 -60 27q-27 0 -43.5 -16.5t-16.5 -42.5q0 -29 27 -46.5t72 -17.5h69z" />
    <glyph glyph-name="uniFE8B.wide" horiz-adv-x="275" 
d="M205 420v-420h-205q-10 0 -17.5 9t-7.5 29q0 23 7.5 32.5t17.5 9.5h121v340h84zM271 570v-60h-254v60h46q-20 28 -20 64q0 51 34.5 85t85.5 34q30 0 57 -12t47 -35l-44 -40q-25 27 -60 27q-27 0 -43.5 -16.5t-16.5 -42.5q0 -29 27 -46.5t72 -17.5h69z" />
    <glyph glyph-name="uni0640" unicode="&#x640;" horiz-adv-x="110" 
d="M110 0h-110q-10 0 -17.5 9t-7.5 29q0 23 7.5 32.5t17.5 9.5h110v-80z" />
    <glyph glyph-name="zero" unicode="0" horiz-adv-x="636" 
d="M172.5 35.5q-60.5 47.5 -91.5 129.5t-31 185t31 185t91.5 129.5t145.5 47.5t145.5 -47.5t91.5 -129.5t31 -185t-31 -185t-91.5 -129.5t-145.5 -47.5t-145.5 47.5zM404.5 104q39.5 30 63.5 92.5t24 153.5t-24 153.5t-63.5 92.5t-86.5 30t-86.5 -30t-63.5 -92.5t-24 -153.5
t24 -153.5t63.5 -92.5t86.5 -30t86.5 30z" />
    <glyph glyph-name="one" unicode="1" horiz-adv-x="350" 
d="M196 551l-95 -96l-61 61l183 184h65v-700h-92v551z" />
    <glyph glyph-name="two" unicode="2" horiz-adv-x="580" 
d="M506 86v-86h-441v47l249 282q57 65 77 102t20 83q0 27 -14 53t-44 42.5t-73 16.5q-53 0 -87.5 -27.5t-56.5 -81.5l-71 45q22 65 80.5 107.5t134.5 42.5q60 0 111.5 -24t82 -70t30.5 -107q0 -57 -24 -102t-75 -104l-192 -219h293z" />
    <glyph glyph-name="three" unicode="3" horiz-adv-x="599" 
d="M432 409q48 -27 74.5 -76.5t26.5 -110.5q0 -69 -31.5 -122t-86 -82.5t-121.5 -29.5q-79 0 -139 38.5t-91 104.5l71 51q57 -108 159 -108q64 0 104.5 37t40.5 111q0 64 -38.5 99.5t-94.5 35.5q-59 0 -107 -44l-45 49l222 252h-285v86h405v-63l-174 -204q62 3 110 -24z" />
    <glyph glyph-name="four" unicode="4" horiz-adv-x="607" 
d="M369 148h-331v70l381 482h44v-466h92v-86h-92v-148h-94v148zM369 234v275l-216 -275h216z" />
    <glyph glyph-name="five" unicode="5" horiz-adv-x="571" 
d="M140.5 27.5q-57.5 39.5 -82.5 97.5l76 55q43 -106 152 -106q66 0 108.5 42.5t42.5 114.5q0 69 -43.5 108t-108.5 39q-38 0 -69 -16.5t-51 -42.5l-89 33l64 348h358v-86h-287l-40 -198q22 19 58 32.5t78 13.5q68 0 118.5 -29.5t78 -82t27.5 -119.5q0 -66 -32 -122
t-88 -88.5t-125 -32.5q-88 0 -145.5 39.5z" />
    <glyph glyph-name="six" unicode="6" horiz-adv-x="626" 
d="M513 400.5q63 -61.5 63 -169.5q0 -71 -31.5 -126.5t-88 -86t-129.5 -30.5t-135.5 35.5t-102 113t-39.5 196.5q0 116 40 202t109.5 131.5t154.5 45.5q59 0 115.5 -23.5t90.5 -72.5l-64 -61q-24 33 -61.5 52t-85.5 19q-61 0 -105.5 -37.5t-69 -98t-29.5 -128.5
q39 51 90 75.5t107 24.5q108 0 171 -61.5zM416 98q35 24 50.5 60t15.5 73q0 74 -42.5 111.5t-103.5 37.5q-54 0 -105 -32t-80 -99q15 -81 60.5 -128t113.5 -47q56 0 91 24z" />
    <glyph glyph-name="seven" unicode="7" horiz-adv-x="504" 
d="M474 700v-65l-246 -635h-97l246 614h-341v86h438z" />
    <glyph glyph-name="eight" unicode="8" horiz-adv-x="600" 
d="M546 201q0 -61 -32.5 -109.5t-88 -76t-122.5 -27.5q-74 0 -130 25.5t-87 72t-31 107.5q0 62 29 105.5t75 67.5q-81 55 -81 149q0 57 31 102t81 70t105 25q63 0 113.5 -24.5t79.5 -69.5t29 -104q0 -41 -20 -76.5t-52 -63.5q101 -52 101 -173zM226.5 609.5
q-28.5 -16.5 -41.5 -40t-13 -45.5q0 -48 37.5 -77.5t104.5 -36.5q30 -4 45 -7q34 27 49 51.5t15 58.5q0 46 -32 79.5t-94 33.5q-42 0 -70.5 -16.5zM414.5 111.5q37.5 37.5 37.5 89.5q0 60 -50 87.5t-114 33.5q-32 4 -47 9q-45 -20 -68.5 -54t-23.5 -79q0 -51 40 -87.5
t117 -36.5q71 0 108.5 37.5z" />
    <glyph glyph-name="nine" unicode="9" horiz-adv-x="626" 
d="M434.5 676.5q62.5 -35.5 102 -113t39.5 -196.5q0 -116 -40 -202t-109.5 -131.5t-154.5 -45.5q-59 0 -115.5 23.5t-90.5 72.5l64 61q24 -33 61.5 -52t85.5 -19q61 0 105.5 37.5t69 98t29.5 128.5q-39 -51 -90 -75.5t-107 -24.5q-108 0 -171 61.5t-63 169.5
q0 71 31.5 126.5t88 86t129.5 30.5t135.5 -35.5zM395 352q51 32 80 99q-15 81 -60.5 128t-113.5 47q-56 0 -91 -24t-50.5 -60t-15.5 -73q0 -74 42.5 -111.5t103.5 -37.5q54 0 105 32z" />
    <glyph glyph-name="uni2780" unicode="&#x2780;" horiz-adv-x="821" 
d="M226 36.5q-83 48.5 -131.5 132t-48.5 181.5t48.5 181.5t131.5 132t182 48.5q98 0 181.5 -48.5t132 -132t48.5 -181.5t-48.5 -181.5t-132 -132t-181.5 -48.5q-99 0 -182 48.5zM549 107.5q64 37.5 101.5 102t37.5 140.5t-37.5 140.5t-101.5 102t-140 37.5q-77 0 -141 -37.5
t-101.5 -102t-37.5 -140.5t37.5 -140.5t101.5 -102t141 -37.5q76 0 140 37.5zM376 397l-28 -29l-48 48l96 96h50v-312h-70v197z" />
    <glyph glyph-name="uni2781" unicode="&#x2781;" horiz-adv-x="821" 
d="M589.5 663.5q83.5 -48.5 132 -132t48.5 -181.5t-48.5 -181.5t-132 -132t-181.5 -48.5q-99 0 -182 48.5t-131.5 132t-48.5 181.5t48.5 181.5t131.5 132t182 48.5q98 0 181.5 -48.5zM549 107.5q64 37.5 101.5 102t37.5 140.5t-37.5 140.5t-101.5 102t-140 37.5
q-77 0 -141 -37.5t-101.5 -102t-37.5 -140.5t37.5 -140.5t101.5 -102t141 -37.5q76 0 140 37.5zM419 264h94v-64h-203v38l98 108q24 27 31 41.5t7 32.5q0 14 -11 23.5t-29 9.5q-37 0 -52 -44l-53 32q12 36 40.5 56t65.5 20q46 0 75.5 -27.5t29.5 -70.5q0 -51 -44 -100z" />
    <glyph glyph-name="uni2782" unicode="&#x2782;" horiz-adv-x="821" 
d="M226 36.5q-83 48.5 -131.5 132t-48.5 181.5t48.5 181.5t131.5 132t182 48.5q98 0 181.5 -48.5t132 -132t48.5 -181.5t-48.5 -181.5t-132 -132t-181.5 -48.5q-99 0 -182 48.5zM549 107.5q64 37.5 101.5 102t37.5 140.5t-37.5 140.5t-101.5 102t-140 37.5q-77 0 -141 -37.5
t-101.5 -102t-37.5 -140.5t37.5 -140.5t101.5 -102t141 -37.5q76 0 140 37.5zM347.5 213q-29.5 18 -39.5 47l47 36q7 -19 22 -30t34 -11q21 0 33.5 12.5t12.5 35.5q0 19 -11.5 32t-28.5 13q-22 0 -36 -14l-34 35l74 83h-98v60h181v-42l-58 -67q31 -7 52.5 -33.5t21.5 -61.5
q0 -48 -32 -80.5t-77 -32.5q-34 0 -63.5 18z" />
    <glyph glyph-name="uni2783" unicode="&#x2783;" horiz-adv-x="821" 
d="M226 36.5q-83 48.5 -131.5 132t-48.5 181.5t48.5 181.5t131.5 132t182 48.5q98 0 181.5 -48.5t132 -132t48.5 -181.5t-48.5 -181.5t-132 -132t-181.5 -48.5q-99 0 -182 48.5zM549 107.5q64 37.5 101.5 102t37.5 140.5t-37.5 140.5t-101.5 102t-140 37.5q-77 0 -141 -37.5
t-101.5 -102t-37.5 -140.5t37.5 -140.5t101.5 -102t141 -37.5q76 0 140 37.5zM405 264h-145v50l159 198h49v-190h41v-58h-41v-64h-63v64zM405 322v87l-68 -87h68z" />
    <glyph glyph-name="uni2784" unicode="&#x2784;" horiz-adv-x="821" 
d="M226 36.5q-83 48.5 -131.5 132t-48.5 181.5t48.5 181.5t131.5 132t182 48.5q98 0 181.5 -48.5t132 -132t48.5 -181.5t-48.5 -181.5t-132 -132t-181.5 -48.5q-99 0 -182 48.5zM549 107.5q64 37.5 101.5 102t37.5 140.5t-37.5 140.5t-101.5 102t-140 37.5q-77 0 -141 -37.5
t-101.5 -102t-37.5 -140.5t37.5 -140.5t101.5 -102t141 -37.5q76 0 140 37.5zM333 214q-30 19 -43 46l53 33q8 -18 23.5 -28t35.5 -10q24 0 37.5 14.5t13.5 39.5q0 20 -13.5 34.5t-37.5 14.5q-31 0 -50 -27l-55 21l30 160h180v-61h-128l-9 -42q17 9 42 9q49 0 79 -30.5
t30 -78.5t-31.5 -81t-87.5 -33q-39 0 -69 19z" />
    <glyph glyph-name="uni2785" unicode="&#x2785;" horiz-adv-x="821" 
d="M226 36.5q-83 48.5 -131.5 132t-48.5 181.5t48.5 181.5t131.5 132t182 48.5q98 0 181.5 -48.5t132 -132t48.5 -181.5t-48.5 -181.5t-132 -132t-181.5 -48.5q-99 0 -182 48.5zM549 107.5q64 37.5 101.5 102t37.5 140.5t-37.5 140.5t-101.5 102t-140 37.5q-77 0 -141 -37.5
t-101.5 -102t-37.5 -140.5t37.5 -140.5t101.5 -102t141 -37.5q76 0 140 37.5zM319 236q-34 41 -34 105q0 50 17 90.5t46.5 63t66.5 22.5q35 0 61.5 -13.5t39.5 -38.5l-45 -36q-19 30 -58 30q-24 0 -40 -21t-18 -54q10 10 29 16t32 6q50 0 77.5 -28t27.5 -73
q0 -47 -30.5 -78.5t-86.5 -31.5q-51 0 -85 41zM443.5 268q15.5 15 15.5 37q0 18 -14 31t-37 13q-16 0 -32 -11t-22 -26q1 -26 16.5 -42.5t32.5 -16.5q25 0 40.5 15z" />
    <glyph glyph-name="uni2786" unicode="&#x2786;" horiz-adv-x="821" 
d="M589.5 663.5q83.5 -48.5 132 -132t48.5 -181.5t-48.5 -181.5t-132 -132t-181.5 -48.5q-99 0 -182 48.5t-131.5 132t-48.5 181.5t48.5 181.5t131.5 132t182 48.5q98 0 181.5 -48.5zM549 107.5q64 37.5 101.5 102t37.5 140.5t-37.5 140.5t-101.5 102t-140 37.5
q-77 0 -141 -37.5t-101.5 -102t-37.5 -140.5t37.5 -140.5t101.5 -102t141 -37.5q76 0 140 37.5zM301 512h213v-47l-109 -265h-66l106 251h-144v61z" />
    <glyph glyph-name="uni2787" unicode="&#x2787;" horiz-adv-x="821" 
d="M589.5 663.5q83.5 -48.5 132 -132t48.5 -181.5t-48.5 -181.5t-132 -132t-181.5 -48.5q-99 0 -182 48.5t-131.5 132t-48.5 181.5t48.5 181.5t131.5 132t182 48.5q98 0 181.5 -48.5zM549 107.5q64 37.5 101.5 102t37.5 140.5t-37.5 140.5t-101.5 102t-140 37.5
q-77 0 -141 -37.5t-101.5 -102t-37.5 -140.5t37.5 -140.5t101.5 -102t141 -37.5q76 0 140 37.5zM524 297q0 -45 -33 -73.5t-80 -28.5q-48 0 -81 29t-33 70q0 21 9 39.5t25 30.5q-26 24 -26 62q0 39 30.5 65t72.5 26q48 0 76.5 -26t28.5 -62t-24 -65q35 -23 35 -67z
M377 451.5q-12 -10.5 -12 -27.5q0 -13 13 -23.5t34 -12.5l19 -2q19 16 19 40q0 17 -12 26.5t-30 9.5q-19 0 -31 -10.5zM446.5 266q14.5 11 14.5 27q0 38 -56 43l-18 3q-27 -20 -27 -43q0 -17 13.5 -29t37.5 -12q21 0 35.5 11z" />
    <glyph glyph-name="uni2788" unicode="&#x2788;" horiz-adv-x="821" 
d="M226 36.5q-83 48.5 -131.5 132t-48.5 181.5t48.5 181.5t131.5 132t182 48.5q98 0 181.5 -48.5t132 -132t48.5 -181.5t-48.5 -181.5t-132 -132t-181.5 -48.5q-99 0 -182 48.5zM549 107.5q64 37.5 101.5 102t37.5 140.5t-37.5 140.5t-101.5 102t-140 37.5q-77 0 -141 -37.5
t-101.5 -102t-37.5 -140.5t37.5 -140.5t101.5 -102t141 -37.5q76 0 140 37.5zM497 476q34 -41 34 -105q0 -50 -17 -90.5t-46.5 -63t-66.5 -22.5q-35 0 -61.5 13.5t-39.5 38.5l45 36q20 -30 58 -30q24 0 40 21t18 54q-10 -10 -29 -16t-32 -6q-50 0 -77.5 28t-27.5 73
q0 47 30.5 78.5t86.5 31.5q51 0 85 -41zM372.5 444q-15.5 -15 -15.5 -37q0 -18 14 -31t37 -13q16 0 32 11t22 26q-1 26 -16.5 42.5t-32.5 16.5q-25 0 -40.5 -15z" />
    <glyph glyph-name="uni00B9" unicode="&#xb9;" horiz-adv-x="236" 
d="M129 689l-56 -57l-47 47l121 121h52v-462h-70v351z" />
    <glyph glyph-name="uni00B2" unicode="&#xb2;" horiz-adv-x="379" 
d="M336 404v-66h-294v38l165 187q32 36 44 58.5t12 51.5q0 28 -21 49t-59 21q-63 0 -89 -69l-54 34q14 44 51.5 72t91.5 28q65 0 108 -36.5t43 -97.5q0 -38 -15 -67.5t-48 -66.5l-122 -136h187z" />
    <glyph glyph-name="uni00B3" unicode="&#xb3;" horiz-adv-x="400" 
d="M100 356q-41 26 -60 69l54 39q35 -68 99 -68q39 0 63.5 22.5t24.5 66.5q0 39 -23.5 61t-58.5 22q-18 0 -35 -7.5t-30 -19.5l-35 37l137 157h-178v65h271v-46l-110 -128q59 1 96 -39.5t37 -101.5q0 -45 -21 -80.5t-57 -55t-81 -19.5q-52 0 -93 26z" />
    <glyph glyph-name="uni2074" unicode="&#x2074;" horiz-adv-x="402" 
d="M239 433h-216v49l249 318h38v-303h59v-64h-59v-95h-71v95zM239 497v166l-130 -166h130z" />
    <glyph glyph-name="fraction" unicode="&#x2044;" horiz-adv-x="588" 
d="M470 700h85l-437 -700h-85z" />
    <glyph glyph-name="onehalf" unicode="&#xbd;" horiz-adv-x="964" 
d="M129 589l-56 -57l-47 47l121 121h52v-462h-70v351zM627 700h85l-437 -700h-85zM921 66v-66h-294v38l165 187q32 36 44 58.5t12 51.5q0 28 -21 49t-59 21q-63 0 -89 -69l-54 34q14 44 51.5 72t91.5 28q65 0 108 -36.5t43 -97.5q0 -38 -15 -67.5t-48 -66.5l-122 -136h187z
" />
    <glyph glyph-name="onequarter" unicode="&#xbc;" horiz-adv-x="907" 
d="M129 589l-56 -57l-47 47l121 121h52v-462h-70v351zM627 700h85l-437 -700h-85zM744 95h-216v49l249 318h38v-303h59v-64h-59v-95h-71v95zM744 159v166l-130 -166h130z" />
    <glyph glyph-name="threequarters" unicode="&#xbe;" horiz-adv-x="987" 
d="M100 256q-41 26 -60 69l54 39q35 -68 99 -68q39 0 63.5 22.5t24.5 66.5q0 39 -23.5 61t-58.5 22q-18 0 -35 -7.5t-30 -19.5l-35 37l137 157h-178v65h271v-46l-110 -128q59 1 96 -39.5t37 -101.5q0 -45 -21 -80.5t-57 -55t-81 -19.5q-52 0 -93 26zM707 700h85l-437 -700
h-85zM824 95h-216v49l249 318h38v-303h59v-64h-59v-95h-71v95zM824 159v166l-130 -166h130z" />
    <glyph glyph-name="uni066B" unicode="&#x66b;" horiz-adv-x="207" 
d="M87 124h90l-67 -186h-90z" />
    <glyph glyph-name="uni066C" unicode="&#x66c;" horiz-adv-x="160" 
d="M67 87h63l-47 -130h-63z" />
    <glyph glyph-name="uni0660" unicode="&#x660;" horiz-adv-x="241" 
d="M201 238l-80 -80l-81 80l80 81z" />
    <glyph glyph-name="uni0661" unicode="&#x661;" horiz-adv-x="304" 
d="M194 631v-631h-84v631h84z" />
    <glyph glyph-name="uni0662" unicode="&#x662;" horiz-adv-x="443" 
d="M433 551h-126q-70 0 -101.5 -37t-31.5 -121v-393h-84v393q0 117 56 177.5t161 60.5h126v-80z" />
    <glyph glyph-name="uni0663" unicode="&#x663;" horiz-adv-x="591" 
d="M556 614v-106q0 -75 -32.5 -114.5t-98.5 -39.5q-53 0 -90 35q-35 -35 -87 -35q-27 0 -54 11v-365h-84v629h84v-121q0 -39 11.5 -56.5t35.5 -17.5q50 0 50 63v79h84v-79q0 -63 50 -63q24 0 35.5 17.5t11.5 56.5v106h84z" />
    <glyph glyph-name="uni0664" unicode="&#x664;" horiz-adv-x="515" 
d="M460 31q-41 -17 -78 -24t-85 -7q-97 0 -154.5 45.5t-57.5 126.5q0 45 20.5 83.5t56.5 64.5q-29 25 -45.5 59.5t-16.5 72.5q0 51 26 92t73 64t106 23h80v-80h-80q-55 0 -88 -27t-33 -72q0 -30 15.5 -56t42.5 -42q28 7 63 7h80v-80h-80q-64 0 -100 -28.5t-36 -75.5t33 -72
t95 -25q41 0 69.5 5t64.5 18z" />
    <glyph glyph-name="uni0665" unicode="&#x665;" horiz-adv-x="583" 
d="M121 58.5q-61 63.5 -61 177.5q0 79 31 143.5t84 102t116 37.5t116.5 -37.5t84.5 -102.5t31 -143q0 -114 -61 -177.5t-171 -63.5q-109 0 -170 63.5zM439 236q0 54 -20.5 101t-54.5 74.5t-73 27.5t-73 -27.5t-54 -74t-20 -101.5q0 -161 147 -161q148 0 148 161z" />
    <glyph glyph-name="uni0666" unicode="&#x666;" horiz-adv-x="448" 
d="M20 631h123q103 0 159 -47t56 -132v-452h-84v440q0 57 -32.5 84t-98.5 27h-123v80z" />
    <glyph glyph-name="uni0667" unicode="&#x667;" horiz-adv-x="527" 
d="M502 631l-200 -631h-80l-197 631h85l152 -507l152 507h88z" />
    <glyph glyph-name="uni0668" unicode="&#x668;" horiz-adv-x="527" 
d="M417 0l-152 507l-152 -507h-88l200 631h80l197 -631h-85z" />
    <glyph glyph-name="uni0669" unicode="&#x669;" horiz-adv-x="553" 
d="M358.5 603q45.5 -28 70 -79t24.5 -118v-406h-84v247q-51 -20 -102 -20q-61 0 -108 24.5t-73 68.5t-26 102q0 59 25.5 106.5t69.5 75t99 27.5q59 0 104.5 -28zM320.5 311.5q23.5 4.5 48.5 17.5v77q0 68 -31 106.5t-84 38.5q-47 0 -78.5 -36.5t-31.5 -92.5q0 -55 32 -85
t91 -30q30 0 53.5 4.5z" />
    <glyph glyph-name="period" unicode="." horiz-adv-x="224" 
d="M70.5 5.5q-17.5 17.5 -17.5 41.5t17.5 41.5t41.5 17.5t41.5 -17.5t17.5 -41.5t-17.5 -41.5t-41.5 -17.5t-41.5 17.5z" />
    <glyph glyph-name="comma" unicode="," horiz-adv-x="207" 
d="M87 124h90l-67 -186h-90z" />
    <glyph glyph-name="colon" unicode=":" horiz-adv-x="238" 
d="M77.5 5.5q-17.5 17.5 -17.5 41.5t17.5 41.5t41.5 17.5t41.5 -17.5t17.5 -41.5t-17.5 -41.5t-41.5 -17.5t-41.5 17.5zM77.5 397.5q-17.5 17.5 -17.5 41.5t17.5 41.5t41.5 17.5t41.5 -17.5t17.5 -41.5t-17.5 -41.5t-41.5 -17.5t-41.5 17.5z" />
    <glyph glyph-name="semicolon" unicode=";" horiz-adv-x="238" 
d="M84.5 397.5q-17.5 17.5 -17.5 41.5t17.5 41.5t41.5 17.5t41.5 -17.5t17.5 -41.5t-17.5 -41.5t-41.5 -17.5t-41.5 17.5zM89 101h90l-67 -186h-90z" />
    <glyph glyph-name="ellipsis" unicode="&#x2026;" horiz-adv-x="584" 
d="M250.5 5.5q-17.5 17.5 -17.5 41.5t17.5 41.5t41.5 17.5t41.5 -17.5t17.5 -41.5t-17.5 -41.5t-41.5 -17.5t-41.5 17.5zM430.5 5.5q-17.5 17.5 -17.5 41.5t17.5 41.5t41.5 17.5t41.5 -17.5t17.5 -41.5t-17.5 -41.5t-41.5 -17.5t-41.5 17.5zM70.5 5.5q-17.5 17.5 -17.5 41.5
t17.5 41.5t41.5 17.5t41.5 -17.5t17.5 -41.5t-17.5 -41.5t-41.5 -17.5t-41.5 17.5z" />
    <glyph glyph-name="exclam" unicode="!" horiz-adv-x="250" 
d="M81 414v286h88v-286l-16 -216h-56zM83.5 5.5q-17.5 17.5 -17.5 41.5t17.5 41.5t41.5 17.5t41.5 -17.5t17.5 -41.5t-17.5 -41.5t-41.5 -17.5t-41.5 17.5z" />
    <glyph glyph-name="exclamdown" unicode="&#xa1;" horiz-adv-x="250" 
d="M166.5 484.5q17.5 -17.5 17.5 -41.5t-17.5 -41.5t-41.5 -17.5t-41.5 17.5t-17.5 41.5t17.5 41.5t41.5 17.5t41.5 -17.5zM153 292l16 -216v-286h-88v286l16 216h56z" />
    <glyph glyph-name="question" unicode="?" horiz-adv-x="454" 
d="M183 249q0 52 22 86t64 74q36 35 53.5 61t17.5 61q0 51 -32.5 77t-84.5 26q-46 0 -79.5 -27t-48.5 -68l-65 39q21 63 72.5 98.5t120.5 35.5q90 0 145.5 -47.5t55.5 -131.5q0 -54 -22 -88t-65 -74q-36 -33 -53 -57t-17 -59v-64h-84v58zM183.5 5.5q-17.5 17.5 -17.5 41.5
t17.5 41.5t41.5 17.5t41.5 -17.5t17.5 -41.5t-17.5 -41.5t-41.5 -17.5t-41.5 17.5z" />
    <glyph glyph-name="questiondown" unicode="&#xbf;" horiz-adv-x="478" 
d="M294.5 484.5q17.5 -17.5 17.5 -41.5t-17.5 -41.5t-41.5 -17.5t-41.5 17.5t-17.5 41.5t17.5 41.5t41.5 17.5t41.5 -17.5zM295 241q0 -52 -22 -86t-64 -74q-36 -35 -53.5 -61t-17.5 -61q0 -51 32.5 -77t84.5 -26q46 0 79.5 27t48.5 68l65 -39q-21 -63 -72.5 -98.5
t-120.5 -35.5q-90 0 -145.5 47.5t-55.5 131.5q0 54 22 88t65 74q36 33 53 57t17 59v64h84v-58z" />
    <glyph glyph-name="periodcentered" unicode="&#xb7;" horiz-adv-x="224" 
d="M70.5 283.5q-17.5 17.5 -17.5 41.5t17.5 41.5t41.5 17.5t41.5 -17.5t17.5 -41.5t-17.5 -41.5t-41.5 -17.5t-41.5 17.5z" />
    <glyph glyph-name="bullet" unicode="&#x2022;" horiz-adv-x="284" 
d="M74 282q-28 28 -28 68q0 41 28 68.5t68 27.5q41 0 68.5 -27.5t27.5 -68.5q0 -40 -27.5 -68t-68.5 -28q-40 0 -68 28z" />
    <glyph glyph-name="asterisk" unicode="*" horiz-adv-x="426" 
d="M334 487l48 -28l-30 -52l-48 28l-75 59l14 -94v-56h-60v56l14 94l-75 -59l-48 -28l-30 52l48 28l89 35l-89 35l-48 28l30 52l48 -28l75 -59l-14 94v56h60v-56l-14 -94l75 59l48 28l30 -52l-48 -28l-89 -35z" />
    <glyph glyph-name="numbersign" unicode="#" horiz-adv-x="676" 
d="M505 463v-226h123v-74h-123v-163h-74v163h-186v-163h-74v163h-123v74h123v226h-123v74h123v163h74v-163h186v163h74v-163h123v-74h-123zM431 463h-186v-226h186v226z" />
    <glyph glyph-name="slash" unicode="/" horiz-adv-x="485" 
d="M361 800h90l-327 -900h-90z" />
    <glyph glyph-name="backslash" unicode="\" horiz-adv-x="485" 
d="M34 800h90l327 -900h-90z" />
    <glyph glyph-name="parenleft" unicode="(" horiz-adv-x="337" 
d="M175.5 140.5q49.5 -92.5 121.5 -159.5l-56 -60q-87 74 -144 180t-57 249t57 249t144 180l56 -60q-72 -67 -121.5 -159.5t-49.5 -209.5t49.5 -209.5z" />
    <glyph glyph-name="parenright" unicode=")" horiz-adv-x="337" 
d="M240 599q57 -106 57 -249t-57 -249t-144 -180l-56 60q72 67 121.5 159.5t49.5 209.5t-49.5 209.5t-121.5 159.5l56 60q87 -74 144 -180z" />
    <glyph glyph-name="braceleft" unicode="{" horiz-adv-x="339" 
d="M154.5 -51.5q-46.5 44.5 -46.5 140.5v159q0 26 -14.5 40.5t-40.5 14.5h-13v98h13q26 0 40.5 14.5t14.5 40.5v159q0 96 46.5 140.5t138.5 44.5h16v-80h-30q-41 0 -63 -22t-22 -63v-188q0 -43 -17 -65.5t-58 -29.5q41 -7 58 -29.5t17 -65.5v-188q0 -41 22 -63t63 -22h30
v-80h-16q-92 0 -138.5 44.5z" />
    <glyph glyph-name="braceright" unicode="}" horiz-adv-x="339" 
d="M30 -16h30q41 0 63 22t22 63v188q0 43 17 65.5t58 29.5q-41 7 -58 29.5t-17 65.5v188q0 41 -22 63t-63 22h-30v80h16q92 0 138.5 -44.5t46.5 -140.5v-159q0 -26 14.5 -40.5t40.5 -14.5h13v-98h-13q-26 0 -40.5 -14.5t-14.5 -40.5v-159q0 -96 -46.5 -140.5t-138.5 -44.5
h-16v80z" />
    <glyph glyph-name="bracketleft" unicode="[" horiz-adv-x="285" 
d="M62 800h185v-80h-99v-740h107v-80h-193v900z" />
    <glyph glyph-name="bracketright" unicode="]" horiz-adv-x="285" 
d="M30 -20h107v740h-99v80h185v-900h-193v80z" />
    <glyph glyph-name="hyphen" unicode="-" horiz-adv-x="425" 
d="M50 343h315v-74h-315v74z" />
    <glyph glyph-name="uni00AD" unicode="&#xad;" horiz-adv-x="425" 
d="M50 343h315v-74h-315v74z" />
    <glyph glyph-name="endash" unicode="&#x2013;" horiz-adv-x="534" 
d="M60 343h414v-74h-414v74z" />
    <glyph glyph-name="emdash" unicode="&#x2014;" horiz-adv-x="784" 
d="M60 343h664v-74h-664v74z" />
    <glyph glyph-name="underscore" unicode="_" horiz-adv-x="505" 
d="M60 -12h385v-74h-385v74z" />
    <glyph glyph-name="quotesinglbase" unicode="&#x201a;" horiz-adv-x="198" 
d="M79 101h89l-59 -163h-89z" />
    <glyph glyph-name="quotedblbase" unicode="&#x201e;" horiz-adv-x="358" 
d="M89 100h89l-59 -163h-89zM239 100h89l-59 -163h-89z" />
    <glyph glyph-name="quotedblleft" unicode="&#x201c;" horiz-adv-x="358" 
d="M89 700h89l-59 -163h-89zM239 700h89l-59 -163h-89z" />
    <glyph glyph-name="quotedblright" unicode="&#x201d;" horiz-adv-x="358" 
d="M89 700h89l-59 -163h-89zM239 700h89l-59 -163h-89z" />
    <glyph glyph-name="quoteleft" unicode="&#x2018;" horiz-adv-x="208" 
d="M89 700h89l-59 -163h-89z" />
    <glyph glyph-name="quoteright" unicode="&#x2019;" horiz-adv-x="208" 
d="M119 537h-89l59 163h89z" />
    <glyph glyph-name="guillemotleft" unicode="&#xab;" horiz-adv-x="411" 
d="M40 268v12l97 168h84l-101 -174l101 -174h-84zM190 268v12l97 168h84l-101 -174l101 -174h-84z" />
    <glyph glyph-name="guillemotright" unicode="&#xbb;" horiz-adv-x="411" 
d="M40 100l101 174l-101 174h84l97 -168v-12l-97 -168h-84zM190 100l101 174l-101 174h84l97 -168v-12l-97 -168h-84z" />
    <glyph glyph-name="guilsinglleft" unicode="&#x2039;" horiz-adv-x="261" 
d="M40 268v12l97 168h84l-101 -174l101 -174h-84z" />
    <glyph glyph-name="guilsinglright" unicode="&#x203a;" horiz-adv-x="261" 
d="M40 100l101 174l-101 174h84l97 -168v-12l-97 -168h-84z" />
    <glyph glyph-name="quotedbl" unicode="&#x22;" horiz-adv-x="312" 
d="M40 634v66h82v-66l-12 -154h-58zM190 634v66h82v-66l-12 -154h-58z" />
    <glyph glyph-name="quotesingle" unicode="'" horiz-adv-x="162" 
d="M40 634v66h82v-66l-12 -154h-58z" />
    <glyph glyph-name="uni060C" unicode="&#x60c;" horiz-adv-x="217" 
d="M110 -62h-90l67 186h90z" />
    <glyph glyph-name="uni061B" unicode="&#x61b;" horiz-adv-x="247" 
d="M70.5 5.5q-17.5 17.5 -17.5 41.5t17.5 41.5t41.5 17.5t41.5 -17.5t17.5 -41.5t-17.5 -41.5t-41.5 -17.5t-41.5 17.5zM150 235h-90l67 186h90z" />
    <glyph glyph-name="uni061F" unicode="&#x61f;" horiz-adv-x="454" 
d="M187 191v64q0 35 -17 59t-53 57q-43 40 -65 74t-22 88q0 84 55.5 131.5t145.5 47.5q69 0 120.5 -35.5t72.5 -98.5l-65 -39q-15 41 -48.5 68t-79.5 27q-52 0 -84.5 -26t-32.5 -77q0 -35 17.5 -61t53.5 -61q42 -40 64 -74t22 -86v-58h-84zM187.5 5.5q-17.5 17.5 -17.5 41.5
t17.5 41.5t41.5 17.5t41.5 -17.5t17.5 -41.5t-17.5 -41.5t-41.5 -17.5t-41.5 17.5z" />
    <glyph glyph-name="uni066D" unicode="&#x66d;" horiz-adv-x="438" 
d="M340 487l48 -28l-30 -52l-48 28l-75 59l14 -94v-56h-60v56l14 94l-75 -59l-48 -28l-30 52l48 28l89 35l-89 35l-48 28l30 52l48 -28l75 -59l-14 94v56h60v-56l-14 -94l75 59l48 28l30 -52l-48 -28l-89 -35z" />
    <glyph glyph-name="uniFD3E" unicode="&#xfd3e;" horiz-adv-x="338" 
d="M119 637q52 82 123 142l56 -60q-135 -126 -164 -285l-85 14q18 107 70 189zM49.5 313.5q-14.5 14.5 -14.5 35.5q0 20 14.5 34.5t35.5 14.5q20 0 34.5 -14.5t14.5 -34.5q0 -21 -14.5 -35.5t-34.5 -14.5q-21 0 -35.5 14.5zM49 250l87 10q29 -155 162 -279l-56 -60
q-160 137 -193 329z" />
    <glyph glyph-name="uniFD3F" unicode="&#xfd3f;" horiz-adv-x="338" 
d="M204 434q-29 159 -164 285l56 60q71 -60 123 -142t70 -189zM218.5 313.5q-14.5 14.5 -14.5 35.5q0 20 14.5 34.5t34.5 14.5q21 0 35.5 -14.5t14.5 -34.5q0 -21 -14.5 -35.5t-35.5 -14.5q-20 0 -34.5 14.5zM40 -19q133 124 162 279l87 -10q-33 -192 -193 -329z" />
    <glyph glyph-name="uni00A0" unicode="&#xa0;" horiz-adv-x="230" 
 />
    <glyph glyph-name="cent" unicode="&#xa2;" horiz-adv-x="551" 
d="M427.5 133.5q-50.5 -32.5 -110.5 -39.5v-94h-60v95q-62 8 -110.5 43t-75.5 90t-27 122t27 122t75.5 90t110.5 43v95h60v-94q62 -6 109 -36.5t77 -82.5l-69 -47q-17 36 -47.5 58t-69.5 27v-350q40 7 71.5 30t51.5 58l67 -47q-29 -50 -79.5 -82.5zM163.5 232.5
q35.5 -45.5 93.5 -56.5v348q-58 -11 -93.5 -56.5t-35.5 -117.5t35.5 -117.5z" />
    <glyph glyph-name="currency" unicode="&#xa4;" horiz-adv-x="600" 
d="M475 229l100 -100l-52 -52l-101 101q-53 -33 -120 -33t-120 33l-101 -101l-52 52l100 100q-38 52 -38 121t38 121l-100 100l52 52l101 -101q53 33 120 33t120 -33l101 101l52 -52l-100 -100q38 -52 38 -121t-38 -121zM398.5 252q37.5 36 37.5 98t-37.5 98t-96.5 36
t-96.5 -36t-37.5 -98t37.5 -98t96.5 -36t96.5 36z" />
    <glyph glyph-name="dollar" unicode="$" horiz-adv-x="553" 
d="M482 93q-27 -45 -72 -71t-98 -32v-90h-60v90q-71 6 -125.5 44t-82.5 105l78 58q17 -48 50.5 -80t79.5 -40v255q-78 29 -129.5 77t-51.5 120q0 74 52 123t129 58v90h60v-89q68 -6 113 -38t72 -88l-73 -52q-38 80 -112 92v-226l17 -6q86 -31 133 -78.5t47 -119.5
q0 -57 -27 -102zM181.5 472.5q22.5 -25.5 70.5 -48.5v202q-40 -7 -66.5 -30.5t-26.5 -62.5q0 -35 22.5 -60.5zM389.5 109q27.5 28 27.5 79q0 43 -23.5 69.5t-81.5 51.5v-233q50 5 77.5 33z" />
    <glyph glyph-name="Euro" unicode="&#x20ac;" horiz-adv-x="738" 
d="M541 104q45 30 81 98l74 -52q-43 -79 -110.5 -120.5t-166.5 -41.5q-81 0 -150 32.5t-116 91.5t-66 138h-69l37 65h22q-1 11 -1 35t1 35h-56l37 65h30q19 79 66 138t114.5 91.5t147.5 32.5q102 0 172 -41.5t108 -118.5l-72 -49q-33 62 -81.5 92.5t-123.5 30.5
q-85 0 -147 -47.5t-88 -128.5h280l-37 -65h-255q-2 -22 -2 -35q0 -24 1 -35h290l-37 -65h-241q24 -83 85.5 -129.5t150.5 -46.5q77 0 122 30z" />
    <glyph glyph-name="florin" unicode="&#x192;" horiz-adv-x="320" 
d="M-121 -210l14 80q21 -11 46 -11q72 0 86 81l84 478h-60l13 72h59l11 60q29 162 164 162q39 0 66 -12l-14 -80q-21 11 -46 11q-72 0 -86 -81l-11 -60h115l-13 -72h-114l-84 -478q-29 -162 -164 -162q-39 0 -66 12z" />
    <glyph glyph-name="uni20B4" unicode="&#x20b4;" horiz-adv-x="616" 
d="M576 446v-65h-536v65h362q40 33 40 87q0 43 -35 69t-85 26q-46 0 -84.5 -23.5t-60.5 -71.5l-73 52q28 58 83.5 92.5t134.5 34.5q93 0 150.5 -44t57.5 -123q0 -54 -33 -99h79zM40 321h536v-65h-372q-20 -32 -20 -70q0 -53 37.5 -82.5t93.5 -29.5q58 0 96 29.5t64 85.5
l82 -50q-35 -74 -97.5 -112.5t-144.5 -38.5q-61 0 -112 22.5t-81 65t-30 100.5q0 45 19 80h-71v65z" />
    <glyph glyph-name="uni20BA" unicode="&#x20ba;" horiz-adv-x="604" 
d="M560 296q0 -296 -278 -296h-173v123l-83 -63v91l83 63v91l-80 -60v91l80 60v304h92v-234l144 108v-91l-144 -108v-92l141 106v-91l-141 -106v-106h81q101 0 144.5 53.5t43.5 156.5h90z" />
    <glyph glyph-name="uni20BD" unicode="&#x20bd;" horiz-adv-x="567" 
d="M176 286v-86h248v-74h-248v-126h-92v126h-58v74h58v500h215q108 0 171 -55t63 -152t-63 -152t-171 -55h-123zM176 372h128q64 0 100.5 32t36.5 89t-36.5 89t-100.5 32h-128v-242z" />
    <glyph glyph-name="sterling" unicode="&#xa3;" horiz-adv-x="608" 
d="M192 162.5q-7 -42.5 -24 -75.5l382 -1v-86h-343q-44 0 -66 -2t-52 -10l-29 47q23 24 33 53.5t12 64.5t2 112v52h-57v74h57v73q0 120 60 184.5t168 64.5q85 0 136.5 -37.5t83.5 -113.5l-80 -45q-19 49 -53 79.5t-87 30.5q-136 0 -136 -159v-77h179v-74h-179v-50
q0 -62 -7 -104.5z" />
    <glyph glyph-name="yen" unicode="&#xa5;" horiz-adv-x="600" 
d="M378 343h129v-64h-161v-66h161v-64h-161v-149h-92v149h-161v64h161v66h-161v64h129l-194 357h96l150 -289l23 -56h6l23 56l150 289h96z" />
    <glyph glyph-name="uni2219" unicode="&#x2219;" horiz-adv-x="284" 
d="M74 282q-28 28 -28 68q0 41 28 68.5t68 27.5q41 0 68.5 -27.5t27.5 -68.5q0 -40 -27.5 -68t-68.5 -28q-40 0 -68 28z" />
    <glyph glyph-name="uni2215" unicode="&#x2215;" horiz-adv-x="481" 
d="M361 800h86l-327 -900h-86z" />
    <glyph glyph-name="plus" unicode="+" horiz-adv-x="555" 
d="M503 279h-187v-186h-76v186h-188v76h188v189h76v-189h187v-76z" />
    <glyph glyph-name="minus" unicode="&#x2212;" horiz-adv-x="555" 
d="M52 355h451v-76h-451v76z" />
    <glyph glyph-name="multiply" unicode="&#xd7;" horiz-adv-x="538" 
d="M402 132l-133 133l-134 -133l-53 53l134 134l-133 132l54 54l133 -132l131 131l53 -54l-131 -131l133 -133z" />
    <glyph glyph-name="divide" unicode="&#xf7;" horiz-adv-x="555" 
d="M236.5 435.5q-17.5 17.5 -17.5 41.5t17.5 41.5t41.5 17.5t41.5 -17.5t17.5 -41.5t-17.5 -41.5t-41.5 -17.5t-41.5 17.5zM52 355h451v-76h-451v76zM236.5 114.5q-17.5 17.5 -17.5 41.5t17.5 41.5t41.5 17.5t41.5 -17.5t17.5 -41.5t-17.5 -41.5t-41.5 -17.5t-41.5 17.5z
" />
    <glyph glyph-name="equal" unicode="=" horiz-adv-x="555" 
d="M52 465h451v-76h-451v76zM52 261h451v-76h-451v76z" />
    <glyph glyph-name="notequal" unicode="&#x2260;" horiz-adv-x="555" 
d="M354 389l-74 -128h223v-76h-266l-83 -144l-60 35l63 109h-105v76h148l74 128h-222v76h266l83 145l60 -35l-63 -110h105v-76h-149z" />
    <glyph glyph-name="greater" unicode="&#x3e;" horiz-adv-x="543" 
d="M50 195l272 108l60 19v6l-60 19l-272 108v92l443 -177v-90l-443 -177v92z" />
    <glyph glyph-name="less" unicode="&#x3c;" horiz-adv-x="543" 
d="M50 280v90l443 177v-92l-272 -108l-60 -19v-6l60 -19l272 -108v-92z" />
    <glyph glyph-name="greaterequal" unicode="&#x2265;" horiz-adv-x="600" 
d="M60 233l272 98l60 19v6l-60 19l-272 98v92l443 -167v-90l-443 -167v92zM52 50h451v-76h-451v76z" />
    <glyph glyph-name="lessequal" unicode="&#x2264;" horiz-adv-x="600" 
d="M52 308v90l443 167v-92l-272 -98l-60 -19v-6l60 -19l272 -98v-92zM52 -26v76h451v-76h-451z" />
    <glyph glyph-name="plusminus" unicode="&#xb1;" horiz-adv-x="555" 
d="M503 397v-76h-187v-140h-76v140h-188v76h188v139h76v-139h187zM52 76h451v-76h-451v76z" />
    <glyph glyph-name="approxequal" unicode="&#x2248;" horiz-adv-x="482" 
d="M274 292.5q-18 7.5 -40 21.5q-18 12 -31 18t-29 6q-22 0 -36.5 -12.5t-14.5 -33.5h-79q0 60 34 96.5t86 36.5q25 0 42 -7.5t40 -21.5q17 -12 31 -18t30 -6q21 0 35.5 12.5t14.5 33.5h81q0 -60 -34.5 -96.5t-87.5 -36.5q-24 0 -42 7.5zM274 94.5q-18 7.5 -40 21.5
q-18 12 -31 18t-29 6q-22 0 -36.5 -12.5t-14.5 -33.5h-79q0 60 34 96.5t86 36.5q25 0 42 -7.5t40 -21.5q17 -12 31 -18t30 -6q21 0 35.5 12.5t14.5 33.5h81q0 -60 -34.5 -96.5t-87.5 -36.5q-24 0 -42 7.5z" />
    <glyph glyph-name="asciitilde" unicode="~" horiz-adv-x="482" 
d="M274 271.5q-18 7.5 -40 21.5q-18 12 -31 18t-29 6q-22 0 -36.5 -12.5t-14.5 -33.5h-79q0 60 34 96.5t86 36.5q25 0 42 -7.5t40 -21.5q17 -12 31 -18t30 -6q21 0 35.5 12.5t14.5 33.5h81q0 -60 -34.5 -96.5t-87.5 -36.5q-24 0 -42 7.5z" />
    <glyph glyph-name="logicalnot" unicode="&#xac;" horiz-adv-x="555" 
d="M427 279h-375v76h451v-262h-76v186z" />
    <glyph glyph-name="asciicircum" unicode="^" horiz-adv-x="458" 
d="M198 700h62l158 -249h-90l-81 126l-12 39h-12l-12 -39l-81 -126h-90z" />
    <glyph glyph-name="infinity" unicode="&#x221e;" horiz-adv-x="600" 
d="M544.5 376.5q35.5 -44.5 35.5 -104.5t-35.5 -104.5t-106.5 -44.5q-78 0 -138 70q-60 -70 -138 -70q-71 0 -106.5 44.5t-35.5 104.5t35.5 104.5t106.5 44.5q78 0 138 -70q60 70 138 70q71 0 106.5 -44.5zM227 209.5q26 20.5 43 52.5v20q-17 32 -43 52.5t-58 20.5
q-39 0 -61 -25t-22 -58t22 -58t61 -25q32 0 58 20.5zM491.5 213.5q21.5 24.5 21.5 58.5t-21.5 58.5t-60.5 24.5q-33 0 -59 -21t-42 -54v-16q16 -33 42 -54t59 -21q39 0 60.5 24.5z" />
    <glyph glyph-name="integral" unicode="&#x222b;" horiz-adv-x="320" 
d="M-121 -210l14 80q21 -11 46 -11q72 0 86 81l107 610q29 162 164 162q39 0 66 -12l-14 -80q-21 11 -46 11q-72 0 -86 -81l-107 -610q-29 -162 -164 -162q-39 0 -66 12z" />
    <glyph glyph-name="uni2126" unicode="&#x2126;" horiz-adv-x="742" 
d="M62 86h193v6q-55 19 -103 64t-77 109t-29 137q0 85 40.5 156t114.5 112.5t170 41.5t170 -41.5t114.5 -112.5t40.5 -156q0 -73 -29 -137t-77 -109t-103 -64v-6h193v-86h-261v144q89 31 136.5 98t47.5 159q0 69 -30 119.5t-82.5 78t-119.5 27.5t-119.5 -27.5t-82.5 -78
t-30 -119.5q0 -92 47.5 -159t136.5 -98v-144h-261v86z" />
    <glyph glyph-name="uni2206" unicode="&#x2206;" horiz-adv-x="706" 
d="M55 61l240 639h116l240 -639v-61h-596v61zM550 74l-170 464l-24 84h-6l-24 -84l-170 -464h394z" />
    <glyph glyph-name="product" unicode="&#x220f;" horiz-adv-x="642" 
d="M62 700h518v-910h-92v824h-334v-824h-92v910z" />
    <glyph glyph-name="summation" unicode="&#x2211;" horiz-adv-x="562" 
d="M60 1v42l180 307l-173 307v42l427 1v-86l-295 -1v-6l138 -257l-152 -257v-6l322 -1v-86z" />
    <glyph glyph-name="radical" unicode="&#x221a;" horiz-adv-x="616" 
d="M129 312h-104v72h170l80 -262h6l222 578h88l-275 -700h-84z" />
    <glyph glyph-name="uni00B5" unicode="&#xb5;" horiz-adv-x="579" 
d="M58 490h84v-292q0 -62 29 -96t85 -34q55 0 90 41.5t35 104.5v276h84v-377q0 -22 10.5 -33.5t28.5 -11.5q22 0 47 12v-77q-30 -15 -68 -15q-40 0 -64.5 23t-31.5 63h-6q-19 -38 -57.5 -62t-91.5 -24q-59 0 -90 30v-228h-84v700z" />
    <glyph glyph-name="partialdiff" unicode="&#x2202;" horiz-adv-x="594" 
d="M161.5 20.5q-55.5 32.5 -86.5 91t-31 133.5q0 74 31.5 132.5t85 91.5t115.5 33q56 0 102.5 -27t67.5 -67h6q0 32 -23 80.5t-68.5 99.5t-108.5 88l48 53q110 -69 175.5 -164t65.5 -234q0 -157 -64 -250t-190 -93q-70 0 -125.5 32.5zM415.5 125.5q36.5 57.5 36.5 159.5v19
q-36 60 -75.5 89t-88.5 29q-45 0 -81.5 -22t-57.5 -62.5t-21 -92.5t21 -92.5t58 -62.5t83 -22q89 0 125.5 57.5z" />
    <glyph glyph-name="percent" unicode="%" horiz-adv-x="722" 
d="M127 421.5q-36 19.5 -56.5 55.5t-20.5 81t20.5 80t56.5 54.5t79 19.5t79 -19.5t56.5 -54.5t20.5 -80t-20.5 -81t-56.5 -55.5t-79 -19.5t-79 19.5zM268.5 490.5q23.5 25.5 23.5 67.5q0 41 -23.5 66t-62.5 25t-62.5 -25t-23.5 -66q0 -42 23.5 -67.5t62.5 -25.5t62.5 25.5z
M95 204l494 349l38 -57l-494 -349zM437 7.5q-36 19.5 -56.5 55.5t-20.5 81t20.5 80t56.5 54.5t79 19.5t79 -19.5t56.5 -54.5t20.5 -80t-20.5 -81t-56.5 -55.5t-79 -19.5t-79 19.5zM578.5 76.5q23.5 25.5 23.5 67.5q0 41 -23.5 66t-62.5 25t-62.5 -25t-23.5 -66
q0 -42 23.5 -67.5t62.5 -25.5t62.5 25.5z" />
    <glyph glyph-name="perthousand" unicode="&#x2030;" horiz-adv-x="964" 
d="M341.5 477q-20.5 -36 -56.5 -55.5t-79 -19.5t-79 19.5t-56.5 55.5t-20.5 81t20.5 80t56.5 54.5t79 19.5t79 -19.5t56.5 -54.5t20.5 -80t-20.5 -81zM143.5 490.5q23.5 -25.5 62.5 -25.5t62.5 25.5t23.5 67.5q0 41 -23.5 66t-62.5 25t-62.5 -25t-23.5 -66q0 -42 23.5 -67.5
zM627 496l-494 -349l-38 57l494 349zM837 278.5q36 -19.5 56.5 -54.5t20.5 -80t-20.5 -81t-56.5 -55.5t-79 -19.5q-37 0 -68.5 14t-52.5 40q-21 -26 -52.5 -40t-68.5 -14q-43 0 -79 19.5t-56.5 55.5t-20.5 81t20.5 80t56.5 54.5t79 19.5q37 0 68.5 -14t52.5 -40
q21 26 52.5 40t68.5 14q43 0 79 -19.5zM578.5 76.5q23.5 25.5 23.5 67.5q0 41 -23.5 66t-62.5 25t-62.5 -25t-23.5 -66q0 -42 23.5 -67.5t62.5 -25.5t62.5 25.5zM820.5 76.5q23.5 25.5 23.5 67.5q0 41 -23.5 66t-62.5 25t-62.5 -25t-23.5 -66q0 -42 23.5 -67.5t62.5 -25.5
t62.5 25.5z" />
    <glyph glyph-name="arrowup" unicode="&#x2191;" horiz-adv-x="434" 
d="M182 508h-132l167 192l167 -192h-132v-588h-70v588z" />
    <glyph glyph-name="uni2197" unicode="&#x2197;" horiz-adv-x="676" 
d="M50 46l415 417l-93 93l254 18l-18 -254l-93 93l-415 -416z" />
    <glyph glyph-name="arrowright" unicode="&#x2192;" horiz-adv-x="880" 
d="M638 263l-588 -1v70l588 1v132l192 -167l-192 -167v132z" />
    <glyph glyph-name="uni2198" unicode="&#x2198;" horiz-adv-x="677" 
d="M373 40l93 93l-416 415l49 50l417 -415l93 93l18 -254z" />
    <glyph glyph-name="arrowdown" unicode="&#x2193;" horiz-adv-x="434" 
d="M50 112h132v588h70v-588h132l-167 -192z" />
    <glyph glyph-name="uni2199" unicode="&#x2199;" horiz-adv-x="677" 
d="M68 276l93 -93l417 415l49 -50l-416 -415l93 -93l-254 -18z" />
    <glyph glyph-name="arrowleft" unicode="&#x2190;" horiz-adv-x="880" 
d="M50 298l192 167v-132l588 -1v-70l-588 1v-132z" />
    <glyph glyph-name="uni2196" unicode="&#x2196;" horiz-adv-x="677" 
d="M161 437l-93 -93l-18 254l254 -18l-93 -93l416 -415l-49 -50z" />
    <glyph glyph-name="uni21A9" unicode="&#x21a9;" horiz-adv-x="851" 
d="M50 315l192 167v-132l413 -1q40 0 58 14.5t18 43.5t-18 43.5t-58 14.5h-118v70h116q71 0 109.5 -34t38.5 -94t-38.5 -94t-109.5 -34l-411 1v-132z" />
    <glyph glyph-name="uni21B0" unicode="&#x21b0;" horiz-adv-x="680" 
d="M630 382v-382h-70v312l-318 1v-132l-192 167l192 167v-132z" />
    <glyph glyph-name="uni21B1" unicode="&#x21b1;" horiz-adv-x="680" 
d="M438 181v132l-318 -1v-312h-70v382l388 1v132l192 -167z" />
    <glyph glyph-name="uni21B2" unicode="&#x21b2;" horiz-adv-x="680" 
d="M630 515v-382l-388 -1v-132l-192 167l192 167v-132l318 1v312h70z" />
    <glyph glyph-name="uni21B3" unicode="&#x21b3;" horiz-adv-x="680" 
d="M438 0v132l-388 1v382h70v-312l318 -1v132l192 -167z" />
    <glyph glyph-name="uni21B4" unicode="&#x21b4;" horiz-adv-x="615" 
d="M565 179l-167 -192l-167 192h132l-1 318h-312v70h382l1 -388h132z" />
    <glyph glyph-name="uni21C6" unicode="&#x21c6;" horiz-adv-x="910" 
d="M50 498l192 167v-132l588 -1v-70l-588 1v-132zM668 163l-588 -1v70l588 1v132l192 -167l-192 -167v132z" />
    <glyph glyph-name="uni25CF" unicode="&#x25cf;" horiz-adv-x="822" 
d="M230 37q-83 49 -131.5 132.5t-48.5 181.5t48.5 181t131.5 131.5t181 48.5t181 -48.5t131.5 -131.5t48.5 -181t-48.5 -181.5t-131.5 -132.5t-181 -49t-181 49z" />
    <glyph glyph-name="circle" unicode="&#x25cb;" horiz-adv-x="822" 
d="M230 37q-83 49 -131.5 132.5t-48.5 181.5t48.5 181t131.5 131.5t181 48.5t181 -48.5t131.5 -131.5t48.5 -181t-48.5 -181.5t-131.5 -132.5t-181 -49t-181 49zM553 104.5q65 38.5 103 104t38 142.5t-38 142t-103 103t-142 38t-142 -38t-103 -103t-38 -142t38 -142.5
t103 -104t142 -38.5t142 38.5z" />
    <glyph glyph-name="lozenge" unicode="&#x25ca;" horiz-adv-x="562" 
d="M32 350l193 350h112l193 -350l-193 -350h-112zM286 53l22 49l137 248l-137 248l-22 49h-6l-22 -49l-135 -248l135 -248l22 -49h6z" />
    <glyph glyph-name="filledbox" unicode="&#x25a0;" horiz-adv-x="800" 
d="M50 700h700v-700h-700v700z" />
    <glyph glyph-name="uni25A1" unicode="&#x25a1;" horiz-adv-x="800" 
d="M50 700h700v-700h-700v700zM672 78v544h-544v-544h544z" />
    <glyph glyph-name="triagup" unicode="&#x25b2;" horiz-adv-x="864" 
d="M432 700l382 -700h-764z" />
    <glyph glyph-name="uni25B3" unicode="&#x25b3;" horiz-adv-x="864" 
d="M432 700l382 -700h-764zM685 78l-253 464l-253 -464h506z" />
    <glyph glyph-name="uni262E" unicode="&#x262e;" horiz-adv-x="822" 
d="M230 37q-83 49 -131.5 132.5t-48.5 181.5t48.5 181t131.5 131.5t181 48.5t181 -48.5t131.5 -131.5t48.5 -181t-48.5 -181.5t-131.5 -132.5t-181 -49t-181 49zM372 391v240q-68 -9 -124 -48.5t-88 -100.5t-32 -131q0 -73 34 -135zM694 351q0 70 -32 131t-88 100.5
t-124 48.5v-240l210 -175q34 62 34 135zM372 294l-168 -138q33 -35 76 -57.5t92 -29.5v225zM542 98.5q43 22.5 76 57.5l-168 138v-225q49 7 92 29.5z" />
    <glyph glyph-name="uni2713" unicode="&#x2713;" horiz-adv-x="904" 
d="M50 216l49 57l173 -168l526 595l56 -49l-578 -651z" />
    <glyph glyph-name="uni2715" unicode="&#x2715;" horiz-adv-x="733" 
d="M50 49l267 301l-267 301l56 49l261 -294l260 294l56 -49l-267 -301l267 -301l-55 -49l-261 295l-262 -295z" />
    <glyph glyph-name="at" unicode="@" horiz-adv-x="818" 
d="M210 -9.5q-85 48.5 -132.5 135.5t-47.5 200q0 108 49.5 196t137 139t197.5 51q108 0 193 -45t133 -128.5t48 -193.5q0 -108 -41 -167t-115 -59q-41 0 -71 17t-44 48q-23 -26 -56.5 -41t-70.5 -15q-49 0 -89 25.5t-63 70.5t-23 100t23 100t64 70.5t91 25.5
q34 0 64.5 -12.5t50.5 -34.5v38h74v-272q0 -32 16.5 -43.5t33.5 -11.5q44 0 63.5 44.5t19.5 118.5q0 87 -39 152.5t-107.5 101t-154.5 35.5q-95 0 -163 -43.5t-102.5 -116.5t-34.5 -159q0 -77 35.5 -146t102 -111t156.5 -42q50 0 89.5 13.5t79.5 43.5l39 -63
q-45 -35 -96 -52.5t-118 -17.5q-107 0 -192 48.5zM480 233q32 35 32 91q0 55 -31.5 89.5t-80.5 34.5q-50 0 -81.5 -34.5t-31.5 -89.5t31 -90.5t80 -35.5q50 0 82 35z" />
    <glyph glyph-name="ampersand" unicode="&#x26;" horiz-adv-x="667" 
d="M118.5 42.5q-65.5 54.5 -65.5 153.5q0 61 32 105.5t79 62.5q-40 18 -68 61t-28 94q0 85 58.5 133t148.5 48h105v-86h-83q-77 0 -107 -30.5t-30 -73.5q0 -60 39.5 -83t97.5 -23h162v106h92v-106h76v-86h-76q0 -151 -64.5 -240.5t-194.5 -89.5q-108 0 -173.5 54.5z
M414.5 128.5q44.5 54.5 44.5 189.5h-165q-74 0 -111.5 -32t-37.5 -90q0 -54 39 -88t104 -34q82 0 126.5 54.5z" />
    <glyph glyph-name="paragraph" unicode="&#xb6;" horiz-adv-x="567" 
d="M505 -72h-84v692h-116v-692h-84v444q-84 0 -135.5 45.5t-51.5 120.5q0 73 51 117.5t136 44.5h284v-772z" />
    <glyph glyph-name="section" unicode="&#xa7;" horiz-adv-x="451" 
d="M114 19.5q-51 31.5 -70 79.5l70 49q16 -34 46 -57t70 -23q42 0 67.5 18t25.5 52q0 24 -12.5 39.5t-38.5 26.5t-75 25q-133 36 -133 138q0 34 15.5 60.5t42.5 43.5q-58 40 -58 106q0 43 24 73.5t62 46t79 15.5q60 0 102 -23.5t65 -67.5l-61 -44q-20 29 -45.5 43t-63.5 14
q-37 0 -59.5 -17t-22.5 -42q0 -29 29.5 -44.5t97.5 -35.5q66 -20 101 -53.5t35 -87.5q0 -65 -43 -115q43 -35 43 -95q0 -69 -49 -112.5t-126 -43.5q-67 0 -118 31.5zM315.5 310.5q7.5 14.5 7.5 37.5q0 24 -17 40t-41 25.5t-75 25.5q-46 -25 -46 -67q0 -24 16 -39t40.5 -24.5
t71.5 -23.5l21 -6q15 17 22.5 31.5z" />
    <glyph glyph-name="copyright" unicode="&#xa9;" horiz-adv-x="824" 
d="M230 36.5q-83 48.5 -131.5 131.5t-48.5 182t48.5 182t131.5 131.5t182 48.5t182 -48.5t131.5 -131.5t48.5 -182t-48.5 -182t-131.5 -131.5t-182 -48.5t-182 48.5zM561.5 91q67.5 40 106.5 108.5t39 150.5t-39 150.5t-106.5 108.5t-149.5 40t-149.5 -40t-106.5 -108.5
t-39 -150.5t39 -150.5t106.5 -108.5t149.5 -40t149.5 40zM317 188.5q-43 23.5 -67.5 66t-24.5 95.5t24.5 95.5t68 66.5t98.5 24q100 0 149 -69l-59 -40q-33 42 -89 42q-51 0 -85 -33.5t-34 -85.5q0 -51 33 -85t83 -34q66 0 96 44l55 -40q-52 -70 -151 -70q-54 0 -97 23.5z
" />
    </font>
</defs>
</svg>
